<svg fill="none" height="440" viewBox="0 0 678 440" width="678" xmlns="http://www.w3.org/2000/svg" xmlns:xlink="http://www.w3.org/1999/xlink"><linearGradient id="a" gradientUnits="userSpaceOnUse" x1="245.183" x2="249.776" y1="128.601" y2="126.859"><stop offset="0" stop-color="#61c7c7"/><stop offset="1" stop-color="#54b9c7"/></linearGradient><linearGradient id="b" gradientUnits="userSpaceOnUse" x1="251.009" x2="252.249" y1="241.786" y2="256.312"><stop offset="0" stop-color="#ffc285"/><stop offset="1" stop-color="#db8d6b"/></linearGradient><linearGradient id="c" gradientUnits="userSpaceOnUse" x1="238.786" x2="264.969" y1="256.656" y2="243.831"><stop offset="0" stop-color="#d67569"/><stop offset="1" stop-color="#e39e7f"/></linearGradient><linearGradient id="d" gradientUnits="userSpaceOnUse" x1="200.75" x2="200.75" y1="384.614" y2="417.934"><stop offset="0" stop-color="#ed9653"/><stop offset="1" stop-color="#f0a85e"/></linearGradient><mask id="e" height="28" maskUnits="userSpaceOnUse" width="28" x="241" y="112"><circle cx="255" cy="126" fill="#c4c4c4" r="14"/></mask><mask id="f" height="28" maskUnits="userSpaceOnUse" width="28" x="241" y="76"><circle cx="255" cy="90" fill="#c4c4c4" r="14"/></mask><mask id="g" height="28" maskUnits="userSpaceOnUse" width="28" x="241" y="239"><circle cx="255" cy="253" fill="#c4c4c4" r="14"/></mask><mask id="h" height="28" maskUnits="userSpaceOnUse" width="28" x="241" y="203"><circle cx="255" cy="217" fill="#c4c4c4" r="14"/></mask><mask id="i" height="108" maskUnits="userSpaceOnUse" width="108" x="452" y="139"><circle cx="506" cy="193" fill="#c4c4c4" r="54"/></mask><mask id="j" height="28" maskUnits="userSpaceOnUse" width="28" x="241" y="332"><circle cx="255" cy="346" fill="#c4c4c4" r="14"/></mask><rect fill="#292841" height="369" rx="8" width="270" x="216" y="18"/><rect fill="#807cef" fill-opacity=".09" height="38" rx="4" width="226" x="236" y="198"/><g mask="url(#e)"><circle cx="255" cy="126" fill="#cfdeff" r="14"/><path d="m270.647 144.788c-.266-.656-.705-1.228-1.271-1.654-.566-.425-1.237-.689-1.941-.763l-1.471-.155c-2.109-7.601-1.043-9.327-7.271-11.032l-5.041-.178s-5.123.086-7.007 2.609l2.635 8.637s-1.079 5.733-.588 8.64l6.566-.848 2.846 9.209c10.729-1.593 15.727-6.566 15.727-6.566z" fill="#cfdeff"/><path d="m247.847 131.687c7.149 6.696 13.609 11.272 12.522.708z" fill="#b8c5ff"/><path d="m251.356 132.477c6.224 2.925 7.84 4.029 7.432.514z" fill="#5697b0"/><path d="m264.79 137.395c-.758-3.194-1.327-4.571-4.515-5.724.858 2.007 1.231 6.148 1.231 6.148z" fill="#fff"/><path d="m254.165 121.962-.228-1.766c-.077-.576-.335-1.113-.737-1.532-.402-.42-.927-.702-1.499-.803-.628-.11-1.275.005-1.827.325-.553.319-.975.823-1.193 1.423-.801 2.175-2.053 5.674-2.916 8.617-1.374 4.69 4.843 5.775 10.953 5.308 6.109-.466 6.684-3.142 5.839-7.015-.542-2.416-1.229-4.883-1.657-6.416-.131-.428-.384-.808-.728-1.095-.343-.287-.763-.467-1.207-.52-.499-.058-1.002.052-1.431.311-.429.26-.759.655-.939 1.123l-.687 1.815z" fill="#7ce4cc"/><path d="m261.737 128.374-.434-.151-2.225.771-2.264.292-3.923-.783s-2.157-3.335-2 .374c.123 2.562 1.211 4.033 1.874 4.707 1.316.06 2.636.036 3.95-.073.991-.055 1.974-.22 2.929-.493.661-.937 1.727-2.663 2.093-4.644z" fill="#aafae7"/><path d="m250.827 128.563c-.504-1.409-1.416-4.375-1.038-6.611.379-2.236.879-4.073 1.912-4.091-.628-.11-1.275.005-1.827.325-.553.319-.975.823-1.193 1.423-.801 2.175-2.053 5.674-2.916 8.617-1.232 4.188 3.61 5.496 9.03 5.395-1.176-.193-2.67-1.428-3.968-5.058z" fill="url(#a)" opacity=".74"/><path d="m254.795 133.621-.436.01-.413.008-.649-.032-.204.027-.326-.027c-.659-.652-1.747-2.123-1.871-4.685-.009-.046-.007-.094.006-.139 1.274 3.45 2.743 4.664 3.893 4.838z" fill="#aafae7"/><path d="m261.203 127.983-.003.517c-2.38 1.557-2.767 1.988-8.9.062l-.062-.481.266.075c5.193 1.313 6.185 1.429 8.699-.173z" fill="#2c4661"/><path d="m251.817 129.993c.802-.223 1.249-1.133.999-2.032-.251-.899-1.103-1.446-1.905-1.223s-1.249 1.133-.999 2.031c.251.899 1.103 1.447 1.905 1.224z" fill="#738eff"/><path d="m262.349 128.128c.163-.777-.065-1.483-.51-1.576-.444-.093-.936.462-1.099 1.239s.065 1.483.509 1.576c.444.094.937-.461 1.1-1.239z" fill="#738eff"/><path d="m256.265 126.641c-.114-.17.078-.287.231-.353.061-.023.129-.027.193-.01.064.016.121.052.164.102l.581.754c.168.232-.084.241-.334.089s-.661-.306-.835-.582z" fill="#284e7a" opacity=".41"/><path d="m258.866 126.995.177-.414c.031-.071.04-.149.026-.226-.014-.076-.05-.146-.105-.201l-.079-.082c-.008-.009-.017-.015-.028-.019-.01-.004-.021-.006-.033-.004-.011.001-.022.006-.031.012-.009.007-.016.015-.021.026-.109.295-.193.598-.252.907-.027.326.177.299.346.001z" fill="#284e7a" opacity=".41"/><path d="m256.349 122.118-2.184-.156 1.743-.225.687-1.815c.18-.468.51-.863.939-1.122.429-.26.932-.37 1.431-.312l.425.083c-1.037-.188-1.389 1.008-1.593 2.462-.104.796-.075 1.207-1.448 1.085z" fill="#61c7c7"/><path d="m260.423 121.786c.004-.555-.362-1.007-.816-1.009-.454-.003-.824.444-.827.999-.004.555.361 1.007.815 1.01.454.002.825-.445.828-1z" fill="#21354a"/><path d="m252.737 121.454c.055-.552-.267-1.036-.719-1.081-.452-.044-.862.367-.917.919-.054.552.268 1.036.719 1.081.452.044.863-.367.917-.919z" fill="#21354a"/><path d="m249.28 142.252c.946.016 2.151-.094 3.227-.14-.02-.43.018-.861.111-1.281.165-.705.417-1.387.751-2.03-.861-.073-1.906-.146-2.762-.173-.178-4.236-2.408-6.526-3.638-5.355-.583.554-.937 1.306-.993 2.108-.032.649.035 1.699-.004 1.935-.107.773-.653 1.005.016 2.438.345.715-.302 2.479 3.292 2.498z" fill="#fff"/><path d="m252.229 118.023c.877.554 1.098 1.907 1.168 2.45.07.544.196 1.517.228 1.766s.112.331.943.707.484.007.106-.428l-.509-.556-.228-1.766c-.065-.482-.257-.938-.557-1.32-.301-.382-.698-.677-1.151-.853z" fill="#d4ffdc"/><path d="m259.949 121.123c.315.121.386.848.073.566-.312-.281-.506-.717-.073-.566z" fill="#335a70"/><path d="m252.344 120.701c.292.123.366.874.073.566-.293-.307-.529-.714-.073-.566z" fill="#335a70"/><path d="m252.28 129.049c.301-.159.325-.704.054-1.216-.271-.513-.734-.8-1.035-.641s-.326.704-.055 1.217.735.799 1.036.64z" fill="#b2a6ff"/><path d="m262.329 127.51c0-.365-.143-.662-.319-.662-.177 0-.32.296-.32.662-.001.366.142.662.319.662.176 0 .32-.296.32-.662z" fill="#b2a6ff"/><path d="m260.027 119.226c.488.397.627 1.116.079.611-.549-.504-.67-1.087-.079-.611z" fill="#d4ffdc"/></g><path d="m464 51.1111h-7.111v-7.1111h-1.778v7.1111h-7.111v1.7778h7.111v7.1111h1.778v-7.1111h7.111z" fill="#8684bd"/><g mask="url(#f)"><circle cx="255" cy="90" fill="#628bf7" r="14"/><path d="m251.917 66.105 10.381 19.4649c.24.4368.333.9398.264 1.4337-.07.4939-.297.952-.649 1.3057l-.144.1442c-1.715 1.7936-3.862 3.1158-6.236 3.8396-2.373.7239-4.893.825-7.317.2937-.352-.0764-.668-.2703-.895-.5498s-.352-.628-.355-.9882l-.48-23.5019c-.048-8.8914.384-10.8619 5.431-1.4419z" fill="#33beb5"/><path d="m261.769 88.4535c.377-.3976.621-.9025.699-1.445.077-.5424-.016-1.0955-.266-1.5828l-10.285-19.3207c-2.452-4.5658-3.797-6.4882-4.566-6.1518 1.97 13.6494 6.007 31.4321 6.007 31.4321l2.788.6728c2.132-.7415 4.059-1.9766 5.623-3.6046z" fill="#33a2be"/><path d="m259.27 79.8986c-.625-1.1535-.913-1.538-1.202-.9612-4.277-6.8247-6.344-5.479-6.344 1.1534 0 0-2.979-1.586-2.643 4.2775-.425-.1147-.875-.0875-1.283.0773-.408.1649-.75.4583-.976.8359l.144 5.7673c.003.3077.096.6078.267.8638.17.256.412.4569.694.578 2.545.4047 5.148.2162 7.607-.5508 2.46-.7669 4.708-2.0917 6.572-3.8708.264-.3562.422-.7797.456-1.2219.034-.4421-.058-.8849-.264-1.2773z" fill="#f7e5bc"/><path d="m262.298 85.5698-3.028-5.6712c-.625-1.1535-.913-1.538-1.202-.9612-4.277-6.8247-6.344-5.479-6.344 1.1534-.253-.1283-.533-.1942-.817-.1922.817.1922.865 1.0093 1.346 2.7875.481 1.7783.817 3.3643.817 3.3643l7.594 3.2201c.513-.3596.995-.7615 1.442-1.2015.264-.3562.422-.7798.456-1.2219s-.058-.8849-.264-1.2773z" fill="#f7d197"/><path d="m261.961 85.8102c-3.652-3.9411-6.92-5.3349-14.322 5.4789-.072.1161-.116.2476-.128.3839-.011.1362.01.2733.061.3999.052.1266.133.2392.236.3285.104.0894.227.1529.36.1854 2.431.526 4.957.4224 7.337-.3009 2.38-.7234 4.536-2.0425 6.264-3.8324l.144-.1442.337-.4325c.183-.3289.254-.7087.202-1.0817s-.224-.7188-.491-.9849z" fill="#242236"/><path d="m261.337 89.1744-.962-4.9023c-2.691-2.2108-5.527-2.2588-10.285 3.7008l1.971 4.6619c3.343-.3128 6.544-1.5068 9.276-3.4604z" fill="#9e4b34"/><path d="m261.577 88.9821-3.509-.2883-.48 1.3457-.865-1.8744c-.817-1.9225-.865-1.8744-1.586-.2403s-3.941 1.0573-3.941 1.0573l-.673-1.4899c4.181-5.0464 6.824-5.3348 9.276-3.6526z" fill="#7a2f28"/><path d="m245.669 95.6627.624-1.6341c.136-.3225.346-.6083.613-.8339.268-.2256.585-.3845.925-.4637l2.451-.4807 9.709-.1922 5.287 2.6914c.215.1051.401.2605.543.4529s.236.4162.274.6525l.192 1.2496 2.547 1.6822c.141.0912.253.2216.321.3753.068.1536.091.3238.064.4898-.673 5.8632-6.681 14.8032-15.044 10.8142-6.248-2.98-12.015-7.306-14.802-9.517l-1.058 1.442c-.288-1.394-.048-1.922.865-2.6431.293-.1985.566-.4238.817-.6729.084-.2316.133-.4747.145-.7209.24-1.1054 0-1.3937 1.297-1.6821z" fill="#33beb5"/><path d="m250.33 92.8271c-2.258.3845-3.508.3365 0 2.4031 3.509 2.0666 0-2.4031 0-2.4031z" fill="#1e6470"/><path d="m256.53 85.8582.385 1.7302c.048.0481.096.1442.192.1442l.721.0961-.625-1.4418v-.0961l.144-1.0093-.672.3845z" fill="#66251f"/><path d="m253.07 87.5884 1.298.1922c-.481.7209-1.058.6248-1.298-.1922z" fill="#5e221d"/><path d="m257.828 87.1078 1.298-.3845c-.144.8651-.721 1.0093-1.298.3845z" fill="#5e221d"/><path d="m253.935 87.8288c.212 0 .385-.3013.385-.6729s-.173-.6729-.385-.6729-.384.3013-.384.6729.172.6729.384.6729z" fill="#000"/><path d="m258.549 86.9636c.212 0 .384-.3012.384-.6728s-.172-.6729-.384-.6729-.384.3013-.384.6729.172.6728.384.6728z" fill="#000"/><path d="m259.799 83.8396 1.057.817c.384 1.0574.529 2.5473.913 3.7969.385 1.2496.913 3.124.673 4.1813-.24 1.0574-.048 1.1535.625 2.4992s1.922 2.7876 1.49 4.4216c.721 1.1054.48 1.7784.288 2.7874s-1.009 3.701-2.836 3.653c-.616.86-1.479 1.513-2.474 1.874-.995.36-2.076.411-3.101.144-2.931-.72-5.863-2.739-5.527-5.382-.961-.769-.769-2.788-.625-3.8934.103-.9824-.045-1.9748-.432-2.8837-.337-.9612-.337-1.9224-.048-3.941-.337-.8354-.579-1.7059-.721-2.5953l1.442-1.8744.673 1.538c.322.6413.611 1.299.865 1.9705.242-.1062.505-.1555.769-.1442.178-.3699.449-.6879.785-.9235.337-.2356.728-.381 1.137-.4222l2.836.5767.48-1.3457c1.346-.1923 2.019-.1923 2.5.1442.254-.7601.287-1.5768.096-2.355-.241-.9132-.865-2.6434-.865-2.6434z" fill="#fff"/><path d="m257.828 91.1449-1.105-.2403c-.529-.1442-.481-.1922-1.971-1.4418l2.836.5767.48-1.3457c1.346-.1923 2.019-.1923 2.5.1442.254-.7601.287-1.5768.096-2.355-.241-.9132-.865-2.6434-.865-2.6434l1.009.817c.432 1.0574.577 2.5473.961 3.7969.385 1.2496.913 3.124.673 4.1813-.24 1.0574-.048 1.1535.625 2.4992s1.922 2.7876 1.49 4.4216c.721 1.1054.48 1.7784.288 2.7874s-1.009 3.701-2.836 3.653c-.616.86-1.479 1.513-2.474 1.874-.995.36-2.076.411-3.101.144-2.931-.72-5.863-2.739-5.527-5.382.913 2.499 2.836 2.018 2.836 2.018 1.168-.252 2.362-.365 3.556-.336.673-1.202 1.49-2.355 2.163-2.836 1.442-2.7394.337-5.6711-.336-7.3052z" fill="#d6dfff"/><path d="m257.828 91.145c.721.1442.673-.4806.625-1.1054-.026-.4716-.158-.9314-.385-1.3458l-.48 1.3458-2.836-.5768c1.49 1.2496 1.442 1.2977 1.971 1.4419z" fill="#cad5fc"/><path d="m252.397 86.7714 2.644-.769c-.224-.1264-.47-.2068-.725-.2364-.255-.0297-.513-.0081-.759.0636-.247.0716-.476.1919-.675.3536-.199.1618-.364.3617-.485.5882z" fill="#cfdeff"/><path d="m256.963 85.714 2.739-.5286c-.436-.2815-.965-.3837-1.475-.2852-.511.0985-.963.39-1.264.8138z" fill="#cfdeff"/><path d="m258.982 92.1542c-.01.18-.083.3508-.206.4826-.123.1317-.288.2161-.467.2384-2.884.3845-4.134-.2884-4.614-.6729-.058-.0545-.102-.1226-.127-.1981s-.031-.1561-.017-.2345v-.0961c1.538.5287 3.844.2884 4.373.1923.529-.0962.337-.2403.289-.4806.101 0 .201.0198.294.0585.093.0386.178.0953.249.1667.072.0714.128.1562.167.2495s.059.1933.059.2942z" fill="#de5d70"/><path d="m255.449 79.5107c.479-.2294.532-1.114.12-1.9757-.413-.8618-1.136-1.3744-1.615-1.145-.479.2293-.532 1.1139-.119 1.9757.413.8617 1.136 1.3744 1.614 1.145z" fill="#ff9ccd"/><path d="m255.569 77.4955c-.384-.8651-1.153-1.3938-1.634-1.1535-.057.0295-.108.0702-.149.1198-.042.0495-.073.1069-.091.1686.817-.0481.384.9132 1.874.8651z" fill="#ffebf5"/><path d="m253.551 77.2072c.01.3957.092.7864.24 1.1534l.192.2884c.144-.0481.481-.1442.625.0961s.336.6729.865.769c.13-.1018.233-.2339.3-.3847s.096-.3158.085-.4804h-.145c-1.009 0-1.586-1.0574-2.162-1.4418z" fill="#ff70b7"/><path d="m250.523 82.6381c.265 0 .48-.2797.48-.6248 0-.345-.215-.6248-.48-.6248-.266 0-.481.2798-.481.6248 0 .3451.215.6248.481.6248z" fill="#f7d197"/><path d="m247.975 86.7713c.266 0 .481-.2797.481-.6248 0-.345-.215-.6248-.481-.6248-.265 0-.48.2798-.48.6248 0 .3451.215.6248.48.6248z" fill="#f7d197"/><path d="m249.081 89.3186c.142.7491.335 1.4877.577 2.2108 0-.5767.24-1.2496.624-1.3938.385-.1441.433-1.1054.914-1.1534l-.673-1.538z" fill="#a8c3ff"/><path d="m259.318 94.6534c1.202 1.2016 1.634 2.0667 1.73 2.7395-.489-.1786-.944-.4386-1.346-.7689z" fill="#fff"/><path d="m254.704 85.1373c1.058-.3182 2.133-.575 3.22-.769-1.73-.1923-2.691.0961-3.22.769z" fill="#66251f"/><path d="m255.809 87.2039c.01.2219.067.4393.166.638.1.1987.24.3743.411.5155.24.1922.048-.1442-.24-.769s-.433-.769-.337-.3845z" fill="#c27059"/></g><path d="m284.264 96-.288-1.888h-3.68v-9.152h-2.128v11.04zm7.998-3.872c0-2.512-1.536-4.016-3.648-4.016-2.096 0-3.632 1.52-3.632 4.032s1.52 4.016 3.616 4.016c2.112 0 3.664-1.52 3.664-4.032zm-1.872.016c0 1.44-.608 2.448-1.792 2.448-1.12 0-1.744-1.04-1.744-2.464s.608-2.448 1.744-2.448c1.152 0 1.792 1.04 1.792 2.464zm9.254 3.264-.256-1.648c-.704.544-1.36.736-2.032.736-1.12 0-2-.768-2-2.368 0-1.536.8-2.352 1.936-2.352.768 0 1.376.256 2 .72l.272-1.728c-.56-.352-1.36-.656-2.368-.656-2.096 0-3.776 1.376-3.776 4.064 0 2.528 1.52 3.968 3.664 3.968 1.024 0 1.824-.24 2.56-.736zm6.271.704 2.048-.304-3.024-4.048 2.848-3.488h-2.176l-2.512 3.2v-7.024l-1.92.304v11.248h1.92v-3.84zm6.039-6.672c.928 0 1.408.672 1.536 1.872h-3.088c.144-1.248.784-1.872 1.552-1.872zm3.392 5.776-.224-1.504c-.848.592-1.664.96-2.656.96-1.184 0-2-.656-2.08-2.16h4.96c0-.112.016-.304.016-.464 0-2.192-1.04-3.936-3.36-3.936-2.016 0-3.52 1.52-3.52 4.032 0 2.784 1.616 4.016 3.776 4.016 1.248 0 2.256-.368 3.088-.944z" fill="#dcddde"/><g mask="url(#g)"><circle cx="255" cy="253" fill="#ff82a6" r="14"/><path d="m262.911 242.282-.041.12-.123.292-.041.119-.095.213c-2.09 4.87-6.101 8.46-8.758 10.955-2.752 2.572-5.85 4.748-9.202 6.464-3.303 1.585-4.796.161-4.428-2.54l.331-1.355 1.627-6.832.069-.333c1.102-4.452 2.801-7.008 8.326-8.388l8.406-2.063.027-.013c2.936-.708 4.979.28 3.902 3.361z" fill="url(#b)"/><path d="m262.045 238.959c-2.667.445-7.66 3.653-12.613 8.367s-8.737 9.917-9.078 12.472c.469 1.362 1.904 1.786 4.297.647 3.352-1.716 6.45-3.892 9.202-6.464 2.657-2.495 6.668-6.085 8.759-10.955l.094-.213.041-.119.123-.292.041-.12c.64-1.806.21-2.888-.866-3.323z" fill="url(#c)"/><path d="m254.132 252.221c4.808-4.562 7.998-9.005 7.127-9.924-.872-.918-5.476 2.035-10.284 6.597-4.807 4.563-7.998 9.005-7.126 9.924.871.919 5.475-2.035 10.283-6.597z" fill="#6b3143"/><path d="m253.123 260.141-1.273.922c-.307.204-.564.474-.754.791-.189.316-.305.671-.339 1.038l-.214 1.663-2.24 2.059c-.469.461-.746 1.082-.774 1.739l.014 1.584s12.252 6.533 18.841 5.361c6.588-1.171 2.578-12.471 2.578-12.471-.058-.11-.146-.203-.253-.267-.108-.064-.231-.098-.356-.097l-1.957-.136-.835-2.044c-.077-.19-.2-.358-.356-.489-.157-.131-.344-.222-.544-.265l-5.77-1.219z" fill="#ef6270"/><path d="m253.402 263.553c-1.756-.334-1.636-.293-1.137-1.101.286-.5.704-.912 1.209-1.189z" fill="#bd3c53"/><path d="m256.091 247.314c-.211-.228-1.98 1.036-3.939 2.858s-3.371 3.475-3.16 3.703c2.355 3.588 3.925 6.997 4.41 9.678l9.573 1.876c-.517-8.501-4.491-14.313-6.884-18.115z" fill="#ffb685"/><path d="m259.734 254.872c-.081-.302-.313-.503-.52-.448s-.309.345-.229.647c.081.302.313.502.52.447s.309-.344.229-.646z" fill="#543247"/><path d="m256.59 256.655c.15-.216.041-.551-.243-.748-.284-.196-.635-.18-.785.036s-.041.551.243.748c.284.196.635.18.785-.036z" fill="#543247"/><path d="m258.561 259.6c.802-.393 1.538-.787 1.883-.691.346.096.194.734-.184 1.45-.379.716-.27.398-1.147.164s-1.167-.622-.552-.923z" fill="#c74153"/><path d="m258.895 259.469-.616.435c.025.253.382.509.834.619s.971.154 1.147-.164l.162-.345c-.225-.188-.847-.646-1.527-.545z" fill="#a82c3c"/><path d="m260.112 258.906c-.537.185-1.056.417-1.551.694-.348.17-.322.357-.164.544l1.844-.837c.107-.052-.024-.253-.129-.401z" fill="#fff"/><path d="m262.436 256.408c.014-.039-.013-.093.001-.133-.032-.27-.146-.523-.328-.725-.183-.202-.423-.343-.688-.402.064.058.114.129.147.209s.047.166.041.252-.032.17-.075.244c-.043.075-.102.139-.174.187-.257.147-.545.232-.841.246-.385.043-.756.17-1.087.373-.33.202-.613.474-.827.797-1.358-.064-1.831.797-2.794 1.269-.259.134-.539.227-.827.273-.947.165-1.104-.222-1.126-.742-1.046.844-.39 2.048.42 2.348.478.23 1.118.115 1.788-.412 1.661.413 2.249.191 3.207-1.372 1.582.385 2.599-.245 2.678-1.71.133-.067.247-.166.332-.289.084-.123.137-.264.153-.413z" fill="#6b3143"/><path d="m259.273 258.82c1.582.385 2.599-.245 2.678-1.71.133-.067.247-.166.332-.289.084-.123.137-.264.153-.413.014-.04-.013-.093.001-.133-.027-.138-.071-.273-.13-.4.019.22-.046.44-.18.616s-.329.296-.547.337c-.475 1.061-1.435 1.266-2.539 1.044 0 0-1.239 1.735-2.954 1.348-1.206.989-2.497.858-2.769-.103-.025.319.056.637.229.906.173.268.43.472.731.58.478.231 1.118.116 1.788-.411 1.661.413 2.249.191 3.207-1.372z" fill="#5e2737"/></g><path d="m286.216 258.248-.288-1.856c-.848.56-1.76.96-2.8.96-1.984 0-3.232-1.472-3.232-3.872 0-2.384 1.2-3.888 3.2-3.888 1.072 0 1.92.432 2.64.976l.304-2c-.816-.512-1.776-.8-3.024-.8-3.216 0-5.28 2.304-5.28 5.728 0 3.44 2.016 5.696 5.216 5.696 1.264 0 2.4-.384 3.264-.944zm5.843-1.376c-.528.512-1.152.832-1.808.832-.592 0-.944-.336-.944-.896 0-.736.528-1.392 2.752-1.664zm1.92 2.128v-5.296c0-1.856-.992-2.592-2.992-2.592-1.232 0-2.176.272-3.072.624l.24 1.536c.832-.368 1.68-.624 2.576-.624.848 0 1.328.32 1.328 1.152v.224c-3.12.304-4.656 1.12-4.656 2.992 0 1.344.88 2.144 2.192 2.144 1.152 0 1.952-.512 2.576-1.168l.16 1.008zm7.055-3.968c0 1.696-.752 2.512-1.744 2.512-.656 0-1.024-.112-1.488-.336v-3.312c.512-.656 1.056-1.088 1.744-1.088.864 0 1.488.736 1.488 2.224zm1.936-.112c0-2.592-1.296-3.808-2.912-3.808-1.072 0-1.824.592-2.368 1.216l-.176-1.056h-1.632v10.704l1.92-.288v-2.912c.464.176 1.056.304 1.792.304 1.776 0 3.376-1.28 3.376-4.16z" fill="#dcddde"/><g mask="url(#h)"><circle cx="255" cy="217" fill="#ffb869" r="14"/><path d="m247.816 221.572c1.633 5.682 8.207 9.618 13.48 5.905 5.273-3.714.037-11.327.037-11.327s2.859-7.204-4.308-8.912c-7.167-1.709-8.95 1.411-9.209 14.334z" fill="#4d7ae8"/><path d="m258.436 217.413c-.8 0-1.448-.865-1.448-1.931 0-1.067.648-1.931 1.448-1.931s1.449.864 1.449 1.931c0 1.066-.649 1.931-1.449 1.931z" fill="#dbe7ff"/><path d="m259.057 216.948c-.204-.014-.348-.34-.322-.729s.214-.693.418-.679c.205.014.349.341.323.729-.027.389-.214.693-.419.679z" fill="#201e2f"/><path d="m260.107 211.88c-.096-.289-.28-.54-.527-.717-.247-.178-.542-.274-.847-.274-.304 0-.6.096-.847.274-.246.177-.431.428-.527.717z" fill="#201e2f"/><path d="m259.959 220.087c-1.411.371-2.934.037-4.196-1.337-.165-.188-.397-.305-.646-.326-.25-.021-.498.056-.691.214-.212.144-.357.365-.406.615-.049.251.004.51.146.722 1.931 3.157 4.939 3.64 6.796 1.857.127-.114.222-.261.274-.424s.06-.337.023-.504c-.026-.142-.081-.278-.162-.397-.081-.12-.186-.221-.308-.298s-.259-.128-.402-.149-.289-.012-.428.027z" fill="#590942"/><path d="m258.882 220.235c.364.003.727-.047 1.077-.148h.334v.928s-.557.409-2.637.186v-.52l-3.639-1.226c.002-.153.039-.303.11-.439.071-.135.174-.252.299-.34 0-.01.004-.02.011-.027.006-.007.016-.011.026-.011.152-.104.335-.156.52-.148.037-.037.111 0 .148 0h.334c.038.037.075.037.075.074s.074 0 .074.037l.149.112c.219.252.469.476.742.668l.52.334c.242.149.505.262.78.335.347.119.71.182 1.077.185z" fill="#dbe7ff"/><path d="m254.426 218.638c0-.009.004-.019.011-.026.006-.007.016-.011.026-.011.152-.104.335-.156.52-.148.037-.037.111 0 .148 0h.334c.038.037.075.037.075.074s.074 0 .074.037l.149.112c.116.154.254.291.408.408l-1.04.631-1.114-.371c.013-.14.056-.276.126-.398.071-.122.167-.227.283-.308z" fill="#b5cdff"/><path d="m249.338 209.837c1.337-2.971 3.676-3.565 7.687-2.599.808.18 1.584.481 2.303.891.222 1.188-1.597 1.56-4.977.483 1.114 2.005-1.188 5.57-5.013 1.225z" fill="#201e2f"/><path d="m254.017 207.126.186-2.451c.016-.223-.015-.448-.093-.658-.079-.211-.201-.402-.36-.56-.158-.159-.349-.281-.56-.359-.21-.079-.435-.11-.658-.094-.252.015-.497.09-.714.22-.216.129-.398.31-.529.525-.132.216-.209.46-.225.712-.017.252.028.504.131.734l1.114 2.526z" fill="#201e2f"/><path d="m244.362 220.235 1.114.409 2.339-1.523v1.894l1.932 1.523c.405.333.739.745.982 1.211.242.466.388.976.429 1.5l.074 1.522c2.822 2.34 6.684 3.082 10.064.706.549-.367 1.038-.818 1.448-1.337l1.151.408s-2.339 9.841-6.239 11.624c-3.899 1.782-6.61 0-6.61 0-4.085-13.889-2.896-16.488-12.997-12.478l-.483-2.822z" fill="#ef6767"/><path d="m252.457 215.816-7.352-6.87-.669.854 5.682 10.584z" fill="#4d7ae8"/><path d="m249.784 214.256-2.897-2.042 2.228 4.011-.408-1.56z" fill="#3366e0"/></g><path d="m287.032 222.088v-5.264h-4.432l.256 1.696h2.24v2.448c-.544.288-1.088.448-1.856.448-2.224 0-3.344-1.568-3.344-3.936 0-2.352 1.088-3.92 3.248-3.92 1.216 0 2.208.448 3.04 1.04l.304-1.968c-.88-.528-1.952-.88-3.36-.88-3.36 0-5.392 2.32-5.392 5.744 0 3.408 1.92 5.712 5.424 5.712 1.472 0 2.832-.448 3.872-1.12zm6.631-5.072-.304-1.904c-1.2.064-1.968.816-2.48 1.712l-.24-1.552h-1.632v7.728h1.92v-4.432c.56-.832 1.536-1.472 2.736-1.552zm5.162 3.856c-.528.512-1.152.832-1.808.832-.592 0-.944-.336-.944-.896 0-.736.528-1.392 2.752-1.664zm1.92 2.128v-5.296c0-1.856-.992-2.592-2.992-2.592-1.232 0-2.176.272-3.072.624l.24 1.536c.832-.368 1.68-.624 2.576-.624.848 0 1.328.32 1.328 1.152v.224c-3.12.304-4.656 1.12-4.656 2.992 0 1.344.88 2.144 2.192 2.144 1.152 0 1.952-.512 2.576-1.168l.16 1.008zm6.095-5.216c0 .848-.512 1.472-1.36 1.472-.832 0-1.344-.608-1.344-1.408 0-.848.496-1.504 1.344-1.504.816 0 1.36.624 1.36 1.44zm2.736 5.536c0-1.184-.992-1.68-2.576-1.904l-.992-.096c-1.2-.176-1.44-.24-1.44-.496 0-.128.128-.272.32-.416.192.032.4.048.624.048 1.664 0 3.088-.992 3.088-2.656 0-.352-.064-.704-.208-1.008l1.408-.096-.256-1.536-1.888.672c-.56-.464-1.296-.72-2.192-.72-1.728 0-3.104 1.04-3.104 2.736 0 1.024.544 1.824 1.456 2.256-.64.384-.976.8-.976 1.232 0 .304.144.592.448.832-.96.544-1.456 1.104-1.456 1.824 0 1.28 1.584 1.92 3.68 1.92 2.24 0 4.064-.928 4.064-2.592zm-3.936 1.456c-1.456 0-2.144-.416-2.144-.992 0-.4.256-.768.816-1.168.384.08.624.128 1.152.192l1.04.128c.96.144 1.296.384 1.296.8 0 .576-.784 1.04-2.16 1.04zm9.497-6.992c0 .848-.512 1.472-1.36 1.472-.832 0-1.344-.608-1.344-1.408 0-.848.496-1.504 1.344-1.504.816 0 1.36.624 1.36 1.44zm2.736 5.536c0-1.184-.992-1.68-2.576-1.904l-.992-.096c-1.2-.176-1.44-.24-1.44-.496 0-.128.128-.272.32-.416.192.032.4.048.624.048 1.664 0 3.088-.992 3.088-2.656 0-.352-.064-.704-.208-1.008l1.408-.096-.256-1.536-1.888.672c-.56-.464-1.296-.72-2.192-.72-1.728 0-3.104 1.04-3.104 2.736 0 1.024.544 1.824 1.456 2.256-.64.384-.976.8-.976 1.232 0 .304.144.592.448.832-.96.544-1.456 1.104-1.456 1.824 0 1.28 1.584 1.92 3.68 1.92 2.24 0 4.064-.928 4.064-2.592zm-3.936 1.456c-1.456 0-2.144-.416-2.144-.992 0-.4.256-.768.816-1.168.384.08.624.128 1.152.192l1.04.128c.96.144 1.296.384 1.296.8 0 .576-.784 1.04-2.16 1.04zm7.305-1.776v-11.552l-1.92.304v11.248zm5.103-6.56c.928 0 1.408.672 1.536 1.872h-3.088c.144-1.248.784-1.872 1.552-1.872zm3.392 5.776-.224-1.504c-.848.592-1.664.96-2.656.96-1.184 0-2-.656-2.08-2.16h4.96c0-.112.016-.304.016-.464 0-2.192-1.04-3.936-3.36-3.936-2.016 0-3.52 1.52-3.52 4.032 0 2.784 1.616 4.016 3.776 4.016 1.248 0 2.256-.368 3.088-.944z" fill="#fff"/><path d="m287.032 349.088v-5.264h-4.432l.256 1.696h2.24v2.448c-.544.288-1.088.448-1.856.448-2.224 0-3.344-1.568-3.344-3.936 0-2.352 1.088-3.92 3.248-3.92 1.216 0 2.208.448 3.04 1.04l.304-1.968c-.88-.528-1.952-.88-3.36-.88-3.36 0-5.392 2.32-5.392 5.744 0 3.408 1.92 5.712 5.424 5.712 1.472 0 2.832-.448 3.872-1.12zm6.631-5.072-.304-1.904c-1.2.064-1.968.816-2.48 1.712l-.24-1.552h-1.632v7.728h1.92v-4.432c.56-.832 1.536-1.472 2.736-1.552zm5.162 3.856c-.528.512-1.152.832-1.808.832-.592 0-.944-.336-.944-.896 0-.736.528-1.392 2.752-1.664zm1.92 2.128v-5.296c0-1.856-.992-2.592-2.992-2.592-1.232 0-2.176.272-3.072.624l.24 1.536c.832-.368 1.68-.624 2.576-.624.848 0 1.328.32 1.328 1.152v.224c-3.12.304-4.656 1.12-4.656 2.992 0 1.344.88 2.144 2.192 2.144 1.152 0 1.952-.512 2.576-1.168l.16 1.008zm6.095-5.216c0 .848-.512 1.472-1.36 1.472-.832 0-1.344-.608-1.344-1.408 0-.848.496-1.504 1.344-1.504.816 0 1.36.624 1.36 1.44zm2.736 5.536c0-1.184-.992-1.68-2.576-1.904l-.992-.096c-1.2-.176-1.44-.24-1.44-.496 0-.128.128-.272.32-.416.192.032.4.048.624.048 1.664 0 3.088-.992 3.088-2.656 0-.352-.064-.704-.208-1.008l1.408-.096-.256-1.536-1.888.672c-.56-.464-1.296-.72-2.192-.72-1.728 0-3.104 1.04-3.104 2.736 0 1.024.544 1.824 1.456 2.256-.64.384-.976.8-.976 1.232 0 .304.144.592.448.832-.96.544-1.456 1.104-1.456 1.824 0 1.28 1.584 1.92 3.68 1.92 2.24 0 4.064-.928 4.064-2.592zm-3.936 1.456c-1.456 0-2.144-.416-2.144-.992 0-.4.256-.768.816-1.168.384.08.624.128 1.152.192l1.04.128c.96.144 1.296.384 1.296.8 0 .576-.784 1.04-2.16 1.04zm9.497-6.992c0 .848-.512 1.472-1.36 1.472-.832 0-1.344-.608-1.344-1.408 0-.848.496-1.504 1.344-1.504.816 0 1.36.624 1.36 1.44zm2.736 5.536c0-1.184-.992-1.68-2.576-1.904l-.992-.096c-1.2-.176-1.44-.24-1.44-.496 0-.128.128-.272.32-.416.192.032.4.048.624.048 1.664 0 3.088-.992 3.088-2.656 0-.352-.064-.704-.208-1.008l1.408-.096-.256-1.536-1.888.672c-.56-.464-1.296-.72-2.192-.72-1.728 0-3.104 1.04-3.104 2.736 0 1.024.544 1.824 1.456 2.256-.64.384-.976.8-.976 1.232 0 .304.144.592.448.832-.96.544-1.456 1.104-1.456 1.824 0 1.28 1.584 1.92 3.68 1.92 2.24 0 4.064-.928 4.064-2.592zm-3.936 1.456c-1.456 0-2.144-.416-2.144-.992 0-.4.256-.768.816-1.168.384.08.624.128 1.152.192l1.04.128c.96.144 1.296.384 1.296.8 0 .576-.784 1.04-2.16 1.04zm7.305-1.776v-11.552l-1.92.304v11.248zm5.103-6.56c.928 0 1.408.672 1.536 1.872h-3.088c.144-1.248.784-1.872 1.552-1.872zm3.392 5.776-.224-1.504c-.848.592-1.664.96-2.656.96-1.184 0-2-.656-2.08-2.16h4.96c0-.112.016-.304.016-.464 0-2.192-1.04-3.936-3.36-3.936-2.016 0-3.52 1.52-3.52 4.032 0 2.784 1.616 4.016 3.776 4.016 1.248 0 2.256-.368 3.088-.944z" fill="#dcddde"/><path d="m278.168 132h2.112v-4.064h.944c2.528 0 4.224-1.2 4.224-3.584 0-2.224-1.52-3.392-4.048-3.392h-3.232zm5.2-7.6c0 1.264-.8 1.824-2.16 1.824h-.928v-3.568h1.008c1.36 0 2.08.592 2.08 1.744zm10.091 7.6v-5.568c0-1.44-.768-2.32-2.208-2.32-1.024 0-1.824.544-2.464 1.136v-4.8l-1.92.304v11.248h1.92v-5.216c.56-.592 1.168-.976 1.76-.976.704 0 .992.464.992 1.136v5.056zm4.115-10.112c0-.656-.512-1.12-1.136-1.12-.64 0-1.152.464-1.152 1.12 0 .64.512 1.088 1.152 1.088.624 0 1.136-.448 1.136-1.088zm-.192 10.112v-7.728h-1.92v7.728zm9.056-4.08c0-2.592-1.28-3.808-2.912-3.808-.977 0-1.696.512-2.192 1.024v-4.688l-1.92.304v10.832c.96.32 1.968.512 3.168.512 2.304 0 3.856-1.328 3.856-4.176zm-1.936.112c0 1.76-.736 2.496-1.953 2.496-.543 0-.815-.064-1.215-.208v-3.504c.48-.576 1.056-1.008 1.696-1.008.864 0 1.472.736 1.472 2.224zm5.697-6.144c0-.656-.512-1.12-1.136-1.12-.64 0-1.152.464-1.152 1.12 0 .64.512 1.088 1.152 1.088.624 0 1.136-.448 1.136-1.088zm-.192 10.112v-7.728h-1.92v7.728z" fill="#dcddde"/><path d="m252.52 58.06-.36-2.32c-1.06.7-2.2 1.2-3.5 1.2-2.48 0-4.04-1.84-4.04-4.84 0-2.98 1.5-4.86 4-4.86 1.34 0 2.4.54 3.3 1.22l.38-2.5c-1.02-.64-2.22-1-3.78-1-4.02 0-6.6 2.88-6.6 7.16 0 4.3 2.52 7.12 6.52 7.12 1.58 0 3-.48 4.08-1.18zm10.468-3.9c0-3.14-1.92-5.02-4.56-5.02-2.62 0-4.54 1.9-4.54 5.04s1.9 5.02 4.52 5.02c2.64 0 4.58-1.9 4.58-5.04zm-2.34.02c0 1.8-.76 3.06-2.24 3.06-1.4 0-2.18-1.3-2.18-3.08s.76-3.06 2.18-3.06c1.44 0 2.24 1.3 2.24 3.08zm9.567 2.16c-.66.64-1.44 1.04-2.26 1.04-.74 0-1.18-.42-1.18-1.12 0-.92.66-1.74 3.44-2.08zm2.4 2.66v-6.62c0-2.32-1.24-3.24-3.74-3.24-1.54 0-2.72.34-3.84.78l.3 1.92c1.04-.46 2.1-.78 3.22-.78 1.06 0 1.66.4 1.66 1.44v.28c-3.9.38-5.82 1.4-5.82 3.74 0 1.68 1.1 2.68 2.74 2.68 1.44 0 2.44-.64 3.22-1.46l.2 1.26zm9.658-.74-.32-2.06c-.88.68-1.7.92-2.54.92-1.4 0-2.5-.96-2.5-2.96 0-1.92 1-2.94 2.42-2.94.96 0 1.72.32 2.5.9l.34-2.16c-.7-.44-1.7-.82-2.96-.82-2.62 0-4.72 1.72-4.72 5.08 0 3.16 1.9 4.96 4.58 4.96 1.28 0 2.28-.3 3.2-.92zm10.16.74v-6.96c0-1.8-.96-2.9-2.76-2.9-1.28 0-2.28.68-3.08 1.42v-6l-2.4.38v14.06h2.4v-6.52c.7-.74 1.46-1.22 2.2-1.22.88 0 1.24.58 1.24 1.42v6.32z" fill="#f7e5bc"/><path d="m250.86 182.06c0-2.14-1.04-3.12-3.88-4.28-1.92-.8-2.36-1.22-2.36-2.1 0-.84.58-1.48 1.9-1.48 1.08 0 2.26.42 3.26 1.08l.4-2.4c-1-.52-2.08-.84-3.64-.84-2.58 0-4.46 1.42-4.46 3.86 0 2.14 1.08 3.02 3.76 4.12 2 .86 2.48 1.28 2.48 2.3 0 1.08-.84 1.68-2.06 1.68-1.38 0-2.82-.54-3.98-1.22l-.4 2.4c1.22.6 2.66.98 4.34.98 2.66 0 4.64-1.4 4.64-4.1zm7.224 3.94-.3-2.02c-.22.06-.48.08-.76.08-.92 0-1.26-.42-1.26-1.2v-4.56h2.26l-.3-1.96h-1.96v-3.42l-2.38.36v3.06h-1.36v1.96h1.36v4.96c0 2.2 1.28 2.9 3.18 2.9.7 0 1.14-.08 1.52-.16zm1.752-9.66v6.94c0 1.82.94 2.92 2.76 2.92 1.28 0 2.32-.7 3.22-1.56l.22 1.36h2.04v-9.66h-2.4v6.52c-.7.72-1.46 1.2-2.2 1.2-.88 0-1.24-.56-1.24-1.4v-6.32zm12.625 4.96c0-2.12.9-3.14 2.16-3.14.82 0 1.28.14 1.88.42v4.14c-.64.82-1.32 1.34-2.2 1.34-1.06 0-1.84-.88-1.84-2.76zm-2.42.14c0 3.26 1.62 4.76 3.64 4.76 1.34 0 2.28-.72 2.96-1.54l.2 1.34h2.06v-14.44l-2.4.38v4.66c-.58-.2-1.32-.36-2.24-.36-2.24 0-4.22 1.6-4.22 5.2zm15.14-3.64c1.16 0 1.76.84 1.92 2.34h-3.86c.18-1.56.98-2.34 1.94-2.34zm4.24 7.22-.28-1.88c-1.06.74-2.08 1.2-3.32 1.2-1.48 0-2.5-.82-2.6-2.7h6.2c0-.14.02-.38.02-.58 0-2.74-1.3-4.92-4.2-4.92-2.52 0-4.4 1.9-4.4 5.04 0 3.48 2.02 5.02 4.72 5.02 1.56 0 2.82-.46 3.86-1.18zm10.199.98v-6.96c0-1.8-.96-2.9-2.76-2.9-1.3 0-2.32.7-3.22 1.56l-.22-1.36h-2.04v9.66h2.4v-6.52c.7-.74 1.46-1.22 2.2-1.22.88 0 1.24.58 1.24 1.42v6.32zm7.605 0-.3-2.02c-.22.06-.48.08-.76.08-.92 0-1.26-.42-1.26-1.2v-4.56h2.26l-.3-1.96h-1.96v-3.42l-2.38.36v3.06h-1.36v1.96h1.36v4.96c0 2.2 1.28 2.9 3.18 2.9.7 0 1.14-.08 1.52-.16zm13.929 0-.36-2.36h-4.6v-11.44h-2.66v13.8zm5.238-8.2c1.16 0 1.76.84 1.92 2.34h-3.86c.18-1.56.98-2.34 1.94-2.34zm4.24 7.22-.28-1.88c-1.06.74-2.08 1.2-3.32 1.2-1.48 0-2.5-.82-2.6-2.7h6.2c0-.14.02-.38.02-.58 0-2.74-1.3-4.92-4.2-4.92-2.52 0-4.4 1.9-4.4 5.04 0 3.48 2.02 5.02 4.72 5.02 1.56 0 2.82-.46 3.86-1.18zm7.239-1.68c-.66.64-1.44 1.04-2.26 1.04-.74 0-1.18-.42-1.18-1.12 0-.92.66-1.74 3.44-2.08zm2.4 2.66v-6.62c0-2.32-1.24-3.24-3.74-3.24-1.54 0-2.72.34-3.84.78l.3 1.92c1.04-.46 2.1-.78 3.22-.78 1.06 0 1.66.4 1.66 1.44v.28c-3.9.38-5.82 1.4-5.82 3.74 0 1.68 1.1 2.68 2.74 2.68 1.44 0 2.44-.64 3.22-1.46l.2 1.26zm4.319-4.7c0-2.12.9-3.14 2.16-3.14.82 0 1.28.14 1.88.42v4.14c-.64.82-1.32 1.34-2.2 1.34-1.06 0-1.84-.88-1.84-2.76zm-2.42.14c0 3.26 1.62 4.76 3.64 4.76 1.34 0 2.28-.72 2.96-1.54l.2 1.34h2.06v-14.44l-2.4.38v4.66c-.58-.2-1.32-.36-2.24-.36-2.24 0-4.22 1.6-4.22 5.2z" fill="#bed3ff"/><path d="m251.82 313.14 2.66-.48-5.06-13.52h-2.82l-5.18 13.86h2.66l1.2-3.5h5.24zm-3.92-11.14 1.86 5.34h-3.74zm16.466 11v-6.96c0-1.8-.96-2.9-2.76-2.9-1.3 0-2.32.7-3.22 1.56l-.22-1.36h-2.04v9.66h2.4v-6.52c.7-.74 1.46-1.22 2.2-1.22.88 0 1.24.58 1.24 1.42v6.32zm5.145-12.64c0-.82-.64-1.4-1.42-1.4-.8 0-1.44.58-1.44 1.4 0 .8.64 1.36 1.44 1.36.78 0 1.42-.56 1.42-1.36zm-.24 12.64v-9.66h-2.4v9.66zm16.399 0v-6.96c0-1.8-.9-2.9-2.72-2.9-1.3 0-2.36.7-3.22 1.56-.36-.94-1.1-1.56-2.48-1.56-1.3 0-2.28.7-3.18 1.56l-.22-1.36h-2.04v9.66h2.4v-6.54c.7-.72 1.4-1.2 2.14-1.2.88 0 1.2.58 1.2 1.42v6.32h2.4v-6.54c.7-.72 1.4-1.2 2.14-1.2.88 0 1.18.58 1.18 1.42v6.32zm7.689-2.66c-.66.64-1.44 1.04-2.26 1.04-.74 0-1.18-.42-1.18-1.12 0-.92.66-1.74 3.44-2.08zm2.4 2.66v-6.62c0-2.32-1.24-3.24-3.74-3.24-1.54 0-2.72.34-3.84.78l.3 1.92c1.04-.46 2.1-.78 3.22-.78 1.06 0 1.66.4 1.66 1.44v.28c-3.9.38-5.82 1.4-5.82 3.74 0 1.68 1.1 2.68 2.74 2.68 1.44 0 2.44-.64 3.22-1.46l.2 1.26zm4.879 0v-14.44l-2.4.38v14.06zm17.116-.94-.36-2.32c-1.06.7-2.2 1.2-3.5 1.2-2.48 0-4.04-1.84-4.04-4.84 0-2.98 1.5-4.86 4-4.86 1.34 0 2.4.54 3.3 1.22l.38-2.5c-1.02-.64-2.22-1-3.78-1-4.02 0-6.6 2.88-6.6 7.16 0 4.3 2.52 7.12 6.52 7.12 1.58 0 3-.48 4.08-1.18zm7.845-6.54-.38-2.38c-1.5.08-2.46 1.02-3.1 2.14l-.3-1.94h-2.04v9.66h2.4v-5.54c.7-1.04 1.92-1.84 3.42-1.94zm9.869 2.64c0-3.14-1.92-5.02-4.56-5.02-2.62 0-4.54 1.9-4.54 5.04s1.9 5.02 4.52 5.02c2.64 0 4.58-1.9 4.58-5.04zm-2.34.02c0 1.8-.76 3.06-2.24 3.06-1.4 0-2.18-1.3-2.18-3.08s.76-3.06 2.18-3.06c1.44 0 2.24 1.3 2.24 3.08zm11.447 1.98c0-1.82-.98-2.5-3.48-3.14-1.44-.38-1.8-.68-1.8-1.2s.44-.88 1.34-.88c.96 0 2.1.34 3.06.88l.32-2c-.96-.42-2.12-.68-3.38-.68-2.24 0-3.56 1.18-3.56 2.86 0 1.76.98 2.44 3.32 3.04 1.54.38 1.96.66 1.96 1.34 0 .64-.56 1.02-1.6 1.02-1.2 0-2.48-.46-3.52-1.14l-.32 2c.92.5 2.36.94 3.76.94 2.54 0 3.9-1.14 3.9-3.04zm8.985 0c0-1.82-.98-2.5-3.48-3.14-1.44-.38-1.8-.68-1.8-1.2s.44-.88 1.34-.88c.96 0 2.1.34 3.06.88l.32-2c-.96-.42-2.12-.68-3.38-.68-2.24 0-3.56 1.18-3.56 2.86 0 1.76.98 2.44 3.32 3.04 1.54.38 1.96.66 1.96 1.34 0 .64-.56 1.02-1.6 1.02-1.2 0-2.48-.46-3.52-1.14l-.32 2c.92.5 2.36.94 3.76.94 2.54 0 3.9-1.14 3.9-3.04zm4.642-9.8c0-.82-.64-1.4-1.42-1.4-.8 0-1.44.58-1.44 1.4 0 .8.64 1.36 1.44 1.36.78 0 1.42-.56 1.42-1.36zm-.24 12.64v-9.66h-2.4v9.66zm10.779 0v-6.96c0-1.8-.96-2.9-2.76-2.9-1.3 0-2.32.7-3.22 1.56l-.22-1.36h-2.04v9.66h2.4v-6.52c.7-.74 1.46-1.22 2.2-1.22.88 0 1.24.58 1.24 1.42v6.32zm7.645-6.52c0 1.06-.64 1.84-1.7 1.84-1.04 0-1.68-.76-1.68-1.76 0-1.06.62-1.88 1.68-1.88 1.02 0 1.7.78 1.7 1.8zm3.42 6.92c0-1.48-1.24-2.1-3.22-2.38l-1.24-.12c-1.5-.22-1.8-.3-1.8-.62 0-.16.16-.34.4-.52.24.04.5.06.78.06 2.08 0 3.86-1.24 3.86-3.32 0-.44-.08-.88-.26-1.26l1.76-.12-.32-1.92-2.36.84c-.7-.58-1.62-.9-2.74-.9-2.16 0-3.88 1.3-3.88 3.42 0 1.28.68 2.28 1.82 2.82-.8.48-1.22 1-1.22 1.54 0 .38.18.74.56 1.04-1.2.68-1.82 1.38-1.82 2.28 0 1.6 1.98 2.4 4.6 2.4 2.8 0 5.08-1.16 5.08-3.24zm-4.92 1.82c-1.82 0-2.68-.52-2.68-1.24 0-.5.32-.96 1.02-1.46.48.1.78.16 1.44.24l1.3.16c1.2.18 1.62.48 1.62 1 0 .72-.98 1.3-2.7 1.3z" fill="#ed988d"/><path d="m534.475 37.375-6.4-2.8c-.1 0-.1-.2 0-.2l6.4-2.9h.1l2.8-6.4c0-.1.2-.1.2 0l2.9 6.4 6.4 2.9c.1 0 .1.2 0 .2l-6.4 2.8-2.9 6.4h-.2l-2.8-6.4z" fill="#fdd2f8"/><rect fill="#292841" height="297" rx="8" width="216" x="397" y="121"/><path d="m397 129c0-4.418 3.582-8 8-8h200c4.418 0 8 3.582 8 8v176h-216z" fill="#1c1b29"/><path d="m466.032 276.088v-5.264h-4.432l.256 1.696h2.24v2.448c-.544.288-1.088.448-1.856.448-2.224 0-3.344-1.568-3.344-3.936 0-2.352 1.088-3.92 3.248-3.92 1.216 0 2.208.448 3.04 1.04l.304-1.968c-.88-.528-1.952-.88-3.36-.88-3.36 0-5.392 2.32-5.392 5.744 0 3.408 1.92 5.712 5.424 5.712 1.472 0 2.832-.448 3.872-1.12zm6.631-5.072-.304-1.904c-1.2.064-1.968.816-2.48 1.712l-.24-1.552h-1.632v7.728h1.92v-4.432c.56-.832 1.536-1.472 2.736-1.552zm5.162 3.856c-.528.512-1.152.832-1.808.832-.592 0-.944-.336-.944-.896 0-.736.528-1.392 2.752-1.664zm1.92 2.128v-5.296c0-1.856-.992-2.592-2.992-2.592-1.232 0-2.176.272-3.072.624l.24 1.536c.832-.368 1.68-.624 2.576-.624.848 0 1.328.32 1.328 1.152v.224c-3.12.304-4.656 1.12-4.656 2.992 0 1.344.88 2.144 2.192 2.144 1.152 0 1.952-.512 2.576-1.168l.16 1.008zm6.095-5.216c0 .848-.512 1.472-1.36 1.472-.832 0-1.344-.608-1.344-1.408 0-.848.496-1.504 1.344-1.504.816 0 1.36.624 1.36 1.44zm2.736 5.536c0-1.184-.992-1.68-2.576-1.904l-.992-.096c-1.2-.176-1.44-.24-1.44-.496 0-.128.128-.272.32-.416.192.032.4.048.624.048 1.664 0 3.088-.992 3.088-2.656 0-.352-.064-.704-.208-1.008l1.408-.096-.256-1.536-1.888.672c-.56-.464-1.296-.72-2.192-.72-1.728 0-3.104 1.04-3.104 2.736 0 1.024.544 1.824 1.456 2.256-.64.384-.976.8-.976 1.232 0 .304.144.592.448.832-.96.544-1.456 1.104-1.456 1.824 0 1.28 1.584 1.92 3.68 1.92 2.24 0 4.064-.928 4.064-2.592zm-3.936 1.456c-1.456 0-2.144-.416-2.144-.992 0-.4.256-.768.816-1.168.384.08.624.128 1.152.192l1.04.128c.96.144 1.296.384 1.296.8 0 .576-.784 1.04-2.16 1.04zm9.497-6.992c0 .848-.512 1.472-1.36 1.472-.832 0-1.344-.608-1.344-1.408 0-.848.496-1.504 1.344-1.504.816 0 1.36.624 1.36 1.44zm2.736 5.536c0-1.184-.992-1.68-2.576-1.904l-.992-.096c-1.2-.176-1.44-.24-1.44-.496 0-.128.128-.272.32-.416.192.032.4.048.624.048 1.664 0 3.088-.992 3.088-2.656 0-.352-.064-.704-.208-1.008l1.408-.096-.256-1.536-1.888.672c-.56-.464-1.296-.72-2.192-.72-1.728 0-3.104 1.04-3.104 2.736 0 1.024.544 1.824 1.456 2.256-.64.384-.976.8-.976 1.232 0 .304.144.592.448.832-.96.544-1.456 1.104-1.456 1.824 0 1.28 1.584 1.92 3.68 1.92 2.24 0 4.064-.928 4.064-2.592zm-3.936 1.456c-1.456 0-2.144-.416-2.144-.992 0-.4.256-.768.816-1.168.384.08.624.128 1.152.192l1.04.128c.96.144 1.296.384 1.296.8 0 .576-.784 1.04-2.16 1.04zm7.305-1.776v-11.552l-1.92.304v11.248zm5.103-6.56c.928 0 1.408.672 1.536 1.872h-3.088c.144-1.248.784-1.872 1.552-1.872zm3.392 5.776-.224-1.504c-.848.592-1.664.96-2.656.96-1.184 0-2-.656-2.08-2.16h4.96c0-.112.016-.304.016-.464 0-2.192-1.04-3.936-3.36-3.936-2.016 0-3.52 1.52-3.52 4.032 0 2.784 1.616 4.016 3.776 4.016 1.248 0 2.256-.368 3.088-.944zm4.495-3.312.4-2.624h2.464l-.416 2.624zm1.776 4.128h1.344l.4-2.544h2.32l-.256-1.616h-1.808l.4-2.56h1.952v-1.616h-1.696l.368-2.352-1.28-.288-.416 2.64h-2.432l.4-2.544h-1.328l-.4 2.544h-2.336l.272 1.616h1.808l-.416 2.56h-1.952v1.616h1.696l-.368 2.352 1.28.288.416-2.64h2.448zm5.664-.032h7.344l-.256-1.696h-4.512l2.608-2.608c1.328-1.312 1.968-2.224 1.968-3.632 0-1.888-1.312-3.072-3.488-3.072-1.424 0-2.544.496-3.392 1.136l.256 1.84c.88-.704 1.856-1.2 2.912-1.2 1.072 0 1.68.512 1.68 1.504 0 .784-.416 1.392-1.248 2.272l-3.872 3.952zm12.64.208c2.464 0 3.984-1.36 3.984-3.056 0-1.424-.72-2.224-2.064-2.864 1.024-.608 1.712-1.456 1.712-2.544 0-1.616-1.328-2.768-3.568-2.768-2.128 0-3.664 1.104-3.664 2.832 0 1.12.544 1.92 1.68 2.528-1.264.688-2.064 1.664-2.064 2.864 0 1.632 1.376 3.008 3.984 3.008zm-1.712-8.432c0-.768.672-1.36 1.712-1.36 1.072 0 1.744.592 1.744 1.424 0 .736-.512 1.344-1.328 1.824-1.568-.608-2.128-1.072-2.128-1.888zm1.744 6.928c-1.216 0-2.096-.688-2.096-1.648 0-.848.656-1.568 1.6-2.064 1.888.704 2.496 1.152 2.496 2.144 0 .896-.816 1.568-2 1.568zm8.056 1.408 4.176-9.344v-1.584h-7.392l.256 1.76h4.96l-3.968 8.784zm8.674.096c2.352 0 3.968-1.2 3.968-3.2 0-1.456-.784-2.256-2.144-2.656 1.152-.4 1.952-1.152 1.952-2.544 0-1.568-1.2-2.832-3.616-2.832-1.392 0-2.48.4-3.312.992l.256 1.68c.816-.592 1.776-.96 2.832-.96 1.2 0 1.792.544 1.792 1.344 0 .976-.72 1.536-2.32 1.536h-.976l.272 1.664h.704c1.792 0 2.512.624 2.512 1.712 0 1.008-.768 1.552-2 1.552-1.104 0-2.064-.32-2.96-.88l-.288 1.744c.864.512 2.064.848 3.328.848z" fill="#99aab5"/><g mask="url(#i)"><circle cx="506" cy="193" fill="#ffb869" r="54"/><path d="m478.288 210.635c6.303 21.916 31.656 37.099 51.996 22.775 20.339-14.324.143-43.687.143-43.687s11.029-27.788-16.616-34.377-34.52 5.443-35.523 55.289z" fill="#4d7ae8"/><path d="m519.254 194.593c-3.085 0-5.586-3.335-5.586-7.448 0-4.114 2.501-7.449 5.586-7.449 3.086 0 5.587 3.335 5.587 7.449 0 4.113-2.501 7.448-5.587 7.448z" fill="#dbe7ff"/><path d="m521.649 192.8c-.789-.053-1.345-1.313-1.243-2.812.102-1.5.825-2.672 1.614-2.618.79.054 1.347 1.313 1.244 2.812-.102 1.5-.825 2.672-1.615 2.618z" fill="#201e2f"/><path d="m525.7 173.25c-.371-1.112-1.081-2.08-2.033-2.765-.952-.686-2.094-1.055-3.267-1.055s-2.316.369-3.266 1.055c-.952.685-1.663 1.653-2.034 2.765z" fill="#201e2f"/><path d="m525.127 204.906c-5.443 1.432-11.316.143-16.186-5.157-.636-.726-1.529-1.176-2.491-1.256s-1.918.216-2.665.827c-.815.552-1.378 1.405-1.566 2.371s.015 1.968.563 2.785c7.448 12.175 19.051 14.038 26.213 7.162.491-.442.856-1.006 1.058-1.635.201-.629.231-1.301.088-1.946-.099-.548-.313-1.07-.624-1.531-.312-.462-.717-.853-1.188-1.15-.472-.296-1-.491-1.552-.572-.551-.081-1.113-.046-1.65.102z" fill="#590942"/><path d="m520.973 205.479c1.405.012 2.805-.181 4.154-.573h1.289v3.581s-2.148 1.575-10.17.716v-2.005l-14.037-4.727c.005-.59.151-1.171.425-1.694s.668-.974 1.151-1.314c0-.038.015-.075.042-.101.026-.027.063-.042.101-.042.589-.404 1.292-.604 2.005-.573.143-.143.43 0 .573 0h1.289c.143.143.287.143.287.286s.286 0 .286.143l.573.43c.848.971 1.81 1.837 2.865 2.578l2.005 1.289c.934.576 1.948 1.01 3.008 1.29 1.338.46 2.74.702 4.154.716z" fill="#dbe7ff"/><path d="m503.785 199.32c0-.038.015-.075.042-.102.026-.027.063-.042.101-.042.589-.403 1.292-.604 2.005-.573.143-.143.43 0 .573 0h1.289c.143.144.287.144.287.287s.286 0 .286.143l.573.43c.451.595.981 1.125 1.576 1.575l-4.011 2.436-4.297-1.433c.048-.541.214-1.065.486-1.535.273-.47.644-.875 1.09-1.186z" fill="#b5cdff"/><path d="m484.161 165.372c5.157-11.459 14.181-13.751 29.65-10.026 3.116.695 6.109 1.854 8.881 3.437.86 4.584-6.159 6.016-19.194 1.862 4.297 7.735-4.583 21.486-19.337 4.727z" fill="#201e2f"/><path d="m502.209 154.916.716-9.454c.065-.863-.058-1.729-.359-2.54-.302-.811-.774-1.548-1.386-2.16s-1.349-1.085-2.16-1.386-1.677-.424-2.54-.359c-.972.055-1.917.345-2.752.845-.835.501-1.536 1.196-2.043 2.027-.508.832-.805 1.773-.869 2.745-.062.972.111 1.944.507 2.834l4.297 9.74z" fill="#201e2f"/><path d="m464.967 205.479 4.298 1.576 9.023-5.873v7.305l7.449 5.873c1.564 1.286 2.853 2.876 3.788 4.672.936 1.797 1.498 3.764 1.655 5.784l.286 5.873c10.886 9.024 25.783 11.888 38.818 2.721 2.12-1.416 4.005-3.156 5.586-5.156l4.44 1.575s-9.024 37.959-24.064 44.834c-15.039 6.876-25.496 0-25.496 0-15.756-53.571-11.172-63.598-50.133-48.128l-1.862-10.886z" fill="#ef6767"/><path d="m496.193 188.434-28.361-26.499-2.578 3.294 21.915 40.823z" fill="#4d7ae8"/><path d="m485.88 182.418-11.173-7.879 8.595 15.47-1.576-6.016z" fill="#3366e0"/></g><circle cx="547" cy="235" fill="#6adbc6" r="12"/><path d="m420.174 334.098 1.96-.35-2.618-3.794c1.204-.42 1.96-1.302 1.96-2.716 0-1.876-1.302-2.898-3.458-2.898h-2.996v9.66h1.848v-3.696h.784zm-.518-6.762c0 1.008-.714 1.554-1.862 1.554h-.938v-3.066h1.022c1.162 0 1.778.546 1.778 1.512zm9.271 3.276c0-2.198-1.344-3.514-3.192-3.514-1.834 0-3.178 1.33-3.178 3.528s1.33 3.514 3.164 3.514c1.848 0 3.206-1.33 3.206-3.528zm-1.638.014c0 1.26-.532 2.142-1.568 2.142-.98 0-1.526-.91-1.526-2.156s.532-2.142 1.526-2.142c1.008 0 1.568.91 1.568 2.156zm4.751 3.374v-10.108l-1.68.266v9.842zm4.465-5.74c.812 0 1.232.588 1.344 1.638h-2.702c.126-1.092.686-1.638 1.358-1.638zm2.968 5.054-.196-1.316c-.742.518-1.456.84-2.324.84-1.036 0-1.75-.574-1.82-1.89h4.34c0-.098.014-.266.014-.406 0-1.918-.91-3.444-2.94-3.444-1.764 0-3.08 1.33-3.08 3.528 0 2.436 1.414 3.514 3.304 3.514 1.092 0 1.974-.322 2.702-.826zm6.383-1.302c0-1.274-.686-1.75-2.436-2.198-1.008-.266-1.26-.476-1.26-.84s.308-.616.938-.616c.672 0 1.47.238 2.142.616l.224-1.4c-.672-.294-1.484-.476-2.366-.476-1.568 0-2.492.826-2.492 2.002 0 1.232.686 1.708 2.324 2.128 1.078.266 1.372.462 1.372.938 0 .448-.392.714-1.12.714-.84 0-1.736-.322-2.464-.798l-.224 1.4c.644.35 1.652.658 2.632.658 1.778 0 2.73-.798 2.73-2.128z" fill="#b9bbbe"/><rect fill="#ed988d" fill-opacity=".2" height="24" rx="12" width="139" x="414" y="346"/><circle cx="426" cy="358" fill="#ed988d" r="8"/><path d="m449.574 363.098 1.862-.336-3.542-9.464h-1.974l-3.626 9.702h1.862l.84-2.45h3.668zm-2.744-7.798 1.302 3.738h-2.618zm11.526 7.7v-4.872c0-1.26-.672-2.03-1.932-2.03-.91 0-1.624.49-2.254 1.092l-.154-.952h-1.428v6.762h1.68v-4.564c.49-.518 1.022-.854 1.54-.854.616 0 .868.406.868.994v4.424zm3.602-8.848c0-.574-.448-.98-.994-.98-.56 0-1.008.406-1.008.98 0 .56.448.952 1.008.952.546 0 .994-.392.994-.952zm-.168 8.848v-6.762h-1.68v6.762zm11.479 0v-4.872c0-1.26-.63-2.03-1.904-2.03-.91 0-1.652.49-2.254 1.092-.252-.658-.77-1.092-1.736-1.092-.91 0-1.596.49-2.226 1.092l-.154-.952h-1.428v6.762h1.68v-4.578c.49-.504.98-.84 1.498-.84.616 0 .84.406.84.994v4.424h1.68v-4.578c.49-.504.98-.84 1.498-.84.616 0 .826.406.826.994v4.424zm5.383-1.862c-.462.448-1.008.728-1.582.728-.518 0-.826-.294-.826-.784 0-.644.462-1.218 2.408-1.456zm1.68 1.862v-4.634c0-1.624-.868-2.268-2.618-2.268-1.078 0-1.904.238-2.688.546l.21 1.344c.728-.322 1.47-.546 2.254-.546.742 0 1.162.28 1.162 1.008v.196c-2.73.266-4.074.98-4.074 2.618 0 1.176.77 1.876 1.918 1.876 1.008 0 1.708-.448 2.254-1.022l.14.882zm3.415 0v-10.108l-1.68.266v9.842zm11.981-.658-.252-1.624c-.742.49-1.54.84-2.45.84-1.736 0-2.828-1.288-2.828-3.388 0-2.086 1.05-3.402 2.8-3.402.938 0 1.68.378 2.31.854l.266-1.75c-.714-.448-1.554-.7-2.646-.7-2.814 0-4.62 2.016-4.62 5.012 0 3.01 1.764 4.984 4.564 4.984 1.106 0 2.1-.336 2.856-.826zm5.491-4.578-.266-1.666c-1.05.056-1.722.714-2.17 1.498l-.21-1.358h-1.428v6.762h1.68v-3.878c.49-.728 1.344-1.288 2.394-1.358zm6.909 1.848c0-2.198-1.344-3.514-3.192-3.514-1.834 0-3.178 1.33-3.178 3.528s1.33 3.514 3.164 3.514c1.848 0 3.206-1.33 3.206-3.528zm-1.638.014c0 1.26-.532 2.142-1.568 2.142-.98 0-1.526-.91-1.526-2.156s.532-2.142 1.526-2.142c1.008 0 1.568.91 1.568 2.156zm8.013 1.386c0-1.274-.686-1.75-2.436-2.198-1.008-.266-1.26-.476-1.26-.84s.308-.616.938-.616c.672 0 1.47.238 2.142.616l.224-1.4c-.672-.294-1.484-.476-2.366-.476-1.568 0-2.492.826-2.492 2.002 0 1.232.686 1.708 2.324 2.128 1.078.266 1.372.462 1.372.938 0 .448-.392.714-1.12.714-.84 0-1.736-.322-2.464-.798l-.224 1.4c.644.35 1.652.658 2.632.658 1.778 0 2.73-.798 2.73-2.128zm6.289 0c0-1.274-.686-1.75-2.436-2.198-1.008-.266-1.26-.476-1.26-.84s.308-.616.938-.616c.672 0 1.47.238 2.142.616l.224-1.4c-.672-.294-1.484-.476-2.366-.476-1.568 0-2.492.826-2.492 2.002 0 1.232.686 1.708 2.324 2.128 1.078.266 1.372.462 1.372.938 0 .448-.392.714-1.12.714-.84 0-1.736-.322-2.464-.798l-.224 1.4c.644.35 1.652.658 2.632.658 1.778 0 2.73-.798 2.73-2.128zm3.25-6.86c0-.574-.448-.98-.994-.98-.56 0-1.008.406-1.008.98 0 .56.448.952 1.008.952.546 0 .994-.392.994-.952zm-.168 8.848v-6.762h-1.68v6.762zm7.545 0v-4.872c0-1.26-.672-2.03-1.932-2.03-.91 0-1.624.49-2.254 1.092l-.154-.952h-1.428v6.762h1.68v-4.564c.49-.518 1.022-.854 1.54-.854.616 0 .868.406.868.994v4.424zm5.351-4.564c0 .742-.448 1.288-1.19 1.288-.728 0-1.176-.532-1.176-1.232 0-.742.434-1.316 1.176-1.316.714 0 1.19.546 1.19 1.26zm2.394 4.844c0-1.036-.868-1.47-2.254-1.666l-.868-.084c-1.05-.154-1.26-.21-1.26-.434 0-.112.112-.238.28-.364.168.028.35.042.546.042 1.456 0 2.702-.868 2.702-2.324 0-.308-.056-.616-.182-.882l1.232-.084-.224-1.344-1.652.588c-.49-.406-1.134-.63-1.918-.63-1.512 0-2.716.91-2.716 2.394 0 .896.476 1.596 1.274 1.974-.56.336-.854.7-.854 1.078 0 .266.126.518.392.728-.84.476-1.274.966-1.274 1.596 0 1.12 1.386 1.68 3.22 1.68 1.96 0 3.556-.812 3.556-2.268zm-3.444 1.274c-1.274 0-1.876-.364-1.876-.868 0-.35.224-.672.714-1.022.336.07.546.112 1.008.168l.91.112c.84.126 1.134.336 1.134.7 0 .504-.686.91-1.89.91z" fill="#fff"/><rect fill="#bed3ff" fill-opacity=".22" height="24" rx="12" width="120" x="415" y="378"/><circle cx="427" cy="390" fill="#bed3ff" r="8"/><path d="m449.902 392.242c0-1.498-.728-2.184-2.716-2.996-1.344-.56-1.652-.854-1.652-1.47 0-.588.406-1.036 1.33-1.036.756 0 1.582.294 2.282.756l.28-1.68c-.7-.364-1.456-.588-2.548-.588-1.806 0-3.122.994-3.122 2.702 0 1.498.756 2.114 2.632 2.884 1.4.602 1.736.896 1.736 1.61 0 .756-.588 1.176-1.442 1.176-.966 0-1.974-.378-2.786-.854l-.28 1.68c.854.42 1.862.686 3.038.686 1.862 0 3.248-.98 3.248-2.87zm5.057 2.758-.21-1.414c-.154.042-.336.056-.532.056-.644 0-.882-.294-.882-.84v-3.192h1.582l-.21-1.372h-1.372v-2.394l-1.666.252v2.142h-.952v1.372h.952v3.472c0 1.54.896 2.03 2.226 2.03.49 0 .798-.056 1.064-.112zm1.226-6.762v4.858c0 1.274.658 2.044 1.932 2.044.896 0 1.624-.49 2.254-1.092l.154.952h1.428v-6.762h-1.68v4.564c-.49.504-1.022.84-1.54.84-.616 0-.868-.392-.868-.98v-4.424zm8.838 3.472c0-1.484.63-2.198 1.512-2.198.574 0 .896.098 1.316.294v2.898c-.448.574-.924.938-1.54.938-.742 0-1.288-.616-1.288-1.932zm-1.694.098c0 2.282 1.134 3.332 2.548 3.332.938 0 1.596-.504 2.072-1.078l.14.938h1.442v-10.108l-1.68.266v3.262c-.406-.14-.924-.252-1.568-.252-1.568 0-2.954 1.12-2.954 3.64zm10.598-2.548c.812 0 1.232.588 1.344 1.638h-2.702c.126-1.092.686-1.638 1.358-1.638zm2.968 5.054-.196-1.316c-.742.518-1.456.84-2.324.84-1.036 0-1.75-.574-1.82-1.89h4.34c0-.098.014-.266.014-.406 0-1.918-.91-3.444-2.94-3.444-1.764 0-3.08 1.33-3.08 3.528 0 2.436 1.414 3.514 3.304 3.514 1.092 0 1.974-.322 2.702-.826zm7.139.686v-4.872c0-1.26-.672-2.03-1.932-2.03-.91 0-1.624.49-2.254 1.092l-.154-.952h-1.428v6.762h1.68v-4.564c.49-.518 1.022-.854 1.54-.854.616 0 .868.406.868.994v4.424zm5.323 0-.21-1.414c-.154.042-.336.056-.532.056-.644 0-.882-.294-.882-.84v-3.192h1.582l-.21-1.372h-1.372v-2.394l-1.666.252v2.142h-.952v1.372h.952v3.472c0 1.54.896 2.03 2.226 2.03.49 0 .798-.056 1.064-.112zm9.751 0-.252-1.652h-3.22v-8.008h-1.862v9.66zm3.666-5.74c.812 0 1.232.588 1.344 1.638h-2.702c.126-1.092.686-1.638 1.358-1.638zm2.968 5.054-.196-1.316c-.742.518-1.456.84-2.324.84-1.036 0-1.75-.574-1.82-1.89h4.34c0-.098.014-.266.014-.406 0-1.918-.91-3.444-2.94-3.444-1.764 0-3.08 1.33-3.08 3.528 0 2.436 1.414 3.514 3.304 3.514 1.092 0 1.974-.322 2.702-.826zm5.068-1.176c-.462.448-1.008.728-1.582.728-.518 0-.826-.294-.826-.784 0-.644.462-1.218 2.408-1.456zm1.68 1.862v-4.634c0-1.624-.868-2.268-2.618-2.268-1.078 0-1.904.238-2.688.546l.21 1.344c.728-.322 1.47-.546 2.254-.546.742 0 1.162.28 1.162 1.008v.196c-2.73.266-4.074.98-4.074 2.618 0 1.176.77 1.876 1.918 1.876 1.008 0 1.708-.448 2.254-1.022l.14.882zm3.023-3.29c0-1.484.63-2.198 1.512-2.198.574 0 .896.098 1.316.294v2.898c-.448.574-.924.938-1.54.938-.742 0-1.288-.616-1.288-1.932zm-1.694.098c0 2.282 1.134 3.332 2.548 3.332.938 0 1.596-.504 2.072-1.078l.14.938h1.442v-10.108l-1.68.266v3.262c-.406-.14-.924-.252-1.568-.252-1.568 0-2.954 1.12-2.954 3.64z" fill="#fff"/><path d="m147.892 186.328 12.324-20.382c.152-.251.397-.431.682-.501.284-.071.585-.025.836.127l4.472 2.704c.251.152.431.397.502.682.07.284.024.585-.128.836l-12.324 20.382z" fill="#9f90a8"/><path d="m150.47 181.084 7.3 4.4c.093.052.174.122.239.205.066.084.114.18.142.282.027.103.035.21.021.315s-.048.206-.102.298c-29.1 58-62.2998 108.4-81.5998 130.1l-4.8-2.9c10.3-27.1 39.5998-79.9 77.5998-132.5.06-.099.14-.184.236-.249s.204-.108.318-.128c.114-.019.231-.013.343.018.111.03.215.085.303.159z" fill="#433e6b"/><path d="m119.97 226.084 16.1-30.6c.865-1.698 2.225-3.093 3.9-4l3.4-1.8c.193-.092.41-.121.62-.081.209.04.401.145.546.302.146.156.237.355.261.567.024.213-.02.427-.127.612l-22.1 36.5c-.224.33-.564.565-.953.658-.388.092-.798.036-1.147-.158-.323-.206-.555-.528-.648-.9s-.04-.766.148-1.1z" fill="#b4a3be"/><path d="m203.37 305.884h-153.1998c-.4325.009-.8559.126-1.2318.341-.3759.214-.6924.518-.9208.886-.2284.367-.3615.786-.3872 1.218-.0258.432.0567.863.2398 1.255l.8 1.8 152.0998 30.6z" fill="#527ff7"/><path d="m212.17 311.384h7.4l29.8 126.1c.076.293.084.599.025.895-.06.296-.186.575-.369.816-.183.24-.418.436-.687.573-.27.137-.567.211-.869.216h-4.9z" fill="#4c65d4"/><path d="m189.37 311.384h22.8l30.4 128.6h-83.6z" fill="url(#d)"/><path d="m205.77 356.984c1 56.9-5 83-5 83h-20.6l12.3-67.8z" fill="#fccc7e"/><path d="m205.97 335.484c-.5 57.1-18.7 104.5-18.7 104.5h-22.8l32.3-128.6h15.4z" fill="#fccc7e"/><path d="m200.87 335.484c2.5 68.4 30.2 104.5 30.2 104.5h11.5l-30.4-128.6h-15.4z" fill="#fccc7e"/><path d="m196.77 311.384h-7.4l-33 128.6h8.1c.55-.022 1.078-.218 1.509-.559.432-.342.744-.811.891-1.341z" fill="#4c65d4"/><path d="m63.8702 222.784 7.7-3.4c.0531 0 .1039-.021.1414-.059.0375-.037.0586-.088.0586-.141s-.0211-.104-.0586-.141c-.0375-.038-.0883-.059-.1414-.059l-7.7-3.4c-.0265 0-.0519-.011-.0707-.029-.0187-.019-.0293-.044-.0293-.071l-3.5-7.7c0-.2-.2-.2-.3 0l-3.4 7.7h-.1l-7.8 3.5c-.0492.055-.0764.126-.0764.2s.0272.145.0764.2l7.8 3.4h.1l3.4 7.8c.1.2.3.2.3 0l3.5-7.7c0-.026.0106-.052.0293-.071.0188-.018.0442-.029.0707-.029z" fill="#ff7abc"/><path d="m189.37 311.384h-140.6998l-29.6 125.4c-.09.379-.0935.774-.0103 1.155.0833.381.2512.739.4912 1.046.2401.307.5462.557.8957.73.3496.172.7335.265 1.1234.269h134.7998c.732-.017 1.438-.269 2.014-.72.577-.45.993-1.074 1.186-1.78z" fill="#628bf7"/><path d="m218.07 305.884h-27.2c-.441-.007-.876.097-1.266.305-.389.207-.719.51-.959.88s-.382.795-.413 1.235c-.03.44.052.88.238 1.28l.9 1.8h30.2l.9-1.8c.187-.4.269-.84.238-1.28-.03-.44-.172-.865-.412-1.235s-.57-.673-.96-.88c-.389-.208-.825-.312-1.266-.305z" fill="#4c65d4"/><path d="m196.77 311.384c4 7.3 11.4 7.3 15.4 0z" fill="#1f1e41"/><path d="m237.07 439.984c-21-45.1-26.9-77-28.5-111.9 0 0 5.7 57.5 28.5 111.9z" fill="#f0ad60"/><path d="m200.47 360.184c-.6 48-6.4 79.8-6.4 79.8h-8.5s5.7-15.7 14.9-79.8z" fill="#eea456"/><path d="m104.87 354.384c.702-2.386 2.127-4.496 4.08-6.036 1.953-1.541 4.336-2.437 6.82-2.564h26.3c4.9 0 7.9 3.9 6.8 8.6l-10.1 42.5c-.641 2.401-2.037 4.533-3.981 6.082-1.944 1.548-4.335 2.431-6.819 2.518h-26.3c-4.8998 0-7.8998-3.8-6.7998-8.6z" fill="#8dadfc"/><path d="m131.07 350.784c.217.01.428.067.621.167.192.099.361.239.494.411.133.171.227.368.277.58.049.211.052.43.008.642l-11.1 46.8c-.048.336-.217.642-.474.863-.258.221-.587.341-.926.337-.235.009-.47-.038-.684-.137s-.402-.247-.548-.432c-.146-.186-.246-.403-.293-.634-.046-.231-.038-.47.025-.697l11.1-46.7c.087-.335.28-.634.55-.85.271-.216.604-.339.95-.35z" fill="#628bf7"/><path d="m148.37 238.084-18.4-7.4h43.5z" fill="#ffadd6"/><path d="m142.87 284.884-12.9 21h43.5z" fill="#a63281"/><path d="m142.87 284.884 5.5-46.8-40.1 30.2z" fill="#f06a9f"/><path d="m142.87 284.884 5.5-46.8 36.4 26.9z" fill="#db5191"/><path d="m129.97 230.684 18.4 7.4-40.1 30.2z" fill="#ff82a6"/><path d="m108.27 268.284 34.6 16.6-12.9 21z" fill="#d14590"/><path d="m142.87 284.884 41.9-19.9-11.3 40.9z" fill="#bf3d8d"/><path d="m173.47 305.884 11.3-40.9 10.4 3.3z" fill="#ab3582"/><path d="m173.47 230.684-25.1 7.4 36.4 26.9z" fill="#e663a0"/><path d="m195.17 268.284-10.4-3.3-11.3-34.3z" fill="#cf4e9d"/><path d="m397.976 387.29c4-3.3 5-8.9 5-8.9l-7.4 5.7z" fill="#2c9da3"/><path d="m376.676 384.09c-.361-10.877-2.384-21.635-6-31.9-1.8-4.8.8-4.3 8.7 2.3s8.6 12.7-2.7 29.6z" fill="#2c9da3"/><path d="m378.776 386.19 6.1 6.1 18.1-13.9c.078-.073.138-.163.176-.262.038-.1.053-.207.043-.313-.009-.106-.043-.208-.098-.299-.056-.091-.131-.169-.221-.226l-7.1-3.9-9.8-7.1c-.342-.243-.734-.405-1.147-.476-.413-.07-.837-.047-1.24.068-.404.115-.776.32-1.089.598-.314.278-.561.623-.724 1.01-2.5 6.8-4 12.2-3 18.7z" fill="#4cccb5"/><path d="m395.976 384.79c14.2-3.7 17.9 5.9 16.8 15s-4.6 1.5-8-5.6z" fill="#4cccb5"/><path d="m368.276 399.59c-1.751-1.348-2.971-3.269-3.447-5.427-.475-2.158-.175-4.415.847-6.373l8.6-16.5 19.8 15.3-13.7 12.5c-1.634 1.496-3.744 2.366-5.958 2.458-2.214.091-4.389-.602-6.142-1.958z" fill="#4cccb5"/><path d="m384.376 385.79h-.1c-1.037 1.055-2.215 1.964-3.5 2.7-1.598.88-3.271 1.616-5 2.2l.6-4.3.7-5.1-5.4 2.9-3.3 1.8v-3.3l6.2-13.5 15.6 5.3c2.4 1.3-2.4 7.5-5.8 11.3z" fill="#2c9da3"/><path d="m309.176 411.99 7.8-3.4c.05-.055.077-.126.077-.2s-.027-.145-.077-.2l-7.8-3.4-3.5-7.8c-.018-.022-.041-.039-.067-.05-.026-.012-.054-.018-.083-.018-.028 0-.056.006-.082.018-.026.011-.049.028-.068.05l-3.5 7.7-7.8 3.5c-.049.055-.076.126-.076.2s.027.145.076.2l7.8 3.4 3.5 7.7c.134.2.234.2.3 0z" fill="#628bf7"/><path d="m367.376 388.89c-14.9-6.8-31.9-1.5-37.9 11.7-3.3 7.2-2.6 15.4 1.2 22.4l1.9 4.2c.419.879.648 1.836.67 2.809.023.974-.161 1.941-.539 2.838-.377.897-.941 1.704-1.653 2.368s-1.556 1.17-2.478 1.485c-.2.058-.384.16-.54.298s-.279.31-.36.502c-.096.236-.134.492-.111.746.023.255.107.5.244.715s.323.395.544.523c.22.129.469.203.723.216h29.5c10.7.2 20.5-5.2 24.8-14.6 6-13.2-1.1-29.4-16-36.2z" fill="#f2db96"/><path d="m369.676 363.09 6.6 6.1 13.9 5.3c-7.6 0-19.9 5.8-26.3 9.1-.529.274-1.114.424-1.71.437s-1.187-.111-1.728-.362-1.017-.623-1.392-1.086c-.375-.464-.638-1.008-.77-1.589-2.9-13.2-.8-17.1 8.1-18.8.582-.136 1.188-.124 1.764.033s1.104.455 1.536.867z" fill="#4cccb5"/><path d="m380.676 392.89c9.2-7 21.4-3.2 24.1 1.3-7.2-15.7-19.2-20-24.1-1.3z" fill="#2c9da3"/><g fill="#eebd79"><path d="m327.676 413.89c.404 3.198 1.423 6.288 3 9.1l1.9 4.2c.419.878.648 1.836.67 2.809.023.974-.161 1.941-.539 2.838-.377.897-.941 1.704-1.653 2.368s-1.556 1.17-2.478 1.485c-.2.058-.384.16-.54.298s-.279.31-.36.502c-.096.236-.134.492-.111.746s.107.499.244.715c.137.215.323.395.544.523.22.129.469.203.723.216h29.5c10.7.2 20.5-5.2 24.8-14.6s1.8-20.8-5.7-28.8c-7 21-28.5 31.8-50 17.6z"/><path d="m338.976 408.39c1.215 0 2.2-.985 2.2-2.2s-.985-2.2-2.2-2.2-2.2.985-2.2 2.2.985 2.2 2.2 2.2z"/><path d="m361.076 408.49c.829 0 1.5-.672 1.5-1.5 0-.829-.671-1.5-1.5-1.5-.828 0-1.5.671-1.5 1.5 0 .828.672 1.5 1.5 1.5z"/><path d="m356.476 399.29c1.657 0 3-1.343 3-3s-1.343-3-3-3c-1.656 0-3 1.343-3 3s1.344 3 3 3z"/></g><path d="m368.376 427.19c1.215 0 2.2-.985 2.2-2.2s-.985-2.2-2.2-2.2-2.2.985-2.2 2.2.985 2.2 2.2 2.2z" fill="#e0aa5e"/><path d="m350.276 428.29c.608 0 1.1-.493 1.1-1.1 0-.608-.492-1.1-1.1-1.1-.607 0-1.1.492-1.1 1.1 0 .607.493 1.1 1.1 1.1z" fill="#e0aa5e"/><g mask="url(#j)"><circle cx="255" cy="346" fill="#ffb869" r="14"/><path d="m247.816 350.572c1.633 5.682 8.207 9.618 13.48 5.905 5.273-3.714.037-11.327.037-11.327s2.859-7.204-4.308-8.912c-7.167-1.709-8.95 1.411-9.209 14.334z" fill="#4d7ae8"/><path d="m258.436 346.413c-.8 0-1.448-.865-1.448-1.931 0-1.067.648-1.931 1.448-1.931s1.449.864 1.449 1.931c0 1.066-.649 1.931-1.449 1.931z" fill="#dbe7ff"/><path d="m259.057 345.948c-.204-.014-.348-.34-.322-.729s.214-.693.418-.679c.205.014.349.341.323.729-.027.389-.214.693-.419.679z" fill="#201e2f"/><path d="m260.107 340.88c-.096-.289-.28-.54-.527-.717-.247-.178-.542-.274-.847-.274-.304 0-.6.096-.847.274-.246.177-.431.428-.527.717z" fill="#201e2f"/><path d="m259.959 349.087c-1.411.371-2.934.037-4.196-1.337-.165-.188-.397-.305-.646-.326-.25-.021-.498.056-.691.214-.212.144-.357.365-.406.615-.049.251.004.51.146.722 1.931 3.157 4.939 3.64 6.796 1.857.127-.114.222-.261.274-.424s.06-.337.023-.504c-.026-.142-.081-.278-.162-.397-.081-.12-.186-.221-.308-.298s-.259-.128-.402-.149-.289-.012-.428.027z" fill="#590942"/><path d="m258.882 349.235c.364.003.727-.047 1.077-.148h.334v.928s-.557.409-2.637.186v-.52l-3.639-1.226c.002-.153.039-.303.11-.439.071-.135.174-.252.299-.34 0-.01.004-.02.011-.027.006-.007.016-.011.026-.011.152-.104.335-.156.52-.148.037-.037.111 0 .148 0h.334c.038.037.075.037.075.074s.074 0 .074.037l.149.112c.219.252.469.476.742.668l.52.334c.242.149.505.262.78.335.347.119.71.182 1.077.185z" fill="#dbe7ff"/><path d="m254.426 347.638c0-.009.004-.019.011-.026.006-.007.016-.011.026-.011.152-.104.335-.156.52-.148.037-.037.111 0 .148 0h.334c.038.037.075.037.075.074s.074 0 .074.037l.149.112c.116.154.254.291.408.408l-1.04.631-1.114-.371c.013-.14.056-.276.126-.398.071-.122.167-.227.283-.308z" fill="#b5cdff"/><path d="m249.338 338.837c1.337-2.971 3.676-3.565 7.687-2.599.808.18 1.584.481 2.303.891.222 1.188-1.597 1.56-4.977.483 1.114 2.005-1.188 5.57-5.013 1.225z" fill="#201e2f"/><path d="m254.017 336.126.186-2.451c.016-.223-.015-.448-.093-.658-.079-.211-.201-.402-.36-.56-.158-.159-.349-.281-.56-.359-.21-.079-.435-.11-.658-.094-.252.015-.497.09-.714.22-.216.129-.398.31-.529.525-.132.216-.209.46-.225.712-.017.252.028.504.131.734l1.114 2.526z" fill="#201e2f"/><path d="m244.362 349.235 1.114.409 2.339-1.523v1.894l1.932 1.523c.405.333.739.745.982 1.211.242.466.388.976.429 1.5l.074 1.522c2.822 2.34 6.684 3.082 10.064.706.549-.367 1.038-.818 1.448-1.337l1.151.408s-2.339 9.841-6.239 11.624c-3.899 1.782-6.61 0-6.61 0-4.085-13.889-2.896-16.488-12.997-12.478l-.483-2.822z" fill="#ef6767"/><path d="m252.457 344.816-7.352-6.87-.669.854 5.682 10.584z" fill="#4d7ae8"/><path d="m249.784 343.256-2.897-2.042 2.228 4.011-.408-1.56z" fill="#3366e0"/></g></svg>