<svg fill="none" height="440" viewBox="0 0 678 440" width="678" xmlns="http://www.w3.org/2000/svg" xmlns:xlink="http://www.w3.org/1999/xlink"><linearGradient id="a" gradientUnits="userSpaceOnUse" x1="369.183" x2="373.776" y1="308.601" y2="306.859"><stop offset="0" stop-color="#61c7c7"/><stop offset="1" stop-color="#54b9c7"/></linearGradient><linearGradient id="b" gradientUnits="userSpaceOnUse" x1="339.009" x2="340.249" y1="294.786" y2="309.312"><stop offset="0" stop-color="#ffc285"/><stop offset="1" stop-color="#db8d6b"/></linearGradient><linearGradient id="c" gradientUnits="userSpaceOnUse" x1="326.786" x2="352.969" y1="309.656" y2="296.831"><stop offset="0" stop-color="#d67569"/><stop offset="1" stop-color="#e39e7f"/></linearGradient><clipPath id="d"><path d="m0 0h678v440h-678z"/></clipPath><mask id="e" height="28" maskUnits="userSpaceOnUse" width="28" x="365" y="292"><circle cx="379" cy="306" fill="#c4c4c4" r="14"/></mask><mask id="f" height="28" maskUnits="userSpaceOnUse" width="28" x="329" y="292"><circle cx="343" cy="306" fill="#c4c4c4" r="14"/></mask><mask id="g" height="28" maskUnits="userSpaceOnUse" width="28" x="329" y="204"><circle cx="343" cy="218" fill="#c4c4c4" r="14"/></mask><mask id="h" height="28" maskUnits="userSpaceOnUse" width="28" x="328" y="132"><circle cx="342" cy="146" fill="#c4c4c4" r="14"/></mask><mask id="i" height="28" maskUnits="userSpaceOnUse" width="28" x="329" y="168"><circle cx="343" cy="182" fill="#c4c4c4" r="14"/></mask><g clip-path="url(#d)"><rect fill="#292841" height="328" rx="8" width="397" x="252" y="63"/><g mask="url(#e)"><circle cx="379" cy="306" fill="#cfdeff" r="14"/><path d="m394.647 324.788c-.266-.656-.705-1.228-1.271-1.654-.566-.425-1.237-.689-1.941-.763l-1.471-.155c-2.109-7.601-1.043-9.327-7.271-11.032l-5.041-.178s-5.123.086-7.007 2.608l2.635 8.638s-1.079 5.733-.588 8.639l6.566-.847 2.846 9.208c10.729-1.592 15.727-6.565 15.727-6.565z" fill="#cfdeff"/><path d="m371.847 311.687c7.149 6.696 13.609 11.272 12.522.708z" fill="#b8c5ff"/><path d="m375.356 312.477c6.224 2.925 7.84 4.029 7.432.513z" fill="#5697b0"/><path d="m388.79 317.395c-.758-3.194-1.327-4.571-4.515-5.725.858 2.008 1.231 6.149 1.231 6.149z" fill="#fff"/><path d="m378.165 301.962-.228-1.766c-.077-.576-.335-1.113-.737-1.532-.402-.42-.927-.702-1.499-.803-.628-.11-1.275.005-1.827.325-.553.319-.975.823-1.193 1.423-.801 2.175-2.053 5.674-2.916 8.617-1.374 4.69 4.843 5.775 10.953 5.308 6.109-.466 6.684-3.142 5.839-7.015-.542-2.416-1.229-4.883-1.657-6.416-.131-.428-.384-.808-.728-1.095-.343-.287-.763-.467-1.207-.52-.499-.058-1.002.052-1.431.311-.429.26-.759.655-.939 1.123l-.687 1.815z" fill="#7ce4cc"/><path d="m385.737 308.374-.434-.151-2.225.771-2.264.292-3.923-.783s-2.157-3.335-2 .374c.123 2.562 1.211 4.033 1.874 4.707 1.316.06 2.636.036 3.95-.073.991-.055 1.974-.22 2.929-.493.661-.937 1.727-2.663 2.093-4.644z" fill="#aafae7"/><path d="m374.827 308.563c-.504-1.409-1.416-4.375-1.038-6.611.379-2.236.879-4.073 1.912-4.091-.628-.11-1.275.005-1.827.325-.553.319-.975.823-1.193 1.423-.801 2.175-2.053 5.674-2.916 8.617-1.232 4.188 3.61 5.496 9.03 5.395-1.176-.193-2.67-1.428-3.968-5.058z" fill="url(#a)" opacity=".74"/><path d="m378.795 313.621-.436.01-.413.008-.649-.032-.204.027-.326-.027c-.659-.652-1.747-2.123-1.871-4.685-.009-.046-.007-.094.006-.139 1.274 3.45 2.743 4.664 3.893 4.838z" fill="#aafae7"/><path d="m385.203 307.983-.003.517c-2.38 1.557-2.767 1.988-8.9.062l-.062-.481.266.075c5.193 1.313 6.185 1.429 8.699-.173z" fill="#2c4661"/><path d="m375.817 309.993c.802-.223 1.249-1.133.999-2.032-.251-.899-1.103-1.446-1.905-1.223s-1.249 1.133-.999 2.031c.251.899 1.103 1.447 1.905 1.224z" fill="#738eff"/><path d="m386.349 308.128c.163-.777-.065-1.483-.51-1.576-.444-.093-.936.462-1.099 1.239s.065 1.483.509 1.576c.444.094.937-.461 1.1-1.239z" fill="#738eff"/><path d="m380.265 306.64c-.114-.169.078-.286.231-.352.061-.023.129-.027.193-.01.064.016.121.052.164.102l.581.754c.168.232-.084.241-.334.089s-.661-.306-.835-.583z" fill="#284e7a" opacity=".41"/><path d="m382.866 306.995.177-.414c.031-.071.04-.149.026-.226-.014-.076-.05-.146-.105-.201l-.079-.082c-.008-.009-.017-.015-.028-.019-.01-.004-.021-.006-.033-.004-.011.001-.022.006-.031.012-.009.007-.016.015-.021.026-.109.295-.193.598-.252.907-.027.326.177.299.346.001z" fill="#284e7a" opacity=".41"/><path d="m380.349 302.118-2.184-.156 1.743-.225.687-1.815c.18-.468.51-.863.939-1.123.429-.259.932-.369 1.431-.311l.425.083c-1.037-.188-1.389 1.008-1.593 2.462-.104.796-.075 1.207-1.448 1.085z" fill="#61c7c7"/><path d="m384.423 301.786c.004-.555-.362-1.007-.816-1.009-.454-.003-.824.444-.828.999-.003.555.362 1.007.816 1.01.454.002.825-.445.828-1z" fill="#21354a"/><path d="m376.737 301.454c.055-.552-.267-1.036-.719-1.081-.452-.044-.862.367-.917.919-.054.552.268 1.036.719 1.081.452.044.863-.367.917-.919z" fill="#21354a"/><path d="m373.28 322.252c.946.016 2.151-.094 3.227-.14-.02-.43.018-.861.111-1.281.165-.705.417-1.387.751-2.03-.861-.073-1.906-.146-2.762-.173-.178-4.236-2.408-6.526-3.638-5.355-.583.554-.937 1.306-.993 2.108-.032.649.035 1.699-.004 1.934-.107.774-.653 1.006.016 2.439.345.715-.302 2.479 3.292 2.498z" fill="#fff"/><path d="m376.229 298.023c.877.554 1.098 1.907 1.168 2.45s.196 1.517.228 1.766.112.331.943.707.484.007.106-.428l-.509-.556-.228-1.766c-.065-.482-.257-.938-.557-1.32-.301-.382-.698-.677-1.151-.853z" fill="#d4ffdc"/><path d="m383.949 301.123c.315.121.386.848.073.566-.312-.282-.506-.717-.073-.566z" fill="#335a70"/><path d="m376.344 300.701c.292.123.366.874.073.566-.293-.307-.529-.714-.073-.566z" fill="#335a70"/><path d="m376.28 309.049c.301-.159.325-.704.054-1.216-.271-.513-.734-.8-1.035-.641s-.326.704-.055 1.217c.271.512.735.799 1.036.64z" fill="#b2a6ff"/><path d="m386.329 307.51c0-.365-.143-.662-.319-.662-.177 0-.32.296-.32.662-.001.366.142.662.319.662.176 0 .32-.296.32-.662z" fill="#b2a6ff"/><path d="m384.027 299.226c.488.397.627 1.116.079.611-.549-.505-.67-1.087-.079-.611z" fill="#d4ffdc"/></g><g mask="url(#f)"><circle cx="343" cy="306" fill="#ff82a6" r="14"/><path d="m350.911 295.282-.041.12-.123.292-.041.119-.095.213c-2.09 4.87-6.101 8.46-8.758 10.955-2.752 2.572-5.85 4.748-9.202 6.464-3.303 1.585-4.796.161-4.428-2.54l.331-1.355 1.627-6.832.069-.333c1.102-4.452 2.801-7.009 8.326-8.389l8.406-2.062.027-.013c2.936-.708 4.979.28 3.902 3.361z" fill="url(#b)"/><path d="m350.045 291.959c-2.667.445-7.66 3.653-12.613 8.367s-8.737 9.917-9.078 12.472c.469 1.362 1.904 1.786 4.297.647 3.352-1.716 6.45-3.892 9.202-6.464 2.657-2.495 6.668-6.085 8.759-10.955l.094-.213.041-.119.123-.292.041-.12c.64-1.806.21-2.888-.866-3.323z" fill="url(#c)"/><path d="m342.132 305.221c4.808-4.562 7.998-9.005 7.127-9.924-.872-.918-5.476 2.035-10.284 6.597-4.807 4.562-7.998 9.005-7.126 9.924.871.919 5.475-2.035 10.283-6.597z" fill="#6b3143"/><path d="m341.123 313.141-1.273.922c-.307.204-.564.474-.754.791-.189.316-.305.671-.339 1.038l-.214 1.663-2.24 2.059c-.469.461-.746 1.082-.774 1.739l.014 1.584s12.252 6.533 18.841 5.361c6.588-1.171 2.578-12.471 2.578-12.471-.058-.11-.146-.203-.253-.267-.108-.065-.231-.098-.356-.097l-1.957-.136-.835-2.045c-.077-.189-.2-.357-.356-.488-.157-.131-.344-.222-.544-.265l-5.77-1.219z" fill="#ef6270"/><path d="m341.402 316.553c-1.756-.334-1.636-.293-1.137-1.101.286-.5.704-.912 1.209-1.189z" fill="#bd3c53"/><path d="m344.091 300.314c-.211-.228-1.98 1.036-3.939 2.858s-3.371 3.475-3.16 3.703c2.355 3.588 3.925 6.997 4.41 9.678l9.573 1.876c-.517-8.501-4.491-14.313-6.884-18.115z" fill="#ffb685"/><path d="m347.734 307.872c-.081-.302-.313-.503-.52-.448s-.309.345-.229.647c.081.302.313.502.52.447s.309-.344.229-.646z" fill="#543247"/><path d="m344.59 309.655c.15-.217.041-.551-.243-.748s-.635-.181-.785.036c-.15.216-.041.551.243.747.284.197.635.181.785-.035z" fill="#543247"/><path d="m346.561 312.6c.802-.393 1.538-.787 1.883-.691.346.096.194.734-.184 1.45-.379.716-.27.398-1.147.164s-1.167-.622-.552-.923z" fill="#c74153"/><path d="m346.895 312.469-.616.435c.024.253.382.509.834.619s.971.154 1.147-.164l.162-.345c-.225-.188-.847-.646-1.527-.545z" fill="#a82c3c"/><path d="m348.112 311.906c-.537.185-1.056.417-1.551.694-.348.17-.322.357-.164.544l1.844-.837c.107-.052-.024-.253-.129-.401z" fill="#fff"/><path d="m350.436 309.408c.014-.04-.013-.093.001-.133-.032-.27-.146-.524-.328-.725-.183-.202-.423-.343-.688-.402.064.058.114.129.147.209s.047.166.041.252-.032.169-.075.244-.102.139-.174.187c-.257.147-.545.232-.841.246-.385.043-.756.17-1.087.373-.33.202-.613.474-.827.797-1.358-.065-1.831.797-2.794 1.269-.259.134-.539.227-.827.273-.947.165-1.104-.222-1.126-.742-1.046.844-.39 2.048.42 2.347.478.231 1.118.116 1.788-.411 1.661.413 2.249.191 3.207-1.372 1.582.385 2.599-.246 2.678-1.71.133-.067.247-.167.332-.289.084-.123.137-.265.153-.413z" fill="#6b3143"/><path d="m347.273 311.82c1.582.385 2.599-.245 2.678-1.71.133-.067.247-.166.332-.289.084-.123.137-.264.153-.413.014-.04-.013-.093.001-.133-.027-.138-.071-.273-.13-.4.019.22-.046.44-.18.616s-.329.296-.547.337c-.475 1.061-1.435 1.266-2.539 1.044 0 0-1.239 1.735-2.954 1.348-1.206.989-2.497.858-2.769-.103-.025.319.056.637.229.906.173.268.43.472.731.58.478.231 1.118.116 1.788-.411 1.661.413 2.249.191 3.207-1.372z" fill="#5e2737"/></g><g mask="url(#g)"><circle cx="343" cy="218" fill="#ffb869" r="14"/><path d="m335.816 222.572c1.633 5.682 8.207 9.618 13.48 5.905 5.273-3.714.037-11.327.037-11.327s2.859-7.204-4.308-8.912-8.95 1.411-9.209 14.334z" fill="#4d7ae8"/><path d="m346.436 218.413c-.8 0-1.448-.865-1.448-1.931 0-1.067.648-1.931 1.448-1.931s1.449.864 1.449 1.931c0 1.066-.649 1.931-1.449 1.931z" fill="#dbe7ff"/><path d="m347.057 217.948c-.204-.014-.348-.34-.322-.729s.214-.693.418-.679c.205.014.349.341.323.73-.027.388-.214.692-.419.678z" fill="#201e2f"/><path d="m348.107 212.88c-.096-.289-.28-.54-.527-.717-.247-.178-.542-.274-.847-.274-.304 0-.6.096-.847.274-.246.177-.431.428-.527.717z" fill="#201e2f"/><path d="m347.959 221.087c-1.411.371-2.934.037-4.196-1.337-.165-.188-.397-.305-.646-.326-.25-.021-.498.056-.691.214-.212.144-.357.365-.406.615-.049.251.004.51.146.722 1.931 3.157 4.939 3.64 6.796 1.857.127-.114.222-.261.274-.424s.06-.337.023-.504c-.026-.142-.081-.278-.162-.397-.081-.12-.186-.221-.308-.298s-.259-.128-.402-.149-.289-.012-.428.027z" fill="#590942"/><path d="m346.882 221.235c.364.003.727-.047 1.077-.148h.334v.928s-.557.409-2.637.186v-.52l-3.639-1.226c.002-.153.039-.303.11-.439.071-.135.174-.252.299-.34 0-.01.004-.02.011-.027.006-.007.016-.011.026-.011.152-.104.335-.156.52-.148.037-.037.111 0 .148 0h.334c.038.037.075.037.075.074s.074 0 .074.037l.149.112c.219.252.469.476.742.668l.52.334c.242.149.505.262.78.335.347.119.71.182 1.077.185z" fill="#dbe7ff"/><path d="m342.426 219.638c0-.009.004-.019.011-.026.006-.007.016-.011.026-.011.152-.104.335-.156.52-.148.037-.037.111 0 .148 0h.334c.038.037.075.037.075.074s.074 0 .074.037l.149.112c.116.154.254.291.408.408l-1.04.631-1.114-.371c.013-.14.056-.276.126-.398.071-.122.167-.227.283-.308z" fill="#b5cdff"/><path d="m337.338 210.837c1.337-2.971 3.677-3.565 7.687-2.599.808.18 1.584.481 2.303.891.222 1.188-1.597 1.56-4.977.483 1.114 2.005-1.188 5.57-5.013 1.225z" fill="#201e2f"/><path d="m342.017 208.126.186-2.451c.016-.223-.015-.448-.093-.658-.079-.211-.201-.402-.36-.56-.158-.159-.349-.281-.56-.359-.21-.079-.435-.11-.658-.094-.252.015-.497.09-.714.22-.216.129-.398.31-.529.525-.132.216-.209.46-.225.712-.017.252.028.504.131.734l1.114 2.526z" fill="#201e2f"/><path d="m332.362 221.235 1.114.409 2.339-1.523v1.894l1.932 1.523c.405.333.739.745.982 1.211.242.466.388.976.429 1.5l.074 1.522c2.822 2.34 6.684 3.082 10.064.706.549-.367 1.038-.818 1.448-1.337l1.151.408s-2.339 9.841-6.239 11.624c-3.899 1.782-6.61 0-6.61 0-4.085-13.889-2.896-16.488-12.997-12.478l-.483-2.822z" fill="#ef6767"/><path d="m340.457 216.816-7.352-6.87-.669.854 5.682 10.584z" fill="#4d7ae8"/><path d="m337.784 215.256-2.897-2.042 2.228 4.011-.408-1.56z" fill="#3366e0"/></g><g mask="url(#h)"><g fill="#f7e5bc"><circle cx="342" cy="146" r="14"/><path d="m358.1 154.763-1.903 4.389c-.148.346-.365.659-.637.92s-.594.465-.946.6-.728.197-1.105.184-.747-.101-1.089-.26l-7.11-3.236 3.541-5.583 4.333 2.417.639-1.889c2.236.889 3.43 1.667 4.277 2.458z"/><path d="m349.837 152.638c2.861.473 3.125 1.07 3.888 2.57l-3.069-.348z"/></g><path d="m336.366 128.85c-.568.177-1.049.564-1.343 1.082-.294.519-.379 1.13-.24 1.709l2.847 11.624 5.097-1.056-3.43-11.776c-.086-.298-.231-.576-.425-.818-.195-.241-.435-.441-.708-.589-.273-.147-.572-.239-.881-.269s-.62.001-.917.093z" fill="#d6569b"/><path d="m339.199 140.543 2.014-.084-2.138-6.999c-.03-.1-.08-.194-.147-.274-.068-.081-.151-.146-.245-.193-.093-.047-.196-.074-.301-.08-.104-.006-.209.011-.307.047-.173.066-.315.193-.399.357-.085.164-.106.353-.06.532z" fill="#e374b0"/><path d="m348.157 128.794c.571.172 1.055.554 1.354 1.07.3.516.391 1.127.257 1.708l-2.722 11.637-5.111-.986 3.305-11.818c.083-.299.225-.578.418-.822.192-.243.431-.446.702-.596.272-.15.571-.244.879-.277.309-.034.62-.005.918.084z" fill="#d6569b"/><path d="m346.226 140.515-1.999-.07 2.055-7.026c.029-.101.079-.194.147-.274.067-.08.151-.145.245-.191s.197-.072.302-.075c.104-.004.209.014.306.053.172.063.315.187.402.348.087.162.112.349.07.527z" fill="#e374b0"/><path d="m351.934 157.457-.833 2.639-.111.333-1.028 3.222h-19.109c-.18-.708.042-.847.528-1.639.486-.791.236-.583.306-2.499.055-1.347.541-2.597 2.277-4.153.528-.458.653-.638 1.194-1.138l.167-.153.083-.084.111-.083 13.054-2.055 2.625 4.374z" fill="#f7e5bc"/><path d="m351.101 160.096c-.083 1.264-.195 2.458-.333 3.555h-14.04c.013-.569.027-1.278.055-2.139-.002-.092.002-.185.014-.277v-1.07c-.097-2.541-.819-4.277-2.833-4.805.375-.375.764-.75 1.194-1.138l.167-.153.194-.167 13.054-2.055c1.028.375 1.708.639 2.486 1.43.083 1 .125 1.986.139 2.944.014 1.347-.028 2.639-.097 3.875z" fill="#1f3a70"/><path d="m349.848 146.35-15.151.606c-1.994.08-3.546 1.761-3.466 3.755v.006c.08 1.994 1.761 3.546 3.755 3.466l15.151-.606c1.994-.08 3.546-1.761 3.467-3.755l-.001-.005c-.079-1.995-1.761-3.546-3.755-3.467z" fill="#f06ea8"/><path d="m349.057 139.633-14.721.617c-2.108.089-3.744 1.869-3.656 3.976l.005.126c.089 2.107 1.868 3.744 3.976 3.656l14.721-.617c2.107-.089 3.744-1.868 3.656-3.976l-.005-.126c-.089-2.107-1.869-3.744-3.976-3.656z" fill="#f06ea8"/><path d="m350.087 153.458c1.944-.084 3.541-1.653 3.541-3.597.007-.707-.195-1.4-.581-1.993-.385-.593-.936-1.059-1.585-1.34.488-.372.88-.857 1.141-1.413s.384-1.167.359-1.781v-.125c-.022-.502-.142-.994-.354-1.449-.212-.456-.511-.865-.882-1.204-.37-.339-.803-.602-1.275-.773-.472-.172-.973-.249-1.475-.226l-13.137.555c-1.181 2.264-1.014 4.694-.139 6.444.128.265.2.553.211.847.012.293-.036.587-.142.861-1.263 3.361.403 5.791.403 5.791z" fill="#e05fa3"/><path d="m339.479 146.65c.333-.218.352-.781.041-1.255-.31-.475-.833-.683-1.167-.465-.333.218-.352.78-.041 1.255s.833.683 1.167.465z" fill="#1b1926"/><path d="m346.059 145.613c.144-.517-.026-1.017-.381-1.116-.354-.099-.759.24-.903.757-.145.517.026 1.017.38 1.116.355.099.759-.24.904-.757z" fill="#1b1926"/><path d="m340.935 148.32c.917 1.555 2.264 1.916 3.167-.098.01-.018.016-.038.015-.059 0-.021-.007-.042-.018-.059-.012-.017-.028-.031-.047-.04-.02-.008-.041-.011-.061-.008l-2.958.083c-.02.002-.04.009-.056.021-.017.011-.031.026-.04.044-.01.018-.015.037-.015.058 0 .02.004.04.013.058z" fill="#751b40"/><path d="m342.782 148.097-1.749.042c-.02.002-.04.009-.056.021-.017.011-.031.026-.04.044-.01.018-.015.037-.015.057 0 .021.004.041.013.058.792 1.334 1.889 1.792 2.764.625-.217-.365-.536-.659-.917-.847z" fill="#9c2455"/></g><path d="m333.356 98.096c0-.902-.704-1.54-1.562-1.54-.88 0-1.584.638-1.584 1.54 0 .88.704 1.496 1.584 1.496.858 0 1.562-.616 1.562-1.496zm-.264 14.718v-11.44h-2.64v11.22c0 .924-.44 1.254-1.166 1.254-.308 0-.616-.022-.858-.088l.352 2.156c.176.066.638.088 1.034.088 1.958 0 3.278-.902 3.278-3.19zm2.77-11.44v7.634c0 2.002 1.034 3.212 3.036 3.212 1.408 0 2.552-.77 3.542-1.716l.242 1.496h2.244v-10.626h-2.64v7.172c-.77.792-1.606 1.32-2.42 1.32-.968 0-1.364-.616-1.364-1.54v-6.952zm19.629 7.502c0-2.002-1.078-2.75-3.828-3.454-1.584-.418-1.98-.748-1.98-1.32s.484-.968 1.474-.968c1.056 0 2.31.374 3.366.968l.352-2.2c-1.056-.462-2.332-.748-3.718-.748-2.464 0-3.916 1.298-3.916 3.146 0 1.936 1.078 2.684 3.652 3.344 1.694.418 2.156.726 2.156 1.474 0 .704-.616 1.122-1.76 1.122-1.32 0-2.728-.506-3.872-1.254l-.352 2.2c1.012.55 2.596 1.034 4.136 1.034 2.794 0 4.29-1.254 4.29-3.344zm7.77 3.124-.33-2.222c-.242.066-.528.088-.836.088-1.012 0-1.386-.462-1.386-1.32v-5.016h2.486l-.33-2.156h-2.156v-3.762l-2.618.396v3.366h-1.496v2.156h1.496v5.456c0 2.42 1.408 3.19 3.498 3.19.77 0 1.254-.088 1.672-.176zm7.104-5.06v-2.552h-5.72v2.552zm10.374 4.246-.352-2.266c-.968.748-1.87 1.012-2.794 1.012-1.54 0-2.75-1.056-2.75-3.256 0-2.112 1.1-3.234 2.662-3.234 1.056 0 1.892.352 2.75.99l.374-2.376c-.77-.484-1.87-.902-3.256-.902-2.882 0-5.192 1.892-5.192 5.588 0 3.476 2.09 5.456 5.038 5.456 1.408 0 2.508-.33 3.52-1.012zm11.175.814v-7.656c0-1.98-1.056-3.19-3.036-3.19-1.408 0-2.508.748-3.388 1.562v-6.6l-2.64.418v15.466h2.64v-7.172c.77-.814 1.606-1.342 2.42-1.342.968 0 1.364.638 1.364 1.562v6.952zm5.659-13.904c0-.902-.704-1.54-1.562-1.54-.88 0-1.584.638-1.584 1.54 0 .88.704 1.496 1.584 1.496.858 0 1.562-.616 1.562-1.496zm-.264 13.904v-10.626h-2.64v10.626zm5.543 0v-15.884l-2.64.418v15.466zm5.543 0v-15.884l-2.64.418v15.466zm5.807-13.904c0-.902-.704-1.54-1.562-1.54-.88 0-1.584.638-1.584 1.54 0 .88.704 1.496 1.584 1.496.858 0 1.562-.616 1.562-1.496zm-.264 13.904v-10.626h-2.64v10.626zm11.857 0v-7.656c0-1.98-1.056-3.19-3.036-3.19-1.43 0-2.552.77-3.542 1.716l-.242-1.496h-2.244v10.626h2.64v-7.172c.77-.814 1.606-1.342 2.42-1.342.968 0 1.364.638 1.364 1.562v6.952z" fill="#fff"/><path d="m332.476 266.83c0-2.332.99-3.454 2.376-3.454.902 0 1.408.154 2.068.462v4.554c-.704.902-1.452 1.474-2.42 1.474-1.166 0-2.024-.968-2.024-3.036zm-2.662.154c0 3.586 1.782 5.236 4.004 5.236 1.474 0 2.508-.792 3.256-1.694l.22 1.474h2.266v-15.884l-2.64.418v5.126c-.638-.22-1.452-.396-2.464-.396-2.464 0-4.642 1.76-4.642 5.72zm21.494 5.016v-7.656c0-1.98-1.056-3.19-3.036-3.19-1.43 0-2.552.77-3.542 1.716l-.242-1.496h-2.244v10.626h2.64v-7.172c.77-.814 1.606-1.342 2.42-1.342.968 0 1.364.638 1.364 1.562v6.952zm4.779-5.17c0-2.332.99-3.454 2.376-3.454.902 0 1.408.154 2.068.462v4.554c-.704.902-1.452 1.474-2.42 1.474-1.166 0-2.024-.968-2.024-3.036zm-2.662.154c0 3.586 1.782 5.236 4.004 5.236 1.474 0 2.508-.792 3.256-1.694l.22 1.474h2.266v-15.884l-2.64.418v5.126c-.638-.22-1.452-.396-2.464-.396-2.464 0-4.642 1.76-4.642 5.72zm17.843-.044v-2.552h-5.72v2.552zm11.429 5.06v-7.656c0-1.98-1.056-3.19-3.036-3.19-1.43 0-2.552.77-3.542 1.716l-.242-1.496h-2.244v10.626h2.64v-7.172c.77-.814 1.606-1.342 2.42-1.342.968 0 1.364.638 1.364 1.562v6.952zm5.659-13.904c0-.902-.704-1.54-1.562-1.54-.88 0-1.584.638-1.584 1.54 0 .88.704 1.496 1.584 1.496.858 0 1.562-.616 1.562-1.496zm-.264 13.904v-10.626h-2.64v10.626zm8.557-7.172c0 1.166-.704 2.024-1.87 2.024-1.144 0-1.848-.836-1.848-1.936 0-1.166.682-2.068 1.848-2.068 1.122 0 1.87.858 1.87 1.98zm3.762 7.612c0-1.628-1.364-2.31-3.542-2.618l-1.364-.132c-1.65-.242-1.98-.33-1.98-.682 0-.176.176-.374.44-.572.264.044.55.066.858.066 2.288 0 4.246-1.364 4.246-3.652 0-.484-.088-.968-.286-1.386l1.936-.132-.352-2.112-2.596.924c-.77-.638-1.782-.99-3.014-.99-2.376 0-4.268 1.43-4.268 3.762 0 1.408.748 2.508 2.002 3.102-.88.528-1.342 1.1-1.342 1.694 0 .418.198.814.616 1.144-1.32.748-2.002 1.518-2.002 2.508 0 1.76 2.178 2.64 5.06 2.64 3.08 0 5.588-1.276 5.588-3.564zm-5.412 2.002c-2.002 0-2.948-.572-2.948-1.364 0-.55.352-1.056 1.122-1.606.528.11.858.176 1.584.264l1.43.176c1.32.198 1.782.528 1.782 1.1 0 .792-1.078 1.43-2.97 1.43zm16.358-2.442v-7.656c0-1.98-1.056-3.19-3.036-3.19-1.408 0-2.508.748-3.388 1.562v-6.6l-2.64.418v15.466h2.64v-7.172c.77-.814 1.606-1.342 2.42-1.342.968 0 1.364.638 1.364 1.562v6.952zm8.365 0-.33-2.222c-.242.066-.528.088-.836.088-1.012 0-1.386-.462-1.386-1.32v-5.016h2.486l-.33-2.156h-2.156v-3.762l-2.618.396v3.366h-1.496v2.156h1.496v5.456c0 2.42 1.408 3.19 3.498 3.19.77 0 1.254-.088 1.672-.176z" fill="#b9bbbe"/><path d="m338.218 352.876c0-2.002-1.078-2.75-3.828-3.454-1.584-.418-1.98-.748-1.98-1.32s.484-.968 1.474-.968c1.056 0 2.31.374 3.366.968l.352-2.2c-1.056-.462-2.332-.748-3.718-.748-2.464 0-3.916 1.298-3.916 3.146 0 1.936 1.078 2.684 3.652 3.344 1.694.418 2.156.726 2.156 1.474 0 .704-.616 1.122-1.76 1.122-1.32 0-2.728-.506-3.872-1.254l-.352 2.2c1.012.55 2.596 1.034 4.136 1.034 2.794 0 4.29-1.254 4.29-3.344zm7.77 3.124-.33-2.222c-.242.066-.528.088-.836.088-1.012 0-1.386-.462-1.386-1.32v-5.016h2.486l-.33-2.156h-2.156v-3.762l-2.618.396v3.366h-1.496v2.156h1.496v5.456c0 2.42 1.408 3.19 3.498 3.19.77 0 1.254-.088 1.672-.176zm1.927-10.626v7.634c0 2.002 1.034 3.212 3.036 3.212 1.408 0 2.552-.77 3.542-1.716l.242 1.496h2.244v-10.626h-2.64v7.172c-.77.792-1.606 1.32-2.42 1.32-.968 0-1.364-.616-1.364-1.54v-6.952zm13.887 5.456c0-2.332.99-3.454 2.376-3.454.902 0 1.408.154 2.068.462v4.554c-.704.902-1.452 1.474-2.42 1.474-1.166 0-2.024-.968-2.024-3.036zm-2.662.154c0 3.586 1.782 5.236 4.004 5.236 1.474 0 2.508-.792 3.256-1.694l.22 1.474h2.266v-15.884l-2.64.418v5.126c-.638-.22-1.452-.396-2.464-.396-2.464 0-4.642 1.76-4.642 5.72zm13.553 9.02c1.914 0 3.146-.77 4.048-3.322l4.07-11.308h-2.662l-2.376 7.48-2.42-7.634-2.75.352 3.85 10.406-.088.308c-.352 1.144-1.056 1.54-1.936 1.54-.462 0-.836-.066-1.166-.154l.352 2.222c.242.066.506.11 1.078.11zm14.946-9.064v-2.552h-5.72v2.552zm8.767-3.168-.418-2.618c-1.65.088-2.706 1.122-3.41 2.354l-.33-2.134h-2.244v10.626h2.64v-6.094c.77-1.144 2.112-2.024 3.762-2.134zm10.857 2.904c0-3.454-2.112-5.522-5.016-5.522-2.882 0-4.994 2.09-4.994 5.544s2.09 5.522 4.972 5.522c2.904 0 5.038-2.09 5.038-5.544zm-2.574.022c0 1.98-.836 3.366-2.464 3.366-1.54 0-2.398-1.43-2.398-3.388s.836-3.366 2.398-3.366c1.584 0 2.464 1.43 2.464 3.388zm14.176-.022c0-3.454-2.112-5.522-5.016-5.522-2.883 0-4.994 2.09-4.994 5.544s2.09 5.522 4.972 5.522c2.904 0 5.038-2.09 5.038-5.544zm-2.574.022c0 1.98-.836 3.366-2.464 3.366-1.54 0-2.398-1.43-2.398-3.388s.836-3.366 2.398-3.366c1.584 0 2.464 1.43 2.464 3.388zm19.961 5.302v-7.656c0-1.98-.99-3.19-2.992-3.19-1.43 0-2.596.77-3.542 1.716-.396-1.034-1.21-1.716-2.728-1.716-1.43 0-2.508.77-3.498 1.716l-.242-1.496h-2.244v10.626h2.64v-7.194c.77-.792 1.54-1.32 2.354-1.32.968 0 1.32.638 1.32 1.562v6.952h2.64v-7.194c.77-.792 1.54-1.32 2.354-1.32.968 0 1.298.638 1.298 1.562v6.952z" fill="#b9bbbe"/><path clip-rule="evenodd" d="m305.229 93.8488c-.468-.1925-1.005-.0862-1.363.2713l-5.366 5.8829h-3.75c-.688 0-1.25.563-1.25 1.25v7.5c0 .687.562 1.25 1.25 1.25h3.75l5.366 5.885c.358.357.895.465 1.363.271.467-.194.771-.65.771-1.156v-20.0004c0-.5038-.304-.9625-.771-1.1538zm3.271 2.4036v2.5c3.446 0 6.25 2.8046 6.25 6.2496 0 3.447-2.804 6.25-6.25 6.25v2.5c4.825 0 8.75-3.923 8.75-8.75 0-4.823-3.925-8.7496-8.75-8.7496zm0 4.9996c2.067 0 3.75 1.684 3.75 3.75 0 2.069-1.683 3.75-3.75 3.75v-2.5c.689 0 1.25-.561 1.25-1.25 0-.688-.561-1.25-1.25-1.25z" fill="#b9bbbe" fill-rule="evenodd"/><path clip-rule="evenodd" d="m305.229 253.849c-.468-.193-1.005-.086-1.363.271l-5.366 5.883h-3.75c-.688 0-1.25.563-1.25 1.25v7.5c0 .687.562 1.25 1.25 1.25h3.75l5.366 5.885c.358.357.895.465 1.363.271.467-.194.771-.65.771-1.156v-20c0-.504-.304-.963-.771-1.154zm3.271 2.403v2.5c3.446 0 6.25 2.805 6.25 6.25 0 3.447-2.804 6.25-6.25 6.25v2.5c4.825 0 8.75-3.923 8.75-8.75 0-4.823-3.925-8.75-8.75-8.75zm0 5c2.067 0 3.75 1.684 3.75 3.75 0 2.069-1.683 3.75-3.75 3.75v-2.5c.689 0 1.25-.561 1.25-1.25 0-.688-.561-1.25-1.25-1.25z" fill="#b9bbbe" fill-rule="evenodd"/><path clip-rule="evenodd" d="m305.229 337.849c-.468-.193-1.005-.086-1.363.271l-5.366 5.883h-3.75c-.688 0-1.25.563-1.25 1.25v7.5c0 .687.562 1.25 1.25 1.25h3.75l5.366 5.885c.358.357.895.465 1.363.271.467-.194.771-.65.771-1.156v-20c0-.504-.304-.963-.771-1.154zm3.271 2.403v2.5c3.446 0 6.25 2.805 6.25 6.25 0 3.447-2.804 6.25-6.25 6.25v2.5c4.825 0 8.75-3.923 8.75-8.75 0-4.823-3.925-8.75-8.75-8.75zm0 5c2.067 0 3.75 1.684 3.75 3.75 0 2.069-1.683 3.75-3.75 3.75v-2.5c.689 0 1.25-.561 1.25-1.25 0-.688-.561-1.25-1.25-1.25z" fill="#b9bbbe" fill-rule="evenodd"/><path d="m366.168 152h2.112v-4.064h.944c2.528 0 4.224-1.2 4.224-3.584 0-2.224-1.52-3.392-4.048-3.392h-3.232zm5.2-7.6c0 1.264-.8 1.824-2.16 1.824h-.928v-3.568h1.008c1.36 0 2.08.592 2.08 1.744zm6.164 1.04c.928 0 1.408.672 1.536 1.872h-3.088c.144-1.248.784-1.872 1.552-1.872zm3.392 5.776-.224-1.504c-.848.592-1.664.96-2.656.96-1.184 0-2-.656-2.08-2.16h4.96c0-.112.016-.304.016-.464 0-2.192-1.04-3.936-3.36-3.936-2.016 0-3.52 1.52-3.52 4.032 0 2.784 1.616 4.016 3.776 4.016 1.248 0 2.256-.368 3.088-.944zm6.72-3.184c0 1.696-.752 2.512-1.744 2.512-.656 0-1.024-.112-1.488-.336v-3.312c.512-.656 1.056-1.088 1.744-1.088.864 0 1.488.736 1.488 2.224zm1.936-.112c0-2.592-1.296-3.808-2.912-3.808-1.072 0-1.824.592-2.368 1.216l-.176-1.056h-1.632v10.704l1.92-.288v-2.912c.464.176 1.056.304 1.792.304 1.776 0 3.376-1.28 3.376-4.16zm6.72.112c0 1.696-.752 2.512-1.744 2.512-.656 0-1.024-.112-1.488-.336v-3.312c.512-.656 1.056-1.088 1.744-1.088.864 0 1.488.736 1.488 2.224zm1.936-.112c0-2.592-1.296-3.808-2.912-3.808-1.072 0-1.824.592-2.368 1.216l-.176-1.056h-1.632v10.704l1.92-.288v-2.912c.464.176 1.056.304 1.792.304 1.776 0 3.376-1.28 3.376-4.16zm4.64-2.48c.928 0 1.408.672 1.536 1.872h-3.088c.144-1.248.784-1.872 1.552-1.872zm3.392 5.776-.224-1.504c-.848.592-1.664.96-2.656.96-1.184 0-2-.656-2.08-2.16h4.96c0-.112.016-.304.016-.464 0-2.192-1.04-3.936-3.36-3.936-2.016 0-3.52 1.52-3.52 4.032 0 2.784 1.616 4.016 3.776 4.016 1.248 0 2.256-.368 3.088-.944z" fill="#dcddde"/><g fill="#b9bbbe"><path d="m584.7 145h-1.7c0 1.19.34 2.3.9 3.28l1.23-1.23c-.27-.62-.43-1.31-.43-2.05z"/><path d="m587.01 145.085c.005.027.01.055.01.085l5.98-5.99v-.18c0-1.66-1.34-3-3-3s-3 1.34-3 3v6c0 .03.005.058.01.085z"/><path d="m589.724 150.093-.761.76-.71.716c.245.064.494.115.747.151v4.28h2v-4.28c3.28-.49 6-3.31 6-6.72h-1.7c0 3-2.54 5.1-5.3 5.1-.092 0-.185-.002-.276-.007z"/><path d="m599 138.27-1.27-1.27-16.73 16.73 1.27 1.27 4.19-4.18 1.23-1.24 1.66-1.66 3.64-3.64z"/><path d="m584.7 217h-1.7c0 1.19.34 2.3.9 3.28l1.23-1.23c-.27-.62-.43-1.31-.43-2.05z"/><path d="m587.01 217.085c.005.027.01.055.01.085l5.98-5.99v-.18c0-1.66-1.34-3-3-3s-3 1.34-3 3v6c0 .03.005.058.01.085z"/><path d="m589.724 222.093-.761.76-.71.716c.245.064.494.115.747.151v4.28h2v-4.28c3.28-.49 6-3.31 6-6.72h-1.7c0 3-2.54 5.1-5.3 5.1-.092 0-.185-.002-.276-.007z"/><path d="m599 210.27-1.27-1.27-16.73 16.73 1.27 1.27 4.19-4.18 1.23-1.24 1.66-1.66 3.64-3.64z"/></g><path d="m375.032 223.088v-5.264h-4.432l.256 1.696h2.24v2.448c-.544.288-1.088.448-1.856.448-2.224 0-3.344-1.568-3.344-3.936 0-2.352 1.088-3.92 3.248-3.92 1.216 0 2.208.448 3.04 1.04l.304-1.968c-.88-.528-1.952-.88-3.36-.88-3.36 0-5.392 2.32-5.392 5.744 0 3.408 1.92 5.712 5.424 5.712 1.472 0 2.832-.448 3.872-1.12zm6.631-5.072-.304-1.904c-1.2.064-1.968.816-2.48 1.712l-.24-1.552h-1.632v7.728h1.92v-4.432c.56-.832 1.536-1.472 2.736-1.552zm5.162 3.856c-.528.512-1.152.832-1.808.832-.592 0-.944-.336-.944-.896 0-.736.528-1.392 2.752-1.664zm1.92 2.128v-5.296c0-1.856-.992-2.592-2.992-2.592-1.232 0-2.176.272-3.072.624l.24 1.536c.832-.368 1.68-.624 2.576-.624.848 0 1.328.32 1.328 1.152v.224c-3.12.304-4.656 1.12-4.656 2.992 0 1.344.88 2.144 2.192 2.144 1.152 0 1.952-.512 2.576-1.168l.16 1.008zm6.095-5.216c0 .848-.512 1.472-1.36 1.472-.832 0-1.344-.608-1.344-1.408 0-.848.496-1.504 1.344-1.504.816 0 1.36.624 1.36 1.44zm2.736 5.536c0-1.184-.992-1.68-2.576-1.904l-.992-.096c-1.2-.176-1.44-.24-1.44-.496 0-.128.128-.272.32-.416.192.032.4.048.624.048 1.664 0 3.088-.992 3.088-2.656 0-.352-.064-.704-.208-1.008l1.408-.096-.256-1.536-1.888.672c-.56-.464-1.296-.72-2.192-.72-1.728 0-3.104 1.04-3.104 2.736 0 1.024.544 1.824 1.456 2.256-.64.384-.976.8-.976 1.232 0 .304.144.592.448.832-.96.544-1.456 1.104-1.456 1.824 0 1.28 1.584 1.92 3.68 1.92 2.24 0 4.064-.928 4.064-2.592zm-3.936 1.456c-1.456 0-2.144-.416-2.144-.992 0-.4.256-.768.816-1.168.384.08.624.128 1.152.192l1.04.128c.96.144 1.296.384 1.296.8 0 .576-.784 1.04-2.16 1.04zm9.497-6.992c0 .848-.512 1.472-1.36 1.472-.832 0-1.344-.608-1.344-1.408 0-.848.496-1.504 1.344-1.504.816 0 1.36.624 1.36 1.44zm2.736 5.536c0-1.184-.992-1.68-2.576-1.904l-.992-.096c-1.2-.176-1.44-.24-1.44-.496 0-.128.128-.272.32-.416.192.032.4.048.624.048 1.664 0 3.088-.992 3.088-2.656 0-.352-.064-.704-.208-1.008l1.408-.096-.256-1.536-1.888.672c-.56-.464-1.296-.72-2.192-.72-1.728 0-3.104 1.04-3.104 2.736 0 1.024.544 1.824 1.456 2.256-.64.384-.976.8-.976 1.232 0 .304.144.592.448.832-.96.544-1.456 1.104-1.456 1.824 0 1.28 1.584 1.92 3.68 1.92 2.24 0 4.064-.928 4.064-2.592zm-3.936 1.456c-1.456 0-2.144-.416-2.144-.992 0-.4.256-.768.816-1.168.384.08.624.128 1.152.192l1.04.128c.96.144 1.296.384 1.296.8 0 .576-.784 1.04-2.16 1.04zm7.305-1.776v-11.552l-1.92.304v11.248zm5.103-6.56c.928 0 1.408.672 1.536 1.872h-3.088c.144-1.248.784-1.872 1.552-1.872zm3.392 5.776-.224-1.504c-.848.592-1.664.96-2.656.96-1.184 0-2-.656-2.08-2.16h4.96c0-.112.016-.304.016-.464 0-2.192-1.04-3.936-3.36-3.936-2.016 0-3.52 1.52-3.52 4.032 0 2.784 1.616 4.016 3.776 4.016 1.248 0 2.256-.368 3.088-.944z" fill="#dcddde"/><path d="m372.264 188-.288-1.888h-3.68v-9.152h-2.128v11.04zm7.998-3.872c0-2.512-1.536-4.016-3.648-4.016-2.096 0-3.632 1.52-3.632 4.032s1.52 4.016 3.616 4.016c2.112 0 3.664-1.52 3.664-4.032zm-1.872.016c0 1.44-.608 2.448-1.792 2.448-1.12 0-1.744-1.04-1.744-2.464s.608-2.448 1.744-2.448c1.152 0 1.792 1.04 1.792 2.464zm9.254 3.264-.256-1.648c-.704.544-1.36.736-2.032.736-1.12 0-2-.768-2-2.368 0-1.536.8-2.352 1.936-2.352.768 0 1.376.256 2 .72l.272-1.728c-.56-.352-1.36-.656-2.368-.656-2.096 0-3.776 1.376-3.776 4.064 0 2.528 1.52 3.968 3.664 3.968 1.024 0 1.824-.24 2.56-.736zm6.271.704 2.048-.304-3.024-4.048 2.848-3.488h-2.176l-2.512 3.2v-7.024l-1.92.304v11.248h1.92v-3.84zm6.039-6.672c.928 0 1.408.672 1.536 1.872h-3.088c.144-1.248.784-1.872 1.552-1.872zm3.392 5.776-.224-1.504c-.848.592-1.664.96-2.656.96-1.184 0-2-.656-2.08-2.16h4.96c0-.112.016-.304.016-.464 0-2.192-1.04-3.936-3.36-3.936-2.016 0-3.52 1.52-3.52 4.032 0 2.784 1.616 4.016 3.776 4.016 1.248 0 2.256-.368 3.088-.944z" fill="#dcddde"/><g mask="url(#i)"><circle cx="343" cy="182" fill="#628bf7" r="14"/><path d="m339.917 158.105 10.381 19.465c.24.437.333.94.264 1.434-.07.494-.297.952-.649 1.305l-.144.145c-1.715 1.793-3.862 3.115-6.236 3.839-2.373.724-4.893.825-7.317.294-.352-.077-.668-.27-.895-.55s-.352-.628-.355-.988l-.48-23.502c-.048-8.891.384-10.862 5.431-1.442z" fill="#33beb5"/><path d="m349.769 180.454c.377-.398.621-.903.699-1.445.077-.543-.016-1.096-.266-1.583l-10.285-19.321c-2.452-4.566-3.797-6.488-4.566-6.152 1.97 13.65 6.007 31.432 6.007 31.432l2.788.673c2.132-.741 4.059-1.977 5.623-3.604z" fill="#33a2be"/><path d="m347.27 171.899c-.625-1.154-.913-1.538-1.202-.962-4.277-6.824-6.344-5.479-6.344 1.154 0 0-2.979-1.586-2.643 4.277-.425-.114-.875-.087-1.283.078-.408.164-.75.458-.976.835l.144 5.768c.003.307.096.608.267.864.17.256.412.456.694.578 2.545.404 5.148.216 7.607-.551 2.46-.767 4.708-2.092 6.572-3.871.264-.356.422-.78.456-1.222s-.058-.885-.264-1.277z" fill="#f7e5bc"/><path d="m350.298 177.57-3.028-5.671c-.625-1.154-.913-1.538-1.202-.962-4.277-6.824-6.344-5.479-6.344 1.154-.253-.129-.533-.194-.817-.192.817.192.865 1.009 1.346 2.787s.817 3.364.817 3.364l7.594 3.221c.513-.36.995-.762 1.442-1.202.264-.356.422-.78.456-1.222s-.058-.885-.264-1.277z" fill="#f7d197"/><path d="m349.961 177.81c-3.652-3.941-6.92-5.335-14.322 5.479-.072.116-.116.248-.128.384-.011.136.01.273.061.4.052.127.133.239.236.328.104.09.227.153.36.186 2.431.526 4.957.422 7.337-.301s4.536-2.043 6.264-3.832l.144-.145.337-.432c.183-.329.254-.709.202-1.082s-.224-.719-.491-.985z" fill="#242236"/><path d="m349.337 181.174-.962-4.902c-2.691-2.211-5.527-2.259-10.285 3.701l1.971 4.662c3.343-.313 6.544-1.507 9.276-3.461z" fill="#9e4b34"/><path d="m349.577 180.982-3.509-.288-.48 1.346-.865-1.875c-.817-1.922-.865-1.874-1.586-.24s-3.941 1.057-3.941 1.057l-.673-1.49c4.181-5.046 6.824-5.335 9.276-3.652z" fill="#7a2f28"/><path d="m333.669 187.663.624-1.634c.136-.323.346-.609.613-.834.268-.226.585-.385.925-.464l2.451-.481 9.709-.192 5.287 2.692c.215.105.401.26.543.452.142.193.236.417.274.653l.192 1.25 2.547 1.682c.141.091.253.221.321.375s.091.324.064.49c-.673 5.863-6.681 14.803-15.044 10.814-6.248-2.98-12.015-7.306-14.802-9.517l-1.058 1.442c-.288-1.394-.048-1.922.865-2.643.293-.199.566-.424.817-.673.084-.232.133-.475.145-.721.24-1.105 0-1.394 1.297-1.682z" fill="#33beb5"/><path d="m338.33 184.827c-2.258.385-3.508.337 0 2.403 3.509 2.067 0-2.403 0-2.403z" fill="#1e6470"/><path d="m344.53 177.858.385 1.73c.048.048.096.145.192.145l.721.096-.625-1.442v-.096l.144-1.01-.672.385z" fill="#66251f"/><path d="m341.07 179.588 1.298.193c-.481.721-1.058.624-1.298-.193z" fill="#5e221d"/><path d="m345.828 179.108 1.298-.385c-.144.865-.721 1.01-1.298.385z" fill="#5e221d"/><path d="m341.935 179.829c.212 0 .385-.301.385-.673s-.173-.673-.385-.673-.384.301-.384.673.172.673.384.673z" fill="#000"/><path d="m346.549 178.964c.212 0 .384-.302.384-.673 0-.372-.172-.673-.384-.673s-.384.301-.384.673c0 .371.172.673.384.673z" fill="#000"/><path d="m347.799 175.84 1.057.817c.384 1.057.529 2.547.913 3.797.385 1.249.913 3.124.673 4.181s-.048 1.153.625 2.499 1.922 2.788 1.49 4.422c.721 1.105.48 1.778.288 2.787-.192 1.01-1.009 3.701-2.836 3.653-.616.86-1.479 1.514-2.474 1.874s-2.076.411-3.101.144c-2.931-.72-5.863-2.739-5.527-5.382-.961-.769-.769-2.788-.625-3.893.103-.983-.045-1.975-.432-2.884-.337-.961-.337-1.922-.048-3.941-.337-.835-.579-1.706-.721-2.595l1.442-1.875.673 1.538c.322.642.611 1.299.865 1.971.242-.106.505-.156.769-.144.178-.37.449-.688.785-.924.337-.236.728-.381 1.137-.422l2.836.577.48-1.346c1.346-.192 2.019-.192 2.5.144.254-.76.287-1.577.096-2.355-.241-.913-.865-2.643-.865-2.643z" fill="#fff"/><path d="m345.828 183.145-1.105-.24c-.529-.145-.481-.193-1.971-1.442l2.836.577.48-1.346c1.346-.192 2.019-.192 2.5.144.254-.76.287-1.577.096-2.355-.241-.913-.865-2.643-.865-2.643l1.009.817c.432 1.057.577 2.547.961 3.797.385 1.249.913 3.124.673 4.181s-.048 1.153.625 2.499 1.922 2.788 1.49 4.422c.721 1.105.48 1.778.288 2.787-.192 1.01-1.009 3.701-2.836 3.653-.616.86-1.479 1.514-2.474 1.874s-2.076.411-3.101.144c-2.931-.72-5.863-2.739-5.527-5.382.913 2.499 2.836 2.018 2.836 2.018 1.168-.252 2.362-.365 3.556-.336.673-1.202 1.49-2.355 2.163-2.836 1.442-2.739.337-5.671-.336-7.305z" fill="#d6dfff"/><path d="m345.828 183.145c.721.144.673-.481.625-1.105-.026-.472-.158-.932-.385-1.346l-.48 1.346-2.836-.577c1.49 1.249 1.442 1.297 1.971 1.442z" fill="#cad5fc"/><path d="m340.397 178.771 2.644-.769c-.224-.126-.47-.206-.725-.236s-.513-.008-.759.064c-.247.071-.476.191-.675.353s-.364.362-.485.588z" fill="#cfdeff"/><path d="m344.963 177.714 2.739-.529c-.436-.281-.965-.383-1.475-.285-.511.099-.963.39-1.264.814z" fill="#cfdeff"/><path d="m346.982 184.154c-.01.18-.083.351-.206.483s-.288.216-.467.238c-2.884.385-4.134-.288-4.614-.673-.058-.054-.102-.122-.127-.198-.025-.075-.031-.156-.017-.234v-.096c1.538.528 3.844.288 4.373.192s.337-.24.289-.481c.101 0 .201.02.294.059.093.038.178.095.249.166.072.072.128.157.167.25s.059.193.059.294z" fill="#de5d70"/><path d="m343.449 171.511c.479-.23.532-1.114.12-1.976-.413-.862-1.136-1.374-1.615-1.145s-.532 1.114-.119 1.976c.413.861 1.136 1.374 1.614 1.145z" fill="#ff9ccd"/><path d="m343.569 169.496c-.384-.866-1.153-1.394-1.634-1.154-.057.03-.108.07-.149.12-.042.049-.073.107-.091.168.817-.048.384.914 1.874.866z" fill="#ffebf5"/><path d="m341.551 169.207c.01.396.092.787.24 1.154l.192.288c.144-.048.481-.144.625.096s.336.673.865.769c.13-.102.233-.234.3-.385.067-.15.096-.315.085-.48h-.145c-1.009 0-1.586-1.057-2.162-1.442z" fill="#ff70b7"/><path d="m338.523 174.638c.265 0 .48-.28.48-.625s-.215-.625-.48-.625c-.266 0-.481.28-.481.625s.215.625.481.625z" fill="#f7d197"/><path d="m335.975 178.771c.266 0 .481-.279.481-.624s-.215-.625-.481-.625c-.265 0-.48.28-.48.625s.215.624.48.624z" fill="#f7d197"/><path d="m337.081 181.319c.142.749.335 1.487.577 2.21 0-.576.24-1.249.624-1.393.385-.145.433-1.106.914-1.154l-.673-1.538z" fill="#a8c3ff"/><path d="m347.318 186.653c1.202 1.202 1.634 2.067 1.73 2.74-.489-.179-.944-.439-1.346-.769z" fill="#fff"/><path d="m342.704 177.137c1.058-.318 2.133-.575 3.22-.769-1.73-.192-2.691.096-3.22.769z" fill="#66251f"/><path d="m343.809 179.204c.01.222.067.439.166.638.1.199.24.374.411.515.24.193.048-.144-.24-.769-.288-.624-.433-.769-.337-.384z" fill="#c27059"/></g><circle cx="343" cy="182" r="13" stroke="#29c566" stroke-width="2"/><circle cx="343" cy="182" r="11.5" stroke="#000"/><rect fill="#1c1b29" height="48" rx="8" width="213" x="154" y="32"/><path d="m172.4 63c0-.7742-.502-1.4-1.12-1.4h-3.36c-.618 0-1.12.6258-1.12 1.4v2.8c0 .7742.502 1.4 1.12 1.4h3.359c.618 0 1.12-.6258 1.12-1.4v-2.8z" fill="#43b581"/><path d="m180.8 54.4727c0-.7038-.502-1.2727-1.12-1.2727h-3.36c-.618 0-1.12.5689-1.12 1.2727v11.4546c0 .7038.502 1.2727 1.12 1.2727h3.36c.618 0 1.12-.5689 1.12-1.2727z" fill="#43b581"/><path d="m189.2 46.0445c0-.6882-.502-1.2445-1.12-1.2445h-3.36c-.618 0-1.12.5563-1.12 1.2445v19.9111c0 .6882.502 1.2444 1.12 1.2444h3.36c.618 0 1.12-.5562 1.12-1.2444z" fill="#43b581"/><path d="m214.608 48.82h-3.058l-3.96 11.484-4.07-11.638-3.058.528 5.544 14.894h2.948zm9.751 9.856c0-3.454-2.112-5.522-5.016-5.522-2.882 0-4.994 2.09-4.994 5.544s2.09 5.522 4.972 5.522c2.904 0 5.038-2.09 5.038-5.544zm-2.574.022c0 1.98-.836 3.366-2.464 3.366-1.54 0-2.398-1.43-2.398-3.388s.836-3.366 2.398-3.366c1.584 0 2.464 1.43 2.464 3.388zm7.729-8.602c0-.902-.704-1.54-1.562-1.54-.88 0-1.584.638-1.584 1.54 0 .88.704 1.496 1.584 1.496.858 0 1.562-.616 1.562-1.496zm-.264 13.904v-10.626h-2.64v10.626zm10.801-.814-.352-2.266c-.968.748-1.87 1.012-2.794 1.012-1.54 0-2.75-1.056-2.75-3.256 0-2.112 1.1-3.234 2.662-3.234 1.056 0 1.892.352 2.75.99l.374-2.376c-.77-.484-1.87-.902-3.256-.902-2.882 0-5.192 1.892-5.192 5.588 0 3.476 2.09 5.456 5.038 5.456 1.408 0 2.508-.33 3.52-1.012zm6.142-8.206c1.276 0 1.936.924 2.112 2.574h-4.246c.198-1.716 1.078-2.574 2.134-2.574zm4.664 7.942-.308-2.068c-1.166.814-2.288 1.32-3.652 1.32-1.628 0-2.75-.902-2.86-2.97h6.82c0-.154.022-.418.022-.638 0-3.014-1.43-5.412-4.62-5.412-2.772 0-4.84 2.09-4.84 5.544 0 3.828 2.222 5.522 5.192 5.522 1.716 0 3.102-.506 4.246-1.298zm18.19.044-.396-2.552c-1.166.77-2.42 1.32-3.85 1.32-2.728 0-4.444-2.024-4.444-5.324 0-3.278 1.65-5.346 4.4-5.346 1.474 0 2.64.594 3.63 1.342l.418-2.75c-1.122-.704-2.442-1.1-4.158-1.1-4.422 0-7.26 3.168-7.26 7.876 0 4.73 2.772 7.832 7.172 7.832 1.738 0 3.3-.528 4.488-1.298zm11.515-4.29c0-3.454-2.112-5.522-5.016-5.522-2.882 0-4.994 2.09-4.994 5.544s2.09 5.522 4.972 5.522c2.904 0 5.038-2.09 5.038-5.544zm-2.574.022c0 1.98-.836 3.366-2.464 3.366-1.54 0-2.398-1.43-2.398-3.388s.836-3.366 2.398-3.366c1.584 0 2.464 1.43 2.464 3.388zm13.779 5.302v-7.656c0-1.98-1.056-3.19-3.036-3.19-1.43 0-2.552.77-3.542 1.716l-.242-1.496h-2.244v10.626h2.64v-7.172c.77-.814 1.606-1.342 2.42-1.342.968 0 1.364.638 1.364 1.562v6.952zm11.709 0v-7.656c0-1.98-1.056-3.19-3.036-3.19-1.43 0-2.552.77-3.542 1.716l-.242-1.496h-2.244v10.626h2.64v-7.172c.77-.814 1.606-1.342 2.42-1.342.968 0 1.364.638 1.364 1.562v6.952zm6.869-9.02c1.276 0 1.936.924 2.112 2.574h-4.246c.198-1.716 1.078-2.574 2.134-2.574zm4.664 7.942-.308-2.068c-1.166.814-2.288 1.32-3.652 1.32-1.628 0-2.75-.902-2.86-2.97h6.82c0-.154.022-.418.022-.638 0-3.014-1.43-5.412-4.62-5.412-2.772 0-4.84 2.09-4.84 5.544 0 3.828 2.222 5.522 5.192 5.522 1.716 0 3.102-.506 4.246-1.298zm10.163.264-.352-2.266c-.968.748-1.87 1.012-2.794 1.012-1.54 0-2.75-1.056-2.75-3.256 0-2.112 1.1-3.234 2.662-3.234 1.056 0 1.892.352 2.75.99l.374-2.376c-.77-.484-1.87-.902-3.256-.902-2.882 0-5.192 1.892-5.192 5.588 0 3.476 2.09 5.456 5.038 5.456 1.408 0 2.508-.33 3.52-1.012zm7.831.814-.33-2.222c-.242.066-.528.088-.836.088-1.012 0-1.386-.462-1.386-1.32v-5.016h2.486l-.33-2.156h-2.156v-3.762l-2.618.396v3.366h-1.496v2.156h1.496v5.456c0 2.42 1.408 3.19 3.498 3.19.77 0 1.254-.088 1.672-.176zm6.11-9.02c1.276 0 1.936.924 2.112 2.574h-4.246c.198-1.716 1.078-2.574 2.134-2.574zm4.664 7.942-.308-2.068c-1.166.814-2.288 1.32-3.652 1.32-1.628 0-2.75-.902-2.86-2.97h6.82c0-.154.022-.418.022-.638 0-3.014-1.43-5.412-4.62-5.412-2.772 0-4.84 2.09-4.84 5.544 0 3.828 2.222 5.522 5.192 5.522 1.716 0 3.102-.506 4.246-1.298zm4.289-4.092c0-2.332.99-3.454 2.376-3.454.902 0 1.408.154 2.068.462v4.554c-.704.902-1.452 1.474-2.42 1.474-1.166 0-2.024-.968-2.024-3.036zm-2.662.154c0 3.586 1.782 5.236 4.004 5.236 1.474 0 2.508-.792 3.256-1.694l.22 1.474h2.266v-15.884l-2.64.418v5.126c-.638-.22-1.452-.396-2.464-.396-2.464 0-4.642 1.76-4.642 5.72z" fill="#43b581"/><path d="m476.075 37.8 4.1-1.8c.1 0 .1-.2 0-.2l-4.1-1.8h-.1l-1.8-4h-.1l-1.9 4-4.1 1.8c-.1 0-.1.2 0 .2l4.1 1.8 1.9 4.1c0 .1.1.1.1 0l1.8-4.1z" fill="#6adbc6"/><path d="m296.414 419.393h-36.477v6.082h36.477z" fill="#6b392b"/><path d="m337.902 419.393h-36.477v6.082h36.477z" fill="#6b392b"/><path d="m293.953 371.137 7.032 69.263h-8.877l-7.12-69.263z" fill="#6b392b"/><path d="m336.583 371.137 6.944 69.263h-8.789l-7.208-69.263z" fill="#542518"/><path d="m302.479 371.137-7.031 69.263h8.877l7.12-69.263z" fill="#542518"/><path d="m259.937 371.137-7.032 69.263h8.878l7.12-69.263z" fill="#542518"/><path d="m337.111 366.83h-82.711c-2.282 0-4.132 1.836-4.132 4.1 0 2.265 1.85 4.101 4.132 4.101h82.711c2.281 0 4.131-1.836 4.131-4.101 0-2.264-1.85-4.1-4.131-4.1z" fill="#6e2b17"/><path d="m235.678 347.405h-14.855v92.951h14.855z" fill="#783522"/><path d="m105.854 279.548 5.185-32.961c.191-1.133.786-2.158 1.675-2.885s2.012-1.108 3.16-1.071c.667.031 1.321.2 1.921.497.599.296 1.13.714 1.559 1.226.43.512.748 1.108.936 1.749.188.642.24 1.315.154 1.978l-5.098 34.016z" fill="#e66ca5"/><path d="m111.391 273.483 4.483-20.655c.057-.162.165-.301.307-.396.143-.095.313-.142.484-.132.171.042.32.147.418.293.097.147.136.324.109.498l-2.812 20.129z" fill="#f085b7"/><path d="m111.039 246.587c.087-.576.287-1.129.588-1.627.302-.498.7-.931 1.17-1.274-.879 5.274-2.285 14.943-4.482 30.94l-1.67.176z" fill="#ffabbb"/><path d="m228.646 440.4-1.055-72.691c-.04-2.747-.73-5.445-2.014-7.874-1.283-2.429-3.123-4.52-5.369-6.102l-8.878-6.328-59.77-3.34 5.625 4.922c-3.867 2.549-3.779 4.307-4.131 11.427l-5.625 79.986z" fill="#244ab0"/><path d="m227.591 367.709c-.04-2.747-.73-5.445-2.014-7.874-1.283-2.429-3.123-4.52-5.369-6.102l-3.077-2.197h-60.473l6.944 5.186c1.897 1.423 3.395 3.312 4.349 5.482.955 2.171 1.334 4.551 1.101 6.911l-6.769 71.285h66.363z" fill="#203d87"/><path d="m147.429 440.4c11.163-9.317 14.767-9.405 19.689-9.405s5.625 9.405 5.625 9.405z" fill="#203d87"/><path d="m182.412 360.414c10.987 10.547 18.458 16.085 20.304 17.315 1.846 1.231 4.219-2.9 6.241-8.701 2.021-5.802 3.604-11.603 4.307-13.625.703-2.021 3.779-5.889-8.263-5.889-12.041 0-39.993-4.131-22.589 10.9z" fill="#1a3578"/><path d="m221.878 364.193c-8.878 12.921-21.535 28.83-25.139 33.665-3.604 4.834-8.965.879-12.921-3.252-3.955-4.132-2.285-2.198-.351 3.603 1.612 4.472 4.37 8.443 7.998 11.515 2.022 1.758 5.274 5.977 13.273-8.79 7.998-14.767 21.622-43.333 17.14-36.741z" fill="#1a3578"/><path d="m156.306 440.4c8.263-9.669 17.228-10.284 23.908 0z" fill="#30868c"/><path d="m163.514 434.335c6.065 2.022 7.911 5.45 8.174 6.065h8.526c-4.746-7.295-10.723-9.053-16.7-6.065z" fill="#2b7585"/><path d="m214.846 434.599c-6.68-.352-11.69 2.461-17.843 5.801h23.82c.791-4.395-1.494-5.538-5.977-5.801z" fill="#2b7585"/><path d="m142.155 409.46h-65.4833v4.826h65.4833z" fill="#3d1a10"/><path d="m113.588 363.226 7.032 77.174h-8.877l-7.12-77.174z" fill="#542518"/><path d="m141.803 363.226 7.032 77.174h-8.877l-7.12-77.174z" fill="#542518"/><path d="m77.8143 360.414-7.0317 79.986h8.8776l7.1196-79.986z" fill="#542518"/><path d="m77.8143 366.654-12.5693-60.912c-.0562-.188-.0667-.387-.0305-.58.0361-.192.1177-.374.2381-.529.1204-.154.2761-.278.454-.361.178-.082.3731-.121.569-.113h6.2407c.2981-.003.5871.103.8134.297.2264.194.3746.463.4172.758l12.8329 61.44z" fill="#6e2b17"/><path d="m109.633 309.433h-38.2351v6.733h38.2351z" fill="#6e2b17"/><path d="m75.9685 360.414h58.8915v6.944h-58.8915c-.4617.011-.9213-.068-1.3523-.234-.4311-.166-.8252-.415-1.1599-.734-.3346-.318-.6033-.699-.7906-1.122-.1873-.422-.2896-.877-.301-1.338.023-.941.4127-1.835 1.0861-2.492s1.577-1.025 2.5177-1.024z" fill="#6e2b17"/><path d="m95.218 360.414h48.783c.458-.001.911.091 1.332.269.422.177.804.438 1.123.766.32.327.571.716.738 1.142s.247.881.235 1.339c.012.453-.068.904-.236 1.326-.168.421-.42.804-.741 1.124-.321.321-.704.573-1.125.741s-.873.249-1.326.237h-48.783z" fill="#542113"/><path d="m89.0652 245.62c-1.383.533-2.5045 1.583-3.1277 2.928s-.6994 2.88-.2124 4.28l9.4929 28.039 12.393-3.692-10.9867-28.303c-.2809-.711-.6996-1.36-1.2322-1.909-.5325-.549-1.1684-.987-1.8709-1.289-.7025-.303-1.4579-.463-2.2227-.472-.7647-.009-1.5237.133-2.2333.418z" fill="#e66ca5"/><path d="m98.5581 273.835 4.9219-.615-6.7678-16.877c-.211-.465-.5975-.827-1.0751-1.009-.4776-.181-1.0075-.166-1.4739.043-.4036.207-.7216.549-.8983.967-.1768.417-.201.884-.0686 1.318z" fill="#f085b7"/><path d="m95.8333 273.835-9.405-26.018c-.5003.723-.8245 1.552-.9466 2.422s-.0388 1.757.2434 2.589l7.2954 21.359z" fill="#ffa3b5"/><path d="m119.43 269.885-36.0863 4.687c-5.1991.675-8.8664 5.437-8.1912 10.636l.0306.236c.6752 5.199 5.4374 8.866 10.6365 8.191l36.0864-4.687c5.199-.675 8.866-5.437 8.191-10.636l-.03-.236c-.676-5.199-5.438-8.866-10.637-8.191z" fill="#ff85ab"/><path d="m91.0868 326.134c-2.1974-1.934-4.2191-3.78-4.6586-4.571-.4394-.791.2637-.967 1.4064-1.318 1.1427-.352 1.9337.967 3.0764 3.164s2.1095 4.571.1758 2.725z" fill="#f2c591"/><path d="m121.323 302.665-32.3457 5.186c-2.1096 1.846-2.2854 2.198-3.7796 3.604-4.307 3.867-5.5375 6.944-5.6254 10.284-.2637 4.746.2637 4.483-.7911 6.153s-1.9337 2.373-1.0548 4.746c.6014 1.51 1.4978 2.884 2.6369 4.043h51.0687c11.426-13.36 1.142-24.259-10.109-34.016z" fill="#f7e5bc"/><path d="m126.158 336.681h-34.368s.1758-2.988.3516-10.723-1.3185-13.009-6.9439-14.503c1.1961-1.266 2.4577-2.469 3.7796-3.604l32.3457-5.098c2.183 1.79 4.266 3.697 6.241 5.713.482 9.429.011 18.882-1.406 28.215z" fill="#1f3a70"/><path d="m121.323 302.753h-.439l-.44.527c-1.284 4.828-2.99 9.534-5.098 14.064 0 0 .176 1.758 2.549-1.67 2.399-3.42 4.266-7.184 5.538-11.163z" fill="#172e5c"/><path d="m92.5811 307.851c6.3285 7.559 8.4379 9.229 10.7239 10.811 2.285 1.583.439-.791-2.022-4.394-2.4612-3.604-5.1861-7.999-5.1861-7.999z" fill="#172e5c"/><path d="m111.831 329.21c-2.286-.791-12.1303-4.043-19.6894-5.889.0881.877.0881 1.76 0 2.637-.1758 7.735-.3516 10.723-.3516 10.723h34.368c.527-3.779 1.055-8.086 1.318-12.745z" fill="#172e5c"/><path d="m95.1301 312.246c-.4472.608-1.0159 1.117-1.6701 1.494-1.4063.967-1.7579 1.319-1.8458 1.055-.5262-1.09-1.2881-2.05-2.2305-2.81-.9425-.76-2.042-1.302-3.2191-1.585.8789-.879 1.8458-1.846 2.9884-2.813 4.7465 2.11 5.9771 4.659 5.9771 4.659z" fill="#244ab0"/><path d="m118.511 302.665-6.505 24.524-16.788-23.733z" fill="#d4bf9b"/><path d="m104.271 311.279 12.482 3.252-4.571 7.472s-6.944-8.087-7.911-9.317c-.967-1.231-2.021-1.934 0-1.407z" fill="#ccac89"/><path d="m98.9096 307.324 15.2064 2.109c1.758.176 1.758-1.67 2.637-5.274l-16.437 1.143z" fill="#de5d98"/><path d="m123.176 286.161-37.1326 4.823c-4.9102.637-8.3748 5.127-7.7384 10.028.6365 4.9 5.1331 8.356 10.0433 7.718l37.1327-4.822c4.91-.638 8.375-5.128 7.738-10.028-.636-4.901-5.133-8.357-10.043-7.719z" fill="#ff85ab"/><path d="m125.191 303.984c2.031-.217 3.927-1.121 5.374-2.562 1.448-1.441 2.36-3.333 2.585-5.363.226-2.03-.248-4.076-1.344-5.8s-2.747-3.022-4.681-3.679c1.135-1.012 2.008-2.285 2.544-3.708.536-1.424.719-2.957.532-4.466v-.264c-.141-1.236-.527-2.431-1.137-3.515-.609-1.084-1.43-2.035-2.413-2.797-.983-.761-2.109-1.319-3.31-1.639-1.202-.32-2.456-.396-3.688-.223l-29.4452 3.779c6.3286 4.307 6.3286 8.087 5.2739 15.206-.1164 1.076.1312 2.159.7031 3.077 1.4195 2.483 2.0377 5.343 1.7702 8.191-.2674 2.847-1.4075 5.543-3.2644 7.718z" fill="#f06ea8"/><path d="m112.358 389.859c0 3.252-1.846 5.889 1.494 7.384 5.01 2.197 7.296 4.57 10.987 5.625 3.692 1.055 9.405 2.725 6.505-2.989-2.901-5.713-5.098-10.987-5.098-10.987z" fill="#914343"/><path d="m130.728 385.552c-.263 2.989-2.197 5.362.791 7.032 4.483 2.461 6.417 4.834 9.845 6.153 3.428 1.318 8.526 3.34 6.241-2.286-2.286-5.625-3.78-10.635-3.78-10.635z" fill="#914343"/><path d="m122.554 360.677h-1.318l6.943 30.061-3.955 1.846c-2.051.924-4.265 1.431-6.513 1.491s-4.486-.327-6.584-1.139l-7.119-32.171h-9.1416c-.5502-.011-1.0926-.132-1.5954-.356-.5028-.223-.9558-.545-1.3324-.947-.3767-.401-.6694-.873-.8609-1.389-.1916-.516-.2781-1.065-.2546-1.615l.5274-7.91h40.1685c2.381.011 4.672.909 6.427 2.518 1.755 1.608 2.848 3.813 3.066 6.183l4.132 31.38-3.428.351c-4.155.499-8.361.38-12.482-.351z" fill="#1c1b29"/><path d="m105.15 347.405h-16.1727v92.951h16.1727z" fill="#ad482c"/><path d="m271.979 440.4h16.173v-92.951h-16.173z" fill="#ad482c"/><path d="m95.218 347.405h-6.2407v92.951h6.2407z" fill="#eb9151"/><path d="m105.15 347.405h-16.1727v16.876h16.1727z" fill="#ad482c"/><path d="m176.083 212.834-9.58-4.834-6.593 8.526 9.933 6.329z" fill="#133dbd"/><path d="m177.841 232.875 19.162 35.95c.389.811.53 1.72.405 2.611s-.511 1.726-1.108 2.399l-.264.264c-3.183 3.296-7.153 5.728-11.535 7.066-4.383 1.338-9.034 1.538-13.516.581-.643-.14-1.22-.495-1.636-1.006-.415-.511-.644-1.148-.649-1.807l-.967-43.333c0-16.437.791-20.129 10.108-2.725z" fill="#33beb5"/><path d="m196.036 274.099c.697-.741 1.147-1.68 1.289-2.687.142-1.008-.032-2.034-.498-2.939l-18.986-35.598c-4.57-8.438-7.032-11.954-8.438-11.339 3.604 25.139 11.075 57.924 11.075 57.924l5.098 1.319c3.975-1.351 7.563-3.642 10.46-6.68z" fill="#33a2be"/><path d="m191.377 258.365c-1.142-2.197-1.67-2.901-2.197-1.846-7.911-12.569-11.69-10.02-11.69 2.198 0 0-5.45-2.901-4.923 7.91-.776-.225-1.605-.182-2.354.12-.749.303-1.375.849-1.777 1.55l.264 10.636c.006.563.175 1.112.487 1.58s.754.835 1.271 1.057c4.7.737 9.507.383 14.049-1.034 4.542-1.418 8.697-3.861 12.144-7.141.465-.659.743-1.432.804-2.236.062-.805-.094-1.611-.452-2.334z" fill="#f7e5bc"/><path d="m197.003 268.825-5.626-10.46c-1.142-2.197-1.67-2.901-2.197-1.846-7.911-12.569-11.69-10.02-11.69 2.198-.469-.218-.978-.338-1.495-.352 1.495.352 1.495 1.846 2.462 5.098.966 3.252 1.494 6.241 1.494 6.241l13.975 5.977c.948-.714 1.857-1.477 2.725-2.286.465-.659.743-1.432.804-2.236.062-.805-.094-1.611-.452-2.334z" fill="#f7d197"/><path d="m196.388 269.264c-6.769-7.295-12.833-9.844-26.457 10.108-.133.213-.213.453-.234.702-.021.25.017.5.111.732.095.231.243.437.432.601.189.163.415.279.657.339 4.495.99 9.168.807 13.571-.533 4.403-1.339 8.386-3.789 11.568-7.114l.264-.264.527-.791c.361-.588.514-1.28.435-1.966-.08-.685-.388-1.324-.874-1.814z" fill="#242236"/><path d="m195.157 275.417-1.758-9.053c-4.922-4.044-10.108-4.131-18.986 6.944l3.692 8.526c6.158-.566 12.049-2.783 17.052-6.417z" fill="#90423b"/><path d="m195.596 275.153-6.416-.615-.879 2.461-1.582-3.428c-1.582-3.516-1.67-3.428-2.989-.439-1.318 2.988-7.207 2.021-7.207 2.021l-1.319-2.812c7.735-9.317 12.658-9.845 17.14-6.768z" fill="#7a2f28"/><path d="m155.867 293.788c-3.955 2.9-4.834 2.549-3.867 8.174.966 5.625 3.867-8.174 3.867-8.174z" fill="#3ee8dd"/><path d="m213.352 336.681h-69.175c-.975-2.253-1.683-4.613-2.11-7.031-.703-5.274-1.318-6.241 2.549-13.097.264-5.186 1.934-8.438 5.977-13.536 2.258-3.502 4.786-6.823 7.559-9.933l49.398 1.758c2.033 1.39 3.944 2.948 5.714 4.659l4.043.176c.264 9.756-2.901 26.896-3.955 37.004z" fill="#244ab0"/><path d="m249.741 294.842-3.867-6.065c-1.233-1.959-2.966-3.555-5.021-4.621s-4.358-1.564-6.67-1.443h-.175c-.651.034-1.274.273-1.779.684-.506.411-.868.971-1.034 1.601l-3.164 11.866-1.055 1.143c-.221.23-.383.51-.475.815-.092.306-.11.629-.053.943l.264 2.373-.527-.791c-.194-.366-.47-.683-.805-.927s-.721-.408-1.129-.48c-1.582-.439-4.659-1.23-7.823-2.373-.703-1.143-2.197-2.9-7.823-2.988v3.516l6.593 6.504-.176 18.986 13.272 4.834c1.481.508 3.077.571 4.593.18 1.515-.391 2.883-1.217 3.933-2.377 6.958-8.272 11.572-18.258 13.361-28.919.168-.846.011-1.725-.44-2.461z" fill="#1e397d"/><path d="m164.305 312.158-1.23 5.45-14.591 1.494c-.444.042-.858.243-1.165.566-.306.323-.486.747-.505 1.192v1.406c.006.2.057.396.15.573s.224.33.385.449c.161.118.347.199.543.235.197.036.399.027.592-.026l14.591-4.747 12.92 2.022c.295.063.556.232.734.475.179.243.262.543.233.843l-1.933 14.591h38.323c4.57-27.863 6.328-33.488-2.286-40.52l-33.84 8.086-14.151-8.526 1.406 8.702c.425 2.567.365 5.19-.176 7.735z" fill="#1e397d"/><path d="m171.513 320.069c.879-3.868 1.846-8.878 1.846-11.866l-4.132-2.461c.102 4.633-.045 9.269-.439 13.887z" fill="#152d69"/><path d="m176.435 326.134c2.666 1.677 5.424 3.203 8.262 4.57 1.934.879 7.032 2.549 8.614 3.077 1.582.527 2.813 1.406 1.934 2.9h-20.129z" fill="#7a2f28"/><path d="m178.984 327.628-2.549-1.494-1.319 10.547h1.846z" fill="#5e221d"/><path d="m170.282 282.009c-2.988.879-3.252 0-5.274 5.714l4.219.351z" fill="#3ee8dd"/><path d="m166.239 287.459 1.23-3.076c.248-.59.632-1.113 1.121-1.526.489-.412 1.069-.703 1.692-.848l4.483-.967 17.931-.263 9.756 4.922c.394.192.735.476.995.828s.431.761.5 1.194l.351 2.285 4.747 3.164c.265.181.473.435.598.732.124.296.161.622.105.938-1.231 10.724-12.306 27.248-27.776 19.865-11.514-5.537-22.15-13.448-27.248-17.491l-2.021 2.636c-.528-2.549 0-3.603 1.582-4.922l1.582-1.142c.139-.458.228-.93.264-1.407.351-2.021-.088-2.549 2.373-3.076z" fill="#33beb5"/><path d="m169.843 284.91 5.625 3.78c1.934 1.23 2.989 3.515.264 2.461-2.245-.856-4.42-1.884-6.505-3.077-1.582-1.054-.967-1.406-.791-2.285s.44-1.494 1.407-.879z" fill="#37cfc5"/><path d="m209.045 293.172-4.747-3.164-.351-2.285c-.069-.433-.24-.842-.5-1.194s-.601-.636-.995-.828l-9.756-4.922h-2.813l-11.251 24.347c1.055 5.274 2.637 5.977 3.956 7.208 1.318 1.23 1.318 1.318.879 2.9 14.679 5.714 25.138-10.108 26.281-20.48.038-.302-.007-.61-.131-.889s-.322-.518-.572-.693z" fill="#33a2be"/><path d="m202.804 288.426c.527 1.318.879 1.406 0 3.779-1.401 3.167-3.139 6.173-5.186 8.966-1.23 1.582-1.934 1.582 0-3.252 1.934-4.835 2.373-5.977 2.901-8.175.527-2.197 1.406-3.867 2.285-1.318z" fill="#2b98b3"/><path d="m168.173 290.36c2.973 4.183 6.628 7.837 10.811 10.811 3.34 2.285 2.197 1.055.703-1.582s-4.219-3.956-7.295-6.856c-3.077-2.901-6.768-5.889-4.219-2.373z" fill="#319bb5"/><path d="m156.658 293.524c-.042.187-.022.383.057.557.08.175.214.319.383.41 8.086 4.483 19.601 10.108 23.732 11.514 4.131 1.407 1.67 0-3.516-3.428s-14.064-8.965-16.876-10.635c-2.813-1.67-2.813-2.022-3.78 1.582z" fill="#33a2be"/><path d="m174.853 282.185c-4.131.703-6.417.703 0 4.483 6.416 3.78 0-4.483 0-4.483z" fill="#1e6470"/><path d="m186.279 269.088.879 3.692 2.022.264-1.318-2.813-.088-1.934z" fill="#90423b"/><path d="m179.951 272.516 2.373.352c-.879 1.319-1.934 1.143-2.373-.352z" fill="#5e221d"/><path d="m188.741 271.638 2.373-.704c-.264 1.582-1.319 1.934-2.373.704z" fill="#5e221d"/><path d="m181.533 272.956c.388 0 .703-.551.703-1.231 0-.679-.315-1.23-.703-1.23s-.703.551-.703 1.23c0 .68.315 1.231.703 1.231z" fill="#201e2f"/><path d="m190.059 271.374c.388 0 .703-.551.703-1.231 0-.679-.315-1.23-.703-1.23s-.703.551-.703 1.23c0 .68.315 1.231.703 1.231z" fill="#201e2f"/><path d="m192.344 265.573c.687.473 1.334 1.003 1.934 1.582.703 1.934.967 4.658 1.758 6.944.791 2.285 1.582 5.713 1.231 7.735-.352 2.021-.088 2.109 1.142 4.658 1.231 2.549 3.516 5.098 2.725 8.175 1.318 1.933.967 3.252.527 5.098-.439 1.845-1.845 6.856-5.273 6.68-1.099 1.608-2.67 2.835-4.497 3.513-1.826.677-3.818.77-5.7.266-5.449-1.406-10.899-5.098-10.196-10.02-1.845-1.406-1.406-5.098-1.23-7.12.181-1.817-.059-3.652-.703-5.361-.703-1.758-.703-3.516-.176-7.208-.566-1.544-1.007-3.131-1.319-4.746.815-1.219 1.696-2.393 2.637-3.516l1.319 2.9c.596 1.14 1.124 2.314 1.582 3.516.441-.195.93-.256 1.406-.175.308-.699.796-1.303 1.413-1.751.618-.447 1.344-.723 2.103-.799l5.274 1.055.879-2.461c2.461-.264 3.78-.351 4.571.264.463-1.421.524-2.942.175-4.395-.439-1.582-1.582-4.834-1.582-4.834z" fill="#fff"/><path d="m188.741 279.109-2.022-.44c-1.055-.263-.879-.351-3.692-2.725l5.274 1.055.879-2.461c2.461-.264 3.78-.351 4.571.264.509-1.412.57-2.947.175-4.395-.439-1.582-1.582-4.834-1.582-4.834.687.473 1.334 1.003 1.934 1.582.703 1.934.967 4.658 1.758 6.944.791 2.285 1.582 5.713 1.231 7.735-.352 2.021-.088 2.109 1.142 4.658 1.231 2.549 3.516 5.098 2.725 8.175 1.318 1.933.967 3.252.527 5.098-.439 1.845-1.845 6.856-5.273 6.68-1.099 1.608-2.67 2.835-4.497 3.513-1.826.677-3.818.77-5.699.266-5.45-1.406-10.9-5.098-10.197-10.02 1.67 4.659 5.186 3.78 5.186 3.78 2.166-.464 4.379-.671 6.593-.616 1.23-2.197 2.724-4.394 4.043-5.273 2.549-5.011.615-10.372-.703-13.449-1.319-3.076-2.373-5.537-2.373-5.537z" fill="#d6dfff"/><path d="m188.741 279.109c1.318.263 1.23-.879 1.142-2.11-.093-.854-.33-1.686-.703-2.461l-.879 2.461-5.274-1.054c2.813 2.373 2.637 2.461 3.692 2.724z" fill="#cad5fc"/><path d="m178.632 271.022 5.01-1.494c-.866-.445-1.871-.537-2.805-.259-.933.279-1.723.907-2.205 1.753z" fill="#cfdeff"/><path d="m187.158 269.089 5.01-.967c-.388-.278-.828-.474-1.295-.576-.466-.102-.949-.108-1.417-.018-.469.091-.915.276-1.31.544s-.731.614-.988 1.017z" fill="#cfdeff"/><path d="m184.521 274.099 1.671 1.054-2.198-.439c-.264 0-.264-.088-.176-.44.088-.351.352-.351.703-.175z" fill="#5e221d"/><path d="m190.85 280.867c.003.344-.121.678-.348.937s-.541.426-.883.469c-5.361.791-7.647-.615-8.526-1.23-.106-.1-.185-.225-.231-.363s-.057-.285-.032-.429v-.175c2.812.967 7.032.527 8.086.351 1.055-.176.616-.439.528-.879.358 0 .703.136.964.381.262.245.42.58.442.938z" fill="#de5d70"/><path d="m188.741 282.361c-.61-.623-1.256-1.21-1.934-1.758-2.008.214-4.038.035-5.977-.527v.175c-.025.144-.014.291.032.429s.125.263.231.362h.088c.791.616 2.901 1.846 7.56 1.319z" fill="#b83d50"/><path d="m181.006 330.704h-20.305v5.933h20.305z" fill="#ba4e5d"/><path d="m166.415 330.704-1.582 4.219h-2.637l1.758-4.219z" fill="#d65a6b"/><path d="m180.918 330.704h-11.691v5.933h11.691z" fill="#ad4452"/><path d="m184.295 257.675c.919-.44 1.035-2.11.259-3.73s-2.15-2.576-3.07-2.135c-.919.44-1.035 2.11-.259 3.73s2.151 2.576 3.07 2.135z" fill="#ff9ccd"/><path d="m120.884 327.189-6.153 4.834c-.094.084-.206.146-.326.183-.121.037-.248.047-.373.031-.125-.017-.245-.061-.352-.128s-.198-.156-.267-.262l-6.944-9.405c-.127-.206-.178-.45-.146-.69s.145-.462.322-.628l6.152-4.747c.095-.084.206-.146.327-.183s.248-.047.373-.031c.125.017.245.061.352.128s.198.156.267.262l6.944 9.317c.083.094.146.206.183.327.037.12.047.247.03.373-.016.125-.06.245-.127.351-.067.107-.157.198-.262.268z" fill="#ba4e5d"/><path d="m130.728 327.276-7.383-.527c-.163 0-.32-.065-.435-.18-.115-.116-.18-.272-.18-.435l.527-12.306c.022-.171.105-.328.235-.441.129-.114.296-.175.468-.174l7.384.527c.171.022.328.105.441.235.113.129.175.296.174.468l-.527 12.218c0 .089-.018.177-.054.258s-.09.153-.157.211c-.066.059-.145.102-.23.127-.085.026-.175.032-.263.019z" fill="#ba4e5d"/><path d="m130.846 319.002-3.139-3.676-3.857 3.294 3.14 3.676z" fill="#ad3b4b"/><path d="m130.816 325.606c.171-.042.32-.146.418-.293.098-.146.137-.324.11-.498l-2.901-11.251-4.483-.351c-.172-.001-.339.06-.468.174-.13.113-.213.27-.235.441l-.527 12.306c-.004.047.001.095.017.141.015.045.039.087.071.122.051.064.123.107.204.123.08.017.163.004.235-.035z" fill="#872c39"/><path d="m129.849 325.518-7.471.879c-.075.028-.155.037-.235.029-.079-.009-.155-.035-.223-.077-.068-.043-.125-.1-.168-.168-.042-.067-.068-.144-.077-.223l-2.989-11.954c-.029-.082-.037-.17-.024-.256s.047-.168.099-.237c.053-.07.121-.125.2-.162s.166-.053.253-.048l7.471-.967c.149-.011.297.026.423.105.127.079.225.196.28.334l2.989 11.954c.026.087.033.179.02.269s-.047.176-.097.252c-.05.075-.117.139-.195.186-.078.046-.165.075-.256.084z" fill="#ba4e5d"/><path d="m127.696 317.865-3.866-2.903-3.045 4.056 3.866 2.902z" fill="#ad3b4b"/><path d="m116.225 321.387h-4.834v5.072h4.834z" fill="#ad3b4b"/><path d="m125.367 323.848-4.923-10.723-1.23.176c-.087-.005-.174.011-.253.048s-.147.092-.2.162c-.052.069-.086.151-.099.237s-.005.174.024.256l2.989 11.866 3.34-1.143c.086-.027.165-.074.231-.136.066-.061.118-.137.151-.221.034-.084.048-.174.043-.264s-.03-.178-.073-.258z" fill="#872c39"/><path d="m114.116 316.553c-.069-.106-.16-.195-.267-.262s-.227-.111-.352-.128c-.125-.016-.252-.006-.373.031s-.232.099-.327.183l-2.285 1.758 4.747 10.372c.058.151.175.273.323.338.148.066.316.071.468.014l4.834-1.583c.105-.069.195-.16.262-.267.067-.106.111-.226.127-.352.017-.125.007-.252-.03-.373-.037-.12-.1-.232-.183-.326z" fill="#872c39"/><path d="m124.488 325.255-7.999 2.637c-.352.088-.703 0-.791-.352l-5.186-11.163c-.027-.081-.036-.166-.028-.251.008-.084.033-.166.074-.241.042-.074.098-.139.166-.191.067-.051.145-.088.228-.108l7.998-2.725c.152-.038.313-.024.456.04.144.064.262.173.335.312l5.098 11.163c.043.079.068.167.074.257.005.091-.01.181-.043.265-.034.084-.085.159-.151.221s-.145.108-.231.136z" fill="#ba4e5d"/><path d="m106.469 331.583c-1.143-1.406-2.022-2.549-3.604-2.988-3.1643-.791-6.856-1.319-11.1629-2.022-1.0376-.193-2.1092-.071-3.0764.352-2.9885 1.23-4.0433 3.252-2.1095 9.756h18.0188c.535-.428 1.035-.898 1.494-1.406 1.319-1.67 1.407-2.373.44-3.692z" fill="#ff8fb1"/><path d="m127.125 320.596c2.988 1.494 7.119 3.956 7.119 3.956.742.436 1.363 1.05 1.808 1.787.445.736.7 1.572.741 2.432v.791c.036.7-.069 1.399-.307 2.059-.238.659-.605 1.264-1.08 1.779-.474.516-1.047.931-1.684 1.223s-1.326.454-2.027.476h-.615c-.699-.056-1.377-.267-1.985-.616-.608-.35-1.131-.83-1.531-1.405-.962-1.333-2.051-2.57-3.252-3.692-.615-.615-2.285-1.582-2.813-2.198-.527-.615-1.406-2.812 0-5.01 1.407-2.197 2.198-3.252 5.626-1.582z" fill="#f57fb5"/><path d="m106.613 288.37c.763-.6.676-1.984-.194-3.09-.871-1.106-2.195-1.516-2.958-.916s-.676 1.984.195 3.09c.87 1.107 2.194 1.517 2.957.916z" fill="#1e1c2b"/><path d="m122.741 284.498c.243-1.288-.294-2.471-1.2-2.642-.907-.172-1.839.734-2.082 2.022-.243 1.287.294 2.47 1.2 2.642.907.171 1.839-.734 2.082-2.022z" fill="#1e1c2b"/><path d="m191.465 347.405h-15.821v92.951h15.821z" fill="#eb9151"/><path d="m191.465 347.405h-10.459v92.951h10.459z" fill="#ad482c"/><path d="m191.465 347.405h-15.821v16.876h15.821z" fill="#ad482c"/><path d="m321.026 336.681h-262.9885c-.8253 0-1.4943.669-1.4943 1.495v11.848c0 .825.669 1.494 1.4943 1.494h262.9885c.825 0 1.494-.669 1.494-1.494v-11.848c0-.826-.669-1.495-1.494-1.495z" fill="#eb9151"/><path d="m321.026 336.681h-135.45c-.825 0-1.494.669-1.494 1.495v11.848c0 .825.669 1.494 1.494 1.494h135.45c.825 0 1.494-.669 1.494-1.494v-11.848c0-.826-.669-1.495-1.494-1.495z" fill="#c45f3d"/><path d="m144.44 236.127 3.604-1.582c.088-.088.088-.176 0-.176l-3.604-1.582-1.67-3.692c0-.088-.088-.088-.088 0l-1.67 3.604-3.603 1.67c-.088 0-.088.088 0 .176l3.603 1.582 1.67 3.604h.088z" fill="#6adbc6"/><path d="m388.003 409.944 3.692-1.582v-.176l-3.692-1.582-1.582-3.604h-.176l-1.582 3.604h-.088l-3.603 1.582c-.088 0-.088.088 0 .176l3.603 1.582h.088l1.582 3.692h.176z" fill="#133dbd"/><path d="m27.0977 338.439 3.6038-1.67c.0879 0 .0879-.088 0-.088l-3.6038-1.67h-.0879l-1.5822-3.603h-.1757l-1.5822 3.603-3.6038 1.67c-.0879 0-.0879.088 0 .088l3.6038 1.67 1.5822 3.604h.1757l1.5822-3.604z" fill="#ffb869"/><path d="m184.609 253.97c-.791-1.67-2.197-2.637-3.076-2.197-.105.054-.198.128-.273.219-.076.09-.132.195-.167.308 1.495-.088.704 1.67 3.516 1.67z" fill="#ffebf5"/><path d="m180.83 253.443c.02.705.201 1.396.527 2.021l.264.528c.351 0 .879-.176 1.23.264.352.439.528 1.142 1.583 1.318.227-.19.403-.435.511-.712.107-.277.143-.576.104-.87h-.176c-1.846 0-2.988-1.934-4.043-2.549z" fill="#ff70b7"/><path d="m175.292 263.375c.486 0 .879-.511.879-1.142 0-.632-.393-1.143-.879-1.143-.485 0-.879.511-.879 1.143 0 .631.394 1.142.879 1.142z" fill="#f7d197"/><path d="m170.546 271.022c.485 0 .879-.511.879-1.142 0-.632-.394-1.143-.879-1.143-.486 0-.879.511-.879 1.143 0 .631.393 1.142.879 1.142z" fill="#f7d197"/><path d="m166.503 208-1.934 5.977-4.659 2.549z" fill="#179de0"/><path d="m172.567 275.769c.261 1.37.613 2.72 1.055 4.043.088-1.143.528-2.373 1.231-2.549s.791-2.11 1.67-2.11l-1.319-2.9c-.941 1.123-1.822 2.297-2.637 3.516z" fill="#a8c3ff"/><path d="m175.468 299.677c.128.217.31.399.527.527z" fill="#d6dfff"/><path d="m181.621 285.262c2.197 1.23 3.164 2.021 3.164 4.131-1.378-1.097-2.465-2.515-3.164-4.131z" fill="#d6dfff"/><path d="m191.465 285.613c2.198 2.198 3.077 3.78 3.165 5.01-.894-.326-1.726-.802-2.462-1.406z" fill="#fff"/><path d="m174.853 282.185c.14 1.377.527 2.716 1.142 3.956-1.582-1.143-1.582-2.11-1.142-3.956z" fill="#d6dfff"/><path d="m180.127 292.645c1.318 2.022 4.482 2.022 4.482 2.022-2.9 1.494-4.131 1.582-4.482-2.022z" fill="#d6dfff"/><path d="m194.366 276.032c.724 1.122 1.063 2.449.967 3.78 0 0 2.461-2.11-.967-3.78z" fill="#c7d3fc"/><path d="m198.409 294.139c.528 1.846 0 3.516-1.142 3.956.065-1.39.457-2.745 1.142-3.956z" fill="#c7d3fc"/><path d="m182.939 267.946c1.937-.572 3.903-1.042 5.889-1.407-3.076-.263-4.922.264-5.889 1.407z" fill="#5e221d"/><path d="m177.314 271.989c.527-.176 1.143-.527 1.67 0z" fill="#5e221d"/><path d="m177.578 273.132c.351-.44.791-.967 1.494-.703z" fill="#5e221d"/><path d="m192.872 268.737c-.528.176-1.231.264-1.319 1.055z" fill="#5e221d"/><path d="m193.399 269.792c-.527-.088-1.231-.264-1.67.439z" fill="#5e221d"/><path d="m184.961 271.813c.13.838.531 1.61 1.143 2.198.351.263.087-.352-.44-1.407-.527-1.054-.879-1.494-.703-.791z" fill="#a25751"/><path d="m181.797 279.46c-.206-.014-.411.039-.585.149-.174.111-.308.274-.382.467 2.812.966 7.032.527 8.086.351 1.055-.176.616-.439.528-.879h-.088c-2.514.276-5.052.246-7.559-.088z" fill="#d6dfff"/><path d="m194.278 267.155c-.6-.579-1.247-1.109-1.934-1.582 0 0 .703 2.021 1.231 3.691l1.494.879c-.189-1.014-.454-2.013-.791-2.988z" fill="#a8c3ff"/><path d="m160.526 322.794c-7.999 3.603-10.9 3.867-12.13 4.131-1.231.263-2.725.615 0 2.461s3.164 2.109 7.471-1.231 8.262-6.944 4.659-5.361z" fill="#1a3e9c"/><path d="m163.075 317.608c-.878-3.386-1.994-6.705-3.341-9.933-.791-1.67-.351-2.461.352-2.9.703-.44.967-.088 1.494 1.846l2.286 10.459z" fill="#1e397d"/><path d="m153.054 306.708c2.901 3.604 4.483 5.274 5.362 6.681.879 1.406.615 1.054-3.516.703-4.131-.352-6.504-.264-6.153-1.758.601-1.912 1.306-3.79 2.11-5.626.351-.966 1.143-1.318 2.197 0z" fill="#1a3e9c"/><path d="m193.399 334.484-6.241-1.934c-1.933-.615 1.143.791 3.516 1.407 2.373.615 2.725 1.23 2.725 1.67-.042.224-.136.436-.273.619s-.314.332-.518.435h1.582l.264-.703c.264-.791-.088-1.23-1.055-1.494z" fill="#5e221d"/><path d="m180.918 331.935h-18.635v.431h18.635z" fill="#913945"/><path d="m181.006 333.693h-20.305v.431h20.305z" fill="#913945"/><path d="m181.006 335.627h-20.305v.43h20.305z" fill="#913945"/><path d="m257.212 330.441h-21.447v6.276h21.447z" fill="#ba4e5d"/><path d="m241.83 330.441-1.67 4.307h-2.812l1.845-4.307z" fill="#d65a6b"/><path d="m257.212 331.671h-19.689v.457h19.689z" fill="#913945"/><path d="m257.212 333.517h-21.447v.457h21.447z" fill="#913945"/><path d="m257.212 335.627h-21.447v.457h21.447z" fill="#913945"/><path d="m160.789 368.94c-6.68 29.357-5.537 26.457-4.395 30.236 1.143 3.78 1.846 4.131 3.253-3.779 1.406-7.911 2.197-14.591 3.076-22.063.879-7.471.352-14.59-1.934-4.394z" fill="#1a40a1"/><path d="m198.849 434.599c3.808-1.47 7.715-2.674 11.69-3.604 2.022-.527 2.813-.615 3.604-6.153.791-5.537 1.318-11.69 1.406-13.009.088-1.318-4.219 5.714-7.559 10.46-3.34 4.747-13.976 14.152-9.141 12.306z" fill="#1a3578"/><path d="m111.127 291.59 2.286 1.494c.357.229.758.378 1.177.44.419.061.846.032 1.254-.084.407-.116.785-.318 1.108-.591.324-.274.585-.613.768-.995l.791-1.494" stroke="#ba4173" stroke-linecap="round" stroke-miterlimit="10" stroke-width="2"/><path d="m83.264 291.854c-2.1096-.528-4.6586-1.231-5.7134-1.319.9787 1.187 2.2516 2.097 3.6917 2.637l-.3516.352c2.637 0 4.5707-.176 5.5376-.264.9668-.088 1.1426-.439-3.1643-1.406z" fill="#f071ab"/><path d="m81.2829 280.431c1.3827-1.498 2.0408-3.14 1.47-3.667s-2.1544.261-3.5371 1.76c-1.3827 1.498-2.0408 3.14-1.47 3.666.5708.527 2.1544-.261 3.5371-1.759z" fill="#ffa1bd"/><path d="m80.8907 327.101 4.8344-2.022c1.0547-.352.1758-.703-2.0217-1.67-2.1974-.967-2.7248-1.319-2.9006.615s-.791 3.428.0879 3.077z" fill="#fad596"/><path d="m86.604 326.134c-4.9222 1.318-5.0101 2.021-5.098 2.812-.0879.792 0 1.671 1.8458.264 1.5076-1.13 3.1276-2.102 4.8344-2.9.879-.44.4395-.704-1.5822-.176z" fill="#f7d08d"/><path d="m93.0205 326.046c.879-4.922.7911-6.241 1.2306-6.329s1.2306 1.055 1.9337 2.637c.7032 1.582-3.1643 3.692-3.1643 3.692z" fill="#172e5c"/><path d="m88.6257 326.925c-2.9885 1.23-4.0433 3.252-2.1095 9.756h.5273c-1.4942-9.844 2.7249-9.844 4.6586-10.108-1.0376-.193-2.1092-.071-3.0764.352z" fill="#f278b0"/><path d="m103.304 328.771c1.143.703.616 1.933-.351 4.043l-1.934 3.867h3.516c.535-.427 1.035-.898 1.494-1.406 1.319-1.67 1.407-2.373.44-3.692-.783-1.204-1.876-2.176-3.165-2.812z" fill="#f278b0"/><path d="m136.793 328.771c-.041-.86-.296-1.696-.741-2.432-.445-.737-1.066-1.351-1.808-1.787 0 0-3.34-2.022-6.153-3.516-1.634 1.573-3.026 3.38-4.131 5.361-.326.67-.563 1.379-.703 2.11.397.197.755.465 1.055.791 1.201 1.122 2.29 2.359 3.252 3.692.593.871 1.459 1.521 2.461 1.846 1.183.382 2.464.32 3.604-.176 1.013-.438 1.863-1.182 2.431-2.128.567-.946.824-2.046.733-3.146z" fill="#f073ab"/><path d="m121.444 319.058-4.319-2.172-2.279 4.531 4.319 2.172z" fill="#ad3b4b"/><path d="m142.77 380.454 2.198 2.285c.28.302.469.676.547 1.08s.04.822-.108 1.206l-1.055 2.373z" fill="#1c1b29"/><path d="m109.369 380.454-.439 5.801c-.046.377.002.758.14 1.111s.362.666.651.911l2.461 2.285z" fill="#1c1b29"/><path d="m131.344 382.827 12.833 1.143-4.131 2.11c-.975.49-2.073.676-3.154.535-1.082-.141-2.096-.603-2.911-1.326z" fill="#13121c"/><path d="m120.62 383.97-7.559 3.868s5.625 4.746 7.559-3.868z" fill="#13121c"/><path d="m68.4973 306.533c1.7961 0 3.2521-1.456 3.2521-3.252 0-1.797-1.456-3.253-3.2521-3.253-1.7962 0-3.2522 1.456-3.2522 3.253 0 1.796 1.456 3.252 3.2522 3.252z" fill="#6e2b17"/><path d="m113.764 336.681 3.956 3.428 2.549-3.428z" fill="#db704c"/><path d="m234.183 282.713h-.175c-.651.034-1.274.273-1.779.684-.506.411-.868.971-1.034 1.601l-3.164 11.866-1.055 1.143c-.221.23-.383.51-.475.815-.092.306-.11.629-.053.943l.264 2.373c.967 5.098.879.439 3.955-.352 3.077-.791.792-2.549 1.231-3.691 1.979-3.032 3.297-6.446 3.867-10.021l2.637-4.834c-1.361-.434-2.792-.613-4.219-.527z" fill="#244ab0"/><path d="m233.92 283.592c-.257.008-.508.078-.731.205-.224.127-.413.307-.551.523-.139.216-.222.463-.244.719s.019.513.119.75c1.934 3.34 7.735 7.12 12.13 8.526s4.483.264 1.67-2.901c-2.813-3.164-5.537-8.35-12.393-7.822z" fill="#242236"/><path d="m244.643 294.315c-4.136-1.462-7.891-3.835-10.987-6.944l-1.143-1.582c-.1-.237-.141-.494-.119-.75s.105-.503.244-.719c.138-.216.327-.396.551-.523.223-.127.474-.197.731-.205h.088c5.889-.44 8.35 2.812 11.075 6.152.384.598.826 1.158 1.318 1.67 2.725 3.165 3.604 4.571-1.758 2.901z" fill="#242236"/><path d="m244.643 294.315h-.264c-3.114-1.076-6.004-2.714-8.526-4.834l-1.758-1.583-.439-.527c-.429-.459-.812-.96-1.143-1.494-.1-.237-.141-.494-.119-.75s.105-.503.244-.719c.138-.216.327-.396.551-.523.223-.127.474-.197.731-.206h.791c.795-.08 1.598-.02 2.373.176 3.78.616 5.801 3.252 7.999 5.977l.263.44.967 1.142c2.813 3.165 3.692 4.571-1.67 2.901z" fill="#242236"/><path d="m215.725 322.442c.193-5.953.017-11.912-.527-17.843-.352-2.989.879-1.494 2.109 1.143 1.231 2.637.527 6.944 0 11.514-.527 4.571-1.67 7.208-1.582 5.186z" fill="#152d69"/><path d="m213.44 312.51c-4.395 13.184-15.47 24.171-15.47 24.171h4.834c5.484-4.517 9.241-10.788 10.636-17.755 1.23-6.328 1.582-11.339 0-6.416z" fill="#152d69"/><path d="m226.273 304.863c-.509 5.317-.598 10.666-.264 15.997.351 4.219-1.319 1.67-2.461-.615-1.143-2.286-.264-2.989.439-7.208s.791-5.362 1.143-7.559c.352-2.198 1.318-3.428 1.143-.615z" fill="#152d69"/><path d="m230.14 305.654c-.088 5.274 1.143 9.317 3.516 9.229 1.892-.13 3.714-.768 5.274-1.846 1.055-.703.439-.879-1.494-1.758-1.821-.935-3.366-2.329-4.483-4.043-.879-1.582-2.725-5.186-2.813-1.582z" fill="#173275"/><path d="m246.401 285.525-1.055 4.659-.879 3.867c0 .088-10.284-6.68-10.284-6.856.101-.252.16-.519.176-.791.108-.371.167-.756.176-1.142.088-.264.088-.616.176-.879v-.791c.115-.933.145-1.875.088-2.813v-.879c-.176-4.043-.352-10.02-.352-10.02 9.669-.44 12.833 2.724 12.833 2.724.527 8.614-.264 10.636-.879 12.921z" fill="#7a2f28"/><path d="m234.974 283.416c.029-1.117-.193-2.225-.65-3.244-.456-1.019-1.135-1.923-1.987-2.645-1.406-.967-1.582-1.582-2.373-2.901-.791-1.318-1.142-1.758-1.582-2.285-.141-.225-.192-.494-.143-.755s.194-.493.407-.652c.439-.439 1.318-.615 2.461.088s3.34 2.549 4.922 3.604 3.164 7.12-1.055 8.79z" fill="#7a2f28"/><path d="m234.799 276.032c-.176-3.428-.791-9.932-.879-11.338-.157-1.46-.186-2.93-.088-4.395.088-.703.088-1.231 1.055-1.231.966 0 1.582 1.143 1.845 3.34.264 2.198.352 3.428.352 3.428.567 1.754 1.008 3.546 1.318 5.362.088 1.846-3.603 4.834-3.603 4.834z" fill="#7a2f28"/><path d="m238.139 270.495c.088-2.901.791-9.933.967-11.515.175-1.582.439-1.933 1.318-1.846.879.088 1.758.264 1.406 5.186-.263 2.549-.263 4.132-.263 4.132s0 4.307-.088 5.537c-.088 1.231-3.34-1.494-3.34-1.494z" fill="#7a2f28"/><path d="m241.303 270.846c.352-3.076 1.055-7.822 1.231-9.229.175-1.406.527-2.197 1.494-1.933.967.263 1.494.966 1.23 3.515-.263 2.549-.439 4.307-.527 5.011-.088.703-.264 4.57-.264 4.57z" fill="#7a2f28"/><path d="m244.116 272.517c.615-2.725 1.494-6.769 1.758-8.087.263-1.318.615-1.846 1.582-1.582s1.318.967.879 3.252c-.323 1.42-.558 2.858-.703 4.307l-.616 4.043z" fill="#7a2f28"/><path d="m234.535 273.483c2.109 1.319 4.483 1.846 5.362 3.253.787.995 1.383 2.127 1.758 3.34.175.966.439.615 1.318-.616.879-1.23 1.67-2.197 2.022-3.34.351-1.142-.088-1.933-3.692-2.461l-6.768-.967z" fill="#5e221d"/><path d="m237.172 283.064c0 .237-.029.474-.088.703-.176 1.055-.615 3.077-.967 4.747-.088.263-1.934-1.143-1.934-1.319.101-.252.16-.519.176-.791.108-.371.167-.756.176-1.142.088-.264.088-.616.176-.879v-.791c.073-.583.102-1.171.088-1.758-.196-1.03-.583-2.014-1.143-2.901l1.143.967c2.197 1.934 2.373 2.197 2.373 3.164z" fill="#91423b"/><path d="m233.48 285.262-.615 1.054.791 1.055c3.096 3.109 6.851 5.482 10.987 6.944h.527c-8.789-4.659-11.69-9.053-11.69-9.053z" fill="#242236"/><path d="m235.326 266.979c.636.048 1.272-.073 1.846-.352 0 0-1.407-1.67-1.846.352z" fill="#5e221d"/><path d="m235.062 263.639c.534.073 1.078.013 1.582-.176 0 0-1.318-.967-1.582.176z" fill="#5e221d"/><path d="m239.545 266.188c.59.215 1.226.275 1.846.176 0 0-1.231-1.495-1.846-.176z" fill="#5e221d"/><path d="m236.644 270.319c3.049.002 6.087.356 9.054 1.055 1.67.527 1.582 1.055-.967.527-2.323-.499-4.67-.881-7.032-1.142-1.406-.176-2.637-.44-1.055-.44z" fill="#5e221d"/><path d="m240.16 262.145c.528-.704 1.231-.088 1.319.439s-1.143.703-1.319-.439z" fill="#5e221d"/><path d="m218.098 322.266c2.33 0 4.219-1.889 4.219-4.219s-1.889-4.219-4.219-4.219-4.219 1.889-4.219 4.219 1.889 4.219 4.219 4.219z" fill="#f7e9cb"/><path d="m222.317 319.541c1.165 0 2.11-.944 2.11-2.109s-.945-2.11-2.11-2.11-2.109.945-2.109 2.11.944 2.109 2.109 2.109z" fill="#f7e9cb"/><path d="m223.108 316.992h-12.481c-2.548 6.347-2.548 13.431 0 19.777h12.481c2.46-6.363 2.46-13.414 0-19.777z" fill="#db7b47"/><path d="m214.143 316.992c-1.337 6.51-1.516 13.205-.528 19.777h.616l.615-19.777z" fill="#c2612c"/><path d="m219.68 316.992c2.022 7.56.879 19.777.879 19.777h-.879l-.791-19.777z" fill="#c2612c"/><path d="m209.66 333.781c-.352-5.274 1.582-12.833 3.252-16.789h-2.285c-2.115 5.348-2.454 11.234-.967 16.789z" fill="#ffae82"/><path d="m217.219 316.992c2.637 2.374 3.428 0 3.428 0l-2.373-.879z" fill="#f7e9cb"/><path d="m42.6555 407.263c3.1643-7.559 18.1068-8.878 10.8992 7.998h-9.4929z" fill="#1a606e"/><path d="m39.4912 415.261s-9.0534-10.987-4.9223-17.579c4.1312-6.592 14.0636-2.373 12.5693 17.579z" fill="#216c7a"/><path d="m36.4148 398.561c-5.8012-7.295-15.6457-7.032-15.5578-.879s15.5578 2.461 15.5578 2.461z" fill="#216c7a"/><path d="m44.1497 375.883c-7.1196 1.231-2.9006 9.757-5.1859 21.272l3.7796 2.549c8.1744-11.163 8.526-25.051 1.4063-23.821z" fill="#216c7a"/><path d="m31.0683 391.665c.3938-1.901-.366-3.666-1.697-3.942-1.331-.275-2.7292 1.043-3.1229 2.944-.3938 1.901.366 3.666 1.697 3.942s2.7292-1.042 3.1229-2.944z" fill="#216c7a"/><path d="m50.2146 405.065c0-12.305 1.2306-17.403 4.6586-17.315 3.428.087-2.3732 17.843-2.3732 17.843z" fill="#1a606e"/><path d="m46.1714 380.542c3.2521-6.241 8.9655-4.746 6.9438 0-.208.612-.5511 1.169-1.0037 1.63-.4527.461-1.0033.815-1.6111 1.034-.6078.22-1.2572.3-1.9001.234-.6428-.066-1.2627-.275-1.8137-.613z" fill="#216c7a"/><path d="m52.1484 410.251c5.6254-10.899 10.8992-19.073 15.382-13.096 4.4827 5.977-12.6572 20.48-12.6572 20.48h-2.7248z" fill="#216c7a"/><path d="m62.0808 398.121c-2.5491-5.185-4.2191-9.405-2.5491-13.272 1.6701-3.867 9.7566-3.428 5.0981 12.833z" fill="#216c7a"/><path d="m45.3803 417.019c2.1974-8.262 7.9986-8.877 9.7566-6.416 1.7579 2.461-3.3401 6.153-3.3401 6.153z" fill="#2a858c"/><path d="m59.5317 440.4h-21.7985l-6.9438-12.569 1.2305-12.57h33.2251l1.4064 12.57z" fill="#f77c7c"/><path d="m30.7894 427.831h9.5808l1.2305-12.57h-9.5808z" fill="#ff9191"/><path d="m29.383 387.837c-1.3184-.263-2.7248 1.055-3.1643 2.989-.1188.765-.0586 1.547.1758 2.285-2.4611-.088-4.4827.879-5.1859 2.725 1.8998-.74 3.9573-.982 5.977-.703 0 0-.5274-4.571 2.3732-7.208z" fill="#2a858c"/><path d="m46.1714 380.542 6.2407-3.867c-1.5822-.792-4.307.175-6.2407 3.867z" fill="#2a858c"/><path d="m39.7549 390.035c.791-6.153 1.4063-10.548 4.3948-14.151-5.5375.966-4.219 6.328-4.3948 14.151z" fill="#2a858c"/><path d="m59.5317 384.849c-.7327 1.847-.8559 3.879-.3516 5.801l3.7796-7.735c-.7042-.096-1.4206.041-2.0397.39s-1.1067.891-1.3883 1.544z" fill="#2a858c"/><path d="m37.0301 400.671-.6153 1.406 1.8458-.352z" fill="#2a858c"/><path d="m45.3803 385.552-1.758 2.198 2.5491.088z" fill="#2a858c"/><path d="m61.5534 400.671-1.3185 1.406 1.9337.439z" fill="#2a858c"/><path d="m44.0618 405.944v2.022l1.758-.967z" fill="#1a606e"/><path d="m39.5791 373.51c.1327.531.3687 1.031.6946 1.471.3258.439.7351.811 1.2044 1.092.4693.282.9895.468 1.5308.549.5414.08 1.0933.053 1.6243-.079.5309-.133 1.0306-.369 1.4703-.695.4398-.326.811-.735 1.0926-1.204.2816-.47.468-.99.5486-1.531.0805-.541.0536-1.093-.0791-1.624z" fill="#ffb869"/></g></svg>