<svg fill="none" height="440" viewBox="0 0 678 440" width="678" xmlns="http://www.w3.org/2000/svg" xmlns:xlink="http://www.w3.org/1999/xlink"><linearGradient id="a"><stop offset="0" stop-color="#61c7c7"/><stop offset="1" stop-color="#54b9c7"/></linearGradient><linearGradient id="b" gradientUnits="userSpaceOnUse" x1="304.976" x2="311.537" xlink:href="#a" y1="326.715" y2="324.227"/><linearGradient id="c" gradientUnits="userSpaceOnUse" x1="539.98" x2="559.88" xlink:href="#a" y1="264.392" y2="259.652"/><linearGradient id="d" gradientUnits="userSpaceOnUse" x1="15160.8" x2="14951.9" xlink:href="#a" y1="1650.24" y2="1650.24"/><linearGradient id="e" gradientUnits="userSpaceOnUse" x1="313.298" x2="315.07" y1="194.98" y2="215.731"><stop offset="0" stop-color="#ffc285"/><stop offset="1" stop-color="#db8d6b"/></linearGradient><linearGradient id="f" gradientUnits="userSpaceOnUse" x1="295.837" x2="333.241" y1="216.223" y2="197.901"><stop offset="0" stop-color="#d67569"/><stop offset="1" stop-color="#e39e7f"/></linearGradient><mask id="g" height="40" maskUnits="userSpaceOnUse" width="40" x="299" y="303"><circle cx="319" cy="323" fill="#c4c4c4" r="20"/></mask><mask id="h" height="40" maskUnits="userSpaceOnUse" width="40" x="299" y="247"><circle cx="319" cy="267" fill="#c4c4c4" r="20"/></mask><mask id="i" height="40" maskUnits="userSpaceOnUse" width="40" x="299" y="115"><circle cx="319" cy="135" fill="#c4c4c4" r="20"/></mask><mask id="j" height="40" maskUnits="userSpaceOnUse" width="40" x="299" y="191"><circle cx="319" cy="211" fill="#c4c4c4" r="20"/></mask><rect fill="#292841" height="328" rx="8" width="427" x="181" y="40"/><path clip-rule="evenodd" d="m304.887 85c-.312 0-.547-.2811-.493-.5874l.606-3.4126h-3.405c-.311 0-.546-.2802-.492-.5862l.175-1c.041-.2392.249-.4138.492-.4138h3.58l1.06-6h-3.405c-.311 0-.546-.2802-.492-.5862l.175-1c.041-.2392.249-.4138.492-.4138h3.58l.637-3.5874c.042-.2387.25-.4126.492-.4126h.984c.312 0 .547.2811.493.5874l-.606 3.4126h6l.637-3.5874c.042-.2387.25-.4126.492-.4126h.984c.312 0 .547.2811.493.5874l-.606 3.4126h3.405c.311 0 .546.2802.492.5862l-.175 1c-.041.2392-.249.4138-.492.4138h-3.58l-1.06 6h3.405c.311 0 .546.2802.492.5862l-.175 1c-.041.2392-.249.4138-.492.4138h-3.58l-.637 3.5874c-.042.2387-.25.4126-.492.4126h-.984c-.312 0-.547-.2811-.493-.5874l.606-3.4126h-6l-.637 3.5874c-.042.2387-.25.4126-.492.4126zm3.523-12-1.06 6h6l1.06-6z" fill="#b9bbbe" fill-rule="evenodd"/><path d="m339.38 80.16c0-1.82-.98-2.5-3.48-3.14-1.44-.38-1.8-.68-1.8-1.2s.44-.88 1.34-.88c.96 0 2.1.34 3.06.88l.32-2c-.96-.42-2.12-.68-3.38-.68-2.24 0-3.56 1.18-3.56 2.86 0 1.76.98 2.44 3.32 3.04 1.54.38 1.96.66 1.96 1.34 0 .64-.56 1.02-1.6 1.02-1.2 0-2.48-.46-3.52-1.14l-.32 2c.92.5 2.36.94 3.76.94 2.54 0 3.9-1.14 3.9-3.04z" fill="#fff"/><path d="m346.443 83-.3-2.02c-.22.06-.48.08-.76.08-.92 0-1.26-.42-1.26-1.2v-4.56h2.26l-.3-1.96h-1.96v-3.42l-2.38.36v3.06h-1.36v1.96h1.36v4.96c0 2.2 1.28 2.9 3.18 2.9.7 0 1.14-.08 1.52-.16z" fill="#fff"/><path d="m348.196 73.34v6.94c0 1.82.94 2.92 2.76 2.92 1.28 0 2.32-.7 3.22-1.56l.22 1.36h2.04v-9.66h-2.4v6.52c-.7.72-1.46 1.2-2.2 1.2-.88 0-1.24-.56-1.24-1.4v-6.32z" fill="#fff"/><path d="m360.82 78.3c0-2.12.9-3.14 2.16-3.14.82 0 1.28.14 1.88.42v4.14c-.64.82-1.32 1.34-2.2 1.34-1.06 0-1.84-.88-1.84-2.76zm-2.42.14c0 3.26 1.62 4.76 3.64 4.76 1.34 0 2.28-.72 2.96-1.54l.2 1.34h2.06v-14.44l-2.4.38v4.66c-.58-.2-1.32-.36-2.24-.36-2.24 0-4.22 1.6-4.22 5.2z" fill="#fff"/><path d="m370.72 86.64c1.74 0 2.86-.7 3.68-3.02l3.7-10.28h-2.42l-2.16 6.8-2.2-6.94-2.5.32 3.5 9.46-.08.28c-.32 1.04-.96 1.4-1.76 1.4-.42 0-.76-.06-1.06-.14l.32 2.02c.22.06.46.1.98.1z" fill="#fff"/><path d="m384.308 78.4v-2.32h-5.2v2.32z" fill="#fff"/><path d="m391.698 76.48c0 1.06-.64 1.84-1.7 1.84-1.04 0-1.68-.76-1.68-1.76 0-1.06.62-1.88 1.68-1.88 1.02 0 1.7.78 1.7 1.8zm3.42 6.92c0-1.48-1.24-2.1-3.22-2.38l-1.24-.12c-1.5-.22-1.8-.3-1.8-.62 0-.16.16-.34.4-.52.24.04.5.06.78.06 2.08 0 3.86-1.24 3.86-3.32 0-.44-.08-.88-.26-1.26l1.76-.12-.32-1.92-2.36.84c-.7-.58-1.62-.9-2.74-.9-2.16 0-3.88 1.3-3.88 3.42 0 1.28.68 2.28 1.82 2.82-.8.48-1.22 1-1.22 1.54 0 .38.18.74.56 1.04-1.2.68-1.82 1.38-1.82 2.28 0 1.6 1.98 2.4 4.6 2.4 2.8 0 5.08-1.16 5.08-3.24zm-4.92 1.82c-1.82 0-2.68-.52-2.68-1.24 0-.5.32-.96 1.02-1.46.48.1.78.16 1.44.24l1.3.16c1.2.18 1.62.48 1.62 1 0 .72-.98 1.3-2.7 1.3z" fill="#fff"/><path d="m402.649 75.52-.38-2.38c-1.5.08-2.46 1.02-3.1 2.14l-.3-1.94h-2.04v9.66h2.4v-5.54c.7-1.04 1.92-1.84 3.42-1.94z" fill="#fff"/><path d="m412.519 78.16c0-3.14-1.92-5.02-4.56-5.02-2.62 0-4.54 1.9-4.54 5.04s1.9 5.02 4.52 5.02c2.64 0 4.58-1.9 4.58-5.04zm-2.34.02c0 1.8-.76 3.06-2.24 3.06-1.4 0-2.18-1.3-2.18-3.08s.76-3.06 2.18-3.06c1.44 0 2.24 1.3 2.24 3.08z" fill="#fff"/><path d="m414.426 73.34v6.94c0 1.82.94 2.92 2.76 2.92 1.28 0 2.32-.7 3.22-1.56l.22 1.36h2.04v-9.66h-2.4v6.52c-.7.72-1.46 1.2-2.2 1.2-.88 0-1.24-.56-1.24-1.4v-6.32z" fill="#fff"/><path d="m431.551 78.04c0 2.12-.94 3.14-2.18 3.14-.82 0-1.28-.14-1.86-.42v-4.14c.64-.82 1.32-1.36 2.18-1.36 1.08 0 1.86.92 1.86 2.78zm2.42-.14c0-3.24-1.62-4.76-3.64-4.76-1.34 0-2.28.74-2.96 1.52l-.22-1.32h-2.04v13.38l2.4-.36v-3.64c.58.22 1.32.38 2.24.38 2.22 0 4.22-1.6 4.22-5.2z" fill="#fff"/><path d="m162 48c0-4.4183 3.582-8 8-8h105v328h-105c-4.418 0-8-3.582-8-8z" fill="#1c1b29"/><g mask="url(#g)"><circle cx="319" cy="323" fill="#cfdeff" r="20"/><path d="m341.353 349.84c-.38-.938-1.007-1.754-1.816-2.362-.808-.609-1.767-.985-2.773-1.091l-2.1-.222c-3.014-10.858-1.491-13.323-10.388-15.759l-7.202-.254s-7.318.123-10.01 3.726l3.764 12.339s-1.54 8.19-.84 12.342l9.381-1.211 4.066 13.156c15.327-2.275 22.467-9.38 22.467-9.38z" fill="#cfdeff"/><path d="m308.781 331.124c10.213 9.567 19.443 16.103 17.889 1.012z" fill="#b8c5ff"/><path d="m313.794 332.253c8.892 4.179 11.2 5.755 10.618.733z" fill="#5697b0"/><path d="m332.985 339.279c-1.082-4.563-1.895-6.53-6.449-8.178 1.225 2.867 1.759 8.783 1.759 8.783z" fill="#fff"/><path d="m317.807 317.232-.326-2.523c-.11-.823-.478-1.59-1.052-2.19-.574-.599-1.324-1.001-2.141-1.147-.898-.156-1.823.008-2.612.465-.788.456-1.391 1.176-1.703 2.033-1.144 3.107-2.932 8.106-4.165 12.31-1.964 6.699 6.918 8.249 15.646 7.583 8.727-.666 9.549-4.489 8.341-10.022-.774-3.452-1.755-6.975-2.367-9.165-.187-.612-.548-1.155-1.039-1.565s-1.09-.667-1.725-.742c-.712-.083-1.431.074-2.044.445-.613.37-1.085.935-1.342 1.603l-.981 2.593z" fill="#7ce4cc"/><path d="m328.625 326.391-.62-.215-3.179 1.101-3.235.417-5.604-1.118s-3.081-4.765-2.857.534c.176 3.66 1.73 5.761 2.676 6.724 1.882.086 3.767.052 5.643-.103 1.417-.08 2.82-.316 4.185-.705.945-1.339 2.468-3.805 2.991-6.635z" fill="#aafae7"/><path d="m313.039 326.661c-.72-2.012-2.024-6.25-1.483-9.444.542-3.194 1.255-5.819 2.732-5.845-.898-.156-1.823.008-2.612.465-.788.456-1.391 1.176-1.703 2.033-1.144 3.107-2.932 8.106-4.165 12.31-1.76 5.983 5.157 7.852 12.899 7.707-1.68-.276-3.815-2.039-5.668-7.226z" fill="url(#b)" opacity=".74"/><path d="m318.707 333.887-.623.015-.59.01-.927-.044-.291.037-.465-.038c-.943-.931-2.497-3.032-2.673-6.693-.013-.066-.011-.133.007-.198 1.82 4.928 3.919 6.663 5.562 6.911z" fill="#aafae7"/><path d="m327.862 325.833-.004.738c-3.401 2.225-3.953 2.84-12.715.089l-.088-.687.379.106c7.419 1.876 8.836 2.042 12.428-.246z" fill="#2c4661"/><path d="m314.453 328.704c1.145-.319 1.784-1.618 1.426-2.902-.357-1.284-1.575-2.067-2.721-1.748-1.145.319-1.784 1.618-1.426 2.902.357 1.284 1.576 2.067 2.721 1.748z" fill="#738eff"/><path d="m329.498 326.041c.233-1.111-.093-2.119-.727-2.252-.635-.134-1.338.659-1.571 1.77-.233 1.11.092 2.118.727 2.252.635.133 1.338-.66 1.571-1.77z" fill="#738eff"/><path d="m320.807 323.915c-.163-.242.112-.409.33-.503.088-.034.184-.039.276-.015.091.023.173.074.234.146l.83 1.077c.24.331-.12.345-.477.128s-.945-.438-1.193-.833z" fill="#284e7a" opacity=".41"/><path d="m324.523 324.422.252-.592c.045-.101.058-.213.038-.322s-.072-.209-.149-.288l-.114-.117c-.011-.012-.024-.022-.039-.027-.015-.006-.032-.008-.048-.006s-.031.008-.044.017c-.013.01-.024.022-.031.037-.155.421-.275.855-.359 1.296-.038.465.253.428.494.002z" fill="#284e7a" opacity=".41"/><path d="m320.927 317.454-3.12-.222 2.49-.322.981-2.593c.257-.668.729-1.233 1.342-1.603.613-.371 1.332-.528 2.044-.445l.607.119c-1.482-.269-1.984 1.44-2.275 3.516-.15 1.138-.107 1.724-2.069 1.55z" fill="#61c7c7"/><path d="m326.748 316.98c.004-.793-.518-1.438-1.166-1.442s-1.178.635-1.183 1.428c-.004.792.517 1.438 1.166 1.442.648.004 1.178-.635 1.183-1.428z" fill="#21354a"/><path d="m315.767 316.505c.078-.788-.382-1.479-1.027-1.543s-1.232.524-1.31 1.313c-.077.788.382 1.479 1.028 1.543.645.064 1.231-.524 1.309-1.313z" fill="#21354a"/><path d="m310.828 346.217c1.351.023 3.074-.134 4.611-.2-.029-.614.025-1.23.159-1.83.235-1.007.595-1.982 1.072-2.9-1.23-.105-2.723-.208-3.945-.247-.255-6.051-3.44-9.323-5.197-7.65-.833.792-1.34 1.866-1.42 3.012-.045.927.05 2.427-.005 2.763-.153 1.105-.933 1.436.022 3.483.494 1.022-.431 3.541 4.703 3.569z" fill="#fff"/><path d="m315.041 311.604c1.253.792 1.569 2.724 1.669 3.5.1.777.28 2.168.326 2.523.045.356.159.473 1.347 1.01 1.187.538.692.01.151-.611l-.727-.794-.326-2.523c-.092-.689-.366-1.34-.796-1.886-.429-.546-.997-.967-1.644-1.219z" fill="#d4ffdc"/><path d="m326.071 316.033c.449.173.551 1.212.104.809s-.724-1.025-.104-.809z" fill="#335a70"/><path d="m315.206 315.43c.418.176.523 1.248.105.809-.419-.44-.757-1.021-.105-.809z" fill="#335a70"/><path d="m315.114 327.356c.43-.227.465-1.005.078-1.738s-1.05-1.142-1.48-.915-.465 1.005-.077 1.738c.387.733 1.049 1.142 1.479.915z" fill="#b2a6ff"/><path d="m329.47 325.158c0-.523-.204-.946-.456-.947-.252 0-.457.424-.457.946-.001.522.203.946.456.946.252 0 .457-.423.457-.945z" fill="#b2a6ff"/><path d="m326.181 313.323c.698.567.896 1.594.113.873-.784-.721-.957-1.554-.113-.873z" fill="#d4ffdc"/></g><path d="m357.329 318.728h2.112v-4.064h.944c2.528 0 4.224-1.2 4.224-3.584 0-2.224-1.52-3.392-4.048-3.392h-3.232zm5.2-7.6c0 1.264-.8 1.824-2.16 1.824h-.928v-3.568h1.008c1.36 0 2.08.592 2.08 1.744z" fill="#2ddfb4"/><path d="m372.619 318.728v-5.568c0-1.44-.768-2.32-2.208-2.32-1.024 0-1.824.544-2.464 1.136v-4.8l-1.92.304v11.248h1.92v-5.216c.56-.592 1.168-.976 1.76-.976.704 0 .992.464.992 1.136v5.056z" fill="#2ddfb4"/><path d="m376.735 308.616c0-.656-.512-1.12-1.136-1.12-.64 0-1.152.464-1.152 1.12 0 .64.512 1.088 1.152 1.088.624 0 1.136-.448 1.136-1.088zm-.192 10.112v-7.728h-1.92v7.728z" fill="#2ddfb4"/><path d="m385.598 314.648c0-2.592-1.28-3.808-2.912-3.808-.976 0-1.696.512-2.192 1.024v-4.688l-1.92.304v10.832c.96.32 1.968.512 3.168.512 2.304 0 3.856-1.328 3.856-4.176zm-1.936.112c0 1.76-.736 2.496-1.952 2.496-.544 0-.816-.064-1.216-.208v-3.504c.48-.576 1.056-1.008 1.696-1.008.864 0 1.472.736 1.472 2.224z" fill="#2ddfb4"/><path d="m389.36 308.616c0-.656-.512-1.12-1.136-1.12-.64 0-1.152.464-1.152 1.12 0 .64.512 1.088 1.152 1.088.624 0 1.136-.448 1.136-1.088zm-.192 10.112v-7.728h-1.92v7.728z" fill="#2ddfb4"/><g fill="#72767d"><path d="m399.84 309.392-.168-1.032h-6.312v1.032h2.64v7.248h1.128v-7.248z"/><path d="m404.584 313.784c0-1.884-1.128-2.988-2.664-2.988-1.524 0-2.628 1.104-2.628 2.988s1.104 2.976 2.628 2.976c1.536 0 2.664-1.092 2.664-2.976zm-1.08 0c0 1.2-.528 2.088-1.584 2.088-1.008 0-1.548-.912-1.548-2.088 0-1.2.516-2.1 1.548-2.1s1.584.924 1.584 2.1z"/><path d="m406.7 313.892c0-1.416.648-2.148 1.548-2.148.612 0 .96.096 1.404.324v2.736c-.456.612-.96 1.008-1.62 1.008-.768 0-1.332-.66-1.332-1.92zm-1.08.048c0 1.92 1.02 2.82 2.256 2.82.84 0 1.428-.432 1.86-.948l.132.828h.852v-8.664l-1.068.168v2.952c-.36-.144-.876-.252-1.44-.252-1.392 0-2.592 1.008-2.592 3.096z"/><path d="m415.666 315.068c-.48.492-1.08.804-1.704.804-.54 0-.852-.3-.852-.768 0-.588.444-1.164 2.556-1.368zm1.068 1.572v-4.008c0-1.272-.672-1.836-2.064-1.836-.888 0-1.536.204-2.22.48l.144.924c.624-.276 1.284-.492 1.98-.492.66 0 1.092.252 1.092.972v.24c-2.388.252-3.612.816-3.612 2.244 0 .972.648 1.596 1.68 1.596.936 0 1.56-.42 2.016-.888l.12.768z"/><path d="m418.692 318.824c.84 0 1.464-.312 1.932-1.584l2.34-6.324h-1.116l-1.5 4.452-1.536-4.536-1.08.168 2.088 5.664-.144.384c-.228.612-.552.84-1.032.84-.168 0-.384-.036-.564-.084l.156.972c.108.024.228.048.456.048z"/><path d="m429.986 315.068c-.48.492-1.08.804-1.704.804-.54 0-.852-.3-.852-.768 0-.588.444-1.164 2.556-1.368zm1.068 1.572v-4.008c0-1.272-.672-1.836-2.064-1.836-.888 0-1.536.204-2.22.48l.144.924c.624-.276 1.284-.492 1.98-.492.66 0 1.092.252 1.092.972v.24c-2.388.252-3.612.816-3.612 2.244 0 .972.648 1.596 1.68 1.596.936 0 1.56-.42 2.016-.888l.12.768z"/><path d="m435.458 316.664-.144-.912c-.132.024-.3.036-.492.036-.6 0-.792-.288-.792-.756v-3.216h1.38l-.144-.9h-1.236v-2.064l-1.044.156v1.908h-.864v.9h.864v3.408c0 1.152.66 1.512 1.668 1.512.372 0 .624-.036.804-.072z"/><path d="m440.218 316.796c2.64-.564 4.5-2.196 4.5-4.992 0-2.244-1.224-3.432-2.928-3.432-1.608 0-2.784 1.116-2.784 2.688s.948 2.544 2.52 2.544c.768 0 1.44-.24 2.016-.612-.42 1.668-1.812 2.484-3.48 2.844zm1.536-4.14c-1.152 0-1.668-.612-1.668-1.644 0-1.08.672-1.692 1.68-1.692 1.152 0 1.908.996 1.908 2.544v.084c-.564.456-1.188.708-1.92.708z"/><path d="m447.339 312.344v-1.428h-1.2v1.428zm0 4.296v-1.428h-1.2v1.428z"/><path d="m450.883 316.796c1.776 0 2.892-.948 2.892-2.376 0-1.128-.6-1.752-1.644-2.04.876-.288 1.488-.876 1.488-1.884 0-1.092-.756-2.124-2.58-2.124-1.008 0-1.728.288-2.352.744l.156 1.008c.6-.48 1.308-.78 2.148-.78 1.02 0 1.524.504 1.524 1.2 0 .876-.636 1.356-1.98 1.356h-.612l.156.984h.372c1.56 0 2.22.564 2.22 1.548 0 .912-.66 1.392-1.728 1.392-.852 0-1.524-.252-2.208-.72l-.18 1.056c.624.384 1.476.636 2.328.636z"/><path d="m461.139 312.584c0-2.688-1.248-4.212-3.096-4.212-1.86 0-3.108 1.524-3.108 4.212s1.248 4.212 3.108 4.212c1.848 0 3.096-1.524 3.096-4.212zm-1.104 0c0 2.112-.744 3.264-1.992 3.264s-2.004-1.152-2.004-3.264.756-3.264 2.004-3.264 1.992 1.152 1.992 3.264z"/><path d="m471.182 316.724 1.116-.24-3.192-8.16h-1.128l-3.24 8.316h1.176l.924-2.484h3.372zm-2.664-7.08 1.32 3.516h-2.628z"/><path d="m482.671 316.64-.648-8.28h-1.38l-2.58 6.792-2.58-6.792h-1.392l-.66 8.28h1.056l.504-6.684 2.592 6.72h.9l2.592-6.72.516 6.684z"/></g><path d="m366.952 339v-5.552c0-1.376-.704-2.24-2.16-2.24-1.072 0-2 .608-2.688 1.264-.288-.784-.896-1.264-2.016-1.264-1.072 0-1.936.608-2.656 1.264l-.176-1.104h-1.136v7.632h1.424v-5.28c.688-.736 1.408-1.232 2.16-1.232.832 0 1.12.528 1.12 1.312v5.2h1.424v-5.28c.688-.736 1.408-1.232 2.16-1.232.832 0 1.12.528 1.12 1.312v5.2z" fill="#dcddde"/><path d="m372.079 332.328c1.104 0 1.648.704 1.824 1.936h-3.68c.224-1.296.976-1.936 1.856-1.936zm3.248 5.808-.208-1.28c-.832.656-1.632 1.088-2.736 1.088-1.328 0-2.16-.832-2.224-2.608h5.184v-.304c0-2.112-1.024-3.824-3.248-3.824-1.92 0-3.36 1.504-3.36 3.952 0 2.8 1.552 4 3.536 4 1.264 0 2.24-.384 3.056-1.024z" fill="#dcddde"/><path d="m384.331 339.032-.192-1.216c-.176.032-.4.048-.656.048-.8 0-1.056-.384-1.056-1.008v-4.288h1.84l-.192-1.2h-1.648v-2.752l-1.392.208v2.544h-1.152v1.2h1.152v4.544c0 1.536.88 2.016 2.224 2.016.496 0 .832-.048 1.072-.096z" fill="#dcddde"/><path d="m392.619 335.192c0-2.512-1.504-3.984-3.552-3.984-2.032 0-3.504 1.472-3.504 3.984s1.472 3.968 3.504 3.968c2.048 0 3.552-1.456 3.552-3.968zm-1.44 0c0 1.6-.704 2.784-2.112 2.784-1.344 0-2.064-1.216-2.064-2.784 0-1.6.688-2.8 2.064-2.8s2.112 1.232 2.112 2.8z" fill="#dcddde"/><path d="m401.056 335.192c0-2.512-1.504-3.984-3.552-3.984-2.032 0-3.504 1.472-3.504 3.984s1.472 3.968 3.504 3.968c2.048 0 3.552-1.456 3.552-3.968zm-1.44 0c0 1.6-.704 2.784-2.112 2.784-1.344 0-2.064-1.216-2.064-2.784 0-1.6.688-2.8 2.064-2.8s2.112 1.232 2.112 2.8z" fill="#dcddde"/><path d="m404.79 327.96h-1.712l.384 7.76.928-.208zm-.064 11.04v-1.904h-1.6v1.904z" fill="#dcddde"/><g mask="url(#h)"><g fill="#f7e5bc"><circle cx="319" cy="267" r="20"/><path d="m342 279.519-2.718 6.269c-.213.495-.522.942-.911 1.315-.388.373-.848.665-1.351.857s-1.04.282-1.578.263-1.068-.145-1.556-.372l-10.158-4.622 5.059-7.976 6.19 3.452.913-2.698c3.194 1.27 4.9 2.381 6.11 3.512z"/><path d="m330.196 276.483c4.087.675 4.464 1.528 5.555 3.671l-4.385-.496z"/></g><path d="m310.952 242.499c-.813.254-1.499.807-1.919 1.547-.42.741-.542 1.613-.342 2.441l4.066 16.605 7.281-1.508-4.9-16.823c-.123-.426-.329-.823-.607-1.168s-.621-.631-1.011-.841c-.39-.211-.818-.342-1.259-.385s-.886.002-1.309.132z" fill="#d6569b"/><path d="m314.999 259.204 2.877-.119-3.055-9.999c-.043-.144-.114-.277-.21-.392s-.215-.209-.349-.276-.28-.106-.43-.114-.299.015-.44.068c-.246.094-.449.275-.57.51-.12.234-.151.504-.084.759z" fill="#e374b0"/><path d="m327.795 242.42c.816.245 1.508.792 1.936 1.529.427.737.558 1.609.366 2.439l-3.889 16.625-7.3-1.409 4.721-16.883c.119-.427.321-.826.596-1.174.275-.347.616-.637 1.004-.851s.815-.349 1.255-.397c.441-.047.887-.006 1.311.121z" fill="#d6569b"/><path d="m325.038 259.164-2.857-.099 2.936-10.039c.042-.143.113-.277.21-.391.096-.114.216-.207.35-.273.135-.065.282-.101.431-.107.15-.005.299.021.437.077.246.09.45.267.575.497.124.23.16.498.1.753z" fill="#e374b0"/><path d="m333.192 283.368-1.191 3.769-.159.476-1.468 4.603h-27.298c-.258-1.012.06-1.211.754-2.341.694-1.131.337-.834.436-3.571.08-1.925.774-3.71 3.254-5.932.754-.655.932-.913 1.706-1.627l.238-.218.119-.119.159-.119 18.648-2.936 3.75 6.249z" fill="#f7e5bc"/><path d="m332.001 287.137c-.119 1.805-.278 3.511-.476 5.079h-20.057c.02-.814.04-1.826.079-3.056-.003-.132.004-.265.02-.396v-1.528c-.139-3.63-1.17-6.11-4.047-6.864.536-.536 1.091-1.071 1.706-1.627l.238-.218.278-.238 18.649-2.936c1.468.535 2.44.912 3.551 2.043.119 1.428.178 2.837.198 4.206.02 1.924-.04 3.769-.139 5.535z" fill="#1f3a70"/><path d="m330.212 267.5-21.645.866c-2.848.114-5.065 2.516-4.951 5.365v.008c.114 2.848 2.516 5.065 5.364 4.951l21.645-.865c2.848-.114 5.065-2.516 4.951-5.365v-.008c-.114-2.849-2.516-5.066-5.364-4.952z" fill="#f06ea8"/><path d="m329.081 257.905-21.03.881c-3.011.126-5.349 2.669-5.223 5.679l.008.181c.126 3.01 2.669 5.348 5.679 5.222l21.031-.881c3.01-.126 5.349-2.669 5.222-5.68l-.007-.18c-.126-3.01-2.669-5.349-5.68-5.222z" fill="#f06ea8"/><path d="m330.553 277.654c2.777-.119 5.059-2.361 5.059-5.138.009-1.01-.28-2.001-.83-2.847-.55-.847-1.338-1.513-2.265-1.915.698-.532 1.257-1.224 1.63-2.019.373-.794.549-1.667.513-2.544v-.178c-.031-.717-.203-1.42-.505-2.071-.303-.65-.731-1.234-1.26-1.719-.529-.484-1.148-.86-1.822-1.105-.675-.245-1.391-.355-2.107-.323l-18.768.794c-1.686 3.234-1.448 6.705-.198 9.205.182.378.285.79.302 1.21s-.052.838-.203 1.23c-1.805 4.801.575 8.273.575 8.273z" fill="#e05fa3"/><path d="m315.398 267.928c.477-.312.504-1.114.06-1.793-.444-.678-1.191-.975-1.668-.663-.476.312-.503 1.114-.059 1.793.444.678 1.19.975 1.667.663z" fill="#1b1926"/><path d="m324.798 266.447c.207-.739-.037-1.452-.543-1.594-.507-.141-1.085.343-1.291 1.082s.037 1.452.544 1.593c.506.142 1.084-.342 1.29-1.081z" fill="#1b1926"/><path d="m317.479 270.314c1.309 2.222 3.234 2.737 4.523-.139.016-.026.023-.056.022-.085 0-.03-.01-.059-.026-.084-.017-.025-.04-.045-.067-.057-.028-.012-.058-.017-.087-.012l-4.226.119c-.029.003-.056.013-.08.029s-.043.038-.057.063c-.013.026-.021.054-.021.083 0 .028.006.057.019.083z" fill="#751b40"/><path d="m320.118 269.996-2.5.06c-.029.003-.056.013-.08.029s-.043.038-.057.063c-.013.026-.021.054-.021.083 0 .028.006.057.019.083 1.131 1.904 2.698 2.559 3.948.892-.31-.521-.765-.942-1.309-1.21z" fill="#9c2455"/></g><path d="m356.726 261.032h2.112v-4.064h.944c2.528 0 4.224-1.2 4.224-3.584 0-2.224-1.52-3.392-4.048-3.392h-3.232zm5.2-7.6c0 1.264-.8 1.824-2.16 1.824h-.928v-3.568h1.008c1.36 0 2.08.592 2.08 1.744z" fill="#bed3ff"/><path d="m368.09 254.472c.928 0 1.408.672 1.536 1.872h-3.088c.144-1.248.784-1.872 1.552-1.872zm3.392 5.776-.224-1.504c-.848.592-1.664.96-2.656.96-1.184 0-2-.656-2.08-2.16h4.96c0-.112.016-.304.016-.464 0-2.192-1.04-3.936-3.36-3.936-2.016 0-3.52 1.52-3.52 4.032 0 2.784 1.616 4.016 3.776 4.016 1.248 0 2.256-.368 3.088-.944z" fill="#bed3ff"/><path d="m378.201 257.064c0 1.696-.752 2.512-1.744 2.512-.656 0-1.024-.112-1.488-.336v-3.312c.512-.656 1.056-1.088 1.744-1.088.864 0 1.488.736 1.488 2.224zm1.936-.112c0-2.592-1.296-3.808-2.912-3.808-1.072 0-1.824.592-2.368 1.216l-.176-1.056h-1.632v10.704l1.92-.288v-2.912c.464.176 1.056.304 1.792.304 1.776 0 3.376-1.28 3.376-4.16z" fill="#bed3ff"/><path d="m386.858 257.064c0 1.696-.752 2.512-1.744 2.512-.656 0-1.024-.112-1.488-.336v-3.312c.512-.656 1.056-1.088 1.744-1.088.864 0 1.488.736 1.488 2.224zm1.936-.112c0-2.592-1.296-3.808-2.912-3.808-1.072 0-1.824.592-2.368 1.216l-.176-1.056h-1.632v10.704l1.92-.288v-2.912c.464.176 1.056.304 1.792.304 1.776 0 3.376-1.28 3.376-4.16z" fill="#bed3ff"/><path d="m393.434 254.472c.928 0 1.408.672 1.536 1.872h-3.088c.144-1.248.784-1.872 1.552-1.872zm3.392 5.776-.224-1.504c-.848.592-1.664.96-2.656.96-1.184 0-2-.656-2.08-2.16h4.96c0-.112.016-.304.016-.464 0-2.192-1.04-3.936-3.36-3.936-2.016 0-3.52 1.52-3.52 4.032 0 2.784 1.616 4.016 3.776 4.016 1.248 0 2.256-.368 3.088-.944z" fill="#bed3ff"/><path d="m407.322 254.576-.168-1.032h-6.312v1.032h2.64v7.248h1.128v-7.248z" fill="#72767d"/><path d="m412.066 258.968c0-1.884-1.128-2.988-2.664-2.988-1.524 0-2.628 1.104-2.628 2.988s1.104 2.976 2.628 2.976c1.536 0 2.664-1.092 2.664-2.976zm-1.08 0c0 1.2-.528 2.088-1.584 2.088-1.008 0-1.548-.912-1.548-2.088 0-1.2.516-2.1 1.548-2.1s1.584.924 1.584 2.1z" fill="#72767d"/><path d="m414.182 259.076c0-1.416.648-2.148 1.548-2.148.612 0 .96.096 1.404.324v2.736c-.456.612-.96 1.008-1.62 1.008-.768 0-1.332-.66-1.332-1.92zm-1.08.048c0 1.92 1.02 2.82 2.256 2.82.84 0 1.428-.432 1.86-.948l.132.828h.852v-8.664l-1.068.168v2.952c-.36-.144-.876-.252-1.44-.252-1.392 0-2.592 1.008-2.592 3.096z" fill="#72767d"/><path d="m423.147 260.252c-.48.492-1.08.804-1.704.804-.54 0-.852-.3-.852-.768 0-.588.444-1.164 2.556-1.368zm1.068 1.572v-4.008c0-1.272-.672-1.836-2.064-1.836-.888 0-1.536.204-2.22.48l.144.924c.624-.276 1.284-.492 1.98-.492.66 0 1.092.252 1.092.972v.24c-2.388.252-3.612.816-3.612 2.244 0 .972.648 1.596 1.68 1.596.936 0 1.56-.42 2.016-.888l.12.768z" fill="#72767d"/><path d="m426.174 264.008c.84 0 1.464-.312 1.932-1.584l2.34-6.324h-1.116l-1.5 4.452-1.536-4.536-1.08.168 2.088 5.664-.144.384c-.228.612-.552.84-1.032.84-.168 0-.384-.036-.564-.084l.156.972c.108.024.228.048.456.048z" fill="#72767d"/><path d="m437.468 260.252c-.48.492-1.08.804-1.704.804-.54 0-.852-.3-.852-.768 0-.588.444-1.164 2.556-1.368zm1.068 1.572v-4.008c0-1.272-.672-1.836-2.064-1.836-.888 0-1.536.204-2.22.48l.144.924c.624-.276 1.284-.492 1.98-.492.66 0 1.092.252 1.092.972v.24c-2.388.252-3.612.816-3.612 2.244 0 .972.648 1.596 1.68 1.596.936 0 1.56-.42 2.016-.888l.12.768z" fill="#72767d"/><path d="m442.94 261.848-.144-.912c-.132.024-.3.036-.492.036-.6 0-.792-.288-.792-.756v-3.216h1.38l-.144-.9h-1.236v-2.064l-1.044.156v1.908h-.864v.9h.864v3.408c0 1.152.66 1.512 1.668 1.512.372 0 .624-.036.804-.072z" fill="#72767d"/><path d="m447.7 261.98c2.64-.564 4.5-2.196 4.5-4.992 0-2.244-1.224-3.432-2.928-3.432-1.608 0-2.784 1.116-2.784 2.688s.948 2.544 2.52 2.544c.768 0 1.44-.24 2.016-.612-.42 1.668-1.812 2.484-3.48 2.844zm1.536-4.14c-1.152 0-1.668-.612-1.668-1.644 0-1.08.672-1.692 1.68-1.692 1.152 0 1.908.996 1.908 2.544v.084c-.564.456-1.188.708-1.92.708z" fill="#72767d"/><path d="m454.821 257.528v-1.428h-1.2v1.428zm0 4.296v-1.428h-1.2v1.428z" fill="#72767d"/><path d="m456.169 261.824h5.292l-.144-.96h-3.696l2.304-2.352c.996-1.02 1.416-1.68 1.416-2.664 0-1.392-.96-2.292-2.532-2.292-1.008 0-1.824.396-2.424.912l.156 1.044c.636-.564 1.368-.96 2.208-.96.948 0 1.476.456 1.476 1.368 0 .66-.324 1.176-1.056 1.944l-3 3.132z" fill="#72767d"/><path d="m462.474 261.824h5.292l-.144-.96h-3.696l2.304-2.352c.996-1.02 1.416-1.68 1.416-2.664 0-1.392-.96-2.292-2.532-2.292-1.008 0-1.824.396-2.424.912l.156 1.044c.636-.564 1.368-.96 2.208-.96.948 0 1.476.456 1.476 1.368 0 .66-.324 1.176-1.056 1.944l-3 3.132z" fill="#72767d"/><path d="m477.785 261.908 1.116-.24-3.192-8.16h-1.128l-3.24 8.316h1.176l.924-2.484h3.372zm-2.664-7.08 1.32 3.516h-2.628z" fill="#72767d"/><path d="m489.274 261.824-.648-8.28h-1.38l-2.58 6.792-2.58-6.792h-1.392l-.66 8.28h1.056l.504-6.684 2.592 6.72h.9l2.592-6.72.516 6.684z" fill="#72767d"/><path d="m361.448 280.872c0-1.456-.848-2-2.736-2.48-1.2-.304-1.584-.592-1.584-1.104 0-.544.448-.88 1.312-.88.8 0 1.648.272 2.32.656l.224-1.344c-.72-.32-1.568-.512-2.512-.512-1.664 0-2.688.896-2.688 2.112 0 1.36.72 1.904 2.512 2.352 1.376.336 1.808.592 1.808 1.296 0 .64-.576 1.008-1.552 1.008-1.04 0-1.968-.384-2.688-.88l-.208 1.344c.656.368 1.776.72 2.784.72 1.968 0 3.008-.896 3.008-2.288z" fill="#dcddde"/><path d="m366.11 276.328c1.104 0 1.648.704 1.824 1.936h-3.68c.224-1.296.976-1.936 1.856-1.936zm3.248 5.808-.208-1.28c-.832.656-1.632 1.088-2.736 1.088-1.328 0-2.16-.832-2.224-2.608h5.184v-.304c0-2.112-1.024-3.824-3.248-3.824-1.92 0-3.36 1.504-3.36 3.952 0 2.8 1.552 4 3.536 4 1.264 0 2.24-.384 3.056-1.024z" fill="#dcddde"/><path d="m377.407 283v-5.552c0-1.376-.768-2.24-2.208-2.24-1.088 0-1.984.608-2.704 1.264l-.176-1.104h-1.136v7.632h1.424v-5.28c.688-.736 1.456-1.232 2.208-1.232.832 0 1.168.528 1.168 1.312v5.2z" fill="#dcddde"/><path d="m380.628 279.336c0-1.888.864-2.864 2.064-2.864.816 0 1.28.128 1.872.432v3.648c-.608.816-1.28 1.344-2.16 1.344-1.024 0-1.776-.88-1.776-2.56zm-1.44.064c0 2.56 1.36 3.76 3.008 3.76 1.12 0 1.904-.576 2.48-1.264l.176 1.104h1.136v-11.552l-1.424.224v3.936c-.48-.192-1.168-.336-1.92-.336-1.856 0-3.456 1.344-3.456 4.128z" fill="#dcddde"/><path d="m397.105 279.032c0 1.888-.88 2.864-2.08 2.864-.816 0-1.28-.128-1.856-.416v-3.664c.608-.816 1.28-1.344 2.144-1.344 1.04 0 1.792.896 1.792 2.56zm1.44-.064c0-2.544-1.36-3.76-3.008-3.76-1.12 0-1.904.592-2.48 1.264l-.176-1.104h-1.136v10.608l1.424-.208v-3.008c.48.192 1.168.336 1.92.336 1.856 0 3.456-1.344 3.456-4.128z" fill="#dcddde"/><path d="m401.89 283v-11.552l-1.424.224v11.328z" fill="#dcddde"/><path d="m407.157 276.328c1.104 0 1.648.704 1.824 1.936h-3.68c.224-1.296.976-1.936 1.856-1.936zm3.248 5.808-.208-1.28c-.832.656-1.632 1.088-2.736 1.088-1.328 0-2.16-.832-2.224-2.608h5.184v-.304c0-2.112-1.024-3.824-3.248-3.824-1.92 0-3.36 1.504-3.36 3.952 0 2.8 1.552 4 3.536 4 1.264 0 2.24-.384 3.056-1.024z" fill="#dcddde"/><path d="m416.581 280.904c-.64.656-1.44 1.072-2.272 1.072-.72 0-1.136-.4-1.136-1.024 0-.784.592-1.552 3.408-1.824zm1.424 2.096v-5.344c0-1.696-.896-2.448-2.752-2.448-1.184 0-2.048.272-2.96.64l.192 1.232c.832-.368 1.712-.656 2.64-.656.88 0 1.456.336 1.456 1.296v.32c-3.184.336-4.816 1.088-4.816 2.992 0 1.296.864 2.128 2.24 2.128 1.248 0 2.08-.56 2.688-1.184l.16 1.024z" fill="#dcddde"/><path d="m425.542 280.872c0-1.456-.848-2-2.736-2.48-1.2-.304-1.584-.592-1.584-1.104 0-.544.448-.88 1.312-.88.8 0 1.648.272 2.32.656l.224-1.344c-.72-.32-1.568-.512-2.512-.512-1.664 0-2.688.896-2.688 2.112 0 1.36.72 1.904 2.512 2.352 1.376.336 1.808.592 1.808 1.296 0 .64-.576 1.008-1.552 1.008-1.04 0-1.968-.384-2.688-.88l-.208 1.344c.656.368 1.776.72 2.784.72 1.968 0 3.008-.896 3.008-2.288z" fill="#dcddde"/><path d="m430.204 276.328c1.104 0 1.648.704 1.824 1.936h-3.68c.224-1.296.976-1.936 1.856-1.936zm3.248 5.808-.208-1.28c-.832.656-1.632 1.088-2.736 1.088-1.328 0-2.16-.832-2.224-2.608h5.184v-.304c0-2.112-1.024-3.824-3.248-3.824-1.92 0-3.36 1.504-3.36 3.952 0 2.8 1.552 4 3.536 4 1.264 0 2.24-.384 3.056-1.024z" fill="#dcddde"/><path d="m364.473 204.376-.288-1.856c-.848.56-1.76.96-2.8.96-1.984 0-3.232-1.472-3.232-3.872 0-2.384 1.2-3.888 3.2-3.888 1.072 0 1.92.432 2.64.976l.304-2c-.816-.512-1.776-.8-3.024-.8-3.216 0-5.28 2.304-5.28 5.728 0 3.44 2.016 5.696 5.216 5.696 1.264 0 2.4-.384 3.264-.944z" fill="#ffa78b"/><path d="m370.316 203c-.528.512-1.152.832-1.808.832-.592 0-.944-.336-.944-.896 0-.736.528-1.392 2.752-1.664zm1.92 2.128v-5.296c0-1.856-.992-2.592-2.992-2.592-1.232 0-2.176.272-3.072.624l.24 1.536c.832-.368 1.68-.624 2.576-.624.848 0 1.328.32 1.328 1.152v.224c-3.12.304-4.656 1.12-4.656 2.992 0 1.344.88 2.144 2.192 2.144 1.152 0 1.952-.512 2.576-1.168l.16 1.008z" fill="#ffa78b"/><path d="m379.291 201.16c0 1.696-.752 2.512-1.744 2.512-.656 0-1.024-.112-1.488-.336v-3.312c.512-.656 1.056-1.088 1.744-1.088.864 0 1.488.736 1.488 2.224zm1.936-.112c0-2.592-1.296-3.808-2.912-3.808-1.072 0-1.824.592-2.368 1.216l-.176-1.056h-1.632v10.704l1.92-.288v-2.912c.464.176 1.056.304 1.792.304 1.776 0 3.376-1.28 3.376-4.16z" fill="#ffa78b"/><path d="m391.707 198.672-.168-1.032h-6.312v1.032h2.64v7.248h1.128v-7.248z" fill="#72767d"/><path d="m396.451 203.064c0-1.884-1.128-2.988-2.664-2.988-1.524 0-2.628 1.104-2.628 2.988s1.104 2.976 2.628 2.976c1.536 0 2.664-1.092 2.664-2.976zm-1.08 0c0 1.2-.528 2.088-1.584 2.088-1.008 0-1.548-.912-1.548-2.088 0-1.2.516-2.1 1.548-2.1s1.584.924 1.584 2.1z" fill="#72767d"/><path d="m398.568 203.172c0-1.416.648-2.148 1.548-2.148.612 0 .96.096 1.404.324v2.736c-.456.612-.96 1.008-1.62 1.008-.768 0-1.332-.66-1.332-1.92zm-1.08.048c0 1.92 1.02 2.82 2.256 2.82.84 0 1.428-.432 1.86-.948l.132.828h.852v-8.664l-1.068.168v2.952c-.36-.144-.876-.252-1.44-.252-1.392 0-2.592 1.008-2.592 3.096z" fill="#72767d"/><path d="m407.533 204.348c-.48.492-1.08.804-1.704.804-.54 0-.852-.3-.852-.768 0-.588.444-1.164 2.556-1.368zm1.068 1.572v-4.008c0-1.272-.672-1.836-2.064-1.836-.888 0-1.536.204-2.22.48l.144.924c.624-.276 1.284-.492 1.98-.492.66 0 1.092.252 1.092.972v.24c-2.388.252-3.612.816-3.612 2.244 0 .972.648 1.596 1.68 1.596.936 0 1.56-.42 2.016-.888l.12.768z" fill="#72767d"/><path d="m410.559 208.104c.84 0 1.464-.312 1.932-1.584l2.34-6.324h-1.116l-1.5 4.452-1.536-4.536-1.08.168 2.088 5.664-.144.384c-.228.612-.552.84-1.032.84-.168 0-.384-.036-.564-.084l.156.972c.108.024.228.048.456.048z" fill="#72767d"/><path d="m421.853 204.348c-.48.492-1.08.804-1.704.804-.54 0-.852-.3-.852-.768 0-.588.444-1.164 2.556-1.368zm1.068 1.572v-4.008c0-1.272-.672-1.836-2.064-1.836-.888 0-1.536.204-2.22.48l.144.924c.624-.276 1.284-.492 1.98-.492.66 0 1.092.252 1.092.972v.24c-2.388.252-3.612.816-3.612 2.244 0 .972.648 1.596 1.68 1.596.936 0 1.56-.42 2.016-.888l.12.768z" fill="#72767d"/><path d="m427.325 205.944-.144-.912c-.132.024-.3.036-.492.036-.6 0-.792-.288-.792-.756v-3.216h1.38l-.144-.9h-1.236v-2.064l-1.044.156v1.908h-.864v.9h.864v3.408c0 1.152.66 1.512 1.668 1.512.372 0 .624-.036.804-.072z" fill="#72767d"/><path d="m432.085 206.076c2.64-.564 4.5-2.196 4.5-4.992 0-2.244-1.224-3.432-2.928-3.432-1.608 0-2.784 1.116-2.784 2.688s.948 2.544 2.52 2.544c.768 0 1.44-.24 2.016-.612-.42 1.668-1.812 2.484-3.48 2.844zm1.536-4.14c-1.152 0-1.668-.612-1.668-1.644 0-1.08.672-1.692 1.68-1.692 1.152 0 1.908.996 1.908 2.544v.084c-.564.456-1.188.708-1.92.708z" fill="#72767d"/><path d="m439.206 201.624v-1.428h-1.2v1.428zm0 4.296v-1.428h-1.2v1.428z" fill="#72767d"/><path d="m443.17 205.92v-8.136h-.936l-1.944.9.12.864 1.692-.636v7.008z" fill="#72767d"/><path d="m445.983 206.076c2.64-.564 4.5-2.196 4.5-4.992 0-2.244-1.224-3.432-2.928-3.432-1.608 0-2.784 1.116-2.784 2.688s.948 2.544 2.52 2.544c.768 0 1.44-.24 2.016-.612-.42 1.668-1.812 2.484-3.48 2.844zm1.536-4.14c-1.152 0-1.668-.612-1.668-1.644 0-1.08.672-1.692 1.68-1.692 1.152 0 1.908.996 1.908 2.544v.084c-.564.456-1.188.708-1.92.708z" fill="#72767d"/><path d="m460.518 206.004 1.116-.24-3.192-8.16h-1.128l-3.24 8.316h1.176l.924-2.484h3.372zm-2.664-7.08 1.32 3.516h-2.628z" fill="#72767d"/><path d="m472.007 205.92-.648-8.28h-1.38l-2.58 6.792-2.58-6.792h-1.392l-.66 8.28h1.056l.504-6.684 2.592 6.72h.9l2.592-6.72.516 6.684z" fill="#72767d"/><path d="m357.928 227v-11.04h-1.504v11.04z" fill="#dcddde"/><path d="m370.219 227v-5.552c0-1.376-.768-2.24-2.208-2.24-1.088 0-1.984.608-2.704 1.264l-.176-1.104h-1.136v7.632h1.424v-5.28c.688-.736 1.456-1.232 2.208-1.232.832 0 1.168.528 1.168 1.312v5.2z" fill="#dcddde"/><path d="m375.344 220.328c1.104 0 1.648.704 1.824 1.936h-3.68c.224-1.296.976-1.936 1.856-1.936zm3.248 5.808-.208-1.28c-.832.656-1.632 1.088-2.736 1.088-1.328 0-2.16-.832-2.224-2.608h5.184v-.304c0-2.112-1.024-3.824-3.248-3.824-1.92 0-3.36 1.504-3.36 3.952 0 2.8 1.552 4 3.536 4 1.264 0 2.24-.384 3.056-1.024z" fill="#dcddde"/><path d="m383.329 220.328c1.104 0 1.648.704 1.824 1.936h-3.68c.224-1.296.976-1.936 1.856-1.936zm3.248 5.808-.208-1.28c-.832.656-1.632 1.088-2.736 1.088-1.328 0-2.16-.832-2.224-2.608h5.184v-.304c0-2.112-1.024-3.824-3.248-3.824-1.92 0-3.36 1.504-3.36 3.952 0 2.8 1.552 4 3.536 4 1.264 0 2.24-.384 3.056-1.024z" fill="#dcddde"/><path d="m389.409 223.336c0-1.888.864-2.864 2.064-2.864.816 0 1.28.128 1.872.432v3.648c-.608.816-1.28 1.344-2.16 1.344-1.024 0-1.776-.88-1.776-2.56zm-1.44.064c0 2.56 1.36 3.76 3.008 3.76 1.12 0 1.904-.576 2.48-1.264l.176 1.104h1.136v-11.552l-1.424.224v3.936c-.48-.192-1.168-.336-1.92-.336-1.856 0-3.456 1.344-3.456 4.128z" fill="#dcddde"/><path d="m404.19 227.032-.192-1.216c-.176.032-.4.048-.656.048-.8 0-1.056-.384-1.056-1.008v-4.288h1.84l-.192-1.2h-1.648v-2.752l-1.392.208v2.544h-1.152v1.2h1.152v4.544c0 1.536.88 2.016 2.224 2.016.496 0 .832-.048 1.072-.096z" fill="#dcddde"/><path d="m412.141 227v-5.552c0-1.376-.768-2.24-2.208-2.24-1.088 0-1.968.608-2.592 1.168v-4.928l-1.424.224v11.328h1.424v-5.28c.688-.736 1.456-1.232 2.208-1.232.832 0 1.168.528 1.168 1.312v5.2z" fill="#dcddde"/><path d="m417.266 220.328c1.104 0 1.648.704 1.824 1.936h-3.68c.224-1.296.976-1.936 1.856-1.936zm3.248 5.808-.208-1.28c-.832.656-1.632 1.088-2.736 1.088-1.328 0-2.16-.832-2.224-2.608h5.184v-.304c0-2.112-1.024-3.824-3.248-3.824-1.92 0-3.36 1.504-3.36 3.952 0 2.8 1.552 4 3.536 4 1.264 0 2.24-.384 3.056-1.024z" fill="#dcddde"/><path d="m433.171 227v-5.552c0-1.376-.704-2.24-2.16-2.24-1.072 0-2 .608-2.688 1.264-.288-.784-.896-1.264-2.016-1.264-1.072 0-1.936.608-2.656 1.264l-.176-1.104h-1.136v7.632h1.424v-5.28c.688-.736 1.408-1.232 2.16-1.232.832 0 1.12.528 1.12 1.312v5.2h1.424v-5.28c.688-.736 1.408-1.232 2.16-1.232.832 0 1.12.528 1.12 1.312v5.2z" fill="#dcddde"/><path d="m442.565 227.032-.192-1.216c-.176.032-.4.048-.656.048-.8 0-1.056-.384-1.056-1.008v-4.288h1.84l-.192-1.2h-1.648v-2.752l-1.392.208v2.544h-1.152v1.2h1.152v4.544c0 1.536.88 2.016 2.224 2.016.496 0 .832-.048 1.072-.096z" fill="#dcddde"/><path d="m450.853 223.192c0-2.512-1.504-3.984-3.552-3.984-2.032 0-3.504 1.472-3.504 3.984s1.472 3.968 3.504 3.968c2.048 0 3.552-1.456 3.552-3.968zm-1.44 0c0 1.6-.704 2.784-2.112 2.784-1.344 0-2.064-1.216-2.064-2.784 0-1.6.688-2.8 2.064-2.8s2.112 1.232 2.112 2.8z" fill="#dcddde"/><path d="m459.291 223.192c0-2.512-1.504-3.984-3.552-3.984-2.032 0-3.504 1.472-3.504 3.984s1.472 3.968 3.504 3.968c2.048 0 3.552-1.456 3.552-3.968zm-1.44 0c0 1.6-.704 2.784-2.112 2.784-1.344 0-2.064-1.216-2.064-2.784 0-1.6.688-2.8 2.064-2.8s2.112 1.232 2.112 2.8z" fill="#dcddde"/><path d="m463.024 215.96h-1.712l.384 7.76.928-.208zm-.064 11.04v-1.904h-1.6v1.904z" fill="#dcddde"/><path d="m365.374 128.408v-5.264h-4.432l.256 1.696h2.24v2.448c-.544.288-1.088.448-1.856.448-2.224 0-3.344-1.568-3.344-3.936 0-2.352 1.088-3.92 3.248-3.92 1.216 0 2.208.448 3.04 1.04l.304-1.968c-.88-.528-1.952-.88-3.36-.88-3.36 0-5.392 2.32-5.392 5.744 0 3.408 1.92 5.712 5.424 5.712 1.472 0 2.832-.448 3.872-1.12z" fill="#fdd171"/><path d="m372.005 123.336-.304-1.904c-1.2.064-1.968.816-2.48 1.712l-.24-1.552h-1.632v7.728h1.92v-4.432c.56-.832 1.536-1.472 2.736-1.552z" fill="#fdd171"/><path d="m377.167 127.192c-.528.512-1.152.832-1.808.832-.592 0-.944-.336-.944-.896 0-.736.528-1.392 2.752-1.664zm1.92 2.128v-5.296c0-1.856-.992-2.592-2.992-2.592-1.232 0-2.176.272-3.072.624l.24 1.536c.832-.368 1.68-.624 2.576-.624.848 0 1.328.32 1.328 1.152v.224c-3.12.304-4.656 1.12-4.656 2.992 0 1.344.88 2.144 2.192 2.144 1.152 0 1.952-.512 2.576-1.168l.16 1.008z" fill="#fdd171"/><path d="m385.182 124.104c0 .848-.512 1.472-1.36 1.472-.832 0-1.344-.608-1.344-1.408 0-.848.496-1.504 1.344-1.504.816 0 1.36.624 1.36 1.44zm2.736 5.536c0-1.184-.992-1.68-2.576-1.904l-.992-.096c-1.2-.176-1.44-.24-1.44-.496 0-.128.128-.272.32-.416.192.032.4.048.624.048 1.664 0 3.088-.992 3.088-2.656 0-.352-.064-.704-.208-1.008l1.408-.096-.256-1.536-1.888.672c-.56-.464-1.296-.72-2.192-.72-1.728 0-3.104 1.04-3.104 2.736 0 1.024.544 1.824 1.456 2.256-.64.384-.976.8-.976 1.232 0 .304.144.592.448.832-.96.544-1.456 1.104-1.456 1.824 0 1.28 1.584 1.92 3.68 1.92 2.24 0 4.064-.928 4.064-2.592zm-3.936 1.456c-1.456 0-2.144-.416-2.144-.992 0-.4.256-.768.816-1.168.384.08.624.128 1.152.192l1.04.128c.96.144 1.296.384 1.296.8 0 .576-.784 1.04-2.16 1.04z" fill="#fdd171"/><path d="m393.479 124.104c0 .848-.512 1.472-1.36 1.472-.832 0-1.344-.608-1.344-1.408 0-.848.496-1.504 1.344-1.504.816 0 1.36.624 1.36 1.44zm2.736 5.536c0-1.184-.992-1.68-2.576-1.904l-.992-.096c-1.2-.176-1.44-.24-1.44-.496 0-.128.128-.272.32-.416.192.032.4.048.624.048 1.664 0 3.088-.992 3.088-2.656 0-.352-.064-.704-.208-1.008l1.408-.096-.256-1.536-1.888.672c-.56-.464-1.296-.72-2.192-.72-1.728 0-3.104 1.04-3.104 2.736 0 1.024.544 1.824 1.456 2.256-.64.384-.976.8-.976 1.232 0 .304.144.592.448.832-.96.544-1.456 1.104-1.456 1.824 0 1.28 1.584 1.92 3.68 1.92 2.24 0 4.064-.928 4.064-2.592zm-3.936 1.456c-1.456 0-2.144-.416-2.144-.992 0-.4.256-.768.816-1.168.384.08.624.128 1.152.192l1.04.128c.96.144 1.296.384 1.296.8 0 .576-.784 1.04-2.16 1.04z" fill="#fdd171"/><path d="m399.584 129.32v-11.552l-1.92.304v11.248z" fill="#fdd171"/><path d="m404.687 122.76c.928 0 1.408.672 1.536 1.872h-3.088c.144-1.248.784-1.872 1.552-1.872zm3.392 5.776-.224-1.504c-.848.592-1.664.96-2.656.96-1.184 0-2-.656-2.08-2.16h4.96c0-.112.016-.304.016-.464 0-2.192-1.04-3.936-3.36-3.936-2.016 0-3.52 1.52-3.52 4.032 0 2.784 1.616 4.016 3.776 4.016 1.248 0 2.256-.368 3.088-.944z" fill="#fdd171"/><path d="m418.575 122.8-.168-1.032h-6.312v1.032h2.64v7.248h1.128v-7.248z" fill="#72767d"/><path d="m423.319 127.192c0-1.884-1.128-2.988-2.664-2.988-1.524 0-2.628 1.104-2.628 2.988s1.104 2.976 2.628 2.976c1.536 0 2.664-1.092 2.664-2.976zm-1.08 0c0 1.2-.528 2.088-1.584 2.088-1.008 0-1.548-.912-1.548-2.088 0-1.2.516-2.1 1.548-2.1s1.584.924 1.584 2.1z" fill="#72767d"/><path d="m425.436 127.3c0-1.416.648-2.148 1.548-2.148.612 0 .96.096 1.404.324v2.736c-.456.612-.96 1.008-1.62 1.008-.768 0-1.332-.66-1.332-1.92zm-1.08.048c0 1.92 1.02 2.82 2.256 2.82.84 0 1.428-.432 1.86-.948l.132.828h.852v-8.664l-1.068.168v2.952c-.36-.144-.876-.252-1.44-.252-1.392 0-2.592 1.008-2.592 3.096z" fill="#72767d"/><path d="m434.401 128.476c-.48.492-1.08.804-1.704.804-.54 0-.852-.3-.852-.768 0-.588.444-1.164 2.556-1.368zm1.068 1.572v-4.008c0-1.272-.672-1.836-2.064-1.836-.888 0-1.536.204-2.22.48l.144.924c.624-.276 1.284-.492 1.98-.492.66 0 1.092.252 1.092.972v.24c-2.388.252-3.612.816-3.612 2.244 0 .972.648 1.596 1.68 1.596.936 0 1.56-.42 2.016-.888l.12.768z" fill="#72767d"/><path d="m437.427 132.232c.84 0 1.464-.312 1.932-1.584l2.34-6.324h-1.116l-1.5 4.452-1.536-4.536-1.08.168 2.088 5.664-.144.384c-.228.612-.552.84-1.032.84-.168 0-.384-.036-.564-.084l.156.972c.108.024.228.048.456.048z" fill="#72767d"/><path d="m448.721 128.476c-.48.492-1.08.804-1.704.804-.54 0-.852-.3-.852-.768 0-.588.444-1.164 2.556-1.368zm1.068 1.572v-4.008c0-1.272-.672-1.836-2.064-1.836-.888 0-1.536.204-2.22.48l.144.924c.624-.276 1.284-.492 1.98-.492.66 0 1.092.252 1.092.972v.24c-2.388.252-3.612.816-3.612 2.244 0 .972.648 1.596 1.68 1.596.936 0 1.56-.42 2.016-.888l.12.768z" fill="#72767d"/><path d="m454.193 130.072-.144-.912c-.132.024-.3.036-.492.036-.6 0-.792-.288-.792-.756v-3.216h1.38l-.144-.9h-1.236v-2.064l-1.044.156v1.908h-.864v.9h.864v3.408c0 1.152.66 1.512 1.668 1.512.372 0 .624-.036.804-.072z" fill="#72767d"/><path d="m458.953 130.204c2.64-.564 4.5-2.196 4.5-4.992 0-2.244-1.224-3.432-2.928-3.432-1.608 0-2.784 1.116-2.784 2.688s.948 2.544 2.52 2.544c.768 0 1.44-.24 2.016-.612-.42 1.668-1.812 2.484-3.48 2.844zm1.536-4.14c-1.152 0-1.668-.612-1.668-1.644 0-1.08.672-1.692 1.68-1.692 1.152 0 1.908.996 1.908 2.544v.084c-.564.456-1.188.708-1.92.708z" fill="#72767d"/><path d="m466.074 125.752v-1.428h-1.2v1.428zm0 4.296v-1.428h-1.2v1.428z" fill="#72767d"/><path d="m470.038 130.048v-8.136h-.936l-1.944.9.12.864 1.692-.636v7.008z" fill="#72767d"/><path d="m474.579 130.204c1.776 0 2.88-1.02 2.88-2.196 0-1.152-.612-1.752-1.668-2.232.78-.444 1.38-1.068 1.38-1.944 0-1.188-.936-2.052-2.544-2.052-1.524 0-2.592.852-2.592 2.052 0 .876.396 1.476 1.344 1.956-.984.516-1.656 1.248-1.656 2.184 0 1.212.996 2.232 2.856 2.232zm-1.5-6.384c0-.648.576-1.164 1.524-1.164s1.524.516 1.524 1.212c0 .612-.516 1.164-1.26 1.536-1.308-.504-1.788-.864-1.788-1.584zm1.524 5.496c-1.068 0-1.824-.588-1.824-1.392 0-.732.636-1.356 1.56-1.74 1.548.564 2.064.936 2.064 1.788 0 .744-.72 1.344-1.8 1.344z" fill="#72767d"/><path d="m487.432 130.132 1.116-.24-3.192-8.16h-1.128l-3.24 8.316h1.176l.924-2.484h3.372zm-2.664-7.08 1.32 3.516h-2.628z" fill="#72767d"/><path d="m498.922 130.048-.648-8.28h-1.38l-2.58 6.792-2.58-6.792h-1.392l-.66 8.28h1.056l.504-6.684 2.592 6.72h.9l2.592-6.72.516 6.684z" fill="#72767d"/><g fill="#dcddde"><path d="m370.712 139.96h-1.568l-2.416 8.672-2.816-8.672h-1.504l-2.816 8.672-2.464-8.784-1.504.32 3.264 10.88h1.248l2.992-8.992 2.992 8.992h1.264z"/><path d="m378.61 151v-5.552c0-1.376-.768-2.24-2.208-2.24-1.088 0-1.968.608-2.592 1.168v-4.928l-1.424.224v11.328h1.424v-5.28c.688-.736 1.456-1.232 2.208-1.232.832 0 1.168.528 1.168 1.312v5.2z"/><path d="m387.447 147.192c0-2.512-1.504-3.984-3.552-3.984-2.032 0-3.504 1.472-3.504 3.984s1.472 3.968 3.504 3.968c2.048 0 3.552-1.456 3.552-3.968zm-1.44 0c0 1.6-.704 2.784-2.112 2.784-1.344 0-2.064-1.216-2.064-2.784 0-1.6.688-2.8 2.064-2.8s2.112 1.232 2.112 2.8z"/><path d="m390.928 139.96h-1.648l-.464 3.536.8.192z"/><path d="m397.573 148.872c0-1.456-.848-2-2.736-2.48-1.2-.304-1.584-.592-1.584-1.104 0-.544.448-.88 1.312-.88.8 0 1.648.272 2.32.656l.224-1.344c-.72-.32-1.568-.512-2.512-.512-1.664 0-2.688.896-2.688 2.112 0 1.36.72 1.904 2.512 2.352 1.376.336 1.808.592 1.808 1.296 0 .64-.576 1.008-1.552 1.008-1.04 0-1.968-.384-2.688-.88l-.208 1.344c.656.368 1.776.72 2.784.72 1.968 0 3.008-.896 3.008-2.288z"/><path d="m407.015 145.848c0 .912-.608 1.632-1.584 1.632-.944 0-1.552-.688-1.552-1.568 0-.928.592-1.664 1.552-1.664.944 0 1.584.688 1.584 1.6zm2.272 5.712c0-1.184-1.008-1.696-2.624-1.984l-.544-.096c-1.344-.24-1.616-.304-1.616-.576 0-.144.16-.32.384-.464.192.032.384.048.576.048 1.552 0 2.928-.992 2.928-2.624 0-.432-.096-.832-.304-1.184l1.456-.144-.208-1.28-1.936.592c-.528-.416-1.2-.64-1.968-.64-1.552 0-2.928 1.008-2.928 2.656 0 1.04.576 1.84 1.424 2.272-.512.304-.8.672-.8 1.04 0 .288.144.56.48.8-1.072.576-1.616 1.184-1.616 1.968 0 1.344 1.584 1.968 3.568 1.968s3.728-.752 3.728-2.352zm-3.664 1.328c-1.488 0-2.272-.448-2.272-1.056 0-.528.4-.976 1.296-1.424.304.064.528.112.944.192l.912.16c1.088.192 1.44.512 1.44.976 0 .64-.832 1.152-2.32 1.152z"/><path d="m417.4 147.192c0-2.512-1.504-3.984-3.552-3.984-2.032 0-3.504 1.472-3.504 3.984s1.472 3.968 3.504 3.968c2.048 0 3.552-1.456 3.552-3.968zm-1.44 0c0 1.6-.704 2.784-2.112 2.784-1.344 0-2.064-1.216-2.064-2.784 0-1.6.688-2.8 2.064-2.8s2.112 1.232 2.112 2.8z"/><path d="m422.878 151.032-.192-1.216c-.176.032-.4.048-.656.048-.8 0-1.056-.384-1.056-1.008v-4.288h1.84l-.192-1.2h-1.648v-2.752l-1.392.208v2.544h-1.152v1.2h1.152v4.544c0 1.536.88 2.016 2.224 2.016.496 0 .832-.048 1.072-.096z"/><path d="m434.344 151v-5.552c0-1.376-.768-2.24-2.208-2.24-1.088 0-1.984.608-2.704 1.264l-.176-1.104h-1.136v7.632h1.424v-5.28c.688-.736 1.456-1.232 2.208-1.232.832 0 1.168.528 1.168 1.312v5.2z"/><path d="m443.181 147.192c0-2.512-1.504-3.984-3.552-3.984-2.032 0-3.504 1.472-3.504 3.984s1.472 3.968 3.504 3.968c2.048 0 3.552-1.456 3.552-3.968zm-1.44 0c0 1.6-.704 2.784-2.112 2.784-1.344 0-2.064-1.216-2.064-2.784 0-1.6.688-2.8 2.064-2.8s2.112 1.232 2.112 2.8z"/><path d="m448.659 151.032-.192-1.216c-.176.032-.4.048-.656.048-.8 0-1.056-.384-1.056-1.008v-4.288h1.84l-.192-1.2h-1.648v-2.752l-1.392.208v2.544h-1.152v1.2h1.152v4.544c0 1.536.88 2.016 2.224 2.016.496 0 .832-.048 1.072-.096z"/><path d="m453.235 144.328c1.104 0 1.648.704 1.824 1.936h-3.68c.224-1.296.976-1.936 1.856-1.936zm3.248 5.808-.208-1.28c-.832.656-1.632 1.088-2.736 1.088-1.328 0-2.16-.832-2.224-2.608h5.184v-.304c0-2.112-1.024-3.824-3.248-3.824-1.92 0-3.36 1.504-3.36 3.952 0 2.8 1.552 4 3.536 4 1.264 0 2.24-.384 3.056-1.024z"/><path d="m463.635 148.872c0-1.456-.848-2-2.736-2.48-1.2-.304-1.584-.592-1.584-1.104 0-.544.448-.88 1.312-.88.8 0 1.648.272 2.32.656l.224-1.344c-.72-.32-1.568-.512-2.512-.512-1.664 0-2.688.896-2.688 2.112 0 1.36.72 1.904 2.512 2.352 1.376.336 1.808.592 1.808 1.296 0 .64-.576 1.008-1.552 1.008-1.04 0-1.968-.384-2.688-.88l-.208 1.344c.656.368 1.776.72 2.784.72 1.968 0 3.008-.896 3.008-2.288z"/><path d="m472.517 140.872-.208-1.296c-.192-.016-.384-.032-.608-.032-1.36 0-2.368.576-2.368 2.096v1.728h-1.152v1.2h1.152v6.432h1.392v-6.432h1.712l-.176-1.2h-1.536v-1.584c0-.704.4-.976 1.056-.976.288 0 .576.032.736.064z"/><path d="m478.142 144.568-.224-1.36c-1.248.064-2.128.848-2.672 1.712l-.24-1.552h-1.136v7.632h1.424v-4.512c.512-1.008 1.584-1.856 2.848-1.92z"/><path d="m485.947 147.192c0-2.512-1.504-3.984-3.552-3.984-2.032 0-3.504 1.472-3.504 3.984s1.472 3.968 3.504 3.968c2.048 0 3.552-1.456 3.552-3.968zm-1.44 0c0 1.6-.704 2.784-2.112 2.784-1.344 0-2.064-1.216-2.064-2.784 0-1.6.688-2.8 2.064-2.8s2.112 1.232 2.112 2.8z"/><path d="m498.593 151v-5.552c0-1.376-.704-2.24-2.16-2.24-1.072 0-2 .608-2.688 1.264-.288-.784-.896-1.264-2.016-1.264-1.072 0-1.936.608-2.656 1.264l-.176-1.104h-1.136v7.632h1.424v-5.28c.688-.736 1.408-1.232 2.16-1.232.832 0 1.12.528 1.12 1.312v5.2h1.424v-5.28c.688-.736 1.408-1.232 2.16-1.232.832 0 1.12.528 1.12 1.312v5.2z"/><path d="m362.344 171v-5.552c0-1.376-.768-2.24-2.208-2.24-1.088 0-1.968.608-2.592 1.168v-4.928l-1.424.224v11.328h1.424v-5.28c.688-.736 1.456-1.232 2.208-1.232.832 0 1.168.528 1.168 1.312v5.2z"/><path d="m366.285 160.936c0-.496-.4-.912-.896-.912s-.912.416-.912.912.416.896.912.896.896-.4.896-.896zm-.192 10.064v-7.632h-1.424v7.632z"/><path d="m373.776 168.872c0-1.456-.848-2-2.736-2.48-1.2-.304-1.584-.592-1.584-1.104 0-.544.448-.88 1.312-.88.8 0 1.648.272 2.32.656l.224-1.344c-.72-.32-1.568-.512-2.512-.512-1.664 0-2.688.896-2.688 2.112 0 1.36.72 1.904 2.512 2.352 1.376.336 1.808.592 1.808 1.296 0 .64-.576 1.008-1.552 1.008-1.04 0-1.968-.384-2.688-.88l-.208 1.344c.656.368 1.776.72 2.784.72 1.968 0 3.008-.896 3.008-2.288z"/><path d="m379.19 171.032-.192-1.216c-.176.032-.4.048-.656.048-.8 0-1.056-.384-1.056-1.008v-4.288h1.84l-.192-1.2h-1.648v-2.752l-1.392.208v2.544h-1.152v1.2h1.152v4.544c0 1.536.88 2.016 2.224 2.016.496 0 .832-.048 1.072-.096z"/><path d="m387.478 167.192c0-2.512-1.504-3.984-3.552-3.984-2.032 0-3.504 1.472-3.504 3.984s1.472 3.968 3.504 3.968c2.048 0 3.552-1.456 3.552-3.968zm-1.44 0c0 1.6-.704 2.784-2.112 2.784-1.344 0-2.064-1.216-2.064-2.784 0-1.6.688-2.8 2.064-2.8s2.112 1.232 2.112 2.8z"/><path d="m393.564 164.568-.224-1.36c-1.248.064-2.128.848-2.672 1.712l-.24-1.552h-1.136v7.632h1.424v-4.512c.512-1.008 1.584-1.856 2.848-1.92z"/><path d="m395.57 173.912c1.12 0 1.952-.416 2.576-2.112l3.12-8.432h-1.488l-2 5.936-2.048-6.048-1.44.224 2.784 7.552-.192.512c-.304.816-.736 1.12-1.376 1.12-.224 0-.512-.048-.752-.112l.208 1.296c.144.032.304.064.608.064z"/><path d="m409.94 171.032-.192-1.216c-.176.032-.4.048-.656.048-.8 0-1.056-.384-1.056-1.008v-4.288h1.84l-.192-1.2h-1.648v-2.752l-1.392.208v2.544h-1.152v1.2h1.152v4.544c0 1.536.88 2.016 2.224 2.016.496 0 .832-.048 1.072-.096z"/><path d="m418.228 167.192c0-2.512-1.504-3.984-3.552-3.984-2.032 0-3.504 1.472-3.504 3.984s1.472 3.968 3.504 3.968c2.048 0 3.552-1.456 3.552-3.968zm-1.44 0c0 1.6-.704 2.784-2.112 2.784-1.344 0-2.064-1.216-2.064-2.784 0-1.6.688-2.8 2.064-2.8s2.112 1.232 2.112 2.8z"/><path d="m421.05 167.336c0-1.888.864-2.864 2.064-2.864.816 0 1.28.128 1.872.432v3.648c-.608.816-1.28 1.344-2.16 1.344-1.024 0-1.776-.88-1.776-2.56zm-1.44.064c0 2.56 1.36 3.76 3.008 3.76 1.12 0 1.904-.576 2.48-1.264l.176 1.104h1.136v-11.552l-1.424.224v3.936c-.48-.192-1.168-.336-1.92-.336-1.856 0-3.456 1.344-3.456 4.128z"/><path d="m433.003 168.904c-.64.656-1.44 1.072-2.272 1.072-.72 0-1.136-.4-1.136-1.024 0-.784.592-1.552 3.408-1.824zm1.424 2.096v-5.344c0-1.696-.896-2.448-2.752-2.448-1.184 0-2.048.272-2.96.64l.192 1.232c.832-.368 1.712-.656 2.64-.656.88 0 1.456.336 1.456 1.296v.32c-3.184.336-4.816 1.088-4.816 2.992 0 1.296.864 2.128 2.24 2.128 1.248 0 2.08-.56 2.688-1.184l.16 1.024z"/><path d="m437.039 173.912c1.12 0 1.952-.416 2.576-2.112l3.12-8.432h-1.488l-2 5.936-2.048-6.048-1.44.224 2.784 7.552-.192.512c-.304.816-.736 1.12-1.376 1.12-.224 0-.512-.048-.752-.112l.208 1.296c.144.032.304.064.608.064z"/><path d="m446.108 167.72.928-.208.144-1.584c1.904-.864 3.056-1.616 3.056-3.344 0-1.744-1.328-2.832-3.28-2.832-1.312 0-2.448.464-3.424 1.184l.208 1.472c.896-.736 1.888-1.296 3.136-1.296 1.072 0 1.856.56 1.856 1.536 0 1.024-.672 1.536-2.176 2.16l-.656.272zm-.336 3.28h1.6v-1.904h-1.6z"/></g><rect fill="#292841" height="48" rx="8" width="191" x="32" y="106"/><path clip-rule="evenodd" d="m50.7682 141.5c-.3111 0-.5466-.281-.4923-.587l.7241-4.08h-4.0716c-.3106 0-.546-.28-.4925-.586l.2334-1.333c.0418-.239.2496-.414.4925-.414h4.2465l1.2367-7h-4.0716c-.3106 0-.546-.28-.4925-.586l.2334-1.334c.0418-.239.2496-.413.4925-.413h4.2465l.7551-4.254c.0424-.239.2499-.413.4923-.413h1.3177c.3111 0 .5467.281.4923.587l-.724 4.08h7l.7551-4.254c.0423-.239.2498-.413.4923-.413h1.3177c.3111 0 .5466.281.4923.587l-.7241 4.08h4.0716c.3106 0 .546.28.4925.586l-.2333 1.333c-.0419.239-.2497.414-.4926.414h-4.2465l-1.2367 7h4.0716c.3106 0 .546.28.4925.586l-.2333 1.334c-.0419.239-.2497.413-.4926.413h-4.2465l-.7551 4.254c-.0424.239-.2499.413-.4923.413h-1.3177c-.3111 0-.5467-.281-.4923-.587l.724-4.08h-7l-.7551 4.254c-.0423.239-.2498.413-.4923.413zm4.2106-14-1.2366 7h7l1.2366-7z" fill="#b9bbbe" fill-rule="evenodd"/><path d="m87.218 132.876c0-2.002-1.078-2.75-3.828-3.454-1.584-.418-1.98-.748-1.98-1.32s.484-.968 1.474-.968c1.056 0 2.31.374 3.366.968l.352-2.2c-1.056-.462-2.332-.748-3.718-.748-2.464 0-3.916 1.298-3.916 3.146 0 1.936 1.078 2.684 3.652 3.344 1.694.418 2.156.726 2.156 1.474 0 .704-.616 1.122-1.76 1.122-1.32 0-2.728-.506-3.872-1.254l-.352 2.2c1.012.55 2.596 1.034 4.136 1.034 2.794 0 4.29-1.254 4.29-3.344z" fill="#fff"/><path d="m94.9878 136-.33-2.222c-.242.066-.528.088-.836.088-1.012 0-1.386-.462-1.386-1.32v-5.016h2.486l-.33-2.156h-2.156v-3.762l-2.618.396v3.366h-1.496v2.156h1.496v5.456c0 2.42 1.408 3.19 3.498 3.19.77 0 1.254-.088 1.672-.176z" fill="#fff"/><path d="m96.9152 125.374v7.634c0 2.002 1.034 3.212 3.036 3.212 1.4078 0 2.5518-.77 3.5418-1.716l.242 1.496h2.244v-10.626h-2.64v7.172c-.77.792-1.606 1.32-2.42 1.32-.9678 0-1.3638-.616-1.3638-1.54v-6.952z" fill="#fff"/><path d="m110.802 130.83c0-2.332.99-3.454 2.376-3.454.902 0 1.408.154 2.068.462v4.554c-.704.902-1.452 1.474-2.42 1.474-1.166 0-2.024-.968-2.024-3.036zm-2.662.154c0 3.586 1.782 5.236 4.004 5.236 1.474 0 2.508-.792 3.256-1.694l.22 1.474h2.266v-15.884l-2.64.418v5.126c-.638-.22-1.452-.396-2.464-.396-2.464 0-4.642 1.76-4.642 5.72z" fill="#fff"/><path d="m121.693 140.004c1.914 0 3.146-.77 4.048-3.322l4.07-11.308h-2.662l-2.376 7.48-2.42-7.634-2.75.352 3.85 10.406-.088.308c-.352 1.144-1.056 1.54-1.936 1.54-.462 0-.836-.066-1.166-.154l.352 2.222c.242.066.506.11 1.078.11z" fill="#fff"/><path d="m136.639 130.94v-2.552h-5.72v2.552z" fill="#fff"/><path d="m144.768 128.828c0 1.166-.704 2.024-1.87 2.024-1.144 0-1.848-.836-1.848-1.936 0-1.166.682-2.068 1.848-2.068 1.122 0 1.87.858 1.87 1.98zm3.762 7.612c0-1.628-1.364-2.31-3.542-2.618l-1.364-.132c-1.65-.242-1.98-.33-1.98-.682 0-.176.176-.374.44-.572.264.044.55.066.858.066 2.288 0 4.246-1.364 4.246-3.652 0-.484-.088-.968-.286-1.386l1.936-.132-.352-2.112-2.596.924c-.77-.638-1.782-.99-3.014-.99-2.376 0-4.268 1.43-4.268 3.762 0 1.408.748 2.508 2.002 3.102-.88.528-1.342 1.1-1.342 1.694 0 .418.198.814.616 1.144-1.32.748-2.002 1.518-2.002 2.508 0 1.76 2.178 2.64 5.06 2.64 3.08 0 5.588-1.276 5.588-3.564zm-5.412 2.002c-2.002 0-2.948-.572-2.948-1.364 0-.55.352-1.056 1.122-1.606.528.11.858.176 1.584.264l1.43.176c1.32.198 1.782.528 1.782 1.1 0 .792-1.078 1.43-2.97 1.43z" fill="#fff"/><path d="m156.814 127.772-.418-2.618c-1.65.088-2.706 1.122-3.41 2.354l-.33-2.134h-2.244v10.626h2.64v-6.094c.77-1.144 2.112-2.024 3.762-2.134z" fill="#fff"/><path d="m167.671 130.676c0-3.454-2.112-5.522-5.016-5.522-2.882 0-4.994 2.09-4.994 5.544s2.09 5.522 4.972 5.522c2.904 0 5.038-2.09 5.038-5.544zm-2.574.022c0 1.98-.836 3.366-2.464 3.366-1.54 0-2.398-1.43-2.398-3.388s.836-3.366 2.398-3.366c1.584 0 2.464 1.43 2.464 3.388z" fill="#fff"/><path d="m169.769 125.374v7.634c0 2.002 1.034 3.212 3.036 3.212 1.408 0 2.552-.77 3.542-1.716l.242 1.496h2.244v-10.626h-2.64v7.172c-.77.792-1.606 1.32-2.42 1.32-.968 0-1.364-.616-1.364-1.54v-6.952z" fill="#fff"/><path d="m188.606 130.544c0 2.332-1.034 3.454-2.398 3.454-.902 0-1.408-.154-2.046-.462v-4.554c.704-.902 1.452-1.496 2.398-1.496 1.188 0 2.046 1.012 2.046 3.058zm2.662-.154c0-3.564-1.782-5.236-4.004-5.236-1.474 0-2.508.814-3.256 1.672l-.242-1.452h-2.244v14.718l2.64-.396v-4.004c.638.242 1.452.418 2.464.418 2.442 0 4.642-1.76 4.642-5.72z" fill="#fff"/><rect fill="#292841" height="40" rx="8" width="178" x="64" y="58"/><path clip-rule="evenodd" d="m77.8866 87c-.3111 0-.5467-.2811-.4923-.5874l.6057-3.4126h-3.4049c-.3106 0-.5461-.2802-.4925-.5862l.175-1c.0419-.2392.2496-.4138.4925-.4138h3.5799l1.06-6h-3.4049c-.3106 0-.5461-.2802-.4925-.5862l.175-1c.0419-.2392.2496-.4138.4925-.4138h3.5799l.6368-3.5874c.0423-.2387.2498-.4126.4923-.4126h.9843c.3111 0 .5467.2811.4923.5874l-.6057 3.4126h6l.6368-3.5874c.0423-.2387.2498-.4126.4923-.4126h.9843c.3111 0 .5467.2811.4923.5874l-.6057 3.4126h3.4049c.3106 0 .5461.2802.4925.5862l-.175 1c-.0418.2392-.2496.4138-.4925.4138h-3.5799l-1.06 6h3.4049c.3106 0 .5461.2802.4925.5862l-.175 1c-.0418.2392-.2496.4138-.4925.4138h-3.5799l-.6368 3.5874c-.0423.2387-.2498.4126-.4923.4126h-.9843c-.3111 0-.5467-.2811-.4923-.5874l.6057-3.4126h-6l-.6368 3.5874c-.0423.2387-.2498.4126-.4923.4126zm3.5238-12-1.06 6h6l1.06-6z" fill="#b9bbbe" fill-rule="evenodd"/><path d="m114.1 79.04c0 2.36-1.1 3.58-2.6 3.58-1.02 0-1.6-.16-2.32-.52v-4.58c.76-1.02 1.6-1.68 2.68-1.68 1.3 0 2.24 1.12 2.24 3.2zm1.8-.08c0-3.18-1.7-4.7-3.76-4.7-1.4 0-2.38.74-3.1 1.58l-.22-1.38h-1.42v13.26l1.78-.26v-3.76c.6.24 1.46.42 2.4.42 2.32 0 4.32-1.68 4.32-5.16z" fill="#b9bbbe"/><path d="m121.802 75.66c1.38 0 2.06.88 2.28 2.42h-4.6c.28-1.62 1.22-2.42 2.32-2.42zm4.06 7.26-.26-1.6c-1.04.82-2.04 1.36-3.42 1.36-1.66 0-2.7-1.04-2.78-3.26h6.48v-.38c0-2.64-1.28-4.78-4.06-4.78-2.4 0-4.2 1.88-4.2 4.94 0 3.5 1.94 5 4.42 5 1.58 0 2.8-.48 3.82-1.28z" fill="#b9bbbe"/><path d="m132.722 84.04-.24-1.52c-.22.04-.5.06-.82.06-1 0-1.32-.48-1.32-1.26v-5.36h2.3l-.24-1.5h-2.06v-3.44l-1.74.26v3.18h-1.44v1.5h1.44v5.68c0 1.92 1.1 2.52 2.78 2.52.62 0 1.04-.06 1.34-.12z" fill="#b9bbbe"/><path d="m139.129 79.18v-1.74h-4.92v1.74z" fill="#b9bbbe"/><path d="m148.299 79.04c0 2.36-1.1 3.58-2.6 3.58-1.02 0-1.6-.16-2.32-.52v-4.58c.76-1.02 1.6-1.68 2.68-1.68 1.3 0 2.24 1.12 2.24 3.2zm1.8-.08c0-3.18-1.7-4.7-3.76-4.7-1.4 0-2.38.74-3.1 1.58l-.22-1.38h-1.42v13.26l1.78-.26v-3.76c.6.24 1.46.42 2.4.42 2.32 0 4.32-1.68 4.32-5.16z" fill="#b9bbbe"/><path d="m160.141 84v-6.94c0-1.72-.96-2.8-2.76-2.8-1.36 0-2.46.76-3.24 1.46v-6.16l-1.78.28v14.16h1.78v-6.6c.86-.92 1.82-1.54 2.76-1.54 1.04 0 1.46.66 1.46 1.64v6.5z" fill="#b9bbbe"/><path d="m171.188 79.24c0-3.14-1.88-4.98-4.44-4.98-2.54 0-4.38 1.84-4.38 4.98s1.84 4.96 4.38 4.96c2.56 0 4.44-1.82 4.44-4.96zm-1.8 0c0 2-.88 3.48-2.64 3.48-1.68 0-2.58-1.52-2.58-3.48 0-2 .86-3.5 2.58-3.5s2.64 1.54 2.64 3.5z" fill="#b9bbbe"/><path d="m178.035 84.04-.24-1.52c-.22.04-.5.06-.82.06-1 0-1.32-.48-1.32-1.26v-5.36h2.3l-.24-1.5h-2.06v-3.44l-1.74.26v3.18h-1.44v1.5h1.44v5.68c0 1.92 1.1 2.52 2.78 2.52.62 0 1.04-.06 1.34-.12z" fill="#b9bbbe"/><path d="m188.395 79.24c0-3.14-1.88-4.98-4.44-4.98-2.54 0-4.38 1.84-4.38 4.98s1.84 4.96 4.38 4.96c2.56 0 4.44-1.82 4.44-4.96zm-1.8 0c0 2-.88 3.48-2.64 3.48-1.68 0-2.58-1.52-2.58-3.48 0-2 .86-3.5 2.58-3.5s2.64 1.54 2.64 3.5z" fill="#b9bbbe"/><path d="m197.322 81.34c0-1.82-1.06-2.5-3.42-3.1-1.5-.38-1.98-.74-1.98-1.38 0-.68.56-1.1 1.64-1.1 1 0 2.06.34 2.9.82l.28-1.68c-.9-.4-1.96-.64-3.14-.64-2.08 0-3.36 1.12-3.36 2.64 0 1.7.9 2.38 3.14 2.94 1.72.42 2.26.74 2.26 1.62 0 .8-.72 1.26-1.94 1.26-1.3 0-2.46-.48-3.36-1.1l-.26 1.68c.82.46 2.22.9 3.48.9 2.46 0 3.76-1.12 3.76-2.86z" fill="#b9bbbe"/><rect fill="#292841" height="40" rx="8" width="178" x="64" y="162"/><path clip-rule="evenodd" d="m77.8866 191c-.3111 0-.5467-.281-.4923-.587l.6057-3.413h-3.4049c-.3106 0-.5461-.28-.4925-.586l.175-1c.0419-.239.2496-.414.4925-.414h3.5799l1.06-6h-3.4049c-.3106 0-.5461-.28-.4925-.586l.175-1c.0419-.239.2496-.414.4925-.414h3.5799l.6368-3.587c.0423-.239.2498-.413.4923-.413h.9843c.3111 0 .5467.281.4923.587l-.6057 3.413h6l.6368-3.587c.0423-.239.2498-.413.4923-.413h.9843c.3111 0 .5467.281.4923.587l-.6057 3.413h3.4049c.3106 0 .5461.28.4925.586l-.175 1c-.0418.239-.2496.414-.4925.414h-3.5799l-1.06 6h3.4049c.3106 0 .5461.28.4925.586l-.175 1c-.0418.239-.2496.414-.4925.414h-3.5799l-.6368 3.587c-.0423.239-.2498.413-.4923.413h-.9843c-.3111 0-.5467-.281-.4923-.587l.6057-3.413h-6l-.6368 3.587c-.0423.239-.2498.413-.4923.413zm3.5238-12-1.06 6h6l1.06-6z" fill="#b9bbbe" fill-rule="evenodd"/><path d="m112.62 181.56c0 1.14-.76 2.04-1.98 2.04-1.18 0-1.94-.86-1.94-1.96 0-1.16.74-2.08 1.94-2.08 1.18 0 1.98.86 1.98 2zm2.84 7.14c0-1.48-1.26-2.12-3.28-2.48l-.68-.12c-1.68-.3-2.02-.38-2.02-.72 0-.18.2-.4.48-.58.24.04.48.06.72.06 1.94 0 3.66-1.24 3.66-3.28 0-.54-.12-1.04-.38-1.48l1.82-.18-.26-1.6-2.42.74c-.66-.52-1.5-.8-2.46-.8-1.94 0-3.66 1.26-3.66 3.32 0 1.3.72 2.3 1.78 2.84-.64.38-1 .84-1 1.3 0 .36.18.7.6 1-1.34.72-2.02 1.48-2.02 2.46 0 1.68 1.98 2.46 4.46 2.46s4.66-.94 4.66-2.94zm-4.58 1.66c-1.86 0-2.84-.56-2.84-1.32 0-.66.5-1.22 1.62-1.78.38.08.66.14 1.18.24l1.14.2c1.36.24 1.8.64 1.8 1.22 0 .8-1.04 1.44-2.9 1.44z" fill="#b9bbbe"/><path d="m122.82 185.38c-.8.82-1.8 1.34-2.84 1.34-.9 0-1.42-.5-1.42-1.28 0-.98.74-1.94 4.26-2.28zm1.78 2.62v-6.68c0-2.12-1.12-3.06-3.44-3.06-1.48 0-2.56.34-3.7.8l.24 1.54c1.04-.46 2.14-.82 3.3-.82 1.1 0 1.82.42 1.82 1.62v.4c-3.98.42-6.02 1.36-6.02 3.74 0 1.62 1.08 2.66 2.8 2.66 1.56 0 2.6-.7 3.36-1.48l.2 1.28z" fill="#b9bbbe"/><path d="m140.901 188v-6.94c0-1.72-.88-2.8-2.7-2.8-1.34 0-2.5.76-3.36 1.58-.36-.98-1.12-1.58-2.52-1.58-1.34 0-2.42.76-3.32 1.58l-.22-1.38h-1.42v9.54h1.78v-6.6c.86-.92 1.76-1.54 2.7-1.54 1.04 0 1.4.66 1.4 1.64v6.5h1.78v-6.6c.86-.92 1.76-1.54 2.7-1.54 1.04 0 1.4.66 1.4 1.64v6.5z" fill="#b9bbbe"/><path d="m147.31 179.66c1.38 0 2.06.88 2.28 2.42h-4.6c.28-1.62 1.22-2.42 2.32-2.42zm4.06 7.26-.26-1.6c-1.04.82-2.04 1.36-3.42 1.36-1.66 0-2.7-1.04-2.78-3.26h6.48v-.38c0-2.64-1.28-4.78-4.06-4.78-2.4 0-4.2 1.88-4.2 4.94 0 3.5 1.94 5 4.42 5 1.58 0 2.8-.48 3.82-1.28z" fill="#b9bbbe"/><path d="m160.31 185.34c0-1.82-1.06-2.5-3.42-3.1-1.5-.38-1.98-.74-1.98-1.38 0-.68.56-1.1 1.64-1.1 1 0 2.06.34 2.9.82l.28-1.68c-.9-.4-1.96-.64-3.14-.64-2.08 0-3.36 1.12-3.36 2.64 0 1.7.9 2.38 3.14 2.94 1.72.42 2.26.74 2.26 1.62 0 .8-.72 1.26-1.94 1.26-1.3 0-2.46-.48-3.36-1.1l-.26 1.68c.82.46 2.22.9 3.48.9 2.46 0 3.76-1.12 3.76-2.86z" fill="#b9bbbe"/><rect fill="#292841" height="40" rx="8" width="178" x="64" y="210"/><path clip-rule="evenodd" d="m77.8866 239c-.3111 0-.5467-.281-.4923-.587l.6057-3.413h-3.4049c-.3106 0-.5461-.28-.4925-.586l.175-1c.0419-.239.2496-.414.4925-.414h3.5799l1.06-6h-3.4049c-.3106 0-.5461-.28-.4925-.586l.175-1c.0419-.239.2496-.414.4925-.414h3.5799l.6368-3.587c.0423-.239.2498-.413.4923-.413h.9843c.3111 0 .5467.281.4923.587l-.6057 3.413h6l.6368-3.587c.0423-.239.2498-.413.4923-.413h.9843c.3111 0 .5467.281.4923.587l-.6057 3.413h3.4049c.3106 0 .5461.28.4925.586l-.175 1c-.0418.239-.2496.414-.4925.414h-3.5799l-1.06 6h3.4049c.3106 0 .5461.28.4925.586l-.175 1c-.0418.239-.2496.414-.4925.414h-3.5799l-.6368 3.587c-.0423.239-.2498.413-.4923.413h-.9843c-.3111 0-.5467-.281-.4923-.587l.6057-3.413h-6l-.6368 3.587c-.0423.239-.2498.413-.4923.413zm3.5238-12-1.06 6h6l1.06-6z" fill="#b9bbbe" fill-rule="evenodd"/><path d="m114.56 235.22-.26-1.64c-.94.8-1.88 1.06-2.84 1.06-1.6 0-2.8-1.1-2.8-3.42 0-2.2 1.1-3.4 2.74-3.4 1.1 0 1.98.4 2.8 1.06l.26-1.74c-.64-.46-1.66-.88-3.04-.88-2.56 0-4.56 1.74-4.56 4.98 0 3.18 1.88 4.96 4.44 4.96 1.36 0 2.38-.32 3.26-.98z" fill="#b9bbbe"/><path d="m124.84 231.24c0-3.14-1.88-4.98-4.44-4.98-2.54 0-4.38 1.84-4.38 4.98s1.84 4.96 4.38 4.96c2.56 0 4.44-1.82 4.44-4.96zm-1.8 0c0 2-.88 3.48-2.64 3.48-1.68 0-2.58-1.52-2.58-3.48 0-2 .86-3.5 2.58-3.5s2.64 1.54 2.64 3.5z" fill="#b9bbbe"/><path d="m135.387 231.24c0-3.14-1.88-4.98-4.44-4.98-2.54 0-4.38 1.84-4.38 4.98s1.84 4.96 4.38 4.96c2.56 0 4.44-1.82 4.44-4.96zm-1.8 0c0 2-.88 3.48-2.64 3.48-1.68 0-2.58-1.52-2.58-3.48 0-2 .86-3.5 2.58-3.5s2.64 1.54 2.64 3.5z" fill="#b9bbbe"/><path d="m143.674 236.14 1.94-.3-4.36-5.16 4.02-4.22h-2.14l-3.7 4v-8.9l-1.78.28v14.16h1.78v-5z" fill="#b9bbbe"/><path d="m149.443 223.42c0-.62-.5-1.14-1.12-1.14s-1.14.52-1.14 1.14.52 1.12 1.14 1.12 1.12-.5 1.12-1.12zm-.24 12.58v-9.54h-1.78v9.54z" fill="#b9bbbe"/><path d="m159.926 236v-6.94c0-1.72-.96-2.8-2.76-2.8-1.36 0-2.48.76-3.38 1.58l-.22-1.38h-1.42v9.54h1.78v-6.6c.86-.92 1.82-1.54 2.76-1.54 1.04 0 1.46.66 1.46 1.64v6.5z" fill="#b9bbbe"/><path d="m167.913 229.56c0 1.14-.76 2.04-1.98 2.04-1.18 0-1.94-.86-1.94-1.96 0-1.16.74-2.08 1.94-2.08 1.18 0 1.98.86 1.98 2zm2.84 7.14c0-1.48-1.26-2.12-3.28-2.48l-.68-.12c-1.68-.3-2.02-.38-2.02-.72 0-.18.2-.4.48-.58.24.04.48.06.72.06 1.94 0 3.66-1.24 3.66-3.28 0-.54-.12-1.04-.38-1.48l1.82-.18-.26-1.6-2.42.74c-.66-.52-1.5-.8-2.46-.8-1.94 0-3.66 1.26-3.66 3.32 0 1.3.72 2.3 1.78 2.84-.64.38-1 .84-1 1.3 0 .36.18.7.6 1-1.34.72-2.02 1.48-2.02 2.46 0 1.68 1.98 2.46 4.46 2.46s4.66-.94 4.66-2.94zm-4.58 1.66c-1.86 0-2.84-.56-2.84-1.32 0-.66.5-1.22 1.62-1.78.38.08.66.14 1.18.24l1.14.2c1.36.24 1.8.64 1.8 1.22 0 .8-1.04 1.44-2.9 1.44z" fill="#b9bbbe"/><path d="m30.475 67.375 6.4-2.8c.1 0 .1-.2 0-.2l-6.4-2.9h-.1l-2.8-6.4c0-.1-.2-.1-.2 0l-2.9 6.4-6.4 2.9c-.1 0-.1.2 0 .2l6.4 2.8 2.9 6.4h.2l2.8-6.4z" fill="#fdd2f8"/><path d="m561.5 368.342h-62.3l-9.6 46.4c3.377 1.843 6.971 3.254 10.7 4.2-3.3 9.4 4.5 6.1 8.9 4.2l3.2-1.4c6.3 1.2 13 2.1 19.3 2.9-5.8 16.4 3 11.1 7.8 8.4s5.6-3.5 6.5-6.9l12.2.9s3.1-22.6 3.3-58.7z" fill="#e0eaff"/><path d="m514.6 237.342c-2.4 3.6-3.5 10.4-4.4 17.4s-2.5 18.3-.7 26.7z" fill="#c2ffce"/><path d="m537.8 405.942c0 4.2 2.4 7.6-2 9.5-6.3 2.8-9.2 5.7-13.9 7.1s-12 3.5-8.3-3.8 6.5-14 6.5-14z" fill="#1c1b29"/><path d="m503.8 394.342c-.5 4.2 1.5 7.8-3.1 9.2-6.6 2-9.9 4.6-14.7 5.3s-12.4 2.1-7.7-4.7 8.1-13.2 8.1-13.2z" fill="#28263b"/><path d="m484.5 354.142c.779-2.988 2.352-5.709 4.553-7.875 2.201-2.165 4.947-3.695 7.947-4.425l6.3-1.5c4.9-34.1-.6-41.1 25.5-52l21.8-3.6s22.2-2.5 31.8 7.5l-6.6 38.9s8 24.3 7.5 37.2h-29.1l-7.2 41.6c-47.5-.9-72-19.6-72-19.6z" fill="#cfdeff"/><path d="m532.9 359.042c1.3-6.8 1.2-9.4 9.7-10.2l13.3-1.2-1-2.6-28.6-1.2 20.7-19.8 30 5.1c.945 3.731 1.481 7.553 1.6 11.4 3.5 2.2 2.6 5 2 7.8 1.5 6.9 2.9 14.5 2.7 20h-29.1c-.1 9-2.8 14.7-3.3 20.5s-2.7 21.2-2.7 21.2c-7.998-.21-15.978-.878-23.9-2z" fill="#abbaff"/><path d="m575.3 340.442-28.3 1.9s7.5-2.1 14.3-3.3c4.196-.815 8.437-1.383 12.7-1.7 1 0 1.5.9 1.9 2.2.058.097.087.209.084.322s-.038.222-.101.316c-.063.095-.151.169-.254.215s-.217.063-.329.047z" fill="#8fa2fa"/><path d="m537.8 345.542c-10.7 3-12.2 3.6-17.5 12.2s-5.6 8.1-10.1 3.7-10.5-11-12.7-13.5.2-3 14.2-4.9 33.1.5 26.1 2.5z" fill="#afc6fa"/><path d="m569.3 316.242c-2.04-3.747-3.459-7.799-4.2-12-.9-3.1-2.9 1-1.3 6.3 1.192 3.519 3.297 6.66 6.1 9.1z" fill="#b8c5ff"/><path d="m576.2 284.442c-27.4 33.1-52.9 56.6-54 10.1z" fill="#b8c5ff"/><path d="m561.3 289.842c-25.4 16.2-31.8 21.9-31.9 6.4z" fill="#5697b0"/><path d="m505.8 318.842c1.5-14.4 3.1-20.7 16.4-27.5-2.7 9.2-1.9 27.5-1.9 27.5z" fill="#fff"/><path d="m517.7 306.942c.592 3.702 1.496 7.349 2.7 10.9l-2.4.3c-1.212-3.556-2.149-7.2-2.8-10.9-.5-4.2 1.8-4.9 2.5-.3z" fill="#dbe6ff"/><path d="m543.3 245.742v-7.8c.003-2.533.808-5 2.299-7.048s3.591-3.571 6.001-4.352c2.683-.835 5.574-.702 8.169.376 2.595 1.079 4.729 3.033 6.031 5.524 4.7 9 13.8 22.9 17.5 35.8 5.8 20.5-17.9 27.8-44.7 29.2s-30.7-9.9-29.2-27.1c1-10.9 2.5-22 3.6-28.8.292-1.943 1.149-3.756 2.465-5.215 1.316-1.458 3.033-2.496 4.935-2.985 2.132-.531 4.379-.337 6.389.55 2.009.887 3.667 2.417 4.711 4.35l4.1 7.5z" fill="#7ce4cc"/><path d="m514 277.842 1.7-.9 10.1 2.1h10l16.7-5.6s7.5-15.7 8.8.5c1 11.2-3 18.2-5.5 21.5-5.687 1-11.432 1.635-17.2 1.9-4.338.315-8.699.148-13-.5-3.4-3.6-8.9-10.6-11.6-19z" fill="#aafae7"/><path d="m551.6 226.542c4.6-.5 7.8 7.6 10.6 16.8s.7 22.8-.7 29.2c-3.6 16.5-9.5 22.7-14.5 24.2 3-.3 6-.7 8.9-1.2 18.6-3.4 31.9-11.4 27.4-27.3-3.7-12.9-12.8-26.8-17.5-35.8l-.7-1.2-1-1.3c-.1 0-.1 0-.1-.1l-.9-.8c-.715-.678-1.524-1.25-2.4-1.7l-1.9-.7c-2.331-.783-4.848-.818-7.2-.1z" fill="url(#c)" opacity=".74"/><path d="m547 296.742 1.9-.2 1.9-.2 2.7-.4.9-.2 1.4-.2c2.5-3.3 6.5-10.3 5.5-21.5v-.6c-3.7 15.8-9.4 21.9-14.3 23.3z" fill="#aafae7"/><path d="m547 296.742 1.9-.2 1.9-.2 2.7-.4.9-.2 1.4-.2c2.5-3.3 6.5-10.3 5.5-21.5v-.6c-3.7 15.8-9.4 21.9-14.3 23.3z" fill="url(#d)" opacity=".5"/><path d="m516.5 275.542.3 1.9c11.2 4.6 13.1 6.1 38.3-4v-1.8l-1 .4c-21.7 7.3-25.8 8.2-37.6 3.5z" fill="#2c4661"/><path d="m565.363 272.93c.572-4.046-1.889-7.74-5.498-8.25-3.609-.511-6.998 2.356-7.57 6.402s1.889 7.739 5.498 8.25c3.609.51 6.998-2.356 7.57-6.402z" fill="#738eff"/><path d="m516.712 281.987c1.878-.654 2.473-3.848 1.328-7.133-1.144-3.286-3.594-5.42-5.471-4.766-1.878.654-2.472 3.848-1.328 7.133 1.144 3.286 3.594 5.42 5.471 4.766z" fill="#738eff"/><path d="m536.8 267.242c.4-.7-.5-1.2-1.3-1.3-.254-.107-.538-.115-.797-.023-.259.093-.475.279-.603.523l-2.2 3.6c-.5 1.1.5 1 1.6.2s2.6-1.7 3.3-3z" fill="#284e7a" opacity=".41"/><path d="m525.7 270.242-1.1-1.6c-.169-.316-.241-.675-.205-1.031.035-.356.177-.694.405-.969l.3-.4c.1-.2.4-.1.5.1.611 1.198 1.146 2.434 1.6 3.7.3 1.4-.6 1.5-1.5.2z" fill="#284e7a" opacity=".41"/><path d="m514.6 313.442c-2.6-7.6-8.9-10.6-16-10.4l7.2 10.4z" fill="#f7aea5"/><path d="m541.6 306.842c-19.2-6.5-27.6 5.4-27.6 5.4-2.208-2.928-5.209-5.161-8.647-6.437s-7.169-1.541-10.753-.763l-3.2 5.8 29 11.4z" fill="#feccaf"/><path d="m514.3 316.342-.3-2.9-3.5 2.1z" fill="#6b3143"/><path d="m543.6 306.042 13.2 34.2-32 8.9h-2.1l-22.3-10.4-12.6-30.7 1.2-1.2 23.7 8.6z" fill="#133bba"/><path d="m487.8 308.042 23.9 8.8 11 32.3-22-9.2z" fill="#1541cc"/><path d="m544.2 307.442-30.2 9.4 10.8 32.3 32-8.9z" fill="#0b2585"/><path d="m486.8 283.942-3.8-1.7c-.1 0-.1-.1 0-.2l3.8-1.7h.1l1.7-3.8c0-.1.1-.1.1 0l1.7 3.8h.1l3.8 1.7v.2l-3.8 1.7h-.1l-1.7 3.8h-.1l-1.7-3.8z" fill="#fff0db"/><path d="m623.7 355.142-3.8-1.7c-.1 0-.1-.1 0-.1l3.8-1.7 1.7-3.8h.2l1.7 3.8 3.8 1.7c.1 0 .1.1 0 .1l-3.8 1.7-1.7 3.8h-.2z" fill="#ffa78b"/><path d="m533.9 247.742 9.4-2h-7.7l-4.1-7.5c-1.044-1.933-2.702-3.463-4.711-4.35-2.01-.887-4.257-1.081-6.389-.55l-1.8.7c4.5-1.5 6.7 3.5 8.3 9.7 1 3.4 1 5.2 7 4z" fill="#61c7c7"/><path d="m519.735 252.767c1.968-.259 3.308-2.419 2.992-4.824-.316-2.406-2.168-4.147-4.136-3.888-1.968.258-3.308 2.418-2.992 4.824.316 2.405 2.168 4.146 4.136 3.888z" fill="#21354a"/><path d="m553.503 246.385c1.937-.447 3.064-2.729 2.518-5.097-.547-2.368-2.561-3.925-4.498-3.477-1.937.447-3.064 2.729-2.518 5.097.547 2.368 2.56 3.924 4.498 3.477z" fill="#21354a"/><path d="m550.6 319.642c-2.8.5-5.7 1.3-6.8 1.6s-1.5.5-1.1 1.8.4 1.2 2.8 1l5.7-.3z" fill="#61c7c7"/><path d="m588.7 318.442c2.1-6.6-.4-7.3-1.3-10.6-.3-1-.5-5.6-1.1-8.3-.673-3.464-2.595-6.56-5.4-8.7-6-4.4-14.5 6.8-12.9 25.3-3.7.6-8.1 1.5-11.9 2.3 1.834 2.607 3.345 5.428 4.5 8.4.607 1.816 1.009 3.694 1.2 5.6 4.6-.4 9.9-.7 14-1.3 15.7-2 11.9-9.4 12.9-12.7z" fill="#fff"/><path d="m558.2 317.942 3.8-.7c1.9-.4 2.8-.2 1.8.4s-1.2 1.1 1.6 1.5 2.6 1.9 1.8 2.6-1.5 1.9.7 2.5 2.6 1.7 1.2 2.5-1.9 1.8.2 2.5 1.9 1.9 0 2.6l-4.9.4z" fill="#ffe8ad"/><path d="m561.8 332.442c-.4-3-1-7.1-5.7-14l-6.9 1.5.9 3.4-4.5 3.1c-1.5 1.1-1.6 1.4-1.2 2.1.222.564.604 1.051 1.1 1.4.3.2 1.1-.3 2.2-.7l3.5-1.1c.5-.1.7.2.3.5s-3.3 1.7-3.8 2.1-.7.7-.5 1.1.4 1.5 1.5 1.4 4.5-1.2 4.5-1.2c2.4 1 5.5.6 8.6.4z" fill="#61c7c7"/><path d="m568 316.142c2.8.1 7.2 2.2 10.6 4.5s3.9.7 2.8-1-5.1-2.6-9-3.5-4.4-.7-4.4-.7z" fill="#dbe6ff"/><path d="m571.4 315.942c-1.3-.2-2-1.5.3-2.2l5.6-1.6c.8-.1 1.3-2.2-1.1-1.6s-8.3 3.6-8.3 3.6-1.7 1.5.1 2z" fill="#dbe6ff"/><path d="m549.2 323.942 1.9-1.3-.5-.9-2.1 2.2z" fill="#5697b0"/><path d="m551.5 328.642 1.1-.6-.6-.6-.8.7z" fill="#5697b0"/><path d="m560.1 317.642c2.01 1.823 3.617 4.045 4.719 6.524 1.102 2.48 1.675 5.162 1.681 7.876l-4.7.4c-.191-1.906-.593-3.784-1.2-5.6-1.155-2.972-2.666-5.793-4.5-8.4z" fill="#ffd978"/><path d="m585.9 312.842c-.151-.302-.407-.54-.719-.668-.312-.129-.661-.14-.981-.032-1.702.415-3.373.95-5 1.6-1.1.6 2.8 1.7 5.7 2.3s2.5-.5 1-3.2z" fill="#e6edff"/><path d="m553.3 328.242c.9-.9.9-1.8-.3-2.4s-1.2-1.6-.7-2.3 1.4-1.8-.4-2.4-.9-1.6.5-1.9h.1l3.6-.8c3.3 4.9 4.6 8.4 5.2 11.1 0 0-6 .7-7.3.4s-1.6-.9-.7-1.7z" fill="#66d4cd"/><path d="m492.5 319.642 4.2 2c.305.194.548.472.7.8.4 1 .7 1.8-.1 1.8l-4.1-.3c-2.7-1.9-2.2-2.7-.7-4.3z" fill="#5ec7c7"/><path d="m493.9 323.242 4.1 2c.361.152.648.439.8.8.4 1 .7 1.8-.1 1.8l-4.1-.3c-2.8-1.9-2.2-2.7-.7-4.3z" fill="#5ec7c7"/><path d="m495.6 327.642 2.2 1c.2.1.3.6.3 1.3s-.3.6-1 .5c-.773-.044-1.542-.145-2.3-.3-.6-.1-.6-.2-.6-.8v-2.1z" fill="#5ec7c7"/><path d="m554.2 368.342c1.4-8.3 1.6-9.9 1.9-11s2.4 8.1 2.6 11z" fill="#7c90eb"/><path d="m538.4 362.842c1.5 11.9 3.5 24.7 4.5 31.4s2.1 1.7 3.3-3.5.7-7.1-2-16.6-6.7-17.9-5.8-11.3z" fill="#9eb0ff"/><path d="m522.7 357.942c-7 10.3-18.7 27.1-21.1 31.5s.4 1.9 4.8-1.4 5.2-4.2 8.1-9.1 12.1-26.7 8.2-21z" fill="#f0f5ff"/><path d="m491.6 349.942c2.4 9.2 6.4 20.8 7.5 24.3s4.9 2.3 8 .8 1.7-.8-.6 2.1c-1.79 2.253-4.183 3.953-6.9 4.9-1.5.6-4.2 2.4-5.8-7.7s-3.4-29.1-2.2-24.4z" fill="#bdd1ff"/><path d="m482.6 388.642c.8 5.8 6 4.2 8.6 2.5s6.2-1.3 7.4 4.6c.5 2.5 3 4.8 6.8 1.7s7-2.1 7.7 2 4 5.1 7.5 1.2 7.5-2 8.5 2.9 5.5 3.8 7.8-.2 6.4-2.2 7.1 2.2 4.2 1.7 4.8.2c-.4 2.6-.6 4.3-.6 4.3-4.3-.1-8.7-.3-12.9-.7-39.8-3.4-60.3-19-60.3-19l.8-3c1.1-4.4 6.1-4.5 6.8 1.3z" fill="#94a7ff"/><path d="m525.9 398.842c1.5.6 2.7 2.3 3.2 4.7.9 4 5.5 3.8 7.8-.2s6.4-2.2 7.1 2.2 4.2 1.7 4.8.2c-.3 1.8-.4 3.2-.5 3.8-.057.161-.091.329-.1.5-7.998-.21-15.978-.878-23.9-2 0 0 .6-3.8 1.6-9.2z" fill="#7d93ff"/><path d="m576.2 348.842c-.6 1.5-1.4.8-3.1.4-4.8-1.4-9.9-3.4-12-3.6s-3-1.1 1.5-1 10.9.4 12.9.6 1.7 1.1.7 3.6z" fill="#8fa2fa"/><path d="m549.5 227.542c-3.5 2.9-3.7 8.9-3.8 11.3s.1 6.7 0 7.8-.2 1.5-3.6 3.6-2.1.3-.7-1.7 1.9-2.8 1.9-2.8v-7.8c-.013-2.134.557-4.231 1.65-6.065 1.093-1.833 2.666-3.332 4.55-4.335z" fill="#d4ffdc"/><path d="m517.6 245.342c-1.3.7-1.1 3.9 0 2.5s1.9-3.4 0-2.5z" fill="#335a70"/><path d="m550.5 239.342c-1.3.6-1.2 3.9 0 2.4s1.9-3.4 0-2.4z" fill="#335a70"/><path d="m563.4 241.442c-1.655.667-3.161 1.656-4.431 2.909s-2.279 2.745-2.969 4.391c-1.3 2.9.7 7.6 5.3 2.4s6.7-11.8 2.1-9.7z" fill="#dad4ff"/><path d="m510.9 256.542c.4-3.4.8-6.6 1.3-9.5 1.235 1.723 2.056 3.708 2.4 5.8.4 2.4-1.4 5.4-3.7 3.7z" fill="#dad4ff"/><path d="m568.3 256.042c-5.3 3.3-7 3.5-9.6 3.2s-2-2.1 2-4.9 6-3.3 8.6-2.3.8 2.8-1 4z" fill="#dad4ff"/><path d="m510.1 263.242c.1-1.2.3-2.3.4-3.5 1.9 2.3 1.6 3.6-.4 3.5z" fill="#dad4ff"/><path d="m559.544 271.676c.89-2.38.479-4.732-.918-5.254-1.397-.523-3.25.983-4.14 3.363-.89 2.379-.479 4.732.918 5.254s3.25-.984 4.14-3.363z" fill="#b2a6ff"/><path d="m513.241 276.849c.767-.099 1.221-1.468 1.015-3.056-.207-1.588-.995-2.795-1.762-2.695-.767.099-1.221 1.468-1.015 3.056s.995 2.795 1.762 2.695z" fill="#b2a6ff"/><path d="m516.2 237.142c-1.9 2-2 5.2 0 2.7s2.3-5.1 0-2.7z" fill="#d4ffdc"/><path d="m538.4 286.042c-5.4 2.2-9.4 1.4-11.9.4s-2.1 1.7 2.3 3.9 5.5 1.4 7.7-.5 5-5.1 1.9-3.8z" fill="#7ce4cc"/><path d="m214.1 312.2-14.4 50.3-38.7 6.1-.9-1.1.4-2.2-1.3-1.6h-2.2l-1-1.2 9.4-56.4h43.7c1.412.279 2.683 1.039 3.595 2.152s1.409 2.509 1.405 3.948z" fill="#2950cc"/><path d="m214.1 312.2h-43.7l-9.4 56.4h43.7z" fill="#2139a6"/><path d="m228.5 302.1-2.2-1 2.2-.9.9-2.2h.1l1 2.2 2.1.9c.1 0 .1.1 0 .1l-2.1 1-1 2.1h-.1l-.9-2.1z" fill="#ff9ccd"/><path d="m261.5 353.1v12.5h3.8v3h-94.1c-1.262-1.187-2.268-2.621-2.956-4.212-.687-1.59-1.042-3.305-1.042-5.038s.355-3.448 1.042-5.038c.688-1.591 1.694-3.025 2.956-4.212h94.1v3z" fill="#50a7b5"/><path d="m217.2 350.1h-46c-1.249 1.195-2.244 2.631-2.923 4.22-.679 1.59-1.03 3.301-1.03 5.03s.351 3.44 1.03 5.03c.679 1.589 1.674 3.025 2.923 4.22h46c-1.249-1.195-2.244-2.631-2.923-4.22-.679-1.59-1.03-3.301-1.03-5.03s.351-3.44 1.03-5.03c.679-1.589 1.674-3.025 2.923-4.22z" fill="#61c7c7"/><path d="m179 350.1h-1.8c-1.249 1.195-2.244 2.631-2.923 4.22-.679 1.59-1.03 3.301-1.03 5.03s.351 3.44 1.03 5.03c.679 1.589 1.674 3.025 2.923 4.22h1.8c-1.249-1.195-2.244-2.631-2.923-4.22-.679-1.59-1.03-3.301-1.03-5.03s.351-3.44 1.03-5.03c.679-1.589 1.674-3.025 2.923-4.22z" fill="#ffdeb0"/><path d="m210.6 350.1h-1.7c-1.249 1.195-2.244 2.631-2.923 4.22-.679 1.59-1.03 3.301-1.03 5.03s.351 3.44 1.03 5.03c.679 1.589 1.674 3.025 2.923 4.22h1.7c-1.237-1.202-2.22-2.64-2.891-4.229-.672-1.589-1.017-3.296-1.017-5.021s.345-3.432 1.017-5.021c.671-1.589 1.654-3.027 2.891-4.229z" fill="#ffdeb0"/><path d="m255.5 321.3h-64.3c2.17 4.49 3.296 9.413 3.296 14.4s-1.126 9.91-3.296 14.4h65.4c2.101-4.318 3.234-9.043 3.321-13.845.086-4.801-.877-9.564-2.821-13.955-.148-.298-.376-.55-.658-.726-.283-.177-.609-.272-.942-.274z" fill="#c84493"/><path d="m186 321.3h69.1v3.9h-69.1c-.212 0-.416-.084-.566-.234s-.234-.354-.234-.566v-2.3c0-.212.084-.416.234-.566s.354-.234.566-.234z" fill="#c84493"/><path d="m186 346.2h69.1v3.9h-69.1c-.212 0-.416-.084-.566-.234s-.234-.354-.234-.566v-2.2c-.014-.113-.004-.228.03-.337.033-.109.09-.209.166-.295.076-.085.169-.153.273-.199s.217-.07.331-.069z" fill="#c84493"/><path d="m186 321.3h38.3v3.9h-38.3c-.212 0-.416-.084-.566-.234s-.234-.354-.234-.566v-2.3c0-.212.084-.416.234-.566s.354-.234.566-.234z" fill="#e060ad"/><path d="m186 346.2h38.3v3.9h-38.3c-.212 0-.416-.084-.566-.234s-.234-.354-.234-.566v-2.2c-.014-.113-.004-.228.03-.337.033-.109.09-.209.166-.295.076-.085.169-.153.273-.199s.217-.07.331-.069z" fill="#e060ad"/><path d="m253.9 325.1h-30.7v21.1h30.7z" fill="#f2a97b"/><path d="m227.2 325.1h-38.9v21.1h38.9z" fill="#feccaf"/><path d="m229.7 330.5-41.4-2.7v-2.7h41.4z" fill="#f2a97b"/><path d="m253.9 325.1v21.1c3.2-5.8 3.2-15.2 0-21.1z" fill="#1c1b29"/><path d="m229.4 332.1h-41.1v.82h41.1z" fill="#f2a97b"/><path d="m233.1 338.2h-44.8v.84h44.8z" fill="#f2a97b"/><path d="m233.1 340.4h-44.8v.84h44.8z" fill="#f2a97b"/><path d="m236 329.2h1.7c.371 0 .727.147.99.41.262.263.41.619.41.99v8.5l2.1-2 2.1 2v-8.6c0-.451-.179-.883-.498-1.202s-.751-.498-1.202-.498h-5.6z" fill="#e65c5c"/><path d="m208.3 307.7h-39.8l-9.3 56 1.3 1.6 9.1-54.7h1.3 39.7z" fill="#e3bd9a"/><path d="m208.3 307.7c.644.172 1.216.547 1.63 1.069.415.522.649 1.165.67 1.831z" fill="#1c1b29"/><path d="m220.1 365.6v-12.5c-1.493 1.74-2.313 3.957-2.313 6.25s.82 4.51 2.313 6.25z" fill="#1c1b29"/><path d="m261.5 353.1h-41.4v12.49h41.4z" fill="#dec3c7"/><path d="m261.4 356.5h-38.5v.56h38.5z" fill="#d1abb1"/><path d="m261.4 355.2h-38.5v.56h38.5z" fill="#d1abb1"/><path d="m261.4 363.1h-38.5v.56h38.5z" fill="#d1abb1"/><path d="m250.1 364.5-1.1-.9-1.2.9v-5.1c-.025-.274-.152-.529-.356-.714-.203-.185-.469-.287-.744-.286h-.4v-.2h2.9c.248.025.477.141.643.326.167.185.258.425.257.674z" fill="#2139a6"/><g mask="url(#i)"><circle cx="319" cy="135" fill="#ffb869" r="20"/><path d="m308.736 141.532c2.335 8.116 11.725 13.74 19.258 8.435s.053-16.181.053-16.181 4.085-10.292-6.154-12.732-12.785 2.016-13.157 20.478z" fill="#4d7ae8"/><path d="m323.909 135.59c-1.143 0-2.069-1.235-2.069-2.759 0-1.523.926-2.758 2.069-2.758s2.069 1.235 2.069 2.758c0 1.524-.926 2.759-2.069 2.759z" fill="#dbe7ff"/><path d="m324.796 134.926c-.292-.02-.498-.486-.46-1.042.037-.555.305-.989.597-.969.293.02.499.486.461 1.041-.038.556-.306.99-.598.97z" fill="#201e2f"/><path d="m326.296 127.685c-.137-.412-.4-.77-.753-1.024-.352-.254-.775-.391-1.21-.391-.434 0-.857.137-1.209.391-.353.254-.616.612-.753 1.024z" fill="#201e2f"/><path d="m326.084 139.41c-2.016.53-4.191.053-5.995-1.91-.235-.269-.566-.436-.922-.466-.357-.029-.711.08-.987.307-.302.204-.511.52-.58.878-.07.358.005.729.208 1.031 2.759 4.51 7.056 5.199 9.709 2.653.181-.164.317-.373.392-.606.074-.233.085-.481.032-.72-.037-.203-.116-.396-.231-.567s-.266-.316-.44-.426c-.175-.11-.37-.182-.575-.212-.204-.03-.412-.017-.611.038z" fill="#590942"/><path d="m324.546 139.622c.52.004 1.038-.067 1.538-.212h.478v1.326s-.796.583-3.767.265v-.743l-5.199-1.75c.002-.219.056-.434.157-.628.102-.193.248-.36.427-.486 0-.014.005-.028.015-.038s.023-.015.038-.015c.218-.15.478-.224.742-.213.053-.053.159 0 .212 0h.478c.053.053.106.053.106.106 0 .054.106 0 .106.054l.212.159c.314.359.671.68 1.061.955l.743.477c.346.213.721.374 1.114.478.496.17 1.015.26 1.539.265z" fill="#dbe7ff"/><path d="m318.18 137.341c0-.014.005-.028.015-.038s.023-.015.038-.015c.218-.15.478-.224.742-.213.053-.053.159 0 .212 0h.478c.053.053.106.053.106.106 0 .054.106 0 .106.054l.212.159c.167.22.364.416.584.583l-1.486.902-1.591-.53c.018-.201.079-.395.18-.569s.239-.324.404-.439z" fill="#b5cdff"/><path d="m310.912 124.768c1.909-4.245 5.252-5.093 10.981-3.714 1.154.258 2.263.687 3.289 1.273.319 1.698-2.281 2.228-7.109.69 1.592 2.865-1.697 7.957-7.161 1.751z" fill="#201e2f"/><path d="m317.596 120.895.265-3.502c.024-.319-.021-.64-.133-.941-.112-.3-.287-.573-.513-.799-.227-.227-.5-.402-.8-.514-.301-.111-.621-.157-.941-.133-.36.021-.71.128-1.019.313-.31.186-.569.443-.757.751s-.298.657-.322 1.017c-.023.36.042.72.188 1.049l1.592 3.608z" fill="#201e2f"/><path d="m303.803 139.622 1.591.583 3.342-2.175v2.706l2.759 2.175c.58.476 1.057 1.065 1.403 1.731.347.665.555 1.394.613 2.142l.106 2.175c4.032 3.342 9.549 4.403 14.377 1.008.785-.525 1.483-1.169 2.069-1.91l1.645.583s-3.343 14.059-8.913 16.606c-5.57 2.546-9.443 0-9.443 0-5.836-19.842-4.138-23.555-18.568-17.826l-.69-4.032z" fill="#ef6767"/><path d="m315.368 133.309-10.504-9.815-.955 1.22 8.117 15.12z" fill="#4d7ae8"/><path d="m311.548 131.081-4.138-2.918 3.183 5.729-.583-2.228z" fill="#3366e0"/></g><g mask="url(#j)"><circle cx="319" cy="211" fill="#ff82a6" r="20"/><path d="m330.301 195.689-.059.171-.174.417-.059.171-.135.303c-2.987 6.958-8.717 12.086-12.513 15.651-3.932 3.674-8.356 6.782-13.146 9.234-4.717 2.263-6.851.229-6.325-3.628l.473-1.937 2.324-9.76.099-.475c1.574-6.36 4.001-10.012 11.893-11.984l12.01-2.946.038-.019c4.194-1.012 7.113.401 5.574 4.802z" fill="url(#e)"/><path d="m329.065 190.942c-3.81.634-10.944 5.218-18.019 11.953-7.075 6.734-12.482 14.167-12.968 17.816.669 1.946 2.719 2.552 6.137.925 4.79-2.452 9.214-5.56 13.146-9.234 3.796-3.565 9.526-8.693 12.513-15.651l.135-.303.059-.171.174-.417.059-.171c.915-2.58.3-4.126-1.236-4.747z" fill="url(#f)"/><path d="m317.76 209.887c6.868-6.517 11.426-12.864 10.181-14.177-1.245-1.312-7.822 2.908-14.69 9.425-6.869 6.517-11.427 12.864-10.182 14.176 1.246 1.313 7.823-2.907 14.691-9.424z" fill="#6b3143"/><path d="m316.319 221.202-1.818 1.317c-.439.291-.807.677-1.078 1.129-.27.452-.436.959-.485 1.483l-.304 2.376-3.202 2.942c-.669.658-1.064 1.545-1.104 2.483l.019 2.264s17.503 9.332 26.916 7.658c9.412-1.673 3.683-17.815 3.683-17.815-.083-.158-.209-.29-.362-.382-.154-.092-.33-.14-.509-.139l-2.795-.194-1.193-2.92c-.11-.271-.285-.511-.509-.698-.224-.188-.491-.318-.776-.378l-8.243-1.742z" fill="#ef6270"/><path d="m316.717 226.075c-2.508-.477-2.337-.418-1.624-1.573.408-.714 1.006-1.302 1.726-1.698z" fill="#bd3c53"/><path d="m320.558 202.877c-.301-.326-2.827 1.48-5.626 4.083-2.799 2.602-4.816 4.964-4.514 5.29 3.364 5.126 5.607 9.996 6.299 13.825l13.676 2.68c-.738-12.144-6.416-20.447-9.835-25.878z" fill="#ffb685"/><path d="m325.762 213.674c-.115-.432-.447-.718-.742-.639-.295.078-.441.492-.327.923.115.431.447.718.743.639.295-.079.441-.492.326-.923z" fill="#543247"/><path d="m321.272 216.221c.214-.309.058-.787-.347-1.068-.406-.281-.908-.258-1.122.051s-.059.787.347 1.068c.405.281.908.258 1.122-.051z" fill="#543247"/><path d="m324.087 220.428c1.146-.561 2.197-1.124 2.691-.986.493.137.277 1.048-.264 2.071s-.385.568-1.638.234-1.667-.889-.789-1.319z" fill="#c74153"/><path d="m324.564 220.242-.88.62c.035.362.546.728 1.192.885.645.158 1.387.221 1.638-.234l.232-.493c-.321-.269-1.21-.923-2.182-.778z" fill="#a82c3c"/><path d="m326.302 219.438c-.766.264-1.507.595-2.215.99-.496.243-.46.51-.234.778l2.635-1.196c.153-.075-.035-.362-.186-.572z" fill="#fff"/><path d="m329.623 215.869c.019-.057-.018-.133.001-.19-.045-.386-.209-.748-.469-1.037-.26-.288-.603-.489-.983-.573.092.082.164.184.211.298s.066.237.058.36-.045.242-.106.349c-.062.107-.147.198-.249.267-.367.21-.779.331-1.202.352-.55.061-1.08.243-1.552.531-.473.289-.876.678-1.182 1.139-1.94-.091-2.615 1.14-3.991 1.813-.371.193-.77.324-1.182.39-1.353.237-1.577-.317-1.609-1.059-1.494 1.205-.556 2.925.601 3.353.682.329 1.596.165 2.554-.588 2.373.59 3.213.274 4.582-1.96 2.259.551 3.712-.35 3.825-2.442.19-.096.353-.238.474-.414.121-.175.196-.377.219-.589z" fill="#6b3143"/><path d="m325.105 219.314c2.259.551 3.712-.35 3.825-2.442.19-.096.353-.238.474-.414.121-.175.196-.377.219-.589.019-.057-.018-.133.001-.19-.038-.198-.101-.39-.185-.572.026.315-.065.629-.257.88-.192.252-.471.423-.782.481-.678 1.516-2.05 1.81-3.627 1.492 0 0-1.77 2.478-4.22 1.926-1.724 1.412-3.568 1.226-3.956-.147-.035.455.08.91.327 1.293.248.384.615.675 1.045.83.682.329 1.596.165 2.554-.588 2.373.59 3.213.274 4.582-1.96z" fill="#5e2737"/></g></svg>