<svg fill="none" height="530" viewBox="0 0 874 530" width="874" xmlns="http://www.w3.org/2000/svg" xmlns:xlink="http://www.w3.org/1999/xlink"><linearGradient id="a" gradientUnits="userSpaceOnUse" x1="560.961" x2="577.51" y1="169.826" y2="212.469"><stop offset="0" stop-color="#ffc285"/><stop offset="1" stop-color="#db8d6b"/></linearGradient><linearGradient id="b" gradientUnits="userSpaceOnUse" x1="615.935" x2="524.443" y1="194.863" y2="194.863"><stop offset="0" stop-color="#d67569"/><stop offset="1" stop-color="#e39e7f"/></linearGradient><mask id="c" height="401" maskUnits="userSpaceOnUse" width="207" x="637" y="56"><path d="m814.368 56h-147.369c-16.5 0-29.999 13.479-29.999 29.9533v341.0937c0 16.474 13.499 29.953 29.999 29.953h146.994c16.5 0 29.999-13.479 29.999-29.953v-341.0937c.375-16.4743-13.124-29.9533-29.624-29.9533z" fill="#23272a"/></mask><mask id="d" height="96" maskUnits="userSpaceOnUse" width="163" x="487" y="272"><rect fill="#c4c4c4" height="96" rx="8" width="163" x="487" y="272"/></mask><mask id="e" height="96" maskUnits="userSpaceOnUse" width="163" x="487" y="162"><rect fill="#c4c4c4" height="96" rx="8" width="163" x="487" y="162"/></mask><mask id="f" height="266" maskUnits="userSpaceOnUse" width="430" x="43" y="132"><path d="m473 140c0-4.418-3.582-8-8-8h-414c-4.4183 0-8 3.582-8 8v250c0 4.418 3.5817 8 8 8h414c4.418 0 8-3.582 8-8z" fill="#a8bfff"/></mask><g mask="url(#c)"><path d="m844 57h-207v399.57h207z" fill="#225b73"/><path d="m637 126.56c49.268 42.188 120.945 72.698 207 86.566v-156.126h-207z" fill="#236682"/><path d="m808.162 146.632-3.942-1.752c-.073 0-.073-.073 0-.146l3.942-1.752h.073l1.752-3.941c0-.073.146-.073.146 0l1.751 3.941h.073l3.869 1.752c.073.073.073.146 0 .146l-3.869 1.752c-.019 0-.038.007-.051.021-.014.014-.022.032-.022.052l-1.751 3.941h-.146l-1.752-3.941c0-.02-.008-.038-.022-.052-.013-.014-.032-.021-.051-.021z" fill="#f7d197"/><path d="m671.451 258.672-2.554-1.168c-.073 0-.073-.073 0-.073l2.554-1.168c.073 0 .073 0 .073-.073l1.168-2.555h.073l1.168 2.555 2.628 1.168c.073 0 .073.073 0 .073l-2.628 1.168-1.168 2.7c0 .073-.073.073-.073 0l-1.168-2.627z" fill="#ff9ccd"/><path d="m731.814 92.7652-43.721 134.8128c-.96 2.99-.955 6.206.015 9.193.969 2.986 2.854 5.592 5.386 7.449l1.095.803c12.864 9.41 27.929 15.358 43.751 17.275 15.823 1.917 31.872-.261 46.611-6.327 2.166-.89 3.97-2.482 5.121-4.521 1.152-2.038 1.585-4.405 1.229-6.719l-23.43-148.9732c-3.138-17.5907-5.766-30.8019-8.467-38.7578h-14.014c-3.722 7.153-8.102 18.8315-13.576 35.7652z" fill="#33beb5"/><path d="m731.814 92.7652-43.283 133.5718c-1.092 3.355-1.094 6.97-.005 10.327 1.088 3.356 3.21 6.282 6.063 8.359 11.744 8.591 25.347 14.292 39.707 16.641l16.788-7.664s5.255-109.631 2.846-197h-8.54c-3.722 7.08-8.102 18.8315-13.576 35.7652z" fill="#33a2be"/><path d="m700.939 188.163c2.555-8.102 3.796-10.729 6.351-7.518 19.488-47.954 34.013-41.677 41.531.219 0 0 16.861-13.211 21.605 24.16 0 0 7.737-4.452 15.109 3.139l5.766 36.568c.29 1.975.012 3.991-.803 5.814-.814 1.823-2.131 3.375-3.795 4.477-15.657 5.4-32.347 7.122-48.776 5.034-16.43-2.089-32.158-7.932-45.965-17.077-2.018-1.951-3.45-4.427-4.134-7.148-.683-2.722-.591-5.581.265-8.253z" fill="#f7e5bc"/><path d="m688.093 227.578 12.846-39.415c2.555-8.102 3.796-10.729 6.351-7.518 19.488-47.954 34.013-41.677 41.531.219 1.422-1.065 3.071-1.789 4.817-2.117-4.817 2.117-4.16 7.299-5.328 19.124-1.168 11.824-1.241 22.116-1.241 22.116l-44.451 29.196c-3.576-1.898-7.153-3.942-10.656-6.204-2.018-1.951-3.45-4.427-4.134-7.148-.683-2.722-.591-5.581.265-8.253z" fill="#f7d197"/><path d="m690.429 228.6c18.612-29.196 37.809-41.459 96.639 18.612.602.622 1.043 1.381 1.286 2.212.242.831.279 1.708.107 2.556-.173.848-.549 1.642-1.097 2.312-.548.669-1.251 1.196-2.048 1.533-14.778 6.139-30.888 8.37-46.778 6.478s-31.025-7.843-43.949-17.28l-1.095-.803c-.87-.652-1.677-1.385-2.408-2.19-3.212-3.722-3.285-9.27-.657-13.43z" fill="#242236"/><path d="m698.166 249.11.584-32.116c14.452-16.933 32.334-20.364 69.267 12.044l-7.372 31.459c-20.291 1.751-44.232-1.898-62.479-11.387z" fill="#9e4b34"/><path d="m696.56 248.307 21.751-5.912 7.81 8.321s.073-4.234 1.241-17.445c1.387-15.255 4.306-8.54 10.583.876s24.16 2.482 24.16 2.482l2.628-10.438c-32.116-27.079-49.269-25.984-62.772-12.554z" fill="#7a2f28"/><path d="m844 306.042c-2.263-1.898-5.474-3.868-9.635-6.934 0 0 5.548 22.992 9.635 30.072z" fill="#3ee8dd"/><path d="m828.818 299.765-172.038 6.204c-.321.239-.593.536-.803.876l-2.919-.876c-7.226 5.913-12.336 11.022-16.058 15.985v134.594h207v-137.951c-8.686-11.752-15.182-18.832-15.182-18.832z" fill="#244ab0"/><path d="m811.081 348.377c-5.912-.146-5.401 19.342-7.737 34.816-2.335 15.474-2.7 19.561-12.7 5.912-9.999-13.649-15.547-19.561-7.81-42.334l-93.208-41.969-32.846 1.167c-.321.239-.593.536-.803.876l-2.919-.876c-7.226 5.913-12.336 11.022-16.058 15.985v134.594h184.957c-1.752-17.737-4.014-47.663-2.19-68.83 2.774-31.896-2.7-39.195-8.686-39.341z" fill="#1a3e9c"/><path d="m786.411 261.299c10.51 2.92 11.459-.146 18.539 19.927l-14.744 1.021z" fill="#3ee8dd"/><path d="m844 308.013-1.971-1.679c-2.627-2.116-4.817-3.576-5.328-4.233s-.584-2.336-.949-4.672c-1.314-7.08.146-8.904-8.394-10.948l-26.86-6.35-4.234-10.584c-.855-2.068-2.198-3.898-3.913-5.334-1.716-1.436-3.754-2.436-5.94-2.914l-15.693-3.284-62.407-1.022-33.94 17.153c-1.365.691-2.543 1.703-3.433 2.949-.89 1.245-1.465 2.688-1.676 4.204l-1.241 7.883-16.35 10.948c-.922.613-1.655 1.47-2.119 2.475s-.64 2.119-.509 3.218c4.234 37.517 42.992 95.033 96.785 69.195 39.999-19.196 77.151-46.787 94.887-60.874l3.285 4.526z" fill="#33beb5"/><path d="m788.09 271.372c-9.051 5.985-13.066 8.905-19.708 13.138-6.642 4.234-10.291 12.336-.876 8.394 9.416-3.941 17.299-7.226 22.7-10.656 5.402-3.431 3.431-4.745 2.701-7.883-.73-3.139-1.387-5.183-4.817-2.993z" fill="#37cfc5"/><path d="m651.671 300.13 16.35-10.948 1.241-7.883c.211-1.516.786-2.959 1.676-4.204.89-1.246 2.068-2.258 3.433-2.949l33.94-17.153 9.781.219 39.196 84.668c-3.577 18.467-8.978 21.022-13.795 25.255-4.818 4.233-4.453 4.671-2.993 10.219-51.02 19.634-87.369-35.255-91.457-71.531-.131-1.099.045-2.213.509-3.218s1.197-1.862 2.119-2.475z" fill="#33a2be"/><path d="m673.057 283.488c-1.679 4.599-2.847 4.964.146 13.358 2.993 8.393 13.941 25.546 18.175 31.02 4.233 5.475 6.569 5.694-.146-11.24s-8.248-20.875-10.146-28.466-4.817-13.503-8.029-4.672z" fill="#2b98b3"/><path d="m793.783 290.422c-14.16 19.197-26.204 29.415-37.663 37.444-11.46 8.029-7.591 3.869-2.336-5.401s14.671-13.795 25.401-23.868c12.262-11.605 23.649-20.437 14.598-8.175z" fill="#319bb5"/><path d="m833.854 301.444c.154.605.109 1.244-.128 1.822-.236.578-.652 1.065-1.185 1.389-28.248 15.766-68.465 35.109-82.917 40.291s-5.766-.292 12.335-12.043c18.102-11.752 48.977-31.313 58.903-37.006 9.927-5.694 9.781-7.007 12.992 5.547z" fill="#33a2be"/><path d="m770.426 261.883c14.525 2.555 22.627 2.263 0 15.547s0-15.547 0-15.547z" fill="#1e6470"/><path d="m724.88 221.958-.657 12.992-6.861 2.19 4.671-9.854-2.627-7.153z" fill="#66251f"/><path d="m749.478 229.622-8.102 2.919c3.868 3.869 7.518 2.555 8.102-2.919z" fill="#5e221d"/><path d="m720.355 232.322-8.613-1.168c1.752 5.256 5.547 5.767 8.613 1.168z" fill="#5e221d"/><path d="m747.724 228.517c.062-2.337-1.032-4.262-2.443-4.299-1.41-.037-2.603 1.828-2.664 4.165s1.032 4.262 2.443 4.299c1.41.037 2.603-1.828 2.664-4.165z" fill="#201e2f"/><path d="m716.333 232.002c1.4-.177 2.297-2.2 2.004-4.52s-1.665-4.057-3.065-3.88-2.297 2.201-2.004 4.52c.293 2.32 1.665 4.057 3.065 3.88z" fill="#201e2f"/><path d="m701.961 213.564c-2.021 2.033-3.899 4.203-5.62 6.496-1.314 7.226-.657 16.642-1.752 24.963-1.752 12.7-2.044 20.656.438 27.225s1.679 7.299-1.168 16.642c-2.846 9.342-8.904 19.707-4.379 29.634-3.139 7.664-1.095 11.751 1.533 17.882 3.357 8.102 10.437 22.408 21.97 19.854 4.525 5.182 19.415 14.525 37.371 6.569 17.955-7.956 34.086-24.087 28.904-40.437 5.255-5.985 1.679-18.32-.292-25.254-1.833-6.065-2.084-12.497-.73-18.686 1.314-6.496.219-12.554-3.942-24.817 1.072-5.729 1.634-11.542 1.679-17.371-3.941-3.723-7.664-7.08-11.24-10.073l-2.628 10.438s-2.482 8.394-3.357 13.284c0 0-2.92-.803-4.964.146-1.241-2.555-6.496-7.08-13.649-6.569l-14.014 7.226-7.81-8.321c-8.613.438-13.065 1.022-15.474 3.795-2.606-4.506-3.777-9.7-3.357-14.89.583-5.912 2.481-17.736 2.481-17.736z" fill="#fff"/><path d="m722.617 257.796s3.285-1.168 6.57-2.774c3.284-1.606 2.919-1.752 10.948-11.532l-14.014 7.226-7.81-8.321c-8.613.438-13.065 1.022-15.474 3.795-2.606-4.506-3.777-9.7-3.357-14.89.583-5.912 2.481-17.736 2.481-17.736-2.021 2.033-3.899 4.203-5.62 6.496-1.314 7.226-.657 16.642-1.752 24.963-1.752 12.7-2.044 20.656.438 27.225s1.679 7.299-1.168 16.642c-2.846 9.342-8.904 19.707-4.379 29.634-3.139 7.664-1.095 11.751 1.533 17.882 3.357 8.102 10.437 22.408 21.97 19.854 4.525 5.182 19.415 14.525 37.371 6.569 17.955-7.956 34.086-24.087 28.904-40.437-2.92 17.007-15.474 16.131-15.474 16.131-14.89-.219-22.919 1.679-22.919 1.679-5.62-6.788-12.262-13.212-17.08-15.474-11.897-15.62-8.467-35.254-5.839-46.422 2.628-11.167 4.671-20.51 4.671-20.51z" fill="#d6dfff"/><path d="m722.617 257.796c-4.452 1.533-4.817-2.263-5.328-6.496-.511-4.234 1.022-8.905 1.022-8.905l7.81 8.321 14.014-7.226c-8.029 9.78-7.591 9.926-10.948 11.532-3.358 1.606-6.57 2.774-6.57 2.774z" fill="#cad5fc"/><path d="m753.857 224.001-17.882-1.094c2.52-2.219 5.816-3.349 9.167-3.144 3.351.206 6.484 1.729 8.715 4.238z" fill="#cfdeff"/><path d="m724.223 222.469-17.955-.219c2.41-2.352 5.656-3.649 9.023-3.608s6.58 1.417 8.932 3.827z" fill="#cfdeff"/><path d="m734.807 238.162-5.183 4.379 7.299-2.701c.73-.292.949-.438.292-1.678-.656-1.241-1.313-.949-2.408 0z" fill="#7a2f28"/><path d="m716.559 265.168c.18 1.167.788 2.224 1.706 2.967.918.742 2.079 1.116 3.258 1.047 18.685-.73 25.911-6.715 28.32-9.488.326-.404.549-.88.65-1.388.102-.509.079-1.034-.066-1.532-.058-.153-.132-.3-.219-.438-8.978 4.963-23.868 6.058-27.372 6.058-2.189.073-2.481-1.241-2.335-2.773-.627.097-1.229.318-1.768.652-.54.333-1.008.771-1.375 1.288-.368.518-.628 1.103-.765 1.723-.137.619-.149 1.26-.034 1.884z" fill="#de5d70"/><path d="m724.661 269.036c1.448-2.65 3.294-5.063 5.474-7.153 6.059-.73 14.233-2.335 20-5.547l.292.438c.145.498.168 1.023.066 1.532-.101.508-.324.984-.65 1.388l-.146.146c-2.336 2.627-8.905 7.956-25.036 9.196z" fill="#b83d50"/><path d="m733.541 172.317c1.659-5.982.296-11.582-3.045-12.509-3.341-.926-7.394 3.172-9.053 9.154-1.659 5.983-.296 11.583 3.045 12.51 3.341.926 7.394-3.172 9.053-9.155z" fill="#ff9ccd"/><path d="m721.45 168.894c1.678-5.912 5.693-10 9.05-9.124.772.234 1.458.691 1.971 1.314-5.182.803-1.314 6.35-11.021 7.81z" fill="#ffebf5"/><path d="m734.077 164.806c.396 2.513.222 5.083-.511 7.518-.142.657-.362 1.294-.657 1.898-1.168.073-3.285-.146-4.014 1.606-.73 1.752-1.168 4.306-4.599 5.547-1.679-.657-2.846-2.554-3.284-5.036l.803-.219c6.35-1.022 8.977-8.321 12.262-11.314z" fill="#ff70b7"/><path d="m759.058 195.531c1.627-.29 2.636-2.262 2.255-4.406-.382-2.143-2.011-3.645-3.638-3.355s-2.636 2.262-2.255 4.405c.382 2.143 2.011 3.645 3.638 3.356z" fill="#f7d197"/><path d="m779.97 218.88c1.627-.29 2.637-2.262 2.255-4.405s-2.01-3.645-3.637-3.356c-1.627.29-2.637 2.263-2.255 4.406.381 2.143 2.01 3.645 3.637 3.355z" fill="#f7d197"/><path d="m775.973 236.264c-.079 4.91-.469 9.81-1.168 14.671-.803-3.796-3.138-7.664-5.62-8.102-2.044-4.452-4.087-6.569-7.08-6.204l2.628-10.438c3.576 2.993 7.299 6.35 11.24 10.073z" fill="#a8c3ff"/><path d="m780.645 320.202c-.376.782-.842 1.516-1.387 2.19.385-.776.85-1.51 1.387-2.19z" fill="#d6dfff"/><path d="m750.792 274.438c-6.715 5.693-9.781 9.123-8.467 16.203 0 0 7.08-7.883 8.467-16.203z" fill="#d6dfff"/><path d="m717.216 281.664c-6.35 8.904-8.175 14.744-7.956 19.05 3.577-1.46 7.664-6.277 7.664-6.277z" fill="#fff"/><path d="m771.959 259.913c.365 4.014.146 10.875-1.314 14.233 4.671-4.964 4.16-8.248 1.314-14.233z" fill="#d6dfff"/><path d="m760.28 299.108c-3.284 7.518-13.941 9.416-13.941 9.416 10.876 3.503 14.963 2.919 13.941-9.416z" fill="#d6dfff"/><path d="m701.523 250.716c-3.284 5.401-1.241 13.503-1.241 13.503s-9.561-5.62 1.241-13.503z" fill="#c7d3fc"/><path d="m698.604 315.312c-.657 6.569 2.116 11.824 6.35 12.846-1.129-4.703-3.299-9.093-6.35-12.846z" fill="#c7d3fc"/><path d="m735.61 216.045c-7.883-1.094-17.883-1.167-21.167-1.167 10.656-3.066 17.225-2.336 21.167 1.167z" fill="#66251f"/><g fill="#5e221d"><path d="m757.361 226.41c-1.825-.438-4.161-1.314-5.767.876z"/><path d="m757.215 230.425c-1.46-1.168-3.358-2.847-5.693-1.533z"/><path d="m702.034 224.804c1.898.219 4.453.146 5.255 2.701z"/><path d="m700.939 228.746c1.752-.657 4.088-1.679 5.913.292z"/></g><path d="m732.471 230.498c-.146 3.941-1.168 6.788-2.482 8.028-1.313 1.241-.511-1.021.657-5.109 1.168-4.087 1.898-5.474 1.825-2.919z" fill="#c27059"/><path d="m746.558 254.803c.691-.232 1.443-.205 2.115.077.671.282 1.217.8 1.535 1.456-8.978 4.963-23.795 6.058-27.372 6.131-2.189 0-2.481-1.314-2.335-2.846h.365c6.131-.511 16.568-1.752 25.692-4.818z" fill="#d6dfff"/><path d="m696.341 220.06c1.721-2.293 3.599-4.463 5.62-6.496 0 0-1.168 7.299-1.971 13.284-1.605 1.533-3.211 2.847-4.525 3.942.014-3.594.307-7.182.876-10.73z" fill="#a8c3ff"/><path d="m844 350.201c-8.54 10.584-13.503 15.912-16.277 20.292-2.773 4.379-1.971 3.795 12.19 2.335l4.087-.438z" fill="#1a3e9c"/><path d="m814.368 56h-147.369c-16.499 0-29.999 13.479-29.999 29.9533v341.0937c0 16.474 13.5 29.953 29.999 29.953h146.994c16.5 0 29.999-13.479 29.999-29.953v-341.0937c.375-16.4743-13.124-29.9533-29.624-29.9533zm18.75 371.047c0 10.483-8.25 18.721-18.75 18.721h-147.369c-10.5 0-18.749-8.238-18.749-18.721v-341.0937c0-10.4836 8.249-18.7208 18.749-18.7208h7.875 2.25c5.624 0 10.124 4.493 10.124 10.1092 0 5.6163 4.5 10.4837 10.5 10.4837h85.497c5.624 0 10.124-4.493 10.124-10.1092 0-5.6163 4.5-10.1093 10.125-10.1093h1.5 8.624c10.5 0 18.75 8.2372 18.75 18.7208v340.7193z" fill="#23272a"/></g><circle cx="712" cy="414" fill="#dbe7ff" r="24"/><path d="m721.526 410.149c-.295-.183-.664-.198-.973-.044l-2.553 1.277v-2.382c0-1.103-.897-2-2-2h-12c-1.103 0-2 .897-2 2v10c0 1.104.897 2 2 2h12c1.103 0 2-.896 2-2v-2.382l2.553 1.276c.141.071.294.106.447.106.183 0 .365-.051.526-.149.294-.183.474-.504.474-.851v-6c0-.347-.18-.668-.474-.851z" fill="#1c1b29"/><circle cx="769" cy="414" fill="#e7366b" r="24"/><path clip-rule="evenodd" d="m778.117 403.116 1.767 1.768-3.116 3.116 3.116 3.116-1.767 1.768-3.117-3.116-3.116 3.116-1.767-1.768 3.116-3.116-3.116-3.116 1.767-1.768 3.116 3.116zm-3.117 20.884h-5c-6.075 0-11-4.925-11-11v-5c0-.553.448-1 1-1h4c.553 0 1 .447 1 1v4c0 .553-.447 1-1 1h-1c.063 3.938 3 7 7 7v-1c0-.553.447-1 1-1h4c.553 0 1 .447 1 1v4c0 .553-.447 1-1 1z" fill="#fff" fill-rule="evenodd"/><rect fill="#292841" height="394" rx="8" width="639" x="27" y="79"/><g mask="url(#d)"><path d="m649.961 272h-162.904v95.943h162.904z" fill="#f7e5bc"/><path d="m649.961 359.968v-34.361c-7.274-2.69-24.435 1.856-32.353 12.805-9.32-9.471-27.277-10.077-43.795 0-4.433-11.1-21.026-19.17-42.696-11.328-1.629-13.108-25.648-24.549-44.06-9.206v50.084h154.911c2.117-.01 4.144-.855 5.641-2.352s2.342-3.525 2.352-5.642z" fill="#6adbc6"/><path d="m587.11 335.95c17.958.113 33.301 8.675 40.689 32.05h-53.986z" fill="#44c9c5"/><path d="m605.636 367.962h44.325v-20.609c-10.759 1.098-30.27 5.228-44.325 20.609z" fill="#44c9c5"/><path d="m616.774 358.226h-96.757c-6.1 5.796-6.403 9.736-6.403 9.736h110.396s-2.993-6.44-7.236-9.736z" fill="#fafafa"/><path d="m619.047 362.469c.32-.266.533-.638.603-1.048.069-.41-.01-.831-.224-1.187-1.402-2.311-1.856-4.13-5.039-5.797-3.182-1.667-5.265-3.675-14.964-4.925-1.97-5.076-1.553-6.63-16.215-7.766h-40.536c-6.668 1.061-7.123 1.061-8.297 5.001-1.175 3.94-1.137 3.447-4.622 4.849s-8.903 1.667-10.987 6.289c-.682 1.515-.947 2.614 3.031 10.077h89.332c2.798-1.592 5.447-3.431 7.918-5.493z" fill="#cc4f79"/><path d="m587.11 343.375c7.009 1.212 6.744 1.212 2.008 6.781-4.735 5.569-10.759 10.722-17.54 13.487-10.608 4.319-19.7.265-25.232-6.175-8.031-9.358-11.479-14.093-4.697-14.093z" fill="#590942"/><path d="m608.061 290.677-3.145-1.402c-.02 0-.039-.008-.053-.022s-.022-.033-.022-.053c0-.021.008-.04.022-.054s.033-.022.053-.022l3.145-1.402c.01 0 .019-.004.027-.011.007-.007.011-.017.011-.027l1.401-3.144c0-.038.076-.038.114 0l1.402 3.144c0 .038 0 .038.038.038l3.144 1.402c.019.021.029.048.029.076s-.01.055-.029.075l-3.144 1.402h-.038l-1.402 3.145c-.038.075-.114.075-.114 0l-1.401-3.145z" fill="#fafafa"/><path d="m519.789 295.11-2.046-.91c-.037 0-.037-.075 0-.075l2.046-.91c0-.01.004-.019.011-.026s.017-.011.027-.011l.909-2.046c0-.038.076-.038.076 0l.909 2.046h.038l2.046.947c.038 0 .038.075 0 .075l-2.046.91c0 .01-.004.019-.011.026-.007.008-.017.012-.027.012l-.909 2.045h-.076l-.909-2.045c-.038 0-.038 0-.038-.038z" fill="#f7d78d"/><path d="m547.256 312.612c-2.728-7.577-7.501-13.108-9.775-14.131-2.273-1.022-1.704.266.417 6.668 2.122 6.403 2.16 16.897 6.1 16.972 3.94.076 3.258-9.509 3.258-9.509z" fill="#2e64e8"/><path d="m542.255 314.62c-1.629-3.258-1.743-4.849-2.387-7.311-.341-1.326-.833-3.183-1.25-4.66 1.97 3.523 5.417 11.365 6.137 13.866.72 2.5-.871 1.325-2.5-1.895z" fill="#1c4bba"/><path d="m583.208 313.105c3.865-8.07 10.04-13.79 12.881-14.737s2.084.379-.947 7.198-3.788 18.298-8.6 18.109c-4.811-.19-3.334-10.57-3.334-10.57z" fill="#2e64e8"/><path d="m568.812 291.473c4.415 0 7.994-3.579 7.994-7.994s-3.579-7.994-7.994-7.994-7.994 3.579-7.994 7.994 3.579 7.994 7.994 7.994z" fill="#201e2f"/><path d="m576.432 285.568c.27-2.053-3.059-4.185-7.436-4.762-4.377-.576-8.145.622-8.415 2.676-.27 2.053 3.059 4.185 7.436 4.761 4.377.577 8.144-.621 8.415-2.675z" fill="#41314a"/><path d="m582.185 289.882c-8.258-7.729-21.821-8.714-31.141-2.008-9.32 6.705-7.387 17.162-5.872 28.641l39.438 1.136c1.629-6.251 5.796-20.003-2.425-27.769z" fill="#4d7ae8"/><path d="m585.519 314.242-39.854-1.175c-7.312 16.063-14.586 45.954 18.26 46.901 31.331.91 28.906-27.618 21.594-45.726z" fill="#4d7ae8"/><path d="m585.519 314.241c1.705-7.008 3.599-17.805-3.334-24.359l-.757-.644h-2.084s.871 13.524.152 18.904c-.72 5.38-.455 5.948 1.174 6.668s3.144 1.591 2.841 8.486-.719 7.804.796 15.987-.53 13.412-4.811 17.73c14.509-7.69 11.782-28.451 6.023-42.772z" fill="#2e64e8"/><path d="m554.719 345.193c4.319 5.797 15.987 7.274 20.723.228 2.387-3.524-3.902-3.713-10.267-3.675-6.364.038-12.767.303-10.456 3.447z" fill="#3366e0"/><path d="m571.186 315.117c.101-3.409-2.445-6.25-5.686-6.346-3.242-.096-5.952 2.589-6.053 5.998s2.445 6.251 5.686 6.347c3.242.096 5.952-2.59 6.053-5.999z" fill="#dbe7ff"/><path d="m567.48 315.89c.062-1.316-.904-2.432-2.158-2.491s-2.321.961-2.383 2.277c-.062 1.317.904 2.432 2.158 2.491 1.254.06 2.321-.96 2.383-2.277z" fill="#201e2f"/><path d="m558.924 304.202c2.463-5.152 11.555-4.622 13.639.417z" fill="#201e2f"/><path d="m556.651 325.758 1.099.379 1.098.265 1.099.266 1.099.151c2.985.358 6.012-.006 8.827-1.061l1.061-.416 1.023-.493 1.022-.53 1.023-.606h.114c.325-.18.683-.292 1.052-.332s.743-.006 1.099.1.687.281.975.516.526.524.7.852c.231.434.346.921.332 1.412-.013.491-.153.971-.407 1.392-1.216 1.968-2.911 3.597-4.925 4.735-2.014 1.155-4.239 1.89-6.544 2.164-2.304.273-4.64.079-6.868-.573-2.216-.671-4.224-1.896-5.834-3.561-.522-.543-.807-1.27-.793-2.023s.327-1.47.869-1.993c.362-.33.803-.563 1.28-.676s.976-.101 1.448.032z" fill="#400015"/><path d="m555.439 331.896c1.249.89 2.63 1.58 4.091 2.046 2.228.651 4.564.846 6.868.572 2.305-.273 4.53-1.009 6.544-2.163 1.433-.825 2.714-1.888 3.788-3.145-1.658-1.632-3.596-2.954-5.721-3.902h-.075l-1.061.417c-2.815 1.054-5.842 1.418-8.827 1.06l-1.099-.151h-.114c-1.862 1.381-3.369 3.186-4.394 5.266z" fill="#590942"/><path d="m575.897 327.236.113-3.826c-.642-.158-1.32-.063-1.894.265h-.114l-1.023.606-1.022.53-1.023.493-1.061.417c-2.815 1.054-5.842 1.418-8.827 1.06l-1.099-.151-1.099-.265-1.098-.265-1.099-.379h-.151c-.37-.101-.757-.127-1.137-.076l-.076 1.97c7.539 3.675 16.063 1.591 20.61-.379z" fill="#dbe7ff"/><path d="m558.091 326.213-.341-.076-1.099-.379h-.151c-.37-.1-.757-.126-1.137-.075l-.076 1.97c.776.364 1.573.681 2.387.947z" fill="#b5cdff"/><path d="m571.691 328.676c1.441-.358 2.848-.84 4.206-1.44l.113-3.826c-.642-.158-1.32-.063-1.894.265h-.114l-1.023.606-1.022.53-.379.19z" fill="#b5cdff"/><path d="m574.608 320.265 5.835 2.917c.075-3.523-2.842-3.94-5.835-2.917z" fill="#3366e0"/><path d="m549.15 328.031 5.38-5.303c-4.092-.114-5.721 2.614-5.38 5.303z" fill="#3366e0"/><path d="m552.37 333.449c1.819 2.576 3.675 4.963 3.675 4.963-3.713-.303-3.675-4.963-3.675-4.963z" fill="#3366e0"/><path d="m582.185 289.882c-8.258-7.729-21.821-8.714-31.141-2.008-4.281 3.068-6.137 7.16-6.743 11.858 5.114 3.94 5.682-2.917 7.842-10.04 7.653 6.213 19.245 6.289 26.671.758l.303 6.024c.341 5.834 4.281 6.516 7.804 3.409-.455-3.675-1.781-7.236-4.736-10.001z" fill="#201e2f"/><path d="m556.544 299.185c.968-.985 1.341-2.187.834-2.686s-1.703-.104-2.671.881-1.341 2.187-.834 2.686 1.703.104 2.671-.881z" fill="#618aed"/><path d="m593.74 302.232c-2.055 2.955-3.891 6.058-5.493 9.282-.947 1.97.038 2.235.341 4.622.303 2.386 1.061 1.25 2.046-2.804.985-4.053 1.515-5.493 2.5-7.69.985-2.198 2.652-6.365.606-3.41z" fill="#1c4bba"/><path d="m598.741 351.406c-1.856 4.963-6.781 16.556-6.781 16.556h-14.434c7.652-5.342 13.449-11.365 16.063-15.987s3.144-7.388 5.114-2.236c.22.532.233 1.126.038 1.667z" fill="#ba3b66"/><path d="m596.051 367.962c6.933-8.221 9.206-11.024 11.063-12.085 1.856-1.061 4.963-2.69 1.629 2.387-3.334 5.076-8.941 9.698-8.941 9.698z" fill="#ba3b66"/><path d="m548.203 367.962c-5.38-6.516-9.093-12.881-10.494-16.404-1.402-3.523-1.819-4.395-2.16-2.425s-1.098 2.88-.416 5.607c.682 2.728 2.917 10.115 4.318 13.222z" fill="#ba3b66"/><path d="m526.04 367.962h-2.121c-2.425-6.137-3.41-8.903-3.524-10.949-.113-2.045 2.349 4.736 5.645 10.949z" fill="#ba3b66"/><path d="m534.867 368h-4.47c-1.174-8.903-1.174-10.646-.909-13.146s1.515-.341 2.424 4.129c.688 3.095 1.678 6.115 2.955 9.017z" fill="#ba3b66"/><path d="m516.91 350.573c3.978-6.44 8.259-9.585 13.449-12.426 5.19-2.842 5.872-4.471 2.046-5.759s-7.122-.795-11.706 1.099c-4.585 1.894-7.843 2.993-9.244 8.372-1.402 5.38.568 8.638 5.455 8.714z" fill="#542113"/><path d="m518.236 343.83c2.462-10.343 4.129-18.185 5.721-25.232 1.591-7.046 3.371-11.138.644-12.388-2.728-1.25-4.206-.796-7.805 7.236-3.599 8.031-5.19 13.828-6.364 17.995-1.175 4.168-5.115 15.495 7.804 12.389z" fill="#542113"/><path d="m513.084 327.615-2.387-.341c1.288-13.714 1.97-19.549 2.273-23.489s-1.326-4.015-3.826-4.129c-2.501-.114-3.41.909-4.509 6.062-1.098 5.152-2.424 14.093-2.917 17.616-.492 3.523-1.326 11.631-1.25 14.207s12.616 3.75 12.616-9.926z" fill="#542113"/><path d="m501.491 331.062c.379-5.341-.417-19.586-.493-22.238-.075-2.652-1.022-2.349-3.296-2.425-2.273-.075-3.22.948-3.523 7.198-.303 6.251-.795 13.033-.72 16.177-1.635 4.428-2.257 9.166-1.818 13.866.454 4.963 1.099 6.289 2.008 7.842.909 1.554 6.327 3.296 13.259 3.978 6.933.682 7.577-.303 10.002-4.887s-2.122-16.934-2.122-16.934z" fill="#542113"/><path d="m492.095 347.201c-1.022 2.387-3.03 8.032-5 13.639.223 1.956 1.156 3.762 2.623 5.075 1.466 1.313 3.364 2.041 5.332 2.047h19.435c-.038-.644-.568-9.736 1.251-15.267 0 0-21.33-10.798-23.641-5.494z" fill="#542113"/><g fill="#4a1a0d"><path d="m515.736 336.518c-4.471 2.841-5.721 4.205-6.82 6.175-1.098 1.97-2.159 2.159-6.213 2.235-4.053.076-4.129.152-5.266-4.66-1.136-4.811.569-6.857 4.963-6.667 5.834.227 16.025 1.401 13.336 2.917z"/><path d="m495.316 328.221h15.002c-4.66-2.122-11.176-1.856-15.002 0z"/><path d="m513.008 328.903c2.235.796 6.592 2.652 6.592 2.652-3.182-4.698-6.592-2.652-6.592-2.652z"/><path d="m515.433 318.825c2.31.455 6.932 1.592 6.932 1.592-3.902-4.13-6.932-1.592-6.932-1.592z"/><path d="m504.143 315.567c2.159.19 6.516.72 6.516.72-4.205-3.561-6.516-.72-6.516-.72z"/><path d="m494.975 318.901c1.78-.265 5.455-.568 5.455-.568-4.091-2.235-5.455.568-5.455.568z"/></g><path d="m534.451 333.449c-3.486 2.652-8.676 3.182-13.639 5.721-4.963 2.538-5.834 5.228-7.198 8.94-.866 2.456-1.588 4.961-2.159 7.502 2.879-.303 3.712-1.743 5.455-5.039 3.978-6.44 8.259-9.585 13.449-12.426 3.902-2.084 5.266-3.523 4.092-4.698z" fill="#732d1a"/><path d="m515.736 352.695 1.174-2.122c.227-.417.493-.758.72-1.137-2.463 3.296-8.903 3.978-14.434 4.357s-10.078-1.401-11.101-6.592c-.644 1.516-2.955 7.388-5.038 12.843v7.918h27.428c-.037-.644-.568-9.736 1.251-15.267z" fill="#4a1a0d"/><path d="m524.639 306.21c.36 1.324.386 2.717.075 4.054-.72 3.447-2.349 10.153-5.796 23.943l1.705-.644c1.288-5.607 2.349-10.456 3.334-14.965 1.591-6.971 3.371-11.1.682-12.388z" fill="#732d1a"/><path d="m512.97 303.785c-.303 3.902-1.023 9.964-2.273 23.489l-1.023-.227 1.667-27.126c1.174.341 1.818 1.25 1.629 3.864z" fill="#732d1a"/><path d="m628.291 343.375 12.01-8.714c-3.789-.416-11.252 0-12.01 8.714z" fill="#44c9c5"/></g><g mask="url(#e)"><path d="m649.993 162h-162.993v95.981h162.993z" fill="#5e87f9"/><path d="m487 209.981c15.124-4.131 33.016 1.327 38.436 13.53 16.261-5.192 35.062 4.435 43.932 15.767h-82.368z" fill="#6e94ff"/><path d="m649.993 192.471c-9.894-1.667-21.568.531-25.131 5.458-10.614-2.084-22.895 1.819-28.695 6.367h53.826z" fill="#7a9dff"/><path d="m611.216 244.773c-3.033-6.481-2.957-6.746-8.339-8.679l7.164 10.271z" fill="#ff707e"/><path d="m528.051 187.62.342.303.72.683.265.227.569.493c12.66 10.877 28.884 15.463 39.876 18.76 14.177 4.245 25.965 5.495 34.797 5.533 11.485-.113 13.798-6.101 8.946-13.227l-2.729-3.373-14.025-17.055-.683-.833c-9.249-10.953-17.55-15.88-35.024-12.09l-26.572 5.76h-.076c-9.286 2.047-13.645 7.694-6.406 14.819z" fill="url(#a)"/><path d="m558.641 169.163c-10.613 2.615-28.808 7.921-28.808 7.921l-4.397.606c1.554-2.236 4.776-3.941 9.021-4.889h.076l26.572-5.76c8.263-1.782 14.442-1.592 19.673.189-8.074-1.933-12.774-.379-22.137 1.933z" fill="#fffdc4"/><path d="m569.027 209.488c-9.325-2.804-29.263-10.725-36.995-18.457 1.819 1.819.037-1.44 3.525.265 18.346 8.945 60.004 21.035 69.063 22.323-8.87.531-26.079-1.288-35.593-4.131z" fill="#fffdc4"/><path d="m525.929 177.084c8.187-2.463 26.647-.227 47.116 6.178 21.341 6.67 38.284 15.88 42.833 22.664.531 4.434-2.957 7.618-11.258 7.693-8.301.076-20.62-1.288-34.797-5.533-10.992-3.297-27.216-7.883-39.876-18.76l-.569-.493-.265-.227-.72-.683-.342-.303c-4.207-4.169-4.472-7.807-2.122-10.536z" fill="url(#b)"/><path d="m604.802 208.079c1.195-3.815-13.948-11.956-33.825-18.184s-36.959-8.185-38.155-4.37 13.948 11.957 33.825 18.185c19.876 6.228 36.959 8.184 38.155 4.369z" fill="#6b3143"/><path d="m532.979 186.9c-.225-.431-.292-.927-.189-1.402.085-.214.214-.407.379-.569l20.506 8.793-15.389-10.119c.669-.038 1.34-.038 2.009 0l14.252 9.513c.843-.117 1.697-.117 2.54 0l-7.809-8.566 2.957.531 5.989 8.186c1.213.152 2.616.417 4.17.758l-4.473-7.731 2.653.644 2.957 7.353 2.805.758-2.047-7.126c1.061.253 2.123.556 3.184.91l.985 6.746h-.227l.758.266 2.161-5.913 2.388.796-3.753 5.344 1.895.644 5.383-4.813 2.843 1.023-6.634 4.359 1.972.758 8.225-3.752 3.487 1.402-10.196 2.956 2.388 1.099 14.442-.985c1.213.606 2.388 1.213 3.449 1.819h-16.299l1.137.72 19.824 2.312c.854.612 1.63 1.325 2.313 2.122l-21.189-3.562c.065.07.113.155.139.247.027.092.031.189.012.283-.032.083-.083.157-.149.216s-.144.102-.23.125l21.947 5.458c-.341.455-1.023.834-2.009 1.099l-22.023-6.367c-1.184-.065-2.362-.217-3.525-.455l17.512 7.012c-.833-.038-1.743-.152-2.691-.266l-17.095-7.201-.607-.113 10.993 6.215c-1.668-.341-3.412-.682-5.231-1.137l-7.922-5.609-4.284-1.251c-1.819-.568-3.525-1.174-5.079-1.743l-6.747 1.251c-2.274-.834-4.397-1.706-6.368-2.577l10.31.189h-.038l-15.806-2.729c-1.782-.909-3.412-1.781-4.814-2.615l17.474 3.866-1.137-.644z" fill="#7a384c"/><path d="m624.596 258h-91.882c1.63-1.668 3.601-2.691 6.747-4.131l7.088-.986 2.616-.341 5.686-.796 4.321-.568 2.577-.341 1.1-.152 10.651-1.44 2.464-.341 4.018-.531 1.592-.227 3.108-.417.758-.114 6.899-.947 16.375-2.198.834-.114c.492-.038.986-.038 1.478 0 7.771.19 10.462 3.638 13.57 13.644z" fill="#2347a1"/><path d="m610.799 254.362-2.881 3.638h-16.792l9.325-9.399 4.093 2.274z" fill="#2a52c2"/><path d="m609.548 244.356-.455.645c-.152.151-.265.379-.455.606l-.493.644c-.871 1.137-2.084 2.729-3.601 4.624l-3.563 4.321-1.175 1.364c-.417.455-.796.947-1.213 1.44h-58.488c-.455-2.539-.644-4.131-.644-4.131-.006-.395.098-.785.298-1.125.201-.341.491-.621.839-.808l5.307-3.07h.038v-.379c0-.151-.038-.265-.038-.379 0-.113-.076-1.212-.076-1.667v-.493c-.028-.226-.04-.454-.038-.682-.019-.049-.032-.1-.038-.152l-.189-3.183c-.037-.632.082-1.263.347-1.838.264-.575.666-1.076 1.169-1.46l7.012-5.533.607-.493 1.971-1.516 4.89-3.828 2.767-.379h.038l3.677-.568h.037l5.004-.72 1.44-.228 3.715-.568 1.782-.265h.303l.985.151 1.289.19 2.616.417c1.141.182 2.232.603 3.198 1.237.967.634 1.789 1.465 2.412 2.439l2.88 4.434.228.076 1.781.531 5.952 1.781 1.213.341.796.303h.075c1.594.704 2.885 1.954 3.639 3.525z" fill="#ef6270"/><path d="m595.712 233.972c-1.402-3.525-2.16-7.694-11.03-9.475l-6.558-.986.531 5.344 12.395 8.187z" fill="#ff707e"/><path d="m609.548 244.356-.455.644c-.152.152-.265.379-.455.607l-.493.644c-.872 1.137-2.084 2.729-3.601 4.624l-3.563 4.32-1.175 1.365-1.251 1.44h-27.405c.644-2.274 1.592-5.685 2.047-7.618.073-.386.175-.766.303-1.137.644-2.388 1.175-3.866-2.805-4.472l.417-2.085 1.819-9.209.455-2.464.379-1.781.607-3.032.151-.796 3.715-.568 1.782-.266h.303l.985.152 1.289.189 2.616.417c1.141.182 2.231.604 3.198 1.238.967.633 1.789 1.465 2.412 2.439l2.88 4.434.228.076 1.781.53 5.952 1.782 1.212.341.796.303h.076c1.594.704 2.885 1.954 3.639 3.525z" fill="#e05164"/><path d="m584.303 234.502c4.473-3.373 4.169-3.108 1.668-4.737-1.505-.983-3.246-1.546-5.042-1.63z" fill="#bd3c53"/><path d="m585.44 247.616-7.316 10.384h-5.496c2.995-3.259 6.141-6.708 8.946-9.854 3.98-4.548 7.278-8.527 8.528-10.46l-.379 2.463-.265 1.744z" fill="#e05164"/><path d="m594.841 254.021c-1.515 1.417-3.109 2.745-4.776 3.979h-6.861c3.222-1.364 7.467-3.335 10.234-5.079 4.17-2.615 3.639-.985 1.403 1.1z" fill="#e05164"/><path d="m552.766 235.563c-4.966 4.321-7.43 3.146 4.283 19.215l2.805-1.857 8.188-9.171-10.387-13.076z" fill="#c74153"/><path d="m554.282 192.471c.303-.985 7.012.152 15.048 2.54 8.036 2.387 14.253 5.116 13.987 6.101-1.667 13.341-1.402 25.166.986 33.39l-24.449 18.419c-10.234-24.634-7.126-46.465-5.572-60.45z" fill="#ffb685"/><path d="m565.047 226.354 9.476-.152 1.024 5.534c-3.715 3.714-9.135 2.236-11.902-.228-3.639 3.184-7.202 3.146-9.704.341l-.076-.075c-.227-1.516-.455-3.032-.607-4.548 3.867-1.137 11.789-.872 11.789-.872z" fill="#fe9b77"/><path d="m574.523 241.21c-2.35-16.031-1.819-35.322-1.516-45.024 6.141 2.046 10.538 4.093 10.31 4.927-1.667 13.34-1.402 25.165.986 33.389z" fill="#fe9b77"/><path d="m554.282 192.471c.303-.985 7.012.152 15.048 2.54 8.036 2.387 14.253 5.116 13.987 6.101-.227 1.706-.417 3.374-.568 5.041-8.718-1.061-20.81.303-29.983 3.108.303-6.367.985-12.052 1.516-16.79z" fill="#a8387e" opacity=".4"/><path d="m563.228 172.233-4.549.872 1.327 2.122z" fill="#ffcd8f"/><path d="m571.011 219.074c.541-.969.417-2.068-.278-2.456-.694-.389-1.696.082-2.237 1.05-.541.969-.417 2.068.277 2.456.695.388 1.696-.082 2.238-1.05z" fill="#543247"/><path d="m575.547 167.761s-2.35-.19-3.374.606c1.175 1.364 3.374-.606 3.374-.606z" fill="#ffd08f"/><path d="m568.042 167.723c-5.004-1.175-5.421 1.44-5.421 1.44z" fill="#fffdc4"/><path d="m604.848 198.649c-.266 1.819-4.322 2.994-4.322 2.994l1.668 1.289c4.208-.114 5.307-2.236 5.307-2.236-.776-.813-1.671-1.503-2.653-2.047z" fill="#d4655b"/><path d="m615.613 206.532c-.683 2.009-9.363.796-9.363.796l-.265 1.023c6.406 1.137 9.173.569 9.173.569s.379-.607.455-2.388z" fill="#d4655b"/><path d="m583.659 187.923c-.493 2.35-3.374 3.942-3.374 3.942l-4.7-1.44c1.326-1.895 1.895-4.51 1.895-4.51s3.222.871 6.179 2.008z" fill="#dc7363"/><path d="m552.614 257.924-.114.076h-4.776c-.379-1.478-.796-3.335-1.175-5.116-.379-1.782-.568-3.07-.644-4.056v-.379c0-.151-.038-.265-.038-.379 0-.113-.076-1.213-.076-1.667v-.493c-.028-.226-.04-.454-.038-.682-.019-.049-.032-.1-.038-.152.93 2.591 2.097 5.091 3.488 7.466 1.251 2.161 2.501 4.056 3.411 5.382z" fill="#d14658"/><path d="m601.664 235.753c-2.898 3.813-6.011 7.458-9.325 10.915-3.942 4.207-8.112 8.3-11.41 11.332h-3.866c2.085-2.691 4.814-6.329 7.619-10.271 1.706-2.463 3.449-5.04 5.041-7.58.796-1.25 1.555-2.501 2.275-3.714.606-1.023 1.175-2.009 1.705-2.994h.228l1.781.531z" fill="#cc4355"/><path d="m588.965 233.403-12.091 11.673-2.351 10.195 13.267-16.789z" fill="#e65568"/><path d="m559.134 251.064 24.904-17.434.454-.341c.721-.644 1.289-.644-.189 1.213l-24.449 18.419z" fill="#bd3c53"/><path d="m620.275 180.495-3.146-1.402c-.038 0-.038-.114 0-.114l3.146-1.402h.038l1.402-3.146c0-.038.114-.038.114 0l1.403 3.146h.038l3.146 1.402c.038 0 .038.114 0 .114l-3.146 1.402h-.038l-1.403 3.146h-.114l-1.402-3.146z" fill="#ff99b9"/><path d="m512.283 229.613-3.146-1.402c-.02 0-.04-.008-.054-.022-.014-.015-.022-.034-.022-.054s.008-.039.022-.054c.014-.014.034-.022.054-.022l3.146-1.402h.038l1.402-3.108c0-.076.076-.076.114 0l1.402 3.108h.038l3.147 1.402c.018.021.028.048.028.076s-.01.055-.028.076l-3.147 1.402h-.038l-1.402 3.108c-.038.076-.114.076-.114 0l-1.402-3.108z" fill="#5580f9"/><path d="m604.544 189.401c-5.041-4.585-9.248-6.48-9.248-6.48 4.7.947 8.073 2.501 9.248 6.48z" fill="#eb9363"/><path d="m553.372 169.163-7.998 1.744c.948-1.82 2.009-2.161 7.998-1.744z" fill="#fffdc4"/><path d="m567.852 230.788c-3.298 0-6.444-.076-7.429.758-.986.834.568 2.767 2.994 4.586 1.061.796 1.554.871 4.094-1.365 1.857-1.591 2.881-4.017.341-3.979z" fill="#c74153"/><path d="m566.487 230.94 2.768.454c.379.796-.455 2.274-1.744 3.374-2.54 2.236-3.033 2.16-4.094 1.364l-1.099-.91c.417-.985 1.743-3.486 4.169-4.282z" fill="#a82c3c"/><path d="m561.56 231.091c1.44-.341 3.828-.303 6.292-.303 1.403-.038 1.706.72 1.403 1.63l-7.506.151c-.417 0-.341-.833-.189-1.478z" fill="#fff"/><path d="m550.605 226.43c-.758-1.327-.341-3.449 1.289-4.548-.093.248-.131.513-.11.778.02.264.098.521.228.752s.309.431.524.585c.215.155.462.261.722.31.91.152 2.578-.189 3.298-.455 2.009-.758 4.283-.795 7.013.607 3.714-2.009 6.216-.265 9.59-.265.923.009 1.843-.119 2.729-.379 2.843-.834 2.805-2.199 2.161-3.639 4.055.948 3.866 5.268 2.084 7.163-1.061 1.327-3.032 1.933-5.648 1.289-4.093 3.487-6.102 3.714-10.916.644-3.905 3.259-7.657 2.918-9.894-1.175 0 0-2.274-.189-3.07-1.667z" fill="#6b3143"/><path d="m563.569 229.272c-3.905 3.259-7.657 2.918-9.894-1.175 0 0-3.525-.303-3.449-2.994.455 1.061 2.312 2.085 4.056 1.706 2.805 2.274 5.799 1.591 8.604-.569 0 0 5.952 3.184 10.159-.303 4.814 1.175 8.226-1.023 7.657-4.055 1.137 1.705.644 4.169-.569 5.457-1.061 1.327-3.032 1.933-5.648 1.289-4.093 3.487-6.102 3.714-10.916.644z" fill="#5e2737"/><path d="m559.766 220.113c.693-.296.922-1.316.512-2.279-.411-.962-1.306-1.503-1.999-1.208-.693.296-.922 1.316-.512 2.279.411.962 1.306 1.503 1.999 1.208z" fill="#543247"/></g><path d="m73.564 102.624c0-.738-.576-1.26-1.278-1.26-.72 0-1.296.522-1.296 1.26 0 .72.576 1.224 1.296 1.224.702 0 1.278-.504 1.278-1.224zm-.216 12.042v-9.36h-2.16v9.18c0 .756-.36 1.026-.954 1.026-.252 0-.504-.018-.702-.072l.288 1.764c.144.054.522.072.846.072 1.602 0 2.682-.738 2.682-2.61zm2.2667-9.36v6.246c0 1.638.846 2.628 2.484 2.628 1.152 0 2.088-.63 2.898-1.404l.198 1.224h1.836v-8.694h-2.16v5.868c-.63.648-1.314 1.08-1.98 1.08-.792 0-1.116-.504-1.116-1.26v-5.688zm16.0601 6.138c0-1.638-.882-2.25-3.132-2.826-1.296-.342-1.62-.612-1.62-1.08s.396-.792 1.206-.792c.864 0 1.89.306 2.754.792l.288-1.8c-.864-.378-1.908-.612-3.042-.612-2.016 0-3.204 1.062-3.204 2.574 0 1.584.882 2.196 2.988 2.736 1.386.342 1.764.594 1.764 1.206 0 .576-.504.918-1.44.918-1.08 0-2.232-.414-3.168-1.026l-.288 1.8c.828.45 2.124.846 3.384.846 2.286 0 3.51-1.026 3.51-2.736zm6.3571 2.556-.27-1.818c-.198.054-.432.072-.684.072-.828 0-1.134-.378-1.134-1.08v-4.104h2.034l-.27-1.764h-1.764v-3.078l-2.142.324v2.754h-1.224v1.764h1.224v4.464c0 1.98 1.152 2.61 2.862 2.61.63 0 1.026-.072 1.368-.144zm5.8121-4.14v-2.088h-4.6796v2.088zm8.488 3.474-.288-1.854c-.792.612-1.53.828-2.286.828-1.26 0-2.25-.864-2.25-2.664 0-1.728.9-2.646 2.178-2.646.864 0 1.548.288 2.25.81l.306-1.944c-.63-.396-1.53-.738-2.664-.738-2.358 0-4.248 1.548-4.248 4.572 0 2.844 1.71 4.464 4.122 4.464 1.152 0 2.052-.27 2.88-.828zm9.143.666v-6.264c0-1.62-.864-2.61-2.484-2.61-1.152 0-2.052.612-2.772 1.278v-5.4l-2.16.342v12.654h2.16v-5.868c.63-.666 1.314-1.098 1.98-1.098.792 0 1.116.522 1.116 1.278v5.688zm4.63-11.376c0-.738-.576-1.26-1.278-1.26-.72 0-1.296.522-1.296 1.26 0 .72.576 1.224 1.296 1.224.702 0 1.278-.504 1.278-1.224zm-.216 11.376v-8.694h-2.16v8.694zm4.535 0v-12.996l-2.16.342v12.654zm4.535 0v-12.996l-2.16.342v12.654zm4.751-11.376c0-.738-.576-1.26-1.278-1.26-.72 0-1.296.522-1.296 1.26 0 .72.576 1.224 1.296 1.224.702 0 1.278-.504 1.278-1.224zm-.216 11.376v-8.694h-2.16v8.694zm9.702 0v-6.264c0-1.62-.864-2.61-2.484-2.61-1.17 0-2.088.63-2.898 1.404l-.198-1.224h-1.836v8.694h2.16v-5.868c.63-.666 1.314-1.098 1.98-1.098.792 0 1.116.522 1.116 1.278v5.688z" fill="#fff"/><path clip-rule="evenodd" d="m53.4344 100.694c-.3428-.135-.737-.06-.9992.19l-3.9352 4.118h-2.75c-.5042 0-.9167.394-.9167.875v5.25c0 .481.4125.875.9167.875h2.75l3.9352 4.119c.2622.251.6564.326.9992.19.3428-.135.5656-.455.5656-.809v-14c0-.353-.2228-.674-.5656-.808zm2.3989 1.683v1.75c2.5273 0 4.5834 1.963 4.5834 4.375s-2.0561 4.375-4.5834 4.375v1.75c3.5384 0 6.4167-2.747 6.4167-6.125 0-3.377-2.8783-6.125-6.4167-6.125zm0 3.5c1.5162 0 2.75 1.178 2.75 2.625 0 1.448-1.2338 2.625-2.75 2.625v-1.75c.5051 0 .9167-.393.9167-.875s-.4116-.875-.9167-.875z" fill="#b9bbbe" fill-rule="evenodd"/><circle cx="261" cy="435" fill="#dbe7ff" r="24"/><path d="m270.526 431.149c-.295-.183-.664-.198-.973-.044l-2.553 1.277v-2.382c0-1.103-.897-2-2-2h-12c-1.103 0-2 .897-2 2v10c0 1.104.897 2 2 2h12c1.103 0 2-.896 2-2v-2.382l2.553 1.276c.141.071.294.106.447.106.183 0 .365-.051.526-.149.294-.183.474-.504.474-.851v-6c0-.347-.18-.668-.474-.851z" fill="#1c1b29"/><circle cx="318" cy="435" fill="#dbe7ff" r="24"/><path clip-rule="evenodd" d="m308 428.5c0-1.103.897-2 2-2h16c1.103 0 2 .897 2 2v11c0 1.104-.897 2-2 2h-7v2h4v2h-10v-2h4v-2h-7c-1.103 0-2-.896-2-2zm11.2 9.838v-2.738c-3.336 0-5.532 1.062-7.2 3.4.672-3.338 2.532-6.663 7.2-7.338v-2.662l4.8 4.663z" fill="#1c1b29" fill-rule="evenodd"/><circle cx="375" cy="435" fill="#dbe7ff" r="24"/><g fill="#1c1b29"><path d="m369.7 434h-1.7c0 1.19.34 2.3.9 3.28l1.23-1.23c-.27-.62-.43-1.31-.43-2.05z"/><path d="m372.01 434.085c.005.027.01.055.01.085l5.98-5.99v-.18c0-1.66-1.34-3-3-3s-3 1.34-3 3v6c0 .03.005.058.01.085z"/><path d="m374.724 439.093-.761.76-.71.716c.245.064.494.115.747.151v4.28h2v-4.28c3.28-.49 6-3.31 6-6.72h-1.7c0 3-2.54 5.1-5.3 5.1-.092 0-.185-.002-.276-.007z"/><path d="m384 427.27-1.27-1.27-16.73 16.73 1.27 1.27 4.19-4.18 1.23-1.24 1.66-1.66 3.64-3.64z"/></g><circle cx="432" cy="435" fill="#e7366b" r="24"/><path clip-rule="evenodd" d="m441.117 424.116 1.767 1.768-3.116 3.116 3.116 3.116-1.767 1.768-3.117-3.116-3.116 3.116-1.767-1.768 3.116-3.116-3.116-3.116 1.767-1.768 3.116 3.116zm-3.117 20.884h-5c-6.075 0-11-4.925-11-11v-5c0-.553.448-1 1-1h4c.553 0 1 .447 1 1v4c0 .553-.447 1-1 1h-1c.063 3.938 3 7 7 7v-1c0-.553.447-1 1-1h4c.553 0 1 .447 1 1v4c0 .553-.447 1-1 1z" fill="#fff" fill-rule="evenodd"/><g mask="url(#f)"><path d="m473 140c0-4.418-3.582-8-8-8h-414c-4.4183 0-8 3.582-8 8v250c0 4.418 3.5817 8 8 8h414c4.418 0 8-3.582 8-8z" fill="#a8bfff"/><path d="m292 318.3c14.8-43.5 56.5-50.4 78.1-39.5-3-23.3 27.2-71.6 84.3-42.1h18.6v153.3h-179z" fill="#c2d2ff"/><path d="m103.8 321.5c-4-11.4-22-39.8-60.8-35v83.6h149.3c-.4-42.2-47.4-65.1-88.5-48.6z" fill="#c2d2ff"/><path d="m43 398h430v-97.5h-74v77.3h-27v-24.3h-61.8l-111.7-51.8h-49.3v-17.2h-24.4v61.3l-12.5-4-17 18.2h-52.3z" fill="#648ae8"/><path d="m95.3 372.3h-52.3v5.49h52.3z" fill="#7b6eb3"/><path d="m114.6 398.1 19.4-19.4h42.1v19.3z" fill="#6273e3"/><path d="m454.4 390h-110.3v8.06h110.3z" fill="#6273e3"/><g fill="#7d2952"><path d="m288.9 192.7c3.203 0 5.8-2.597 5.8-5.8s-2.597-5.8-5.8-5.8-5.8 2.597-5.8 5.8 2.597 5.8 5.8 5.8z"/><path d="m249.3 206.1c3.203 0 5.8-2.597 5.8-5.8s-2.597-5.8-5.8-5.8-5.8 2.597-5.8 5.8 2.597 5.8 5.8 5.8z"/><path d="m198.4 219.7c3.203 0 5.8-2.597 5.8-5.8s-2.597-5.8-5.8-5.8-5.8 2.597-5.8 5.8 2.597 5.8 5.8 5.8z"/><path d="m161.9 226.5c3.203 0 5.8-2.597 5.8-5.8s-2.597-5.8-5.8-5.8-5.8 2.597-5.8 5.8 2.597 5.8 5.8 5.8z"/><path d="m122.2 230.8c3.203 0 5.8-2.597 5.8-5.8s-2.597-5.8-5.8-5.8-5.8 2.597-5.8 5.8 2.597 5.8 5.8 5.8z"/><path d="m84.5 229.8c3.2032 0 5.8-2.597 5.8-5.8s-2.5968-5.8-5.8-5.8c-3.2033 0-5.8 2.597-5.8 5.8s2.5967 5.8 5.8 5.8z"/><path d="m442.9 318c3.203 0 5.8-2.597 5.8-5.8s-2.597-5.8-5.8-5.8-5.8 2.597-5.8 5.8 2.597 5.8 5.8 5.8z"/><path d="m465 132h-422v77.3c84.9 22.6 225.7-11.7 303.5-60.4 26.4 129.1 126.5 169.2 126.5 169.2v-178.1c0-2.122-.843-4.157-2.343-5.657s-3.535-2.343-5.657-2.343z"/></g><path d="m43 132v15.7c99.6 55.7 230.7 25.8 285.7-15.7z" fill="#70254a"/><path d="m473 132h-85.4c3.3 77.2 38.8 137.5 85.4 168.5z" fill="#70254a"/><path d="m334.5 298c-5 11.8-14 34.4-14 34.4l22.9 14.2c9.2-21.5 12.3-32.9 13.8-38.9s2.5-11.8-5.3-16.5-12.1-5.6-17.4 6.8z" fill="#f073ab"/><path d="m354.6 334.1-13.7 31.6c-1.072 2.495-2.633 4.749-4.591 6.63-1.959 1.88-4.275 3.349-6.811 4.319-2.536.969-5.241 1.421-7.955 1.326-2.713-.094-5.38-.732-7.843-1.875l-51.2-23.3 25.5-40.2 31.2 17.4 4.6-13.6c16.1 6.4 24.7 12 30.8 17.7z" fill="#f7e5bc"/><path d="m295.1 318.8c20.6 3.4 22.5 7.7 28 18.5l-22.1-2.5z" fill="#f7e5bc"/><path d="m198.1 147.5c-4.097 1.277-7.555 4.064-9.672 7.797s-2.735 8.131-1.728 12.303l20.5 83.7 36.7-7.6-24.7-84.8c-.618-2.146-1.658-4.147-3.059-5.886-1.4-1.739-3.134-3.181-5.098-4.243-1.965-1.061-4.121-1.72-6.344-1.938-2.222-.219-4.465.008-6.599.667z" fill="#d6569b"/><path d="m218.5 231.7 14.5-.6-15.4-50.4c-.213-.725-.573-1.397-1.058-1.977-.484-.579-1.083-1.052-1.759-1.39-.675-.338-1.413-.533-2.167-.573s-1.508.076-2.216.34c-1.241.474-2.264 1.389-2.872 2.57-.609 1.18-.761 2.544-.428 3.83z" fill="#e374b0"/><path d="m210.7 231.1c-8.6-32.8-17-63.9-20.8-77.9-1.621 1.984-2.755 4.319-3.31 6.82-.556 2.501-.518 5.097.11 7.58l15.6 63.8z" fill="#f06ea8"/><path d="m283 147.1c4.113 1.236 7.601 3.991 9.755 7.706 2.155 3.715 2.814 8.11 1.845 12.294l-19.6 83.8-36.8-7.1 23.8-85.1c.598-2.152 1.619-4.164 3.004-5.917 1.384-1.753 3.105-3.213 5.06-4.293 1.956-1.08 4.107-1.759 6.328-1.998s4.468-.032 6.608.608z" fill="#d6569b"/><path d="m243.1 226.5 3.4 6.7s13-57.6 19.1-81.1c-1.659 1.917-2.886 4.168-3.6 6.6z" fill="#f06ea8"/><path d="m269.1 231.5-14.4-.5 14.8-50.6c.211-.724.571-1.396 1.057-1.973.487-.576 1.088-1.044 1.767-1.374.678-.33 1.418-.514 2.172-.54.753-.026 1.504.105 2.204.387 1.238.454 2.268 1.345 2.894 2.506.626 1.16.806 2.51.506 3.794z" fill="#e374b0"/><path d="m288.853 224.765-106.007 4.443c-15.174.636-26.96 13.453-26.324 28.628l.038.909c.636 15.174 13.453 26.96 28.627 26.324l106.007-4.443c15.175-.636 26.961-13.453 26.325-28.627l-.039-.91c-.636-15.174-13.453-26.96-28.627-26.324z" fill="#f06ea8"/><path d="m198 381.3c-6.2-5.8-12.3-11.2-13.6-13.3s.9-2.8 4-3.9 5.9 2.7 9.1 9.2 6.2 13.2.5 8z" fill="#f2c591"/><path d="m310.2 353.5-6 19-.8 2.4-7.4 23.2h-137.6c-1.3-5.1.3-6.1 3.8-11.8s1.7-4.2 2.2-18c.4-9.7 3.9-18.7 16.4-29.9 3.8-3.3 4.7-4.6 8.6-8.2l1.2-1.1.6-.6.8-.6 94-14.8 18.9 31.5z" fill="#f7e5bc"/><path d="m301 353.6c5.8-15.5 6-16.8 8-12.3s3.2 4.2-6.4 16.8-4.1 2.2-1.6-4.5z" fill="#e8c282"/><path d="m304.2 372.5c-.6 9.1-1.4 17.7-2.4 25.6h-101.1c.1-4.1.2-9.2.4-15.4-.017-.668.017-1.337.1-2v-7.7c-.7-18.3-5.9-30.8-20.4-34.6 2.7-2.7 5.5-5.4 8.6-8.2l1.2-1.1 1.4-1.2 94-14.8c7.4 2.7 12.3 4.6 17.9 10.3.6 7.2.9 14.3 1 21.2.1 9.7-.2 19-.7 27.9z" fill="#1f3a70"/><path d="m286 313.1-1.3.2-1.3 1.3c-4.8 20.1-14.9 41.1-14.9 41.1s.5 5.1 7.5-4.8 13-21.6 16-32.6z" fill="#172e5c"/><path d="m202.5 328c18.2 21.9 24.4 26.8 31.1 31.3s1.1-2.2-5.9-12.6-15.2-23.3-15.2-23.3z" fill="#172e5c"/><path d="m303.8 374.7c-.5 8.2-1.2 16-2 23.4h-101.1c.1-4.1.2-9.2.4-15.4-.017-.668.017-1.337.1-2v-7.7c21.8 5.3 50.6 14.8 57.1 17.1l45.1-15.2z" fill="#172e5c"/><path d="m209.7 340.7s-.9 1.8-4.8 4.5-5 3.9-5.4 3c-1.525-3.158-3.734-5.936-6.467-8.133s-5.921-3.757-9.333-4.567c2.6-2.6 5.5-5.3 8.6-8.2 14 6 17.4 13.4 17.4 13.4z" fill="#244ab0"/><path d="m277.7 313.1-19 71.1-48.6-69z" fill="#d4bf9b"/><path d="m268.8 346.4-32.4-8.5c-5.8-1.5-2.9.5 0 4.1s20.2 23.3 25.7 29.6z" fill="#ccac89"/><path d="m220.7 326.6 44.4 5.9c5 .6 5.1-4.8 7.7-15.3l-47.9 3.5z" fill="#cf518a"/><path d="m295.18 273.52-109.1 4.364c-14.359.574-25.534 12.681-24.96 27.04l.002.04c.574 14.359 12.68 25.534 27.04 24.96l109.1-4.364c14.359-.574 25.534-12.681 24.96-27.04l-.002-.04c-.574-14.359-12.681-25.534-27.04-24.96z" fill="#f06ea8"/><path d="m296.9 324.7c14-.6 25.5-11.9 25.5-25.9.046-5.091-1.409-10.082-4.183-14.351-2.775-4.268-6.746-7.625-11.417-9.649 3.517-2.682 6.336-6.174 8.216-10.178s2.766-8.402 2.584-12.822v-.9c-.154-3.612-1.019-7.159-2.546-10.437-1.526-3.278-3.684-6.222-6.35-8.665-2.665-2.443-5.787-4.336-9.185-5.571s-7.007-1.788-10.619-1.627l-94.6 4c-8.5 16.3-7.3 33.8-1 46.4.919 1.907 1.437 3.983 1.523 6.098.086 2.116-.262 4.226-1.023 6.202-9.1 24.2 2.9 41.7 2.9 41.7z" fill="#e05fa3"/><path d="m243.5 398.1h-61.6c0-1.2 0-2.3.1-3.4v-.2c0-.3.1-.6.1-1 .075-.579.209-1.149.4-1.7l.3-1 .6-1.4.8-1.2.6-.8.4-.3c1.615-1.625 3.558-2.886 5.7-3.7 2.823-1.128 5.897-1.473 8.9-1l1.3.3c12 1.9 22.3 3.5 31.1 5.7l1.2.5c1.198.399 2.316 1.008 3.3 1.8l.6.4.6.5c.2.2.4.3.5.5l.6.6c.213.113.387.287.5.5l.6.6 2.6 3.2z" fill="#ff8fb1"/><path d="m220.511 275.678c2.403-1.573 2.537-5.62.299-9.04s-6-4.917-8.403-3.345c-2.403 1.573-2.537 5.62-.299 9.04s6 4.917 8.403 3.345z" fill="#1b1926"/><path d="m267.893 268.21c1.04-3.723-.187-7.32-2.741-8.033-2.553-.713-5.466 1.728-6.505 5.452-1.04 3.723.187 7.32 2.741 8.033 2.553.713 5.466-1.728 6.505-5.452z" fill="#1b1926"/><path d="m173.5 277.9c-5.9-2.2-7.4-2.9-11.5-4.2 2.652 3.652 6.152 6.604 10.2 8.6l-1.2 1c2.725.276 5.462.409 8.2.4 5.7-.2 6.7-1-5.7-5.8z" fill="#e05fa3"/><path d="m175.483 245.639c4.412-4.014 6.723-8.659 5.162-10.375-1.561-1.715-6.403.148-10.815 4.162-4.412 4.015-6.722 8.66-5.161 10.375 1.561 1.716 6.403-.147 10.814-4.162z" fill="#f792c0"/><path d="m168.4 384c8.4-3.4 11.3-4.8 14.1-5.8s.4-2.1-6-4.9-7.9-3.8-8.3 1.7-2.5 10.1.2 9z" fill="#fad596"/><path d="m185 381.1c-14.4 3.9-14.5 5.9-14.9 8.4s0 4.7 5.3.7c4.426-3.293 9.146-6.172 14.1-8.6 2.8-1.2 1.3-2.1-4.5-.5z" fill="#f7d08d"/><path d="m203.6 381c2.7-14.4 2.4-18.3 3.6-18.6s3.5 3.3 5.7 7.8-9.3 10.8-9.3 10.8z" fill="#172e5c"/><path d="m199.8 382.4c-4.6.6-13.4.7-14.4 15.7h-3.5c-.139-2.119.064-4.246.6-6.3l.3-1 .6-1.4.8-1.2.6-.8.4-.3c1.615-1.625 3.558-2.886 5.7-3.7 2.823-1.128 5.897-1.473 8.9-1z" fill="#f278b0"/><path d="m233.7 398.1c2-4.6 2.7-7.6-.3-9.2 1.891.667 3.602 1.762 5 3.2l.6.6c.213.113.387.287.5.5l.6.6 2.6 3.2.8 1.1z" fill="#f278b0"/><path d="m231 287.7c6.6 11.2 16.3 13.8 22.8-.7.077-.13.115-.278.111-.429s-.05-.297-.134-.423c-.083-.125-.201-.224-.338-.286-.138-.062-.29-.083-.439-.062l-21.3.6c-.144.017-.282.068-.402.149-.12.082-.218.191-.287.318-.069.128-.106.27-.108.415s.032.289.097.418z" fill="#751b40"/><path d="m211.5 278c4.6-8.8 13.5-5.1 13.5-5.1l-4.4 9.8z" fill="#e05fa3"/><path d="m256.5 270.8c9.2-3.7 13.6 4.9 13.6 4.9l-9.7 4.6z" fill="#e05fa3"/><path d="m244.3 286.1-12.6.3c-.144.017-.282.068-.402.149-.12.082-.218.191-.287.318-.069.128-.106.27-.108.415s.032.289.097.418c5.7 9.6 13.6 12.9 19.9 4.5-1.563-2.629-3.856-4.748-6.6-6.1z" fill="#9c2455"/><path d="m319.3 335.3s6.5 15.8 8.7 22.1-.9 5.6-4.4 5.1-3.8-5.1-4.3-13.4-2-17.8 0-13.8z" fill="#fad596"/><path d="m326.2 331.1c1 6.8 4.5 13.1 5.2 14.8s5.9.6 10.4-.5 1.7-2.7-3.8-7.3-12.7-12.5-11.8-7z" fill="#fad596"/><path d="m123.6 368-6.7-3c-.1 0-.1-.2 0-.2l6.7-3 3-6.7h.3l3 6.7 6.7 3c.1 0 .1.2 0 .2l-6.7 3-3 6.7h-.3z" fill="#3366e0"/><path d="m338.3 232.9-3.1-1.4c-.1 0-.1-.1 0-.1l3.1-1.4 1.4-3.2h.2l1.4 3.2 3.2 1.4-3.2 1.4-1.4 3.1c-.1.1-.1.1-.2 0l-1.4-3.1z" fill="#fafafa"/><path d="m148.7 193.9-3.2-1.4 3.2-1.4 1.4-3.2h.1l1.4 3.2h.1l3.1 1.4c.1 0 .1.1 0 .1l-3.1 1.4h-.1l-1.4 3.1c0 .1-.1.1-.1 0l-1.4-3.1z" fill="#f7e5bc"/><path d="m442.9 132h-15.6v266.06h15.6z" fill="#783837"/><path d="m83.4 132h-15.6v266.06h15.6z" fill="#783837"/><path d="m442.9 132h-15.6v202.68h15.6z" fill="#571e2f"/><path d="m83.4 132h-15.6v120.95h15.6z" fill="#571e2f"/><path d="m345.3 183.9c3.203 0 5.8-2.597 5.8-5.8s-2.597-5.8-5.8-5.8-5.8 2.597-5.8 5.8 2.597 5.8 5.8 5.8z" fill="#7d2952"/><path d="m312 182.8c3.203 0 5.8-2.597 5.8-5.8s-2.597-5.8-5.8-5.8-5.8 2.597-5.8 5.8 2.597 5.8 5.8 5.8z" fill="#7d2952"/><path d="m43 213.9v11.5c1.5211 0 2.9814-.597 4.0663-1.663 1.0848-1.066 1.7075-2.516 1.7337-4.037 0-1.538-.6111-3.013-1.6988-4.101s-2.5629-1.699-4.1012-1.699z" fill="#7d2952"/><path d="m352.3 208.6c3.203 0 5.8-2.597 5.8-5.8s-2.597-5.8-5.8-5.8-5.8 2.597-5.8 5.8 2.597 5.8 5.8 5.8z" fill="#7d2952"/><path d="m387.6 266.8c3.203 0 5.8-2.597 5.8-5.8s-2.597-5.8-5.8-5.8-5.8 2.597-5.8 5.8 2.597 5.8 5.8 5.8z" fill="#7d2952"/><path d="m408.2 290.3c3.203 0 5.8-2.597 5.8-5.8s-2.597-5.8-5.8-5.8-5.8 2.597-5.8 5.8 2.597 5.8 5.8 5.8z" fill="#7d2952"/><path d="m366.7 235.5c3.203 0 5.8-2.597 5.8-5.8s-2.597-5.8-5.8-5.8-5.8 2.597-5.8 5.8 2.597 5.8 5.8 5.8z" fill="#7d2952"/><path d="m416 318.9h-4v7.85h4z" fill="#5177d6"/><path d="m458.4 344.7h-4v7.85h4z" fill="#5177d6"/><path d="m424 351h-4v7.85h4z" fill="#5177d6"/><path d="m414 372.3h-4v7.85h4z" fill="#5177d6"/><path d="m356.2 376.2h-4v7.85h4z" fill="#5177d6"/><path d="m158.2 330.4h-4v7.85h4z" fill="#5177d6"/><path d="m103.5 376.2h-4v7.85h4z" fill="#5177d6"/><path d="m151.1 280.9h-28.2v3.63h28.2z" fill="#8f80cf"/><path d="m391 372.3h-19v5.49h19z" fill="#8f80cf"/></g></svg>