<svg height="34" viewBox="0 0 124 34" width="124" xmlns="http://www.w3.org/2000/svg"><g fill="#fff"><path d="m18.1558 14.297c-.969 0-1.734.833-1.734 1.87s.782 1.87 1.734 1.87c.969 0 1.734-.833 1.734-1.87s-.782-1.87-1.734-1.87zm-6.205 0c-.969 0-1.734.833-1.734 1.87s.782 1.87 1.734 1.87c.969 0 1.734-.833 1.734-1.87.017-1.037-.765-1.87-1.734-1.87z"/><path d="m26.4178.152954h-22.77997c-1.921 0-3.484998 1.563996-3.484998 3.484996v22.78005c0 1.921 1.563998 3.485 3.484998 3.485h19.27797l-.901-3.111 2.176 2.006 2.057 1.887 3.672 3.179v-30.22605c-.017-1.921-1.581-3.484996-3.502-3.484996zm-6.562 22.015046s-.612-.731-1.122-1.36c2.227-.629 3.077-2.006 3.077-2.006-.697.459-1.36.782-1.955 1.003-.85.357-1.666.578-2.465.731-1.632.306-3.128.221-4.403-.017-.969-.187-1.802-.442-2.499-.731-.391-.153-.81597-.34-1.24097-.578-.051-.034-.102-.051-.153-.085-.034-.017-.051-.034-.068-.034-.306-.17-.476-.289-.476-.289s.816 1.343 2.97497 1.989c-.51.646-1.139 1.394-1.139 1.394-3.75697-.119-5.18497-2.567-5.18497-2.567 0-5.423 2.448-9.82605 2.448-9.82605 2.44797-1.819 4.75997-1.768 4.75997-1.768l.17.204c-3.05997.867-4.45397 2.21005-4.45397 2.21005s.374-.204 1.003-.47605c1.81897-.799 3.26397-1.003 3.85897-1.071.102-.017.187-.034.289-.034 1.037-.136 2.21-.17 3.434-.034 1.615.187 3.349.663 5.117 1.61505 0 0-1.343-1.27505-4.233-2.14205l.238-.272s2.329-.051 4.76 1.768c0 0 2.448 4.40305 2.448 9.82605 0-.017-1.428 2.431-5.185 2.55zm25.67-14.73905h-5.644v6.34105l3.757 3.383v-6.154h2.006c1.275 0 1.904.612 1.904 1.598v4.709c0 .986-.595 1.649-1.904 1.649h-5.78v3.587h5.644c3.026.017 5.865-1.496 5.865-4.964v-5.066c.017-3.53605-2.822-5.08305-5.848-5.08305zm29.58 10.14905v-5.202c0-1.87 3.366-2.295 4.386-.425l3.111-1.258c-1.224-2.68605-3.451-3.46805-5.304-3.46805-3.026 0-6.018 1.751-6.018 5.15105v5.202c0 3.434 2.992 5.151 5.95 5.151 1.904 0 4.182-.935 5.44-3.383l-3.332-1.53c-.816 2.091-4.233 1.581-4.233-.238zm-10.285-4.488c-1.173-.255-1.955-.68-2.006-1.411.068-1.75105 2.771-1.81905 4.352-.136l2.499-1.92105c-1.564-1.904-3.332-2.414-5.151-2.414-2.771 0-5.457 1.564-5.457 4.52205 0 2.873 2.21 4.42 4.641 4.794 1.241.17 2.618.663 2.584 1.513-.102 1.615-3.434 1.53-4.947-.306l-2.414 2.261c1.411 1.819 3.332 2.737 5.134 2.737 2.771 0 5.848-1.598 5.967-4.522.17-3.689-2.516-4.624-5.202-5.117zm-11.39 9.435h3.808v-15.09605h-3.808zm64.2092-15.09605h-5.644v6.34105l3.757 3.383v-6.154h2.006c1.275 0 1.904.612 1.904 1.598v4.709c0 .986-.595 1.649-1.904 1.649h-5.78v3.587h5.661c3.026.017 5.865-1.496 5.865-4.964v-5.066c0-3.53605-2.839-5.08305-5.865-5.08305zm-27.6932-.204c-3.128 0-6.239 1.7-6.239 5.18505v5.151c0 3.451 3.128 5.185 6.273 5.185 3.128 0 6.239-1.734 6.239-5.185v-5.151c0-3.46805-3.145-5.18505-6.273-5.18505zm2.448 10.33605c0 1.088-1.224 1.649-2.431 1.649-1.224 0-2.448-.527-2.448-1.649v-5.151c0-1.105 1.19-1.7 2.38-1.7 1.241 0 2.499.527 2.499 1.7zm17.4932-5.151c-.085-3.53605-2.499-4.96405-5.61-4.96405h-6.0352v15.09605h3.8592v-4.794h.68l3.502 4.794h4.76l-4.114-5.185c1.819-.578 2.958-2.159 2.958-4.947zm-5.542 2.04h-2.244v-3.451h2.244c2.397 0 2.397 3.451 0 3.451z"/></g></svg>